<svg width="526" height="358" viewBox="0 0 526 358" fill="none" xmlns="http://www.w3.org/2000/svg">
<g filter="url(#filter0_f_24_82)">
<rect x="21" y="21" width="484" height="316" rx="30" fill="#E9CACD" fill-opacity="0.74"/>
</g>
<rect x="21" y="12" width="484" height="316" rx="30" fill="white"/>
<circle cx="112" cy="118" r="41" fill="url(#paint0_linear_24_82)"/>
<path d="M193.524 79.872V105H188.484V79.872H193.524ZM197.208 94.956C197.208 92.94 197.604 91.152 198.396 89.592C199.212 88.032 200.316 86.832 201.708 85.992C203.1 85.152 204.648 84.732 206.352 84.732C207.648 84.732 208.884 85.02 210.06 85.596C211.236 86.148 212.172 86.892 212.868 87.828V78.36H217.98V105H212.868V102.048C212.244 103.032 211.368 103.824 210.24 104.424C209.112 105.024 207.804 105.324 206.316 105.324C204.636 105.324 203.1 104.892 201.708 104.028C200.316 103.164 199.212 101.952 198.396 100.392C197.604 98.808 197.208 96.996 197.208 94.956ZM212.904 95.028C212.904 93.804 212.664 92.76 212.184 91.896C211.704 91.008 211.056 90.336 210.24 89.88C209.424 89.4 208.548 89.16 207.612 89.16C206.676 89.16 205.812 89.388 205.02 89.844C204.228 90.3 203.58 90.972 203.076 91.86C202.596 92.724 202.356 93.756 202.356 94.956C202.356 96.156 202.596 97.212 203.076 98.124C203.58 99.012 204.228 99.696 205.02 100.176C205.836 100.656 206.7 100.896 207.612 100.896C208.548 100.896 209.424 100.668 210.24 100.212C211.056 99.732 211.704 99.06 212.184 98.196C212.664 97.308 212.904 96.252 212.904 95.028ZM241.442 94.596C241.442 95.316 241.394 95.964 241.298 96.54H226.718C226.838 97.98 227.342 99.108 228.23 99.924C229.118 100.74 230.21 101.148 231.506 101.148C233.378 101.148 234.71 100.344 235.502 98.736H240.938C240.362 100.656 239.258 102.24 237.626 103.488C235.994 104.712 233.99 105.324 231.614 105.324C229.694 105.324 227.966 104.904 226.43 104.064C224.918 103.2 223.73 101.988 222.866 100.428C222.026 98.868 221.606 97.068 221.606 95.028C221.606 92.964 222.026 91.152 222.866 89.592C223.706 88.032 224.882 86.832 226.394 85.992C227.906 85.152 229.646 84.732 231.614 84.732C233.51 84.732 235.202 85.14 236.69 85.956C238.202 86.772 239.366 87.936 240.182 89.448C241.022 90.936 241.442 92.652 241.442 94.596ZM236.222 93.156C236.198 91.86 235.73 90.828 234.818 90.06C233.906 89.268 232.79 88.872 231.47 88.872C230.222 88.872 229.166 89.256 228.302 90.024C227.462 90.768 226.946 91.812 226.754 93.156H236.222ZM256.173 84.768C258.549 84.768 260.469 85.524 261.933 87.036C263.397 88.524 264.129 90.612 264.129 93.3V105H259.089V93.984C259.089 92.4 258.693 91.188 257.901 90.348C257.109 89.484 256.029 89.052 254.661 89.052C253.269 89.052 252.165 89.484 251.349 90.348C250.557 91.188 250.161 92.4 250.161 93.984V105H245.121V85.056H250.161V87.54C250.833 86.676 251.685 86.004 252.717 85.524C253.773 85.02 254.925 84.768 256.173 84.768ZM274.79 89.196V98.844C274.79 99.516 274.946 100.008 275.258 100.32C275.594 100.608 276.146 100.752 276.914 100.752H279.254V105H276.086C271.838 105 269.714 102.936 269.714 98.808V89.196H267.338V85.056H269.714V80.124H274.79V85.056H279.254V89.196H274.79ZM285.435 82.68C284.547 82.68 283.803 82.404 283.203 81.852C282.627 81.276 282.339 80.568 282.339 79.728C282.339 78.888 282.627 78.192 283.203 77.64C283.803 77.064 284.547 76.776 285.435 76.776C286.323 76.776 287.055 77.064 287.631 77.64C288.231 78.192 288.531 78.888 288.531 79.728C288.531 80.568 288.231 81.276 287.631 81.852C287.055 82.404 286.323 82.68 285.435 82.68ZM287.919 85.056V105H282.879V85.056H287.919ZM302.042 89.196H298.55V105H293.438V89.196H291.17V85.056H293.438V84.048C293.438 81.6 294.134 79.8 295.526 78.648C296.918 77.496 299.018 76.956 301.826 77.028V81.276C300.602 81.252 299.75 81.456 299.27 81.888C298.79 82.32 298.55 83.1 298.55 84.228V85.056H302.042V89.196ZM324.388 85.056L312.04 114.432H306.676L310.996 104.496L303.004 85.056H308.656L313.804 98.988L319.024 85.056H324.388ZM354.511 85.056V105H349.435V102.48C348.787 103.344 347.935 104.028 346.879 104.532C345.847 105.012 344.719 105.252 343.495 105.252C341.935 105.252 340.555 104.928 339.355 104.28C338.155 103.608 337.207 102.636 336.511 101.364C335.839 100.068 335.503 98.532 335.503 96.756V85.056H340.543V96.036C340.543 97.62 340.939 98.844 341.731 99.708C342.523 100.548 343.603 100.968 344.971 100.968C346.363 100.968 347.455 100.548 348.247 99.708C349.039 98.844 349.435 97.62 349.435 96.036V85.056H354.511ZM367.116 105.324C365.484 105.324 364.02 105.036 362.724 104.46C361.428 103.86 360.396 103.056 359.628 102.048C358.884 101.04 358.476 99.924 358.404 98.7H363.48C363.576 99.468 363.948 100.104 364.596 100.608C365.268 101.112 366.096 101.364 367.08 101.364C368.04 101.364 368.784 101.172 369.312 100.788C369.864 100.404 370.14 99.912 370.14 99.312C370.14 98.664 369.804 98.184 369.132 97.872C368.484 97.536 367.44 97.176 366 96.792C364.512 96.432 363.288 96.06 362.328 95.676C361.392 95.292 360.576 94.704 359.88 93.912C359.208 93.12 358.872 92.052 358.872 90.708C358.872 89.604 359.184 88.596 359.808 87.684C360.456 86.772 361.368 86.052 362.544 85.524C363.744 84.996 365.148 84.732 366.756 84.732C369.132 84.732 371.028 85.332 372.444 86.532C373.86 87.708 374.64 89.304 374.784 91.32H369.96C369.888 90.528 369.552 89.904 368.952 89.448C368.376 88.968 367.596 88.728 366.612 88.728C365.7 88.728 364.992 88.896 364.488 89.232C364.008 89.568 363.768 90.036 363.768 90.636C363.768 91.308 364.104 91.824 364.776 92.184C365.448 92.52 366.492 92.868 367.908 93.228C369.348 93.588 370.536 93.96 371.472 94.344C372.408 94.728 373.212 95.328 373.884 96.144C374.58 96.936 374.94 97.992 374.964 99.312C374.964 100.464 374.64 101.496 373.992 102.408C373.368 103.32 372.456 104.04 371.256 104.568C370.08 105.072 368.7 105.324 367.116 105.324ZM397.641 94.596C397.641 95.316 397.593 95.964 397.497 96.54H382.917C383.037 97.98 383.541 99.108 384.429 99.924C385.317 100.74 386.409 101.148 387.705 101.148C389.577 101.148 390.909 100.344 391.701 98.736H397.137C396.561 100.656 395.457 102.24 393.825 103.488C392.193 104.712 390.189 105.324 387.813 105.324C385.893 105.324 384.165 104.904 382.629 104.064C381.117 103.2 379.929 101.988 379.065 100.428C378.225 98.868 377.805 97.068 377.805 95.028C377.805 92.964 378.225 91.152 379.065 89.592C379.905 88.032 381.081 86.832 382.593 85.992C384.105 85.152 385.845 84.732 387.813 84.732C389.709 84.732 391.401 85.14 392.889 85.956C394.401 86.772 395.565 87.936 396.381 89.448C397.221 90.936 397.641 92.652 397.641 94.596ZM392.421 93.156C392.397 91.86 391.929 90.828 391.017 90.06C390.105 89.268 388.989 88.872 387.669 88.872C386.421 88.872 385.365 89.256 384.501 90.024C383.661 90.768 383.145 91.812 382.953 93.156H392.421ZM406.36 88.152C407.008 87.096 407.848 86.268 408.88 85.668C409.936 85.068 411.136 84.768 412.48 84.768V90.06H411.148C409.564 90.06 408.364 90.432 407.548 91.176C406.756 91.92 406.36 93.216 406.36 95.064V105H401.32V85.056H406.36V88.152ZM193.524 135.936C194.172 135.024 195.06 134.268 196.188 133.668C197.34 133.044 198.648 132.732 200.112 132.732C201.816 132.732 203.352 133.152 204.72 133.992C206.112 134.832 207.204 136.032 207.996 137.592C208.812 139.128 209.22 140.916 209.22 142.956C209.22 144.996 208.812 146.808 207.996 148.392C207.204 149.952 206.112 151.164 204.72 152.028C203.352 152.892 201.816 153.324 200.112 153.324C198.648 153.324 197.352 153.024 196.224 152.424C195.12 151.824 194.22 151.068 193.524 150.156V162.504H188.484V133.056H193.524V135.936ZM204.072 142.956C204.072 141.756 203.82 140.724 203.316 139.86C202.836 138.972 202.188 138.3 201.372 137.844C200.58 137.388 199.716 137.16 198.78 137.16C197.868 137.16 197.004 137.4 196.188 137.88C195.396 138.336 194.748 139.008 194.244 139.896C193.764 140.784 193.524 141.828 193.524 143.028C193.524 144.228 193.764 145.272 194.244 146.16C194.748 147.048 195.396 147.732 196.188 148.212C197.004 148.668 197.868 148.896 198.78 148.896C199.716 148.896 200.58 148.656 201.372 148.176C202.188 147.696 202.836 147.012 203.316 146.124C203.82 145.236 204.072 144.18 204.072 142.956ZM217.922 136.152C218.57 135.096 219.41 134.268 220.442 133.668C221.498 133.068 222.698 132.768 224.042 132.768V138.06H222.71C221.126 138.06 219.926 138.432 219.11 139.176C218.318 139.92 217.922 141.216 217.922 143.064V153H212.882V133.056H217.922V136.152ZM236.293 153.324C234.373 153.324 232.645 152.904 231.109 152.064C229.573 151.2 228.361 149.988 227.473 148.428C226.609 146.868 226.177 145.068 226.177 143.028C226.177 140.988 226.621 139.188 227.509 137.628C228.421 136.068 229.657 134.868 231.217 134.028C232.777 133.164 234.517 132.732 236.437 132.732C238.357 132.732 240.097 133.164 241.657 134.028C243.217 134.868 244.441 136.068 245.329 137.628C246.241 139.188 246.697 140.988 246.697 143.028C246.697 145.068 246.229 146.868 245.293 148.428C244.381 149.988 243.133 151.2 241.549 152.064C239.989 152.904 238.237 153.324 236.293 153.324ZM236.293 148.932C237.205 148.932 238.057 148.716 238.849 148.284C239.665 147.828 240.313 147.156 240.793 146.268C241.273 145.38 241.513 144.3 241.513 143.028C241.513 141.132 241.009 139.68 240.001 138.672C239.017 137.64 237.805 137.124 236.365 137.124C234.925 137.124 233.713 137.64 232.729 138.672C231.769 139.68 231.289 141.132 231.289 143.028C231.289 144.924 231.757 146.388 232.693 147.42C233.653 148.428 234.853 148.932 236.293 148.932ZM255.434 135.972C256.082 135.012 256.97 134.232 258.098 133.632C259.25 133.032 260.558 132.732 262.022 132.732C263.726 132.732 265.262 133.152 266.63 133.992C268.022 134.832 269.114 136.032 269.906 137.592C270.722 139.128 271.13 140.916 271.13 142.956C271.13 144.996 270.722 146.808 269.906 148.392C269.114 149.952 268.022 151.164 266.63 152.028C265.262 152.892 263.726 153.324 262.022 153.324C260.534 153.324 259.226 153.036 258.098 152.46C256.994 151.86 256.106 151.092 255.434 150.156V153H250.394V126.36H255.434V135.972ZM265.982 142.956C265.982 141.756 265.73 140.724 265.226 139.86C264.746 138.972 264.098 138.3 263.282 137.844C262.49 137.388 261.626 137.16 260.69 137.16C259.778 137.16 258.914 137.4 258.098 137.88C257.306 138.336 256.658 139.008 256.154 139.896C255.674 140.784 255.434 141.828 255.434 143.028C255.434 144.228 255.674 145.272 256.154 146.16C256.658 147.048 257.306 147.732 258.098 148.212C258.914 148.668 259.778 148.896 260.69 148.896C261.626 148.896 262.49 148.656 263.282 148.176C264.098 147.696 264.746 147.012 265.226 146.124C265.73 145.236 265.982 144.18 265.982 142.956ZM279.833 126.36V153H274.793V126.36H279.833ZM303.352 142.596C303.352 143.316 303.304 143.964 303.208 144.54H288.628C288.748 145.98 289.252 147.108 290.14 147.924C291.028 148.74 292.12 149.148 293.416 149.148C295.288 149.148 296.62 148.344 297.412 146.736H302.848C302.272 148.656 301.168 150.24 299.536 151.488C297.904 152.712 295.9 153.324 293.524 153.324C291.604 153.324 289.876 152.904 288.34 152.064C286.828 151.2 285.64 149.988 284.776 148.428C283.936 146.868 283.516 145.068 283.516 143.028C283.516 140.964 283.936 139.152 284.776 137.592C285.616 136.032 286.792 134.832 288.304 133.992C289.816 133.152 291.556 132.732 293.524 132.732C295.42 132.732 297.112 133.14 298.6 133.956C300.112 134.772 301.276 135.936 302.092 137.448C302.932 138.936 303.352 140.652 303.352 142.596ZM298.132 141.156C298.108 139.86 297.64 138.828 296.728 138.06C295.816 137.268 294.7 136.872 293.38 136.872C292.132 136.872 291.076 137.256 290.212 138.024C289.372 138.768 288.856 139.812 288.664 141.156H298.132ZM331.799 132.768C334.247 132.768 336.215 133.524 337.703 135.036C339.215 136.524 339.971 138.612 339.971 141.3V153H334.931V141.984C334.931 140.424 334.535 139.236 333.743 138.42C332.951 137.58 331.871 137.16 330.503 137.16C329.135 137.16 328.043 137.58 327.227 138.42C326.435 139.236 326.039 140.424 326.039 141.984V153H320.999V141.984C320.999 140.424 320.603 139.236 319.811 138.42C319.019 137.58 317.939 137.16 316.571 137.16C315.179 137.16 314.075 137.58 313.259 138.42C312.467 139.236 312.071 140.424 312.071 141.984V153H307.031V133.056H312.071V135.468C312.719 134.628 313.547 133.968 314.555 133.488C315.587 133.008 316.715 132.768 317.939 132.768C319.499 132.768 320.891 133.104 322.115 133.776C323.339 134.424 324.287 135.36 324.959 136.584C325.607 135.432 326.543 134.508 327.767 133.812C329.015 133.116 330.359 132.768 331.799 132.768ZM352.386 153.324C350.754 153.324 349.29 153.036 347.994 152.46C346.698 151.86 345.666 151.056 344.898 150.048C344.154 149.04 343.746 147.924 343.674 146.7H348.75C348.846 147.468 349.218 148.104 349.866 148.608C350.538 149.112 351.366 149.364 352.35 149.364C353.31 149.364 354.054 149.172 354.582 148.788C355.134 148.404 355.41 147.912 355.41 147.312C355.41 146.664 355.074 146.184 354.402 145.872C353.754 145.536 352.71 145.176 351.27 144.792C349.782 144.432 348.558 144.06 347.598 143.676C346.662 143.292 345.846 142.704 345.15 141.912C344.478 141.12 344.142 140.052 344.142 138.708C344.142 137.604 344.454 136.596 345.078 135.684C345.726 134.772 346.638 134.052 347.814 133.524C349.014 132.996 350.418 132.732 352.026 132.732C354.402 132.732 356.298 133.332 357.714 134.532C359.13 135.708 359.91 137.304 360.054 139.32H355.23C355.158 138.528 354.822 137.904 354.222 137.448C353.646 136.968 352.866 136.728 351.882 136.728C350.97 136.728 350.262 136.896 349.758 137.232C349.278 137.568 349.038 138.036 349.038 138.636C349.038 139.308 349.374 139.824 350.046 140.184C350.718 140.52 351.762 140.868 353.178 141.228C354.618 141.588 355.806 141.96 356.742 142.344C357.678 142.728 358.482 143.328 359.154 144.144C359.85 144.936 360.21 145.992 360.234 147.312C360.234 148.464 359.91 149.496 359.262 150.408C358.638 151.32 357.726 152.04 356.526 152.568C355.35 153.072 353.97 153.324 352.386 153.324Z" fill="black"/>
<path d="M95.347 116.788C95.347 112.405 96.1323 108.973 97.703 106.49C99.299 104.007 101.934 102.766 105.607 102.766C109.28 102.766 111.902 104.007 113.473 106.49C115.069 108.973 115.867 112.405 115.867 116.788C115.867 121.196 115.069 124.654 113.473 127.162C111.902 129.67 109.28 130.924 105.607 130.924C101.934 130.924 99.299 129.67 97.703 127.162C96.1323 124.654 95.347 121.196 95.347 116.788ZM110.623 116.788C110.623 114.913 110.496 113.343 110.243 112.076C110.015 110.784 109.534 109.733 108.799 108.922C108.09 108.111 107.026 107.706 105.607 107.706C104.188 107.706 103.112 108.111 102.377 108.922C101.668 109.733 101.186 110.784 100.933 112.076C100.705 113.343 100.591 114.913 100.591 116.788C100.591 118.713 100.705 120.335 100.933 121.652C101.161 122.944 101.642 123.995 102.377 124.806C103.112 125.591 104.188 125.984 105.607 125.984C107.026 125.984 108.102 125.591 108.837 124.806C109.572 123.995 110.053 122.944 110.281 121.652C110.509 120.335 110.623 118.713 110.623 116.788ZM119.267 108.2V103.298H128.425V131H122.953V108.2H119.267Z" fill="#FAEDED"/>
<path d="M84.481 201.202C83.869 201.202 83.347 200.992 82.915 200.572C82.495 200.14 82.285 199.618 82.285 199.006C82.285 198.382 82.495 197.86 82.915 197.44C83.347 197.008 83.869 196.792 84.481 196.792C85.105 196.792 85.633 197.008 86.065 197.44C86.497 197.86 86.713 198.382 86.713 199.006C86.713 199.618 86.497 200.14 86.065 200.572C85.633 200.992 85.105 201.202 84.481 201.202ZM103.364 205.126C102.536 205.126 101.792 204.982 101.132 204.694C100.484 204.394 99.974 203.986 99.602 203.47C99.23 202.942 99.038 202.336 99.026 201.652H100.772C100.832 202.24 101.072 202.738 101.492 203.146C101.924 203.542 102.548 203.74 103.364 203.74C104.144 203.74 104.756 203.548 105.2 203.164C105.656 202.768 105.884 202.264 105.884 201.652C105.884 201.172 105.752 200.782 105.488 200.482C105.224 200.182 104.894 199.954 104.498 199.798C104.102 199.642 103.568 199.474 102.896 199.294C102.068 199.078 101.402 198.862 100.898 198.646C100.406 198.43 99.98 198.094 99.62 197.638C99.272 197.17 99.098 196.546 99.098 195.766C99.098 195.082 99.272 194.476 99.62 193.948C99.968 193.42 100.454 193.012 101.078 192.724C101.714 192.436 102.44 192.292 103.256 192.292C104.432 192.292 105.392 192.586 106.136 193.174C106.892 193.762 107.318 194.542 107.414 195.514H105.614C105.554 195.034 105.302 194.614 104.858 194.254C104.414 193.882 103.826 193.696 103.094 193.696C102.41 193.696 101.852 193.876 101.42 194.236C100.988 194.584 100.772 195.076 100.772 195.712C100.772 196.168 100.898 196.54 101.15 196.828C101.414 197.116 101.732 197.338 102.104 197.494C102.488 197.638 103.022 197.806 103.706 197.998C104.534 198.226 105.2 198.454 105.704 198.682C106.208 198.898 106.64 199.24 107 199.708C107.36 200.164 107.54 200.788 107.54 201.58C107.54 202.192 107.378 202.768 107.054 203.308C106.73 203.848 106.25 204.286 105.614 204.622C104.978 204.958 104.228 205.126 103.364 205.126ZM109.338 200.032C109.338 199.024 109.542 198.142 109.95 197.386C110.358 196.618 110.916 196.024 111.624 195.604C112.344 195.184 113.142 194.974 114.018 194.974C114.882 194.974 115.632 195.16 116.268 195.532C116.904 195.904 117.378 196.372 117.69 196.936V195.136H119.346V205H117.69V203.164C117.366 203.74 116.88 204.22 116.232 204.604C115.596 204.976 114.852 205.162 114 205.162C113.124 205.162 112.332 204.946 111.624 204.514C110.916 204.082 110.358 203.476 109.95 202.696C109.542 201.916 109.338 201.028 109.338 200.032ZM117.69 200.05C117.69 199.306 117.54 198.658 117.24 198.106C116.94 197.554 116.532 197.134 116.016 196.846C115.512 196.546 114.954 196.396 114.342 196.396C113.73 196.396 113.172 196.54 112.668 196.828C112.164 197.116 111.762 197.536 111.462 198.088C111.162 198.64 111.012 199.288 111.012 200.032C111.012 200.788 111.162 201.448 111.462 202.012C111.762 202.564 112.164 202.99 112.668 203.29C113.172 203.578 113.73 203.722 114.342 203.722C114.954 203.722 115.512 203.578 116.016 203.29C116.532 202.99 116.94 202.564 117.24 202.012C117.54 201.448 117.69 200.794 117.69 200.05ZM123.753 191.68V205H122.115V191.68H123.753ZM135.544 199.69C135.544 200.002 135.526 200.332 135.49 200.68H127.606C127.666 201.652 127.996 202.414 128.596 202.966C129.208 203.506 129.946 203.776 130.81 203.776C131.518 203.776 132.106 203.614 132.574 203.29C133.054 202.954 133.39 202.51 133.582 201.958H135.346C135.082 202.906 134.554 203.68 133.762 204.28C132.97 204.868 131.986 205.162 130.81 205.162C129.874 205.162 129.034 204.952 128.29 204.532C127.558 204.112 126.982 203.518 126.562 202.75C126.142 201.97 125.932 201.07 125.932 200.05C125.932 199.03 126.136 198.136 126.544 197.368C126.952 196.6 127.522 196.012 128.254 195.604C128.998 195.184 129.85 194.974 130.81 194.974C131.746 194.974 132.574 195.178 133.294 195.586C134.014 195.994 134.566 196.558 134.95 197.278C135.346 197.986 135.544 198.79 135.544 199.69ZM133.852 199.348C133.852 198.724 133.714 198.19 133.438 197.746C133.162 197.29 132.784 196.948 132.304 196.72C131.836 196.48 131.314 196.36 130.738 196.36C129.91 196.36 129.202 196.624 128.614 197.152C128.038 197.68 127.708 198.412 127.624 199.348H133.852ZM141.198 205.162C140.442 205.162 139.764 205.036 139.164 204.784C138.564 204.52 138.09 204.16 137.742 203.704C137.394 203.236 137.202 202.702 137.166 202.102H138.858C138.906 202.594 139.134 202.996 139.542 203.308C139.962 203.62 140.508 203.776 141.18 203.776C141.804 203.776 142.296 203.638 142.656 203.362C143.016 203.086 143.196 202.738 143.196 202.318C143.196 201.886 143.004 201.568 142.62 201.364C142.236 201.148 141.642 200.938 140.838 200.734C140.106 200.542 139.506 200.35 139.038 200.158C138.582 199.954 138.186 199.66 137.85 199.276C137.526 198.88 137.364 198.364 137.364 197.728C137.364 197.224 137.514 196.762 137.814 196.342C138.114 195.922 138.54 195.592 139.092 195.352C139.644 195.1 140.274 194.974 140.982 194.974C142.074 194.974 142.956 195.25 143.628 195.802C144.3 196.354 144.66 197.11 144.708 198.07H143.07C143.034 197.554 142.824 197.14 142.44 196.828C142.068 196.516 141.564 196.36 140.928 196.36C140.34 196.36 139.872 196.486 139.524 196.738C139.176 196.99 139.002 197.32 139.002 197.728C139.002 198.052 139.104 198.322 139.308 198.538C139.524 198.742 139.788 198.91 140.1 199.042C140.424 199.162 140.868 199.3 141.432 199.456C142.14 199.648 142.716 199.84 143.16 200.032C143.604 200.212 143.982 200.488 144.294 200.86C144.618 201.232 144.786 201.718 144.798 202.318C144.798 202.858 144.648 203.344 144.348 203.776C144.048 204.208 143.622 204.55 143.07 204.802C142.53 205.042 141.906 205.162 141.198 205.162ZM151.297 200.032C151.297 199.024 151.501 198.142 151.909 197.386C152.317 196.618 152.875 196.024 153.583 195.604C154.303 195.184 155.101 194.974 155.977 194.974C156.841 194.974 157.591 195.16 158.227 195.532C158.863 195.904 159.337 196.372 159.649 196.936V195.136H161.305V205H159.649V203.164C159.325 203.74 158.839 204.22 158.191 204.604C157.555 204.976 156.811 205.162 155.959 205.162C155.083 205.162 154.291 204.946 153.583 204.514C152.875 204.082 152.317 203.476 151.909 202.696C151.501 201.916 151.297 201.028 151.297 200.032ZM159.649 200.05C159.649 199.306 159.499 198.658 159.199 198.106C158.899 197.554 158.491 197.134 157.975 196.846C157.471 196.546 156.913 196.396 156.301 196.396C155.689 196.396 155.131 196.54 154.627 196.828C154.123 197.116 153.721 197.536 153.421 198.088C153.121 198.64 152.971 199.288 152.971 200.032C152.971 200.788 153.121 201.448 153.421 202.012C153.721 202.564 154.123 202.99 154.627 203.29C155.131 203.578 155.689 203.722 156.301 203.722C156.913 203.722 157.471 203.578 157.975 203.29C158.491 202.99 158.899 202.564 159.199 202.012C159.499 201.448 159.649 200.794 159.649 200.05ZM168.88 194.956C170.08 194.956 171.052 195.322 171.796 196.054C172.54 196.774 172.912 197.818 172.912 199.186V205H171.292V199.42C171.292 198.436 171.046 197.686 170.554 197.17C170.062 196.642 169.39 196.378 168.538 196.378C167.674 196.378 166.984 196.648 166.468 197.188C165.964 197.728 165.712 198.514 165.712 199.546V205H164.074V195.136H165.712V196.54C166.036 196.036 166.474 195.646 167.026 195.37C167.59 195.094 168.208 194.956 168.88 194.956ZM174.975 200.032C174.975 199.024 175.179 198.142 175.587 197.386C175.995 196.618 176.553 196.024 177.261 195.604C177.981 195.184 178.779 194.974 179.655 194.974C180.519 194.974 181.269 195.16 181.905 195.532C182.541 195.904 183.015 196.372 183.327 196.936V195.136H184.983V205H183.327V203.164C183.003 203.74 182.517 204.22 181.869 204.604C181.233 204.976 180.489 205.162 179.637 205.162C178.761 205.162 177.969 204.946 177.261 204.514C176.553 204.082 175.995 203.476 175.587 202.696C175.179 201.916 174.975 201.028 174.975 200.032ZM183.327 200.05C183.327 199.306 183.177 198.658 182.877 198.106C182.577 197.554 182.169 197.134 181.653 196.846C181.149 196.546 180.591 196.396 179.979 196.396C179.367 196.396 178.809 196.54 178.305 196.828C177.801 197.116 177.399 197.536 177.099 198.088C176.799 198.64 176.649 199.288 176.649 200.032C176.649 200.788 176.799 201.448 177.099 202.012C177.399 202.564 177.801 202.99 178.305 203.29C178.809 203.578 179.367 203.722 179.979 203.722C180.591 203.722 181.149 203.578 181.653 203.29C182.169 202.99 182.577 202.564 182.877 202.012C183.177 201.448 183.327 200.794 183.327 200.05ZM189.389 191.68V205H187.751V191.68H189.389ZM200.677 195.136L194.737 209.644H193.045L194.989 204.892L191.011 195.136H192.829L195.925 203.128L198.985 195.136H200.677ZM205.816 205.162C205.06 205.162 204.382 205.036 203.782 204.784C203.182 204.52 202.708 204.16 202.36 203.704C202.012 203.236 201.82 202.702 201.784 202.102H203.476C203.524 202.594 203.752 202.996 204.16 203.308C204.58 203.62 205.126 203.776 205.798 203.776C206.422 203.776 206.914 203.638 207.274 203.362C207.634 203.086 207.814 202.738 207.814 202.318C207.814 201.886 207.622 201.568 207.238 201.364C206.854 201.148 206.26 200.938 205.456 200.734C204.724 200.542 204.124 200.35 203.656 200.158C203.2 199.954 202.804 199.66 202.468 199.276C202.144 198.88 201.982 198.364 201.982 197.728C201.982 197.224 202.132 196.762 202.432 196.342C202.732 195.922 203.158 195.592 203.71 195.352C204.262 195.1 204.892 194.974 205.6 194.974C206.692 194.974 207.574 195.25 208.246 195.802C208.918 196.354 209.278 197.11 209.326 198.07H207.688C207.652 197.554 207.442 197.14 207.058 196.828C206.686 196.516 206.182 196.36 205.546 196.36C204.958 196.36 204.49 196.486 204.142 196.738C203.794 196.99 203.62 197.32 203.62 197.728C203.62 198.052 203.722 198.322 203.926 198.538C204.142 198.742 204.406 198.91 204.718 199.042C205.042 199.162 205.486 199.3 206.05 199.456C206.758 199.648 207.334 199.84 207.778 200.032C208.222 200.212 208.6 200.488 208.912 200.86C209.236 201.232 209.404 201.718 209.416 202.318C209.416 202.858 209.266 203.344 208.966 203.776C208.666 204.208 208.24 204.55 207.688 204.802C207.148 205.042 206.524 205.162 205.816 205.162ZM212.574 193.534C212.262 193.534 211.998 193.426 211.782 193.21C211.566 192.994 211.458 192.73 211.458 192.418C211.458 192.106 211.566 191.842 211.782 191.626C211.998 191.41 212.262 191.302 212.574 191.302C212.874 191.302 213.126 191.41 213.33 191.626C213.546 191.842 213.654 192.106 213.654 192.418C213.654 192.73 213.546 192.994 213.33 193.21C213.126 193.426 212.874 193.534 212.574 193.534ZM213.366 195.136V205H211.728V195.136H213.366ZM219.649 205.162C218.893 205.162 218.215 205.036 217.615 204.784C217.015 204.52 216.541 204.16 216.193 203.704C215.845 203.236 215.653 202.702 215.617 202.102H217.309C217.357 202.594 217.585 202.996 217.993 203.308C218.413 203.62 218.959 203.776 219.631 203.776C220.255 203.776 220.747 203.638 221.107 203.362C221.467 203.086 221.647 202.738 221.647 202.318C221.647 201.886 221.455 201.568 221.071 201.364C220.687 201.148 220.093 200.938 219.289 200.734C218.557 200.542 217.957 200.35 217.489 200.158C217.033 199.954 216.637 199.66 216.301 199.276C215.977 198.88 215.815 198.364 215.815 197.728C215.815 197.224 215.965 196.762 216.265 196.342C216.565 195.922 216.991 195.592 217.543 195.352C218.095 195.1 218.725 194.974 219.433 194.974C220.525 194.974 221.407 195.25 222.079 195.802C222.751 196.354 223.111 197.11 223.159 198.07H221.521C221.485 197.554 221.275 197.14 220.891 196.828C220.519 196.516 220.015 196.36 219.379 196.36C218.791 196.36 218.323 196.486 217.975 196.738C217.627 196.99 217.453 197.32 217.453 197.728C217.453 198.052 217.555 198.322 217.759 198.538C217.975 198.742 218.239 198.91 218.551 199.042C218.875 199.162 219.319 199.3 219.883 199.456C220.591 199.648 221.167 199.84 221.611 200.032C222.055 200.212 222.433 200.488 222.745 200.86C223.069 201.232 223.237 201.718 223.249 202.318C223.249 202.858 223.099 203.344 222.799 203.776C222.499 204.208 222.073 204.55 221.521 204.802C220.981 205.042 220.357 205.162 219.649 205.162ZM227.254 202.732L225.238 207.574H224.14L225.454 202.732H227.254ZM233.317 200.05C233.317 199.03 233.521 198.142 233.929 197.386C234.337 196.618 234.901 196.024 235.621 195.604C236.353 195.184 237.187 194.974 238.123 194.974C239.335 194.974 240.331 195.268 241.111 195.856C241.903 196.444 242.425 197.26 242.677 198.304H240.913C240.745 197.704 240.415 197.23 239.923 196.882C239.443 196.534 238.843 196.36 238.123 196.36C237.187 196.36 236.431 196.684 235.855 197.332C235.279 197.968 234.991 198.874 234.991 200.05C234.991 201.238 235.279 202.156 235.855 202.804C236.431 203.452 237.187 203.776 238.123 203.776C238.843 203.776 239.443 203.608 239.923 203.272C240.403 202.936 240.733 202.456 240.913 201.832H242.677C242.413 202.84 241.885 203.65 241.093 204.262C240.301 204.862 239.311 205.162 238.123 205.162C237.187 205.162 236.353 204.952 235.621 204.532C234.901 204.112 234.337 203.518 233.929 202.75C233.521 201.982 233.317 201.082 233.317 200.05ZM253.611 195.136V205H251.973V203.542C251.661 204.046 251.223 204.442 250.659 204.73C250.107 205.006 249.495 205.144 248.823 205.144C248.055 205.144 247.365 204.988 246.753 204.676C246.141 204.352 245.655 203.872 245.295 203.236C244.947 202.6 244.773 201.826 244.773 200.914V195.136H246.393V200.698C246.393 201.67 246.639 202.42 247.131 202.948C247.623 203.464 248.295 203.722 249.147 203.722C250.023 203.722 250.713 203.452 251.217 202.912C251.721 202.372 251.973 201.586 251.973 200.554V195.136H253.611ZM259.868 205.162C259.112 205.162 258.434 205.036 257.834 204.784C257.234 204.52 256.76 204.16 256.412 203.704C256.064 203.236 255.872 202.702 255.836 202.102H257.528C257.576 202.594 257.804 202.996 258.212 203.308C258.632 203.62 259.178 203.776 259.85 203.776C260.474 203.776 260.966 203.638 261.326 203.362C261.686 203.086 261.866 202.738 261.866 202.318C261.866 201.886 261.674 201.568 261.29 201.364C260.906 201.148 260.312 200.938 259.508 200.734C258.776 200.542 258.176 200.35 257.708 200.158C257.252 199.954 256.856 199.66 256.52 199.276C256.196 198.88 256.034 198.364 256.034 197.728C256.034 197.224 256.184 196.762 256.484 196.342C256.784 195.922 257.21 195.592 257.762 195.352C258.314 195.1 258.944 194.974 259.652 194.974C260.744 194.974 261.626 195.25 262.298 195.802C262.97 196.354 263.33 197.11 263.378 198.07H261.74C261.704 197.554 261.494 197.14 261.11 196.828C260.738 196.516 260.234 196.36 259.598 196.36C259.01 196.36 258.542 196.486 258.194 196.738C257.846 196.99 257.672 197.32 257.672 197.728C257.672 198.052 257.774 198.322 257.978 198.538C258.194 198.742 258.458 198.91 258.77 199.042C259.094 199.162 259.538 199.3 260.102 199.456C260.81 199.648 261.386 199.84 261.83 200.032C262.274 200.212 262.652 200.488 262.964 200.86C263.288 201.232 263.456 201.718 263.468 202.318C263.468 202.858 263.318 203.344 263.018 203.776C262.718 204.208 262.292 204.55 261.74 204.802C261.2 205.042 260.576 205.162 259.868 205.162ZM267.779 196.486V202.3C267.779 202.78 267.881 203.122 268.085 203.326C268.289 203.518 268.643 203.614 269.147 203.614H270.353V205H268.877C267.965 205 267.281 204.79 266.825 204.37C266.369 203.95 266.141 203.26 266.141 202.3V196.486H264.863V195.136H266.141V192.652H267.779V195.136H270.353V196.486H267.779ZM276.639 205.162C275.715 205.162 274.875 204.952 274.119 204.532C273.375 204.112 272.787 203.518 272.355 202.75C271.935 201.97 271.725 201.07 271.725 200.05C271.725 199.042 271.941 198.154 272.373 197.386C272.817 196.606 273.417 196.012 274.173 195.604C274.929 195.184 275.775 194.974 276.711 194.974C277.647 194.974 278.493 195.184 279.249 195.604C280.005 196.012 280.599 196.6 281.031 197.368C281.475 198.136 281.697 199.03 281.697 200.05C281.697 201.07 281.469 201.97 281.013 202.75C280.569 203.518 279.963 204.112 279.195 204.532C278.427 204.952 277.575 205.162 276.639 205.162ZM276.639 203.722C277.227 203.722 277.779 203.584 278.295 203.308C278.811 203.032 279.225 202.618 279.537 202.066C279.861 201.514 280.023 200.842 280.023 200.05C280.023 199.258 279.867 198.586 279.555 198.034C279.243 197.482 278.835 197.074 278.331 196.81C277.827 196.534 277.281 196.396 276.693 196.396C276.093 196.396 275.541 196.534 275.037 196.81C274.545 197.074 274.149 197.482 273.849 198.034C273.549 198.586 273.399 199.258 273.399 200.05C273.399 200.854 273.543 201.532 273.831 202.084C274.131 202.636 274.527 203.05 275.019 203.326C275.511 203.59 276.051 203.722 276.639 203.722ZM295.713 194.956C296.481 194.956 297.165 195.118 297.765 195.442C298.365 195.754 298.839 196.228 299.187 196.864C299.535 197.5 299.709 198.274 299.709 199.186V205H298.089V199.42C298.089 198.436 297.843 197.686 297.351 197.17C296.871 196.642 296.217 196.378 295.389 196.378C294.537 196.378 293.859 196.654 293.355 197.206C292.851 197.746 292.599 198.532 292.599 199.564V205H290.979V199.42C290.979 198.436 290.733 197.686 290.241 197.17C289.761 196.642 289.107 196.378 288.279 196.378C287.427 196.378 286.749 196.654 286.245 197.206C285.741 197.746 285.489 198.532 285.489 199.564V205H283.851V195.136H285.489V196.558C285.813 196.042 286.245 195.646 286.785 195.37C287.337 195.094 287.943 194.956 288.603 194.956C289.431 194.956 290.163 195.142 290.799 195.514C291.435 195.886 291.909 196.432 292.221 197.152C292.497 196.456 292.953 195.916 293.589 195.532C294.225 195.148 294.933 194.956 295.713 194.956ZM311.396 199.69C311.396 200.002 311.378 200.332 311.342 200.68H303.458C303.518 201.652 303.848 202.414 304.448 202.966C305.06 203.506 305.798 203.776 306.662 203.776C307.37 203.776 307.958 203.614 308.426 203.29C308.906 202.954 309.242 202.51 309.434 201.958H311.198C310.934 202.906 310.406 203.68 309.614 204.28C308.822 204.868 307.838 205.162 306.662 205.162C305.726 205.162 304.886 204.952 304.142 204.532C303.41 204.112 302.834 203.518 302.414 202.75C301.994 201.97 301.784 201.07 301.784 200.05C301.784 199.03 301.988 198.136 302.396 197.368C302.804 196.6 303.374 196.012 304.106 195.604C304.85 195.184 305.702 194.974 306.662 194.974C307.598 194.974 308.426 195.178 309.146 195.586C309.866 195.994 310.418 196.558 310.802 197.278C311.198 197.986 311.396 198.79 311.396 199.69ZM309.704 199.348C309.704 198.724 309.566 198.19 309.29 197.746C309.014 197.29 308.636 196.948 308.156 196.72C307.688 196.48 307.166 196.36 306.59 196.36C305.762 196.36 305.054 196.624 304.466 197.152C303.89 197.68 303.56 198.412 303.476 199.348H309.704ZM315.196 196.738C315.484 196.174 315.892 195.736 316.42 195.424C316.96 195.112 317.614 194.956 318.382 194.956V196.648H317.95C316.114 196.648 315.196 197.644 315.196 199.636V205H313.558V195.136H315.196V196.738ZM328.564 205.162C327.808 205.162 327.13 205.036 326.53 204.784C325.93 204.52 325.456 204.16 325.108 203.704C324.76 203.236 324.568 202.702 324.532 202.102H326.224C326.272 202.594 326.5 202.996 326.908 203.308C327.328 203.62 327.874 203.776 328.546 203.776C329.17 203.776 329.662 203.638 330.022 203.362C330.382 203.086 330.562 202.738 330.562 202.318C330.562 201.886 330.37 201.568 329.986 201.364C329.602 201.148 329.008 200.938 328.204 200.734C327.472 200.542 326.872 200.35 326.404 200.158C325.948 199.954 325.552 199.66 325.216 199.276C324.892 198.88 324.73 198.364 324.73 197.728C324.73 197.224 324.88 196.762 325.18 196.342C325.48 195.922 325.906 195.592 326.458 195.352C327.01 195.1 327.64 194.974 328.348 194.974C329.44 194.974 330.322 195.25 330.994 195.802C331.666 196.354 332.026 197.11 332.074 198.07H330.436C330.4 197.554 330.19 197.14 329.806 196.828C329.434 196.516 328.93 196.36 328.294 196.36C327.706 196.36 327.238 196.486 326.89 196.738C326.542 196.99 326.368 197.32 326.368 197.728C326.368 198.052 326.47 198.322 326.674 198.538C326.89 198.742 327.154 198.91 327.466 199.042C327.79 199.162 328.234 199.3 328.798 199.456C329.506 199.648 330.082 199.84 330.526 200.032C330.97 200.212 331.348 200.488 331.66 200.86C331.984 201.232 332.152 201.718 332.164 202.318C332.164 202.858 332.014 203.344 331.714 203.776C331.414 204.208 330.988 204.55 330.436 204.802C329.896 205.042 329.272 205.162 328.564 205.162ZM343.476 199.69C343.476 200.002 343.458 200.332 343.422 200.68H335.538C335.598 201.652 335.928 202.414 336.528 202.966C337.14 203.506 337.878 203.776 338.742 203.776C339.45 203.776 340.038 203.614 340.506 203.29C340.986 202.954 341.322 202.51 341.514 201.958H343.278C343.014 202.906 342.486 203.68 341.694 204.28C340.902 204.868 339.918 205.162 338.742 205.162C337.806 205.162 336.966 204.952 336.222 204.532C335.49 204.112 334.914 203.518 334.494 202.75C334.074 201.97 333.864 201.07 333.864 200.05C333.864 199.03 334.068 198.136 334.476 197.368C334.884 196.6 335.454 196.012 336.186 195.604C336.93 195.184 337.782 194.974 338.742 194.974C339.678 194.974 340.506 195.178 341.226 195.586C341.946 195.994 342.498 196.558 342.882 197.278C343.278 197.986 343.476 198.79 343.476 199.69ZM341.784 199.348C341.784 198.724 341.646 198.19 341.37 197.746C341.094 197.29 340.716 196.948 340.236 196.72C339.768 196.48 339.246 196.36 338.67 196.36C337.842 196.36 337.134 196.624 336.546 197.152C335.97 197.68 335.64 198.412 335.556 199.348H341.784ZM349.706 194.974C350.558 194.974 351.302 195.16 351.938 195.532C352.586 195.904 353.066 196.372 353.378 196.936V195.136H355.034V205.216C355.034 206.116 354.842 206.914 354.458 207.61C354.074 208.318 353.522 208.87 352.802 209.266C352.094 209.662 351.266 209.86 350.318 209.86C349.022 209.86 347.942 209.554 347.078 208.942C346.214 208.33 345.704 207.496 345.548 206.44H347.168C347.348 207.04 347.72 207.52 348.284 207.88C348.848 208.252 349.526 208.438 350.318 208.438C351.218 208.438 351.95 208.156 352.514 207.592C353.09 207.028 353.378 206.236 353.378 205.216V203.146C353.054 203.722 352.574 204.202 351.938 204.586C351.302 204.97 350.558 205.162 349.706 205.162C348.83 205.162 348.032 204.946 347.312 204.514C346.604 204.082 346.046 203.476 345.638 202.696C345.23 201.916 345.026 201.028 345.026 200.032C345.026 199.024 345.23 198.142 345.638 197.386C346.046 196.618 346.604 196.024 347.312 195.604C348.032 195.184 348.83 194.974 349.706 194.974ZM353.378 200.05C353.378 199.306 353.228 198.658 352.928 198.106C352.628 197.554 352.22 197.134 351.704 196.846C351.2 196.546 350.642 196.396 350.03 196.396C349.418 196.396 348.86 196.54 348.356 196.828C347.852 197.116 347.45 197.536 347.15 198.088C346.85 198.64 346.7 199.288 346.7 200.032C346.7 200.788 346.85 201.448 347.15 202.012C347.45 202.564 347.852 202.99 348.356 203.29C348.86 203.578 349.418 203.722 350.03 203.722C350.642 203.722 351.2 203.578 351.704 203.29C352.22 202.99 352.628 202.564 352.928 202.012C353.228 201.448 353.378 200.794 353.378 200.05ZM369.664 194.956C370.432 194.956 371.116 195.118 371.716 195.442C372.316 195.754 372.79 196.228 373.138 196.864C373.486 197.5 373.66 198.274 373.66 199.186V205H372.04V199.42C372.04 198.436 371.794 197.686 371.302 197.17C370.822 196.642 370.168 196.378 369.34 196.378C368.488 196.378 367.81 196.654 367.306 197.206C366.802 197.746 366.55 198.532 366.55 199.564V205H364.93V199.42C364.93 198.436 364.684 197.686 364.192 197.17C363.712 196.642 363.058 196.378 362.23 196.378C361.378 196.378 360.7 196.654 360.196 197.206C359.692 197.746 359.44 198.532 359.44 199.564V205H357.802V195.136H359.44V196.558C359.764 196.042 360.196 195.646 360.736 195.37C361.288 195.094 361.894 194.956 362.554 194.956C363.382 194.956 364.114 195.142 364.75 195.514C365.386 195.886 365.86 196.432 366.172 197.152C366.448 196.456 366.904 195.916 367.54 195.532C368.176 195.148 368.884 194.956 369.664 194.956ZM385.347 199.69C385.347 200.002 385.329 200.332 385.293 200.68H377.409C377.469 201.652 377.799 202.414 378.399 202.966C379.011 203.506 379.749 203.776 380.613 203.776C381.321 203.776 381.909 203.614 382.377 203.29C382.857 202.954 383.193 202.51 383.385 201.958H385.149C384.885 202.906 384.357 203.68 383.565 204.28C382.773 204.868 381.789 205.162 380.613 205.162C379.677 205.162 378.837 204.952 378.093 204.532C377.361 204.112 376.785 203.518 376.365 202.75C375.945 201.97 375.735 201.07 375.735 200.05C375.735 199.03 375.939 198.136 376.347 197.368C376.755 196.6 377.325 196.012 378.057 195.604C378.801 195.184 379.653 194.974 380.613 194.974C381.549 194.974 382.377 195.178 383.097 195.586C383.817 195.994 384.369 196.558 384.753 197.278C385.149 197.986 385.347 198.79 385.347 199.69ZM383.655 199.348C383.655 198.724 383.517 198.19 383.241 197.746C382.965 197.29 382.587 196.948 382.107 196.72C381.639 196.48 381.117 196.36 380.541 196.36C379.713 196.36 379.005 196.624 378.417 197.152C377.841 197.68 377.511 198.412 377.427 199.348H383.655ZM392.315 194.956C393.515 194.956 394.487 195.322 395.231 196.054C395.975 196.774 396.347 197.818 396.347 199.186V205H394.727V199.42C394.727 198.436 394.481 197.686 393.989 197.17C393.497 196.642 392.825 196.378 391.973 196.378C391.109 196.378 390.419 196.648 389.903 197.188C389.399 197.728 389.147 198.514 389.147 199.546V205H387.509V195.136H389.147V196.54C389.471 196.036 389.909 195.646 390.461 195.37C391.025 195.094 391.643 194.956 392.315 194.956ZM401.021 196.486V202.3C401.021 202.78 401.123 203.122 401.327 203.326C401.531 203.518 401.885 203.614 402.389 203.614H403.595V205H402.119C401.207 205 400.523 204.79 400.067 204.37C399.611 203.95 399.383 203.26 399.383 202.3V196.486H398.105V195.136H399.383V192.652H401.021V195.136H403.595V196.486H401.021ZM404.967 200.032C404.967 199.024 405.171 198.142 405.579 197.386C405.987 196.618 406.545 196.024 407.253 195.604C407.973 195.184 408.771 194.974 409.647 194.974C410.511 194.974 411.261 195.16 411.897 195.532C412.533 195.904 413.007 196.372 413.319 196.936V195.136H414.975V205H413.319V203.164C412.995 203.74 412.509 204.22 411.861 204.604C411.225 204.976 410.481 205.162 409.629 205.162C408.753 205.162 407.961 204.946 407.253 204.514C406.545 204.082 405.987 203.476 405.579 202.696C405.171 201.916 404.967 201.028 404.967 200.032ZM413.319 200.05C413.319 199.306 413.169 198.658 412.869 198.106C412.569 197.554 412.161 197.134 411.645 196.846C411.141 196.546 410.583 196.396 409.971 196.396C409.359 196.396 408.801 196.54 408.297 196.828C407.793 197.116 407.391 197.536 407.091 198.088C406.791 198.64 406.641 199.288 406.641 200.032C406.641 200.788 406.791 201.448 407.091 202.012C407.391 202.564 407.793 202.99 408.297 203.29C408.801 203.578 409.359 203.722 409.971 203.722C410.583 203.722 411.141 203.578 411.645 203.29C412.161 202.99 412.569 202.564 412.869 202.012C413.169 201.448 413.319 200.794 413.319 200.05ZM419.741 196.486V202.3C419.741 202.78 419.843 203.122 420.047 203.326C420.251 203.518 420.605 203.614 421.109 203.614H422.315V205H420.839C419.927 205 419.243 204.79 418.787 204.37C418.331 203.95 418.103 203.26 418.103 202.3V196.486H416.825V195.136H418.103V192.652H419.741V195.136H422.315V196.486H419.741ZM425.146 193.534C424.834 193.534 424.57 193.426 424.354 193.21C424.138 192.994 424.03 192.73 424.03 192.418C424.03 192.106 424.138 191.842 424.354 191.626C424.57 191.41 424.834 191.302 425.146 191.302C425.446 191.302 425.698 191.41 425.902 191.626C426.118 191.842 426.226 192.106 426.226 192.418C426.226 192.73 426.118 192.994 425.902 193.21C425.698 193.426 425.446 193.534 425.146 193.534ZM425.938 195.136V205H424.3V195.136H425.938ZM433.032 205.162C432.108 205.162 431.268 204.952 430.512 204.532C429.768 204.112 429.18 203.518 428.748 202.75C428.328 201.97 428.118 201.07 428.118 200.05C428.118 199.042 428.334 198.154 428.766 197.386C429.21 196.606 429.81 196.012 430.566 195.604C431.322 195.184 432.168 194.974 433.104 194.974C434.04 194.974 434.886 195.184 435.642 195.604C436.398 196.012 436.992 196.6 437.424 197.368C437.868 198.136 438.09 199.03 438.09 200.05C438.09 201.07 437.862 201.97 437.406 202.75C436.962 203.518 436.356 204.112 435.588 204.532C434.82 204.952 433.968 205.162 433.032 205.162ZM433.032 203.722C433.62 203.722 434.172 203.584 434.688 203.308C435.204 203.032 435.618 202.618 435.93 202.066C436.254 201.514 436.416 200.842 436.416 200.05C436.416 199.258 436.26 198.586 435.948 198.034C435.636 197.482 435.228 197.074 434.724 196.81C434.22 196.534 433.674 196.396 433.086 196.396C432.486 196.396 431.934 196.534 431.43 196.81C430.938 197.074 430.542 197.482 430.242 198.034C429.942 198.586 429.792 199.258 429.792 200.05C429.792 200.854 429.936 201.532 430.224 202.084C430.524 202.636 430.92 203.05 431.412 203.326C431.904 203.59 432.444 203.722 433.032 203.722ZM445.049 194.956C446.249 194.956 447.221 195.322 447.965 196.054C448.709 196.774 449.081 197.818 449.081 199.186V205H447.461V199.42C447.461 198.436 447.215 197.686 446.723 197.17C446.231 196.642 445.559 196.378 444.707 196.378C443.843 196.378 443.153 196.648 442.637 197.188C442.133 197.728 441.881 198.514 441.881 199.546V205H440.243V195.136H441.881V196.54C442.205 196.036 442.643 195.646 443.195 195.37C443.759 195.094 444.377 194.956 445.049 194.956ZM84.481 228.202C83.869 228.202 83.347 227.992 82.915 227.572C82.495 227.14 82.285 226.618 82.285 226.006C82.285 225.382 82.495 224.86 82.915 224.44C83.347 224.008 83.869 223.792 84.481 223.792C85.105 223.792 85.633 224.008 86.065 224.44C86.497 224.86 86.713 225.382 86.713 226.006C86.713 226.618 86.497 227.14 86.065 227.572C85.633 227.992 85.105 228.202 84.481 228.202ZM103.292 219.454C104.66 219.454 105.842 219.712 106.838 220.228C107.846 220.732 108.614 221.458 109.142 222.406C109.682 223.354 109.952 224.47 109.952 225.754C109.952 227.038 109.682 228.154 109.142 229.102C108.614 230.038 107.846 230.758 106.838 231.262C105.842 231.754 104.66 232 103.292 232H99.386V219.454H103.292ZM103.292 230.65C104.912 230.65 106.148 230.224 107 229.372C107.852 228.508 108.278 227.302 108.278 225.754C108.278 224.194 107.846 222.976 106.982 222.1C106.13 221.224 104.9 220.786 103.292 220.786H101.024V230.65H103.292ZM112.959 220.534C112.647 220.534 112.383 220.426 112.167 220.21C111.951 219.994 111.843 219.73 111.843 219.418C111.843 219.106 111.951 218.842 112.167 218.626C112.383 218.41 112.647 218.302 112.959 218.302C113.259 218.302 113.511 218.41 113.715 218.626C113.931 218.842 114.039 219.106 114.039 219.418C114.039 219.73 113.931 219.994 113.715 220.21C113.511 220.426 113.259 220.534 112.959 220.534ZM113.751 222.136V232H112.113V222.136H113.751ZM120.034 232.162C119.278 232.162 118.6 232.036 118 231.784C117.4 231.52 116.926 231.16 116.578 230.704C116.23 230.236 116.038 229.702 116.002 229.102H117.694C117.742 229.594 117.97 229.996 118.378 230.308C118.798 230.62 119.344 230.776 120.016 230.776C120.64 230.776 121.132 230.638 121.492 230.362C121.852 230.086 122.032 229.738 122.032 229.318C122.032 228.886 121.84 228.568 121.456 228.364C121.072 228.148 120.478 227.938 119.674 227.734C118.942 227.542 118.342 227.35 117.874 227.158C117.418 226.954 117.022 226.66 116.686 226.276C116.362 225.88 116.2 225.364 116.2 224.728C116.2 224.224 116.35 223.762 116.65 223.342C116.95 222.922 117.376 222.592 117.928 222.352C118.48 222.1 119.11 221.974 119.818 221.974C120.91 221.974 121.792 222.25 122.464 222.802C123.136 223.354 123.496 224.11 123.544 225.07H121.906C121.87 224.554 121.66 224.14 121.276 223.828C120.904 223.516 120.4 223.36 119.764 223.36C119.176 223.36 118.708 223.486 118.36 223.738C118.012 223.99 117.838 224.32 117.838 224.728C117.838 225.052 117.94 225.322 118.144 225.538C118.36 225.742 118.624 225.91 118.936 226.042C119.26 226.162 119.704 226.3 120.268 226.456C120.976 226.648 121.552 226.84 121.996 227.032C122.44 227.212 122.818 227.488 123.13 227.86C123.454 228.232 123.622 228.718 123.634 229.318C123.634 229.858 123.484 230.344 123.184 230.776C122.884 231.208 122.458 231.55 121.906 231.802C121.366 232.042 120.742 232.162 120.034 232.162ZM125.335 227.05C125.335 226.03 125.539 225.142 125.947 224.386C126.355 223.618 126.919 223.024 127.639 222.604C128.371 222.184 129.205 221.974 130.141 221.974C131.353 221.974 132.349 222.268 133.129 222.856C133.921 223.444 134.443 224.26 134.695 225.304H132.931C132.763 224.704 132.433 224.23 131.941 223.882C131.461 223.534 130.861 223.36 130.141 223.36C129.205 223.36 128.449 223.684 127.873 224.332C127.297 224.968 127.009 225.874 127.009 227.05C127.009 228.238 127.297 229.156 127.873 229.804C128.449 230.452 129.205 230.776 130.141 230.776C130.861 230.776 131.461 230.608 131.941 230.272C132.421 229.936 132.751 229.456 132.931 228.832H134.695C134.431 229.84 133.903 230.65 133.111 231.262C132.319 231.862 131.329 232.162 130.141 232.162C129.205 232.162 128.371 231.952 127.639 231.532C126.919 231.112 126.355 230.518 125.947 229.75C125.539 228.982 125.335 228.082 125.335 227.05ZM145.628 222.136V232H143.99V230.542C143.678 231.046 143.24 231.442 142.676 231.73C142.124 232.006 141.512 232.144 140.84 232.144C140.072 232.144 139.382 231.988 138.77 231.676C138.158 231.352 137.672 230.872 137.312 230.236C136.964 229.6 136.79 228.826 136.79 227.914V222.136H138.41V227.698C138.41 228.67 138.656 229.42 139.148 229.948C139.64 230.464 140.312 230.722 141.164 230.722C142.04 230.722 142.73 230.452 143.234 229.912C143.738 229.372 143.99 228.586 143.99 227.554V222.136H145.628ZM151.886 232.162C151.13 232.162 150.452 232.036 149.852 231.784C149.252 231.52 148.778 231.16 148.43 230.704C148.082 230.236 147.89 229.702 147.854 229.102H149.546C149.594 229.594 149.822 229.996 150.23 230.308C150.65 230.62 151.196 230.776 151.868 230.776C152.492 230.776 152.984 230.638 153.344 230.362C153.704 230.086 153.884 229.738 153.884 229.318C153.884 228.886 153.692 228.568 153.308 228.364C152.924 228.148 152.33 227.938 151.526 227.734C150.794 227.542 150.194 227.35 149.726 227.158C149.27 226.954 148.874 226.66 148.538 226.276C148.214 225.88 148.052 225.364 148.052 224.728C148.052 224.224 148.202 223.762 148.502 223.342C148.802 222.922 149.228 222.592 149.78 222.352C150.332 222.1 150.962 221.974 151.67 221.974C152.762 221.974 153.644 222.25 154.316 222.802C154.988 223.354 155.348 224.11 155.396 225.07H153.758C153.722 224.554 153.512 224.14 153.128 223.828C152.756 223.516 152.252 223.36 151.616 223.36C151.028 223.36 150.56 223.486 150.212 223.738C149.864 223.99 149.69 224.32 149.69 224.728C149.69 225.052 149.792 225.322 149.996 225.538C150.212 225.742 150.476 225.91 150.788 226.042C151.112 226.162 151.556 226.3 152.12 226.456C152.828 226.648 153.404 226.84 153.848 227.032C154.292 227.212 154.67 227.488 154.982 227.86C155.306 228.232 155.474 228.718 155.486 229.318C155.486 229.858 155.336 230.344 155.036 230.776C154.736 231.208 154.31 231.55 153.758 231.802C153.218 232.042 152.594 232.162 151.886 232.162ZM161.29 232.162C160.534 232.162 159.856 232.036 159.256 231.784C158.656 231.52 158.182 231.16 157.834 230.704C157.486 230.236 157.294 229.702 157.258 229.102H158.95C158.998 229.594 159.226 229.996 159.634 230.308C160.054 230.62 160.6 230.776 161.272 230.776C161.896 230.776 162.388 230.638 162.748 230.362C163.108 230.086 163.288 229.738 163.288 229.318C163.288 228.886 163.096 228.568 162.712 228.364C162.328 228.148 161.734 227.938 160.93 227.734C160.198 227.542 159.598 227.35 159.13 227.158C158.674 226.954 158.278 226.66 157.942 226.276C157.618 225.88 157.456 225.364 157.456 224.728C157.456 224.224 157.606 223.762 157.906 223.342C158.206 222.922 158.632 222.592 159.184 222.352C159.736 222.1 160.366 221.974 161.074 221.974C162.166 221.974 163.048 222.25 163.72 222.802C164.392 223.354 164.752 224.11 164.8 225.07H163.162C163.126 224.554 162.916 224.14 162.532 223.828C162.16 223.516 161.656 223.36 161.02 223.36C160.432 223.36 159.964 223.486 159.616 223.738C159.268 223.99 159.094 224.32 159.094 224.728C159.094 225.052 159.196 225.322 159.4 225.538C159.616 225.742 159.88 225.91 160.192 226.042C160.516 226.162 160.96 226.3 161.524 226.456C162.232 226.648 162.808 226.84 163.252 227.032C163.696 227.212 164.074 227.488 164.386 227.86C164.71 228.232 164.878 228.718 164.89 229.318C164.89 229.858 164.74 230.344 164.44 230.776C164.14 231.208 163.714 231.55 163.162 231.802C162.622 232.042 161.998 232.162 161.29 232.162ZM185.141 222.136L182.063 232H180.371L177.995 224.17L175.619 232H173.927L170.831 222.136H172.505L174.773 230.416L177.221 222.136H178.895L181.289 230.434L183.521 222.136H185.141ZM187.613 220.534C187.301 220.534 187.037 220.426 186.821 220.21C186.605 219.994 186.497 219.73 186.497 219.418C186.497 219.106 186.605 218.842 186.821 218.626C187.037 218.41 187.301 218.302 187.613 218.302C187.913 218.302 188.165 218.41 188.369 218.626C188.585 218.842 188.693 219.106 188.693 219.418C188.693 219.73 188.585 219.994 188.369 220.21C188.165 220.426 187.913 220.534 187.613 220.534ZM188.405 222.136V232H186.767V222.136H188.405ZM193.195 223.486V229.3C193.195 229.78 193.297 230.122 193.501 230.326C193.705 230.518 194.059 230.614 194.563 230.614H195.769V232H194.293C193.381 232 192.697 231.79 192.241 231.37C191.785 230.95 191.557 230.26 191.557 229.3V223.486H190.279V222.136H191.557V219.652H193.195V222.136H195.769V223.486H193.195ZM202.649 221.956C203.393 221.956 204.065 222.118 204.665 222.442C205.265 222.754 205.733 223.228 206.069 223.864C206.417 224.5 206.591 225.274 206.591 226.186V232H204.971V226.42C204.971 225.436 204.725 224.686 204.233 224.17C203.741 223.642 203.069 223.378 202.217 223.378C201.353 223.378 200.663 223.648 200.147 224.188C199.643 224.728 199.391 225.514 199.391 226.546V232H197.753V218.68H199.391V223.54C199.715 223.036 200.159 222.646 200.723 222.37C201.299 222.094 201.941 221.956 202.649 221.956ZM222.454 223.126C222.454 224.17 222.094 225.04 221.374 225.736C220.666 226.42 219.58 226.762 218.116 226.762H215.704V232H214.066V219.454H218.116C219.532 219.454 220.606 219.796 221.338 220.48C222.082 221.164 222.454 222.046 222.454 223.126ZM218.116 225.412C219.028 225.412 219.7 225.214 220.132 224.818C220.564 224.422 220.78 223.858 220.78 223.126C220.78 221.578 219.892 220.804 218.116 220.804H215.704V225.412H218.116ZM226.128 223.738C226.416 223.174 226.824 222.736 227.352 222.424C227.892 222.112 228.546 221.956 229.314 221.956V223.648H228.882C227.046 223.648 226.128 224.644 226.128 226.636V232H224.49V222.136H226.128V223.738ZM235.506 232.162C234.582 232.162 233.742 231.952 232.986 231.532C232.242 231.112 231.654 230.518 231.222 229.75C230.802 228.97 230.592 228.07 230.592 227.05C230.592 226.042 230.808 225.154 231.24 224.386C231.684 223.606 232.284 223.012 233.04 222.604C233.796 222.184 234.642 221.974 235.578 221.974C236.514 221.974 237.36 222.184 238.116 222.604C238.872 223.012 239.466 223.6 239.898 224.368C240.342 225.136 240.564 226.03 240.564 227.05C240.564 228.07 240.336 228.97 239.88 229.75C239.436 230.518 238.83 231.112 238.062 231.532C237.294 231.952 236.442 232.162 235.506 232.162ZM235.506 230.722C236.094 230.722 236.646 230.584 237.162 230.308C237.678 230.032 238.092 229.618 238.404 229.066C238.728 228.514 238.89 227.842 238.89 227.05C238.89 226.258 238.734 225.586 238.422 225.034C238.11 224.482 237.702 224.074 237.198 223.81C236.694 223.534 236.148 223.396 235.56 223.396C234.96 223.396 234.408 223.534 233.904 223.81C233.412 224.074 233.016 224.482 232.716 225.034C232.416 225.586 232.266 226.258 232.266 227.05C232.266 227.854 232.41 228.532 232.698 229.084C232.998 229.636 233.394 230.05 233.886 230.326C234.378 230.59 234.918 230.722 235.506 230.722ZM242.106 227.032C242.106 226.024 242.31 225.142 242.718 224.386C243.126 223.618 243.684 223.024 244.392 222.604C245.112 222.184 245.916 221.974 246.804 221.974C247.572 221.974 248.286 222.154 248.946 222.514C249.606 222.862 250.11 223.324 250.458 223.9V218.68H252.114V232H250.458V230.146C250.134 230.734 249.654 231.22 249.018 231.604C248.382 231.976 247.638 232.162 246.786 232.162C245.91 232.162 245.112 231.946 244.392 231.514C243.684 231.082 243.126 230.476 242.718 229.696C242.31 228.916 242.106 228.028 242.106 227.032ZM250.458 227.05C250.458 226.306 250.308 225.658 250.008 225.106C249.708 224.554 249.3 224.134 248.784 223.846C248.28 223.546 247.722 223.396 247.11 223.396C246.498 223.396 245.94 223.54 245.436 223.828C244.932 224.116 244.53 224.536 244.23 225.088C243.93 225.64 243.78 226.288 243.78 227.032C243.78 227.788 243.93 228.448 244.23 229.012C244.53 229.564 244.932 229.99 245.436 230.29C245.94 230.578 246.498 230.722 247.11 230.722C247.722 230.722 248.28 230.578 248.784 230.29C249.3 229.99 249.708 229.564 250.008 229.012C250.308 228.448 250.458 227.794 250.458 227.05ZM263.63 222.136V232H261.992V230.542C261.68 231.046 261.242 231.442 260.678 231.73C260.126 232.006 259.514 232.144 258.842 232.144C258.074 232.144 257.384 231.988 256.772 231.676C256.16 231.352 255.674 230.872 255.314 230.236C254.966 229.6 254.792 228.826 254.792 227.914V222.136H256.412V227.698C256.412 228.67 256.658 229.42 257.15 229.948C257.642 230.464 258.314 230.722 259.166 230.722C260.042 230.722 260.732 230.452 261.236 229.912C261.74 229.372 261.992 228.586 261.992 227.554V222.136H263.63ZM265.784 227.05C265.784 226.03 265.988 225.142 266.396 224.386C266.804 223.618 267.368 223.024 268.088 222.604C268.82 222.184 269.654 221.974 270.59 221.974C271.802 221.974 272.798 222.268 273.578 222.856C274.37 223.444 274.892 224.26 275.144 225.304H273.38C273.212 224.704 272.882 224.23 272.39 223.882C271.91 223.534 271.31 223.36 270.59 223.36C269.654 223.36 268.898 223.684 268.322 224.332C267.746 224.968 267.458 225.874 267.458 227.05C267.458 228.238 267.746 229.156 268.322 229.804C268.898 230.452 269.654 230.776 270.59 230.776C271.31 230.776 271.91 230.608 272.39 230.272C272.87 229.936 273.2 229.456 273.38 228.832H275.144C274.88 229.84 274.352 230.65 273.56 231.262C272.768 231.862 271.778 232.162 270.59 232.162C269.654 232.162 268.82 231.952 268.088 231.532C267.368 231.112 266.804 230.518 266.396 229.75C265.988 228.982 265.784 228.082 265.784 227.05ZM279.327 223.486V229.3C279.327 229.78 279.429 230.122 279.633 230.326C279.837 230.518 280.191 230.614 280.695 230.614H281.901V232H280.425C279.513 232 278.829 231.79 278.373 231.37C277.917 230.95 277.689 230.26 277.689 229.3V223.486H276.411V222.136H277.689V219.652H279.327V222.136H281.901V223.486H279.327ZM301.411 219.544V232H299.773V222.712L295.633 232H294.481L290.323 222.694V232H288.685V219.544H290.449L295.057 229.84L299.665 219.544H301.411ZM303.577 227.032C303.577 226.024 303.781 225.142 304.189 224.386C304.597 223.618 305.155 223.024 305.863 222.604C306.583 222.184 307.381 221.974 308.257 221.974C309.121 221.974 309.871 222.16 310.507 222.532C311.143 222.904 311.617 223.372 311.929 223.936V222.136H313.585V232H311.929V230.164C311.605 230.74 311.119 231.22 310.471 231.604C309.835 231.976 309.091 232.162 308.239 232.162C307.363 232.162 306.571 231.946 305.863 231.514C305.155 231.082 304.597 230.476 304.189 229.696C303.781 228.916 303.577 228.028 303.577 227.032ZM311.929 227.05C311.929 226.306 311.779 225.658 311.479 225.106C311.179 224.554 310.771 224.134 310.255 223.846C309.751 223.546 309.193 223.396 308.581 223.396C307.969 223.396 307.411 223.54 306.907 223.828C306.403 224.116 306.001 224.536 305.701 225.088C305.401 225.64 305.251 226.288 305.251 227.032C305.251 227.788 305.401 228.448 305.701 229.012C306.001 229.564 306.403 229.99 306.907 230.29C307.411 230.578 307.969 230.722 308.581 230.722C309.193 230.722 309.751 230.578 310.255 230.29C310.771 229.99 311.179 229.564 311.479 229.012C311.779 228.448 311.929 227.794 311.929 227.05ZM321.159 221.956C322.359 221.956 323.331 222.322 324.075 223.054C324.819 223.774 325.191 224.818 325.191 226.186V232H323.571V226.42C323.571 225.436 323.325 224.686 322.833 224.17C322.341 223.642 321.669 223.378 320.817 223.378C319.953 223.378 319.263 223.648 318.747 224.188C318.243 224.728 317.991 225.514 317.991 226.546V232H316.353V222.136H317.991V223.54C318.315 223.036 318.753 222.646 319.305 222.37C319.869 222.094 320.487 221.956 321.159 221.956ZM327.254 227.032C327.254 226.024 327.458 225.142 327.866 224.386C328.274 223.618 328.832 223.024 329.54 222.604C330.26 222.184 331.058 221.974 331.934 221.974C332.798 221.974 333.548 222.16 334.184 222.532C334.82 222.904 335.294 223.372 335.606 223.936V222.136H337.262V232H335.606V230.164C335.282 230.74 334.796 231.22 334.148 231.604C333.512 231.976 332.768 232.162 331.916 232.162C331.04 232.162 330.248 231.946 329.54 231.514C328.832 231.082 328.274 230.476 327.866 229.696C327.458 228.916 327.254 228.028 327.254 227.032ZM335.606 227.05C335.606 226.306 335.456 225.658 335.156 225.106C334.856 224.554 334.448 224.134 333.932 223.846C333.428 223.546 332.87 223.396 332.258 223.396C331.646 223.396 331.088 223.54 330.584 223.828C330.08 224.116 329.678 224.536 329.378 225.088C329.078 225.64 328.928 226.288 328.928 227.032C328.928 227.788 329.078 228.448 329.378 229.012C329.678 229.564 330.08 229.99 330.584 230.29C331.088 230.578 331.646 230.722 332.258 230.722C332.87 230.722 333.428 230.578 333.932 230.29C334.448 229.99 334.856 229.564 335.156 229.012C335.456 228.448 335.606 227.794 335.606 227.05ZM344.099 221.974C344.951 221.974 345.695 222.16 346.331 222.532C346.979 222.904 347.459 223.372 347.771 223.936V222.136H349.427V232.216C349.427 233.116 349.235 233.914 348.851 234.61C348.467 235.318 347.915 235.87 347.195 236.266C346.487 236.662 345.659 236.86 344.711 236.86C343.415 236.86 342.335 236.554 341.471 235.942C340.607 235.33 340.097 234.496 339.941 233.44H341.561C341.741 234.04 342.113 234.52 342.677 234.88C343.241 235.252 343.919 235.438 344.711 235.438C345.611 235.438 346.343 235.156 346.907 234.592C347.483 234.028 347.771 233.236 347.771 232.216V230.146C347.447 230.722 346.967 231.202 346.331 231.586C345.695 231.97 344.951 232.162 344.099 232.162C343.223 232.162 342.425 231.946 341.705 231.514C340.997 231.082 340.439 230.476 340.031 229.696C339.623 228.916 339.419 228.028 339.419 227.032C339.419 226.024 339.623 225.142 340.031 224.386C340.439 223.618 340.997 223.024 341.705 222.604C342.425 222.184 343.223 221.974 344.099 221.974ZM347.771 227.05C347.771 226.306 347.621 225.658 347.321 225.106C347.021 224.554 346.613 224.134 346.097 223.846C345.593 223.546 345.035 223.396 344.423 223.396C343.811 223.396 343.253 223.54 342.749 223.828C342.245 224.116 341.843 224.536 341.543 225.088C341.243 225.64 341.093 226.288 341.093 227.032C341.093 227.788 341.243 228.448 341.543 229.012C341.843 229.564 342.245 229.99 342.749 230.29C343.253 230.578 343.811 230.722 344.423 230.722C345.035 230.722 345.593 230.578 346.097 230.29C346.613 229.99 347.021 229.564 347.321 229.012C347.621 228.448 347.771 227.794 347.771 227.05ZM361.195 226.69C361.195 227.002 361.177 227.332 361.141 227.68H353.257C353.317 228.652 353.647 229.414 354.247 229.966C354.859 230.506 355.597 230.776 356.461 230.776C357.169 230.776 357.757 230.614 358.225 230.29C358.705 229.954 359.041 229.51 359.233 228.958H360.997C360.733 229.906 360.205 230.68 359.413 231.28C358.621 231.868 357.637 232.162 356.461 232.162C355.525 232.162 354.685 231.952 353.941 231.532C353.209 231.112 352.633 230.518 352.213 229.75C351.793 228.97 351.583 228.07 351.583 227.05C351.583 226.03 351.787 225.136 352.195 224.368C352.603 223.6 353.173 223.012 353.905 222.604C354.649 222.184 355.501 221.974 356.461 221.974C357.397 221.974 358.225 222.178 358.945 222.586C359.665 222.994 360.217 223.558 360.601 224.278C360.997 224.986 361.195 225.79 361.195 226.69ZM359.503 226.348C359.503 225.724 359.365 225.19 359.089 224.746C358.813 224.29 358.435 223.948 357.955 223.72C357.487 223.48 356.965 223.36 356.389 223.36C355.561 223.36 354.853 223.624 354.265 224.152C353.689 224.68 353.359 225.412 353.275 226.348H359.503ZM364.995 223.738C365.283 223.174 365.691 222.736 366.219 222.424C366.759 222.112 367.413 221.956 368.181 221.956V223.648H367.749C365.913 223.648 364.995 224.644 364.995 226.636V232H363.357V222.136H364.995V223.738ZM373.564 232.162C372.808 232.162 372.13 232.036 371.53 231.784C370.93 231.52 370.456 231.16 370.108 230.704C369.76 230.236 369.568 229.702 369.532 229.102H371.224C371.272 229.594 371.5 229.996 371.908 230.308C372.328 230.62 372.874 230.776 373.546 230.776C374.17 230.776 374.662 230.638 375.022 230.362C375.382 230.086 375.562 229.738 375.562 229.318C375.562 228.886 375.37 228.568 374.986 228.364C374.602 228.148 374.008 227.938 373.204 227.734C372.472 227.542 371.872 227.35 371.404 227.158C370.948 226.954 370.552 226.66 370.216 226.276C369.892 225.88 369.73 225.364 369.73 224.728C369.73 224.224 369.88 223.762 370.18 223.342C370.48 222.922 370.906 222.592 371.458 222.352C372.01 222.1 372.64 221.974 373.348 221.974C374.44 221.974 375.322 222.25 375.994 222.802C376.666 223.354 377.026 224.11 377.074 225.07H375.436C375.4 224.554 375.19 224.14 374.806 223.828C374.434 223.516 373.93 223.36 373.294 223.36C372.706 223.36 372.238 223.486 371.89 223.738C371.542 223.99 371.368 224.32 371.368 224.728C371.368 225.052 371.47 225.322 371.674 225.538C371.89 225.742 372.154 225.91 372.466 226.042C372.79 226.162 373.234 226.3 373.798 226.456C374.506 226.648 375.082 226.84 375.526 227.032C375.97 227.212 376.348 227.488 376.66 227.86C376.984 228.232 377.152 228.718 377.164 229.318C377.164 229.858 377.014 230.344 376.714 230.776C376.414 231.208 375.988 231.55 375.436 231.802C374.896 232.042 374.272 232.162 373.564 232.162ZM84.481 255.202C83.869 255.202 83.347 254.992 82.915 254.572C82.495 254.14 82.285 253.618 82.285 253.006C82.285 252.382 82.495 251.86 82.915 251.44C83.347 251.008 83.869 250.792 84.481 250.792C85.105 250.792 85.633 251.008 86.065 251.44C86.497 251.86 86.713 252.382 86.713 253.006C86.713 253.618 86.497 254.14 86.065 254.572C85.633 254.992 85.105 255.202 84.481 255.202ZM106.478 246.454V247.786H101.024V252.016H105.452V253.348H101.024V259H99.386V246.454H106.478ZM117.456 253.69C117.456 254.002 117.438 254.332 117.402 254.68H109.518C109.578 255.652 109.908 256.414 110.508 256.966C111.12 257.506 111.858 257.776 112.722 257.776C113.43 257.776 114.018 257.614 114.486 257.29C114.966 256.954 115.302 256.51 115.494 255.958H117.258C116.994 256.906 116.466 257.68 115.674 258.28C114.882 258.868 113.898 259.162 112.722 259.162C111.786 259.162 110.946 258.952 110.202 258.532C109.47 258.112 108.894 257.518 108.474 256.75C108.054 255.97 107.844 255.07 107.844 254.05C107.844 253.03 108.048 252.136 108.456 251.368C108.864 250.6 109.434 250.012 110.166 249.604C110.91 249.184 111.762 248.974 112.722 248.974C113.658 248.974 114.486 249.178 115.206 249.586C115.926 249.994 116.478 250.558 116.862 251.278C117.258 251.986 117.456 252.79 117.456 253.69ZM115.764 253.348C115.764 252.724 115.626 252.19 115.35 251.746C115.074 251.29 114.696 250.948 114.216 250.72C113.748 250.48 113.226 250.36 112.65 250.36C111.822 250.36 111.114 250.624 110.526 251.152C109.95 251.68 109.62 252.412 109.536 253.348H115.764ZM128.618 253.69C128.618 254.002 128.6 254.332 128.564 254.68H120.68C120.74 255.652 121.07 256.414 121.67 256.966C122.282 257.506 123.02 257.776 123.884 257.776C124.592 257.776 125.18 257.614 125.648 257.29C126.128 256.954 126.464 256.51 126.656 255.958H128.42C128.156 256.906 127.628 257.68 126.836 258.28C126.044 258.868 125.06 259.162 123.884 259.162C122.948 259.162 122.108 258.952 121.364 258.532C120.632 258.112 120.056 257.518 119.636 256.75C119.216 255.97 119.006 255.07 119.006 254.05C119.006 253.03 119.21 252.136 119.618 251.368C120.026 250.6 120.596 250.012 121.328 249.604C122.072 249.184 122.924 248.974 123.884 248.974C124.82 248.974 125.648 249.178 126.368 249.586C127.088 249.994 127.64 250.558 128.024 251.278C128.42 251.986 128.618 252.79 128.618 253.69ZM126.926 253.348C126.926 252.724 126.788 252.19 126.512 251.746C126.236 251.29 125.858 250.948 125.378 250.72C124.91 250.48 124.388 250.36 123.812 250.36C122.984 250.36 122.276 250.624 121.688 251.152C121.112 251.68 120.782 252.412 120.698 253.348H126.926ZM130.169 254.032C130.169 253.024 130.373 252.142 130.781 251.386C131.189 250.618 131.747 250.024 132.455 249.604C133.175 249.184 133.979 248.974 134.867 248.974C135.635 248.974 136.349 249.154 137.009 249.514C137.669 249.862 138.173 250.324 138.521 250.9V245.68H140.177V259H138.521V257.146C138.197 257.734 137.717 258.22 137.081 258.604C136.445 258.976 135.701 259.162 134.849 259.162C133.973 259.162 133.175 258.946 132.455 258.514C131.747 258.082 131.189 257.476 130.781 256.696C130.373 255.916 130.169 255.028 130.169 254.032ZM138.521 254.05C138.521 253.306 138.371 252.658 138.071 252.106C137.771 251.554 137.363 251.134 136.847 250.846C136.343 250.546 135.785 250.396 135.173 250.396C134.561 250.396 134.003 250.54 133.499 250.828C132.995 251.116 132.593 251.536 132.293 252.088C131.993 252.64 131.843 253.288 131.843 254.032C131.843 254.788 131.993 255.448 132.293 256.012C132.593 256.564 132.995 256.99 133.499 257.29C134.003 257.578 134.561 257.722 135.173 257.722C135.785 257.722 136.343 257.578 136.847 257.29C137.363 256.99 137.771 256.564 138.071 256.012C138.371 255.448 138.521 254.794 138.521 254.05ZM144.583 250.972C144.919 250.384 145.411 249.904 146.059 249.532C146.707 249.16 147.445 248.974 148.273 248.974C149.161 248.974 149.959 249.184 150.667 249.604C151.375 250.024 151.933 250.618 152.341 251.386C152.749 252.142 152.953 253.024 152.953 254.032C152.953 255.028 152.749 255.916 152.341 256.696C151.933 257.476 151.369 258.082 150.649 258.514C149.941 258.946 149.149 259.162 148.273 259.162C147.421 259.162 146.671 258.976 146.023 258.604C145.387 258.232 144.907 257.758 144.583 257.182V259H142.945V245.68H144.583V250.972ZM151.279 254.032C151.279 253.288 151.129 252.64 150.829 252.088C150.529 251.536 150.121 251.116 149.605 250.828C149.101 250.54 148.543 250.396 147.931 250.396C147.331 250.396 146.773 250.546 146.257 250.846C145.753 251.134 145.345 251.56 145.033 252.124C144.733 252.676 144.583 253.318 144.583 254.05C144.583 254.794 144.733 255.448 145.033 256.012C145.345 256.564 145.753 256.99 146.257 257.29C146.773 257.578 147.331 257.722 147.931 257.722C148.543 257.722 149.101 257.578 149.605 257.29C150.121 256.99 150.529 256.564 150.829 256.012C151.129 255.448 151.279 254.788 151.279 254.032ZM154.497 254.032C154.497 253.024 154.701 252.142 155.109 251.386C155.517 250.618 156.075 250.024 156.783 249.604C157.503 249.184 158.301 248.974 159.177 248.974C160.041 248.974 160.791 249.16 161.427 249.532C162.063 249.904 162.537 250.372 162.849 250.936V249.136H164.505V259H162.849V257.164C162.525 257.74 162.039 258.22 161.391 258.604C160.755 258.976 160.011 259.162 159.159 259.162C158.283 259.162 157.491 258.946 156.783 258.514C156.075 258.082 155.517 257.476 155.109 256.696C154.701 255.916 154.497 255.028 154.497 254.032ZM162.849 254.05C162.849 253.306 162.699 252.658 162.399 252.106C162.099 251.554 161.691 251.134 161.175 250.846C160.671 250.546 160.113 250.396 159.501 250.396C158.889 250.396 158.331 250.54 157.827 250.828C157.323 251.116 156.921 251.536 156.621 252.088C156.321 252.64 156.171 253.288 156.171 254.032C156.171 254.788 156.321 255.448 156.621 256.012C156.921 256.564 157.323 256.99 157.827 257.29C158.331 257.578 158.889 257.722 159.501 257.722C160.113 257.722 160.671 257.578 161.175 257.29C161.691 256.99 162.099 256.564 162.399 256.012C162.699 255.448 162.849 254.794 162.849 254.05ZM166.661 254.05C166.661 253.03 166.865 252.142 167.273 251.386C167.681 250.618 168.245 250.024 168.965 249.604C169.697 249.184 170.531 248.974 171.467 248.974C172.679 248.974 173.675 249.268 174.455 249.856C175.247 250.444 175.769 251.26 176.021 252.304H174.257C174.089 251.704 173.759 251.23 173.267 250.882C172.787 250.534 172.187 250.36 171.467 250.36C170.531 250.36 169.775 250.684 169.199 251.332C168.623 251.968 168.335 252.874 168.335 254.05C168.335 255.238 168.623 256.156 169.199 256.804C169.775 257.452 170.531 257.776 171.467 257.776C172.187 257.776 172.787 257.608 173.267 257.272C173.747 256.936 174.077 256.456 174.257 255.832H176.021C175.757 256.84 175.229 257.65 174.437 258.262C173.645 258.862 172.655 259.162 171.467 259.162C170.531 259.162 169.697 258.952 168.965 258.532C168.245 258.112 167.681 257.518 167.273 256.75C166.865 255.982 166.661 255.082 166.661 254.05ZM183.714 259L179.844 254.644V259H178.206V245.68H179.844V253.51L183.642 249.136H185.928L181.284 254.05L185.946 259H183.714ZM196.283 250.486H194.213V259H192.575V250.486H191.297V249.136H192.575V248.434C192.575 247.33 192.857 246.526 193.421 246.022C193.997 245.506 194.915 245.248 196.175 245.248V246.616C195.455 246.616 194.945 246.76 194.645 247.048C194.357 247.324 194.213 247.786 194.213 248.434V249.136H196.283V250.486ZM199.831 250.738C200.119 250.174 200.527 249.736 201.055 249.424C201.595 249.112 202.249 248.956 203.017 248.956V250.648H202.585C200.749 250.648 199.831 251.644 199.831 253.636V259H198.193V249.136H199.831V250.738ZM209.209 259.162C208.285 259.162 207.445 258.952 206.689 258.532C205.945 258.112 205.357 257.518 204.925 256.75C204.505 255.97 204.295 255.07 204.295 254.05C204.295 253.042 204.511 252.154 204.943 251.386C205.387 250.606 205.987 250.012 206.743 249.604C207.499 249.184 208.345 248.974 209.281 248.974C210.217 248.974 211.063 249.184 211.819 249.604C212.575 250.012 213.169 250.6 213.601 251.368C214.045 252.136 214.267 253.03 214.267 254.05C214.267 255.07 214.039 255.97 213.583 256.75C213.139 257.518 212.533 258.112 211.765 258.532C210.997 258.952 210.145 259.162 209.209 259.162ZM209.209 257.722C209.797 257.722 210.349 257.584 210.865 257.308C211.381 257.032 211.795 256.618 212.107 256.066C212.431 255.514 212.593 254.842 212.593 254.05C212.593 253.258 212.437 252.586 212.125 252.034C211.813 251.482 211.405 251.074 210.901 250.81C210.397 250.534 209.851 250.396 209.263 250.396C208.663 250.396 208.111 250.534 207.607 250.81C207.115 251.074 206.719 251.482 206.419 252.034C206.119 252.586 205.969 253.258 205.969 254.05C205.969 254.854 206.113 255.532 206.401 256.084C206.701 256.636 207.097 257.05 207.589 257.326C208.081 257.59 208.621 257.722 209.209 257.722ZM228.283 248.956C229.051 248.956 229.735 249.118 230.335 249.442C230.935 249.754 231.409 250.228 231.757 250.864C232.105 251.5 232.279 252.274 232.279 253.186V259H230.659V253.42C230.659 252.436 230.413 251.686 229.921 251.17C229.441 250.642 228.787 250.378 227.959 250.378C227.107 250.378 226.429 250.654 225.925 251.206C225.421 251.746 225.169 252.532 225.169 253.564V259H223.549V253.42C223.549 252.436 223.303 251.686 222.811 251.17C222.331 250.642 221.677 250.378 220.849 250.378C219.997 250.378 219.319 250.654 218.815 251.206C218.311 251.746 218.059 252.532 218.059 253.564V259H216.421V249.136H218.059V250.558C218.383 250.042 218.815 249.646 219.355 249.37C219.907 249.094 220.513 248.956 221.173 248.956C222.001 248.956 222.733 249.142 223.369 249.514C224.005 249.886 224.479 250.432 224.791 251.152C225.067 250.456 225.523 249.916 226.159 249.532C226.795 249.148 227.503 248.956 228.283 248.956ZM239.153 254.05C239.153 253.03 239.357 252.142 239.765 251.386C240.173 250.618 240.737 250.024 241.457 249.604C242.189 249.184 243.023 248.974 243.959 248.974C245.171 248.974 246.167 249.268 246.947 249.856C247.739 250.444 248.261 251.26 248.513 252.304H246.749C246.581 251.704 246.251 251.23 245.759 250.882C245.279 250.534 244.679 250.36 243.959 250.36C243.023 250.36 242.267 250.684 241.691 251.332C241.115 251.968 240.827 252.874 240.827 254.05C240.827 255.238 241.115 256.156 241.691 256.804C242.267 257.452 243.023 257.776 243.959 257.776C244.679 257.776 245.279 257.608 245.759 257.272C246.239 256.936 246.569 256.456 246.749 255.832H248.513C248.249 256.84 247.721 257.65 246.929 258.262C246.137 258.862 245.147 259.162 243.959 259.162C243.023 259.162 242.189 258.952 241.457 258.532C240.737 258.112 240.173 257.518 239.765 256.75C239.357 255.982 239.153 255.082 239.153 254.05ZM259.447 249.136V259H257.809V257.542C257.497 258.046 257.059 258.442 256.495 258.73C255.943 259.006 255.331 259.144 254.659 259.144C253.891 259.144 253.201 258.988 252.589 258.676C251.977 258.352 251.491 257.872 251.131 257.236C250.783 256.6 250.609 255.826 250.609 254.914V249.136H252.229V254.698C252.229 255.67 252.475 256.42 252.967 256.948C253.459 257.464 254.131 257.722 254.983 257.722C255.859 257.722 256.549 257.452 257.053 256.912C257.557 256.372 257.809 255.586 257.809 254.554V249.136H259.447ZM265.704 259.162C264.948 259.162 264.27 259.036 263.67 258.784C263.07 258.52 262.596 258.16 262.248 257.704C261.9 257.236 261.708 256.702 261.672 256.102H263.364C263.412 256.594 263.64 256.996 264.048 257.308C264.468 257.62 265.014 257.776 265.686 257.776C266.31 257.776 266.802 257.638 267.162 257.362C267.522 257.086 267.702 256.738 267.702 256.318C267.702 255.886 267.51 255.568 267.126 255.364C266.742 255.148 266.148 254.938 265.344 254.734C264.612 254.542 264.012 254.35 263.544 254.158C263.088 253.954 262.692 253.66 262.356 253.276C262.032 252.88 261.87 252.364 261.87 251.728C261.87 251.224 262.02 250.762 262.32 250.342C262.62 249.922 263.046 249.592 263.598 249.352C264.15 249.1 264.78 248.974 265.488 248.974C266.58 248.974 267.462 249.25 268.134 249.802C268.806 250.354 269.166 251.11 269.214 252.07H267.576C267.54 251.554 267.33 251.14 266.946 250.828C266.574 250.516 266.07 250.36 265.434 250.36C264.846 250.36 264.378 250.486 264.03 250.738C263.682 250.99 263.508 251.32 263.508 251.728C263.508 252.052 263.61 252.322 263.814 252.538C264.03 252.742 264.294 252.91 264.606 253.042C264.93 253.162 265.374 253.3 265.938 253.456C266.646 253.648 267.222 253.84 267.666 254.032C268.11 254.212 268.488 254.488 268.8 254.86C269.124 255.232 269.292 255.718 269.304 256.318C269.304 256.858 269.154 257.344 268.854 257.776C268.554 258.208 268.128 258.55 267.576 258.802C267.036 259.042 266.412 259.162 265.704 259.162ZM273.614 250.486V256.3C273.614 256.78 273.716 257.122 273.92 257.326C274.124 257.518 274.478 257.614 274.982 257.614H276.188V259H274.712C273.8 259 273.116 258.79 272.66 258.37C272.204 257.95 271.976 257.26 271.976 256.3V250.486H270.698V249.136H271.976V246.652H273.614V249.136H276.188V250.486H273.614ZM282.475 259.162C281.551 259.162 280.711 258.952 279.955 258.532C279.211 258.112 278.623 257.518 278.191 256.75C277.771 255.97 277.561 255.07 277.561 254.05C277.561 253.042 277.777 252.154 278.209 251.386C278.653 250.606 279.253 250.012 280.009 249.604C280.765 249.184 281.611 248.974 282.547 248.974C283.483 248.974 284.329 249.184 285.085 249.604C285.841 250.012 286.435 250.6 286.867 251.368C287.311 252.136 287.533 253.03 287.533 254.05C287.533 255.07 287.305 255.97 286.849 256.75C286.405 257.518 285.799 258.112 285.031 258.532C284.263 258.952 283.411 259.162 282.475 259.162ZM282.475 257.722C283.063 257.722 283.615 257.584 284.131 257.308C284.647 257.032 285.061 256.618 285.373 256.066C285.697 255.514 285.859 254.842 285.859 254.05C285.859 253.258 285.703 252.586 285.391 252.034C285.079 251.482 284.671 251.074 284.167 250.81C283.663 250.534 283.117 250.396 282.529 250.396C281.929 250.396 281.377 250.534 280.873 250.81C280.381 251.074 279.985 251.482 279.685 252.034C279.385 252.586 279.235 253.258 279.235 254.05C279.235 254.854 279.379 255.532 279.667 256.084C279.967 256.636 280.363 257.05 280.855 257.326C281.347 257.59 281.887 257.722 282.475 257.722ZM301.549 248.956C302.317 248.956 303.001 249.118 303.601 249.442C304.201 249.754 304.675 250.228 305.023 250.864C305.371 251.5 305.545 252.274 305.545 253.186V259H303.925V253.42C303.925 252.436 303.679 251.686 303.187 251.17C302.707 250.642 302.053 250.378 301.225 250.378C300.373 250.378 299.695 250.654 299.191 251.206C298.687 251.746 298.435 252.532 298.435 253.564V259H296.815V253.42C296.815 252.436 296.569 251.686 296.077 251.17C295.597 250.642 294.943 250.378 294.115 250.378C293.263 250.378 292.585 250.654 292.081 251.206C291.577 251.746 291.325 252.532 291.325 253.564V259H289.687V249.136H291.325V250.558C291.649 250.042 292.081 249.646 292.621 249.37C293.173 249.094 293.779 248.956 294.439 248.956C295.267 248.956 295.999 249.142 296.635 249.514C297.271 249.886 297.745 250.432 298.057 251.152C298.333 250.456 298.789 249.916 299.425 249.532C300.061 249.148 300.769 248.956 301.549 248.956ZM317.232 253.69C317.232 254.002 317.214 254.332 317.178 254.68H309.294C309.354 255.652 309.684 256.414 310.284 256.966C310.896 257.506 311.634 257.776 312.498 257.776C313.206 257.776 313.794 257.614 314.262 257.29C314.742 256.954 315.078 256.51 315.27 255.958H317.034C316.77 256.906 316.242 257.68 315.45 258.28C314.658 258.868 313.674 259.162 312.498 259.162C311.562 259.162 310.722 258.952 309.978 258.532C309.246 258.112 308.67 257.518 308.25 256.75C307.83 255.97 307.62 255.07 307.62 254.05C307.62 253.03 307.824 252.136 308.232 251.368C308.64 250.6 309.21 250.012 309.942 249.604C310.686 249.184 311.538 248.974 312.498 248.974C313.434 248.974 314.262 249.178 314.982 249.586C315.702 249.994 316.254 250.558 316.638 251.278C317.034 251.986 317.232 252.79 317.232 253.69ZM315.54 253.348C315.54 252.724 315.402 252.19 315.126 251.746C314.85 251.29 314.472 250.948 313.992 250.72C313.524 250.48 313.002 250.36 312.426 250.36C311.598 250.36 310.89 250.624 310.302 251.152C309.726 251.68 309.396 252.412 309.312 253.348H315.54ZM321.032 250.738C321.32 250.174 321.728 249.736 322.256 249.424C322.796 249.112 323.45 248.956 324.218 248.956V250.648H323.786C321.95 250.648 321.032 251.644 321.032 253.636V259H319.394V249.136H321.032V250.738ZM334.399 259.162C333.643 259.162 332.965 259.036 332.365 258.784C331.765 258.52 331.291 258.16 330.943 257.704C330.595 257.236 330.403 256.702 330.367 256.102H332.059C332.107 256.594 332.335 256.996 332.743 257.308C333.163 257.62 333.709 257.776 334.381 257.776C335.005 257.776 335.497 257.638 335.857 257.362C336.217 257.086 336.397 256.738 336.397 256.318C336.397 255.886 336.205 255.568 335.821 255.364C335.437 255.148 334.843 254.938 334.039 254.734C333.307 254.542 332.707 254.35 332.239 254.158C331.783 253.954 331.387 253.66 331.051 253.276C330.727 252.88 330.565 252.364 330.565 251.728C330.565 251.224 330.715 250.762 331.015 250.342C331.315 249.922 331.741 249.592 332.293 249.352C332.845 249.1 333.475 248.974 334.183 248.974C335.275 248.974 336.157 249.25 336.829 249.802C337.501 250.354 337.861 251.11 337.909 252.07H336.271C336.235 251.554 336.025 251.14 335.641 250.828C335.269 250.516 334.765 250.36 334.129 250.36C333.541 250.36 333.073 250.486 332.725 250.738C332.377 250.99 332.203 251.32 332.203 251.728C332.203 252.052 332.305 252.322 332.509 252.538C332.725 252.742 332.989 252.91 333.301 253.042C333.625 253.162 334.069 253.3 334.633 253.456C335.341 253.648 335.917 253.84 336.361 254.032C336.805 254.212 337.183 254.488 337.495 254.86C337.819 255.232 337.987 255.718 337.999 256.318C337.999 256.858 337.849 257.344 337.549 257.776C337.249 258.208 336.823 258.55 336.271 258.802C335.731 259.042 335.107 259.162 334.399 259.162ZM349.312 253.69C349.312 254.002 349.294 254.332 349.258 254.68H341.374C341.434 255.652 341.764 256.414 342.364 256.966C342.976 257.506 343.714 257.776 344.578 257.776C345.286 257.776 345.874 257.614 346.342 257.29C346.822 256.954 347.158 256.51 347.35 255.958H349.114C348.85 256.906 348.322 257.68 347.53 258.28C346.738 258.868 345.754 259.162 344.578 259.162C343.642 259.162 342.802 258.952 342.058 258.532C341.326 258.112 340.75 257.518 340.33 256.75C339.91 255.97 339.7 255.07 339.7 254.05C339.7 253.03 339.904 252.136 340.312 251.368C340.72 250.6 341.29 250.012 342.022 249.604C342.766 249.184 343.618 248.974 344.578 248.974C345.514 248.974 346.342 249.178 347.062 249.586C347.782 249.994 348.334 250.558 348.718 251.278C349.114 251.986 349.312 252.79 349.312 253.69ZM347.62 253.348C347.62 252.724 347.482 252.19 347.206 251.746C346.93 251.29 346.552 250.948 346.072 250.72C345.604 250.48 345.082 250.36 344.506 250.36C343.678 250.36 342.97 250.624 342.382 251.152C341.806 251.68 341.476 252.412 341.392 253.348H347.62ZM353.112 250.738C353.4 250.174 353.808 249.736 354.336 249.424C354.876 249.112 355.53 248.956 356.298 248.956V250.648H355.866C354.03 250.648 353.112 251.644 353.112 253.636V259H351.474V249.136H353.112V250.738ZM361.861 257.488L364.921 249.136H366.667L362.797 259H360.889L357.019 249.136H358.783L361.861 257.488ZM369.125 247.534C368.813 247.534 368.549 247.426 368.333 247.21C368.117 246.994 368.009 246.73 368.009 246.418C368.009 246.106 368.117 245.842 368.333 245.626C368.549 245.41 368.813 245.302 369.125 245.302C369.425 245.302 369.677 245.41 369.881 245.626C370.097 245.842 370.205 246.106 370.205 246.418C370.205 246.73 370.097 246.994 369.881 247.21C369.677 247.426 369.425 247.534 369.125 247.534ZM369.917 249.136V259H368.279V249.136H369.917ZM372.096 254.05C372.096 253.03 372.3 252.142 372.708 251.386C373.116 250.618 373.68 250.024 374.4 249.604C375.132 249.184 375.966 248.974 376.902 248.974C378.114 248.974 379.11 249.268 379.89 249.856C380.682 250.444 381.204 251.26 381.456 252.304H379.692C379.524 251.704 379.194 251.23 378.702 250.882C378.222 250.534 377.622 250.36 376.902 250.36C375.966 250.36 375.21 250.684 374.634 251.332C374.058 251.968 373.77 252.874 373.77 254.05C373.77 255.238 374.058 256.156 374.634 256.804C375.21 257.452 375.966 257.776 376.902 257.776C377.622 257.776 378.222 257.608 378.702 257.272C379.182 256.936 379.512 256.456 379.692 255.832H381.456C381.192 256.84 380.664 257.65 379.872 258.262C379.08 258.862 378.09 259.162 376.902 259.162C375.966 259.162 375.132 258.952 374.4 258.532C373.68 258.112 373.116 257.518 372.708 256.75C372.3 255.982 372.096 255.082 372.096 254.05ZM392.642 253.69C392.642 254.002 392.624 254.332 392.588 254.68H384.704C384.764 255.652 385.094 256.414 385.694 256.966C386.306 257.506 387.044 257.776 387.908 257.776C388.616 257.776 389.204 257.614 389.672 257.29C390.152 256.954 390.488 256.51 390.68 255.958H392.444C392.18 256.906 391.652 257.68 390.86 258.28C390.068 258.868 389.084 259.162 387.908 259.162C386.972 259.162 386.132 258.952 385.388 258.532C384.656 258.112 384.08 257.518 383.66 256.75C383.24 255.97 383.03 255.07 383.03 254.05C383.03 253.03 383.234 252.136 383.642 251.368C384.05 250.6 384.62 250.012 385.352 249.604C386.096 249.184 386.948 248.974 387.908 248.974C388.844 248.974 389.672 249.178 390.392 249.586C391.112 249.994 391.664 250.558 392.048 251.278C392.444 251.986 392.642 252.79 392.642 253.69ZM390.95 253.348C390.95 252.724 390.812 252.19 390.536 251.746C390.26 251.29 389.882 250.948 389.402 250.72C388.934 250.48 388.412 250.36 387.836 250.36C387.008 250.36 386.3 250.624 385.712 251.152C385.136 251.68 384.806 252.412 384.722 253.348H390.95Z" fill="black"/>
<defs>
<filter id="filter0_f_24_82" x="0" y="0" width="526" height="358" filterUnits="userSpaceOnUse" color-interpolation-filters="sRGB">
<feFlood flood-opacity="0" result="BackgroundImageFix"/>
<feBlend mode="normal" in="SourceGraphic" in2="BackgroundImageFix" result="shape"/>
<feGaussianBlur stdDeviation="10.5" result="effect1_foregroundBlur_24_82"/>
</filter>
<linearGradient id="paint0_linear_24_82" x1="102.823" y1="77" x2="160.753" y2="136.344" gradientUnits="userSpaceOnUse">
<stop stop-color="#E04D4D"/>
<stop offset="1" stop-color="#F9C1C1"/>
<stop offset="1" stop-color="#F9C1C1"/>
</linearGradient>
</defs>
</svg>
