<svg width="526" height="358" viewBox="0 0 526 358" fill="none" xmlns="http://www.w3.org/2000/svg">
<g filter="url(#filter0_f_24_83)">
<rect x="21" y="21" width="484" height="316" rx="30" fill="#E9CACD" fill-opacity="0.74"/>
</g>
<rect x="21" y="12" width="484" height="316" rx="30" fill="white"/>
<circle cx="112" cy="118" r="41" fill="url(#paint0_linear_24_83)"/>
<path d="M202.74 92.112C204.156 92.376 205.32 93.084 206.232 94.236C207.144 95.388 207.6 96.708 207.6 98.196C207.6 99.54 207.264 100.728 206.592 101.76C205.944 102.768 204.996 103.56 203.748 104.136C202.5 104.712 201.024 105 199.32 105H188.484V79.872H198.852C200.556 79.872 202.02 80.148 203.244 80.7C204.492 81.252 205.428 82.02 206.052 83.004C206.7 83.988 207.024 85.104 207.024 86.352C207.024 87.816 206.628 89.04 205.836 90.024C205.068 91.008 204.036 91.704 202.74 92.112ZM193.524 90.24H198.132C199.332 90.24 200.256 89.976 200.904 89.448C201.552 88.896 201.876 88.116 201.876 87.108C201.876 86.1 201.552 85.32 200.904 84.768C200.256 84.216 199.332 83.94 198.132 83.94H193.524V90.24ZM198.6 100.896C199.824 100.896 200.772 100.608 201.444 100.032C202.14 99.456 202.488 98.64 202.488 97.584C202.488 96.504 202.128 95.664 201.408 95.064C200.688 94.44 199.716 94.128 198.492 94.128H193.524V100.896H198.6ZM216.657 88.152C217.305 87.096 218.145 86.268 219.177 85.668C220.233 85.068 221.433 84.768 222.777 84.768V90.06H221.445C219.861 90.06 218.661 90.432 217.845 91.176C217.053 91.92 216.657 93.216 216.657 95.064V105H211.617V85.056H216.657V88.152ZM224.875 94.956C224.875 92.94 225.271 91.152 226.063 89.592C226.88 88.032 227.972 86.832 229.34 85.992C230.732 85.152 232.28 84.732 233.984 84.732C235.472 84.732 236.768 85.032 237.872 85.632C239 86.232 239.9 86.988 240.572 87.9V85.056H245.648V105H240.572V102.084C239.924 103.02 239.024 103.8 237.872 104.424C236.744 105.024 235.436 105.324 233.948 105.324C232.268 105.324 230.732 104.892 229.34 104.028C227.972 103.164 226.88 101.952 226.063 100.392C225.271 98.808 224.875 96.996 224.875 94.956ZM240.572 95.028C240.572 93.804 240.332 92.76 239.852 91.896C239.372 91.008 238.724 90.336 237.908 89.88C237.092 89.4 236.216 89.16 235.28 89.16C234.344 89.16 233.48 89.388 232.688 89.844C231.896 90.3 231.248 90.972 230.744 91.86C230.264 92.724 230.024 93.756 230.024 94.956C230.024 96.156 230.264 97.212 230.744 98.124C231.248 99.012 231.896 99.696 232.688 100.176C233.504 100.656 234.368 100.896 235.28 100.896C236.216 100.896 237.092 100.668 237.908 100.212C238.724 99.732 239.372 99.06 239.852 98.196C240.332 97.308 240.572 96.252 240.572 95.028ZM253.126 82.68C252.238 82.68 251.494 82.404 250.894 81.852C250.318 81.276 250.03 80.568 250.03 79.728C250.03 78.888 250.318 78.192 250.894 77.64C251.494 77.064 252.238 76.776 253.126 76.776C254.014 76.776 254.746 77.064 255.322 77.64C255.922 78.192 256.222 78.888 256.222 79.728C256.222 80.568 255.922 81.276 255.322 81.852C254.746 82.404 254.014 82.68 253.126 82.68ZM255.61 85.056V105H250.57V85.056H255.61ZM271.641 84.768C274.017 84.768 275.937 85.524 277.401 87.036C278.865 88.524 279.597 90.612 279.597 93.3V105H274.557V93.984C274.557 92.4 274.161 91.188 273.369 90.348C272.577 89.484 271.497 89.052 270.129 89.052C268.737 89.052 267.633 89.484 266.817 90.348C266.025 91.188 265.629 92.4 265.629 93.984V105H260.589V85.056H265.629V87.54C266.301 86.676 267.153 86.004 268.185 85.524C269.241 85.02 270.393 84.768 271.641 84.768ZM292.022 105.324C290.39 105.324 288.926 105.036 287.63 104.46C286.334 103.86 285.302 103.056 284.534 102.048C283.79 101.04 283.382 99.924 283.31 98.7H288.386C288.482 99.468 288.854 100.104 289.502 100.608C290.174 101.112 291.002 101.364 291.986 101.364C292.946 101.364 293.69 101.172 294.218 100.788C294.77 100.404 295.046 99.912 295.046 99.312C295.046 98.664 294.71 98.184 294.038 97.872C293.39 97.536 292.346 97.176 290.906 96.792C289.418 96.432 288.194 96.06 287.234 95.676C286.298 95.292 285.482 94.704 284.786 93.912C284.114 93.12 283.778 92.052 283.778 90.708C283.778 89.604 284.09 88.596 284.714 87.684C285.362 86.772 286.274 86.052 287.45 85.524C288.65 84.996 290.054 84.732 291.662 84.732C294.038 84.732 295.934 85.332 297.35 86.532C298.766 87.708 299.546 89.304 299.69 91.32H294.866C294.794 90.528 294.458 89.904 293.858 89.448C293.282 88.968 292.502 88.728 291.518 88.728C290.606 88.728 289.898 88.896 289.394 89.232C288.914 89.568 288.674 90.036 288.674 90.636C288.674 91.308 289.01 91.824 289.682 92.184C290.354 92.52 291.398 92.868 292.814 93.228C294.254 93.588 295.442 93.96 296.378 94.344C297.314 94.728 298.118 95.328 298.79 96.144C299.486 96.936 299.846 97.992 299.87 99.312C299.87 100.464 299.546 101.496 298.898 102.408C298.274 103.32 297.362 104.04 296.162 104.568C294.986 105.072 293.606 105.324 292.022 105.324ZM309.875 89.196V98.844C309.875 99.516 310.031 100.008 310.343 100.32C310.679 100.608 311.231 100.752 311.999 100.752H314.339V105H311.171C306.923 105 304.799 102.936 304.799 98.808V89.196H302.423V85.056H304.799V80.124H309.875V85.056H314.339V89.196H309.875ZM326.82 105.324C324.9 105.324 323.172 104.904 321.636 104.064C320.1 103.2 318.888 101.988 318 100.428C317.136 98.868 316.704 97.068 316.704 95.028C316.704 92.988 317.148 91.188 318.036 89.628C318.948 88.068 320.184 86.868 321.744 86.028C323.304 85.164 325.044 84.732 326.964 84.732C328.884 84.732 330.624 85.164 332.184 86.028C333.744 86.868 334.968 88.068 335.856 89.628C336.768 91.188 337.224 92.988 337.224 95.028C337.224 97.068 336.756 98.868 335.82 100.428C334.908 101.988 333.66 103.2 332.076 104.064C330.516 104.904 328.764 105.324 326.82 105.324ZM326.82 100.932C327.732 100.932 328.584 100.716 329.376 100.284C330.192 99.828 330.84 99.156 331.32 98.268C331.8 97.38 332.04 96.3 332.04 95.028C332.04 93.132 331.536 91.68 330.528 90.672C329.544 89.64 328.332 89.124 326.892 89.124C325.452 89.124 324.24 89.64 323.256 90.672C322.296 91.68 321.816 93.132 321.816 95.028C321.816 96.924 322.284 98.388 323.22 99.42C324.18 100.428 325.38 100.932 326.82 100.932ZM345.962 88.152C346.61 87.096 347.45 86.268 348.482 85.668C349.538 85.068 350.738 84.768 352.082 84.768V90.06H350.75C349.166 90.06 347.966 90.432 347.15 91.176C346.358 91.92 345.962 93.216 345.962 95.064V105H340.922V85.056H345.962V88.152ZM380.244 84.768C382.692 84.768 384.66 85.524 386.148 87.036C387.66 88.524 388.416 90.612 388.416 93.3V105H383.376V93.984C383.376 92.424 382.98 91.236 382.188 90.42C381.396 89.58 380.316 89.16 378.948 89.16C377.58 89.16 376.488 89.58 375.672 90.42C374.88 91.236 374.484 92.424 374.484 93.984V105H369.444V93.984C369.444 92.424 369.048 91.236 368.256 90.42C367.464 89.58 366.384 89.16 365.016 89.16C363.624 89.16 362.52 89.58 361.704 90.42C360.912 91.236 360.516 92.424 360.516 93.984V105H355.476V85.056H360.516V87.468C361.164 86.628 361.992 85.968 363 85.488C364.032 85.008 365.16 84.768 366.384 84.768C367.944 84.768 369.336 85.104 370.56 85.776C371.784 86.424 372.732 87.36 373.404 88.584C374.052 87.432 374.988 86.508 376.212 85.812C377.46 85.116 378.804 84.768 380.244 84.768ZM196.116 153.324C194.484 153.324 193.02 153.036 191.724 152.46C190.428 151.86 189.396 151.056 188.628 150.048C187.884 149.04 187.476 147.924 187.404 146.7H192.48C192.576 147.468 192.948 148.104 193.596 148.608C194.268 149.112 195.096 149.364 196.08 149.364C197.04 149.364 197.784 149.172 198.312 148.788C198.864 148.404 199.14 147.912 199.14 147.312C199.14 146.664 198.804 146.184 198.132 145.872C197.484 145.536 196.44 145.176 195 144.792C193.512 144.432 192.288 144.06 191.328 143.676C190.392 143.292 189.576 142.704 188.88 141.912C188.208 141.12 187.872 140.052 187.872 138.708C187.872 137.604 188.184 136.596 188.808 135.684C189.456 134.772 190.368 134.052 191.544 133.524C192.744 132.996 194.148 132.732 195.756 132.732C198.132 132.732 200.028 133.332 201.444 134.532C202.86 135.708 203.64 137.304 203.784 139.32H198.96C198.888 138.528 198.552 137.904 197.952 137.448C197.376 136.968 196.596 136.728 195.612 136.728C194.7 136.728 193.992 136.896 193.488 137.232C193.008 137.568 192.768 138.036 192.768 138.636C192.768 139.308 193.104 139.824 193.776 140.184C194.448 140.52 195.492 140.868 196.908 141.228C198.348 141.588 199.536 141.96 200.472 142.344C201.408 142.728 202.212 143.328 202.884 144.144C203.58 144.936 203.94 145.992 203.964 147.312C203.964 148.464 203.64 149.496 202.992 150.408C202.368 151.32 201.456 152.04 200.256 152.568C199.08 153.072 197.7 153.324 196.116 153.324ZM216.957 153.324C215.037 153.324 213.309 152.904 211.773 152.064C210.237 151.2 209.025 149.988 208.137 148.428C207.273 146.868 206.841 145.068 206.841 143.028C206.841 140.988 207.285 139.188 208.173 137.628C209.085 136.068 210.321 134.868 211.881 134.028C213.441 133.164 215.181 132.732 217.101 132.732C219.021 132.732 220.761 133.164 222.321 134.028C223.881 134.868 225.105 136.068 225.993 137.628C226.905 139.188 227.361 140.988 227.361 143.028C227.361 145.068 226.893 146.868 225.957 148.428C225.045 149.988 223.797 151.2 222.213 152.064C220.653 152.904 218.901 153.324 216.957 153.324ZM216.957 148.932C217.869 148.932 218.721 148.716 219.513 148.284C220.329 147.828 220.977 147.156 221.457 146.268C221.937 145.38 222.177 144.3 222.177 143.028C222.177 141.132 221.673 139.68 220.665 138.672C219.681 137.64 218.469 137.124 217.029 137.124C215.589 137.124 214.377 137.64 213.393 138.672C212.433 139.68 211.953 141.132 211.953 143.028C211.953 144.924 212.421 146.388 213.357 147.42C214.317 148.428 215.517 148.932 216.957 148.932ZM236.098 126.36V153H231.058V126.36H236.098ZM259.906 133.056V153H254.83V150.48C254.182 151.344 253.33 152.028 252.274 152.532C251.242 153.012 250.114 153.252 248.89 153.252C247.33 153.252 245.95 152.928 244.75 152.28C243.55 151.608 242.602 150.636 241.906 149.364C241.234 148.068 240.898 146.532 240.898 144.756V133.056H245.938V144.036C245.938 145.62 246.334 146.844 247.126 147.708C247.918 148.548 248.998 148.968 250.366 148.968C251.758 148.968 252.85 148.548 253.642 147.708C254.434 146.844 254.83 145.62 254.83 144.036V133.056H259.906ZM270.747 137.196V146.844C270.747 147.516 270.903 148.008 271.215 148.32C271.551 148.608 272.103 148.752 272.871 148.752H275.211V153H272.043C267.795 153 265.671 150.936 265.671 146.808V137.196H263.295V133.056H265.671V128.124H270.747V133.056H275.211V137.196H270.747ZM281.392 130.68C280.504 130.68 279.76 130.404 279.16 129.852C278.584 129.276 278.296 128.568 278.296 127.728C278.296 126.888 278.584 126.192 279.16 125.64C279.76 125.064 280.504 124.776 281.392 124.776C282.28 124.776 283.012 125.064 283.588 125.64C284.188 126.192 284.488 126.888 284.488 127.728C284.488 128.568 284.188 129.276 283.588 129.852C283.012 130.404 282.28 130.68 281.392 130.68ZM283.876 133.056V153H278.836V133.056H283.876ZM297.711 153.324C295.791 153.324 294.063 152.904 292.527 152.064C290.991 151.2 289.779 149.988 288.891 148.428C288.027 146.868 287.595 145.068 287.595 143.028C287.595 140.988 288.039 139.188 288.927 137.628C289.839 136.068 291.075 134.868 292.635 134.028C294.195 133.164 295.935 132.732 297.855 132.732C299.775 132.732 301.515 133.164 303.075 134.028C304.635 134.868 305.859 136.068 306.747 137.628C307.659 139.188 308.115 140.988 308.115 143.028C308.115 145.068 307.647 146.868 306.711 148.428C305.799 149.988 304.551 151.2 302.967 152.064C301.407 152.904 299.655 153.324 297.711 153.324ZM297.711 148.932C298.623 148.932 299.475 148.716 300.267 148.284C301.083 147.828 301.731 147.156 302.211 146.268C302.691 145.38 302.931 144.3 302.931 143.028C302.931 141.132 302.427 139.68 301.419 138.672C300.435 137.64 299.223 137.124 297.783 137.124C296.343 137.124 295.131 137.64 294.147 138.672C293.187 139.68 292.707 141.132 292.707 143.028C292.707 144.924 293.175 146.388 294.111 147.42C295.071 148.428 296.271 148.932 297.711 148.932ZM322.864 132.768C325.24 132.768 327.16 133.524 328.624 135.036C330.088 136.524 330.82 138.612 330.82 141.3V153H325.78V141.984C325.78 140.4 325.384 139.188 324.592 138.348C323.8 137.484 322.72 137.052 321.352 137.052C319.96 137.052 318.856 137.484 318.04 138.348C317.248 139.188 316.852 140.4 316.852 141.984V153H311.812V133.056H316.852V135.54C317.524 134.676 318.376 134.004 319.408 133.524C320.464 133.02 321.616 132.768 322.864 132.768ZM343.245 153.324C341.613 153.324 340.149 153.036 338.853 152.46C337.557 151.86 336.525 151.056 335.757 150.048C335.013 149.04 334.605 147.924 334.533 146.7H339.609C339.705 147.468 340.077 148.104 340.725 148.608C341.397 149.112 342.225 149.364 343.209 149.364C344.169 149.364 344.913 149.172 345.441 148.788C345.993 148.404 346.269 147.912 346.269 147.312C346.269 146.664 345.933 146.184 345.261 145.872C344.613 145.536 343.569 145.176 342.129 144.792C340.641 144.432 339.417 144.06 338.457 143.676C337.521 143.292 336.705 142.704 336.009 141.912C335.337 141.12 335.001 140.052 335.001 138.708C335.001 137.604 335.313 136.596 335.937 135.684C336.585 134.772 337.497 134.052 338.673 133.524C339.873 132.996 341.277 132.732 342.885 132.732C345.261 132.732 347.157 133.332 348.573 134.532C349.989 135.708 350.769 137.304 350.913 139.32H346.089C346.017 138.528 345.681 137.904 345.081 137.448C344.505 136.968 343.725 136.728 342.741 136.728C341.829 136.728 341.121 136.896 340.617 137.232C340.137 137.568 339.897 138.036 339.897 138.636C339.897 139.308 340.233 139.824 340.905 140.184C341.577 140.52 342.621 140.868 344.037 141.228C345.477 141.588 346.665 141.96 347.601 142.344C348.537 142.728 349.341 143.328 350.013 144.144C350.709 144.936 351.069 145.992 351.093 147.312C351.093 148.464 350.769 149.496 350.121 150.408C349.497 151.32 348.585 152.04 347.385 152.568C346.209 153.072 344.829 153.324 343.245 153.324Z" fill="black"/>
<path d="M91.3206 116.788C91.3206 112.405 92.106 108.973 93.6766 106.49C95.2726 104.007 97.9073 102.766 101.581 102.766C105.254 102.766 107.876 104.007 109.447 106.49C111.043 108.973 111.841 112.405 111.841 116.788C111.841 121.196 111.043 124.654 109.447 127.162C107.876 129.67 105.254 130.924 101.581 130.924C97.9073 130.924 95.2726 129.67 93.6766 127.162C92.106 124.654 91.3206 121.196 91.3206 116.788ZM106.597 116.788C106.597 114.913 106.47 113.343 106.217 112.076C105.989 110.784 105.507 109.733 104.773 108.922C104.063 108.111 102.999 107.706 101.581 107.706C100.162 107.706 99.0853 108.111 98.3506 108.922C97.6413 109.733 97.16 110.784 96.9066 112.076C96.6786 113.343 96.5646 114.913 96.5646 116.788C96.5646 118.713 96.6786 120.335 96.9066 121.652C97.1346 122.944 97.616 123.995 98.3506 124.806C99.0853 125.591 100.162 125.984 101.581 125.984C102.999 125.984 104.076 125.591 104.811 124.806C105.545 123.995 106.027 122.944 106.255 121.652C106.483 120.335 106.597 118.713 106.597 116.788ZM117.559 124.996C119.991 122.969 121.929 121.285 123.373 119.942C124.817 118.574 126.02 117.155 126.983 115.686C127.946 114.217 128.427 112.773 128.427 111.354C128.427 110.062 128.123 109.049 127.515 108.314C126.907 107.579 125.97 107.212 124.703 107.212C123.436 107.212 122.461 107.643 121.777 108.504C121.093 109.34 120.738 110.493 120.713 111.962H115.545C115.646 108.922 116.546 106.617 118.243 105.046C119.966 103.475 122.144 102.69 124.779 102.69C127.667 102.69 129.884 103.463 131.429 105.008C132.974 106.528 133.747 108.542 133.747 111.05C133.747 113.026 133.215 114.913 132.151 116.712C131.087 118.511 129.871 120.081 128.503 121.424C127.135 122.741 125.349 124.337 123.145 126.212H134.355V130.62H115.583V126.668L117.559 124.996Z" fill="#FAEDED"/>
<path d="M84.481 201.202C83.869 201.202 83.347 200.992 82.915 200.572C82.495 200.14 82.285 199.618 82.285 199.006C82.285 198.382 82.495 197.86 82.915 197.44C83.347 197.008 83.869 196.792 84.481 196.792C85.105 196.792 85.633 197.008 86.065 197.44C86.497 197.86 86.713 198.382 86.713 199.006C86.713 199.618 86.497 200.14 86.065 200.572C85.633 200.992 85.105 201.202 84.481 201.202ZM105.992 205L103.004 199.87H101.024V205H99.386V192.454H103.436C104.384 192.454 105.182 192.616 105.83 192.94C106.49 193.264 106.982 193.702 107.306 194.254C107.63 194.806 107.792 195.436 107.792 196.144C107.792 197.008 107.54 197.77 107.036 198.43C106.544 199.09 105.8 199.528 104.804 199.744L107.954 205H105.992ZM101.024 198.556H103.436C104.324 198.556 104.99 198.34 105.434 197.908C105.878 197.464 106.1 196.876 106.1 196.144C106.1 195.4 105.878 194.824 105.434 194.416C105.002 194.008 104.336 193.804 103.436 193.804H101.024V198.556ZM119.337 199.69C119.337 200.002 119.319 200.332 119.283 200.68H111.399C111.459 201.652 111.789 202.414 112.389 202.966C113.001 203.506 113.739 203.776 114.603 203.776C115.311 203.776 115.899 203.614 116.367 203.29C116.847 202.954 117.183 202.51 117.375 201.958H119.139C118.875 202.906 118.347 203.68 117.555 204.28C116.763 204.868 115.779 205.162 114.603 205.162C113.667 205.162 112.827 204.952 112.083 204.532C111.351 204.112 110.775 203.518 110.355 202.75C109.935 201.97 109.725 201.07 109.725 200.05C109.725 199.03 109.929 198.136 110.337 197.368C110.745 196.6 111.315 196.012 112.047 195.604C112.791 195.184 113.643 194.974 114.603 194.974C115.539 194.974 116.367 195.178 117.087 195.586C117.807 195.994 118.359 196.558 118.743 197.278C119.139 197.986 119.337 198.79 119.337 199.69ZM117.645 199.348C117.645 198.724 117.507 198.19 117.231 197.746C116.955 197.29 116.577 196.948 116.097 196.72C115.629 196.48 115.107 196.36 114.531 196.36C113.703 196.36 112.995 196.624 112.407 197.152C111.831 197.68 111.501 198.412 111.417 199.348H117.645ZM124.991 205.162C124.235 205.162 123.557 205.036 122.957 204.784C122.357 204.52 121.883 204.16 121.535 203.704C121.187 203.236 120.995 202.702 120.959 202.102H122.651C122.699 202.594 122.927 202.996 123.335 203.308C123.755 203.62 124.301 203.776 124.973 203.776C125.597 203.776 126.089 203.638 126.449 203.362C126.809 203.086 126.989 202.738 126.989 202.318C126.989 201.886 126.797 201.568 126.413 201.364C126.029 201.148 125.435 200.938 124.631 200.734C123.899 200.542 123.299 200.35 122.831 200.158C122.375 199.954 121.979 199.66 121.643 199.276C121.319 198.88 121.157 198.364 121.157 197.728C121.157 197.224 121.307 196.762 121.607 196.342C121.907 195.922 122.333 195.592 122.885 195.352C123.437 195.1 124.067 194.974 124.775 194.974C125.867 194.974 126.749 195.25 127.421 195.802C128.093 196.354 128.453 197.11 128.501 198.07H126.863C126.827 197.554 126.617 197.14 126.233 196.828C125.861 196.516 125.357 196.36 124.721 196.36C124.133 196.36 123.665 196.486 123.317 196.738C122.969 196.99 122.795 197.32 122.795 197.728C122.795 198.052 122.897 198.322 123.101 198.538C123.317 198.742 123.581 198.91 123.893 199.042C124.217 199.162 124.661 199.3 125.225 199.456C125.933 199.648 126.509 199.84 126.953 200.032C127.397 200.212 127.775 200.488 128.087 200.86C128.411 201.232 128.579 201.718 128.591 202.318C128.591 202.858 128.441 203.344 128.141 203.776C127.841 204.208 127.415 204.55 126.863 204.802C126.323 205.042 125.699 205.162 124.991 205.162ZM139.904 199.69C139.904 200.002 139.886 200.332 139.85 200.68H131.966C132.026 201.652 132.356 202.414 132.956 202.966C133.568 203.506 134.306 203.776 135.17 203.776C135.878 203.776 136.466 203.614 136.934 203.29C137.414 202.954 137.75 202.51 137.942 201.958H139.706C139.442 202.906 138.914 203.68 138.122 204.28C137.33 204.868 136.346 205.162 135.17 205.162C134.234 205.162 133.394 204.952 132.65 204.532C131.918 204.112 131.342 203.518 130.922 202.75C130.502 201.97 130.292 201.07 130.292 200.05C130.292 199.03 130.496 198.136 130.904 197.368C131.312 196.6 131.882 196.012 132.614 195.604C133.358 195.184 134.21 194.974 135.17 194.974C136.106 194.974 136.934 195.178 137.654 195.586C138.374 195.994 138.926 196.558 139.31 197.278C139.706 197.986 139.904 198.79 139.904 199.69ZM138.212 199.348C138.212 198.724 138.074 198.19 137.798 197.746C137.522 197.29 137.144 196.948 136.664 196.72C136.196 196.48 135.674 196.36 135.098 196.36C134.27 196.36 133.562 196.624 132.974 197.152C132.398 197.68 132.068 198.412 131.984 199.348H138.212ZM141.454 200.032C141.454 199.024 141.658 198.142 142.066 197.386C142.474 196.618 143.032 196.024 143.74 195.604C144.46 195.184 145.258 194.974 146.134 194.974C146.998 194.974 147.748 195.16 148.384 195.532C149.02 195.904 149.494 196.372 149.806 196.936V195.136H151.462V205H149.806V203.164C149.482 203.74 148.996 204.22 148.348 204.604C147.712 204.976 146.968 205.162 146.116 205.162C145.24 205.162 144.448 204.946 143.74 204.514C143.032 204.082 142.474 203.476 142.066 202.696C141.658 201.916 141.454 201.028 141.454 200.032ZM149.806 200.05C149.806 199.306 149.656 198.658 149.356 198.106C149.056 197.554 148.648 197.134 148.132 196.846C147.628 196.546 147.07 196.396 146.458 196.396C145.846 196.396 145.288 196.54 144.784 196.828C144.28 197.116 143.878 197.536 143.578 198.088C143.278 198.64 143.128 199.288 143.128 200.032C143.128 200.788 143.278 201.448 143.578 202.012C143.878 202.564 144.28 202.99 144.784 203.29C145.288 203.578 145.846 203.722 146.458 203.722C147.07 203.722 147.628 203.578 148.132 203.29C148.648 202.99 149.056 202.564 149.356 202.012C149.656 201.448 149.806 200.794 149.806 200.05ZM155.868 196.738C156.156 196.174 156.564 195.736 157.092 195.424C157.632 195.112 158.286 194.956 159.054 194.956V196.648H158.622C156.786 196.648 155.868 197.644 155.868 199.636V205H154.23V195.136H155.868V196.738ZM160.333 200.05C160.333 199.03 160.537 198.142 160.945 197.386C161.353 196.618 161.917 196.024 162.637 195.604C163.369 195.184 164.203 194.974 165.139 194.974C166.351 194.974 167.347 195.268 168.127 195.856C168.919 196.444 169.441 197.26 169.693 198.304H167.929C167.761 197.704 167.431 197.23 166.939 196.882C166.459 196.534 165.859 196.36 165.139 196.36C164.203 196.36 163.447 196.684 162.871 197.332C162.295 197.968 162.007 198.874 162.007 200.05C162.007 201.238 162.295 202.156 162.871 202.804C163.447 203.452 164.203 203.776 165.139 203.776C165.859 203.776 166.459 203.608 166.939 203.272C167.419 202.936 167.749 202.456 167.929 201.832H169.693C169.429 202.84 168.901 203.65 168.109 204.262C167.317 204.862 166.327 205.162 165.139 205.162C164.203 205.162 163.369 204.952 162.637 204.532C161.917 204.112 161.353 203.518 160.945 202.75C160.537 201.982 160.333 201.082 160.333 200.05ZM176.774 194.956C177.518 194.956 178.19 195.118 178.79 195.442C179.39 195.754 179.858 196.228 180.194 196.864C180.542 197.5 180.716 198.274 180.716 199.186V205H179.096V199.42C179.096 198.436 178.85 197.686 178.358 197.17C177.866 196.642 177.194 196.378 176.342 196.378C175.478 196.378 174.788 196.648 174.272 197.188C173.768 197.728 173.516 198.514 173.516 199.546V205H171.878V191.68H173.516V196.54C173.84 196.036 174.284 195.646 174.848 195.37C175.424 195.094 176.066 194.956 176.774 194.956ZM192.205 196.486H190.135V205H188.497V196.486H187.219V195.136H188.497V194.434C188.497 193.33 188.779 192.526 189.343 192.022C189.919 191.506 190.837 191.248 192.097 191.248V192.616C191.377 192.616 190.867 192.76 190.567 193.048C190.279 193.324 190.135 193.786 190.135 194.434V195.136H192.205V196.486ZM198.417 205.162C197.493 205.162 196.653 204.952 195.897 204.532C195.153 204.112 194.565 203.518 194.133 202.75C193.713 201.97 193.503 201.07 193.503 200.05C193.503 199.042 193.719 198.154 194.151 197.386C194.595 196.606 195.195 196.012 195.951 195.604C196.707 195.184 197.553 194.974 198.489 194.974C199.425 194.974 200.271 195.184 201.027 195.604C201.783 196.012 202.377 196.6 202.809 197.368C203.253 198.136 203.475 199.03 203.475 200.05C203.475 201.07 203.247 201.97 202.791 202.75C202.347 203.518 201.741 204.112 200.973 204.532C200.205 204.952 199.353 205.162 198.417 205.162ZM198.417 203.722C199.005 203.722 199.557 203.584 200.073 203.308C200.589 203.032 201.003 202.618 201.315 202.066C201.639 201.514 201.801 200.842 201.801 200.05C201.801 199.258 201.645 198.586 201.333 198.034C201.021 197.482 200.613 197.074 200.109 196.81C199.605 196.534 199.059 196.396 198.471 196.396C197.871 196.396 197.319 196.534 196.815 196.81C196.323 197.074 195.927 197.482 195.627 198.034C195.327 198.586 195.177 199.258 195.177 200.05C195.177 200.854 195.321 201.532 195.609 202.084C195.909 202.636 196.305 203.05 196.797 203.326C197.289 203.59 197.829 203.722 198.417 203.722ZM207.266 196.738C207.554 196.174 207.962 195.736 208.49 195.424C209.03 195.112 209.684 194.956 210.452 194.956V196.648H210.02C208.184 196.648 207.266 197.644 207.266 199.636V205H205.628V195.136H207.266V196.738ZM216.53 200.05C216.53 199.03 216.734 198.142 217.142 197.386C217.55 196.618 218.114 196.024 218.834 195.604C219.566 195.184 220.4 194.974 221.336 194.974C222.548 194.974 223.544 195.268 224.324 195.856C225.116 196.444 225.638 197.26 225.89 198.304H224.126C223.958 197.704 223.628 197.23 223.136 196.882C222.656 196.534 222.056 196.36 221.336 196.36C220.4 196.36 219.644 196.684 219.068 197.332C218.492 197.968 218.204 198.874 218.204 200.05C218.204 201.238 218.492 202.156 219.068 202.804C219.644 203.452 220.4 203.776 221.336 203.776C222.056 203.776 222.656 203.608 223.136 203.272C223.616 202.936 223.946 202.456 224.126 201.832H225.89C225.626 202.84 225.098 203.65 224.306 204.262C223.514 204.862 222.524 205.162 221.336 205.162C220.4 205.162 219.566 204.952 218.834 204.532C218.114 204.112 217.55 203.518 217.142 202.75C216.734 201.982 216.53 201.082 216.53 200.05ZM236.823 195.136V205H235.185V203.542C234.873 204.046 234.435 204.442 233.871 204.73C233.319 205.006 232.707 205.144 232.035 205.144C231.267 205.144 230.577 204.988 229.965 204.676C229.353 204.352 228.867 203.872 228.507 203.236C228.159 202.6 227.985 201.826 227.985 200.914V195.136H229.605V200.698C229.605 201.67 229.851 202.42 230.343 202.948C230.835 203.464 231.507 203.722 232.359 203.722C233.235 203.722 233.925 203.452 234.429 202.912C234.933 202.372 235.185 201.586 235.185 200.554V195.136H236.823ZM241.227 196.738C241.515 196.174 241.923 195.736 242.451 195.424C242.991 195.112 243.645 194.956 244.413 194.956V196.648H243.981C242.145 196.648 241.227 197.644 241.227 199.636V205H239.589V195.136H241.227V196.738ZM247.942 196.738C248.23 196.174 248.638 195.736 249.166 195.424C249.706 195.112 250.36 194.956 251.128 194.956V196.648H250.696C248.86 196.648 247.942 197.644 247.942 199.636V205H246.304V195.136H247.942V196.738ZM262.019 199.69C262.019 200.002 262.001 200.332 261.965 200.68H254.081C254.141 201.652 254.471 202.414 255.071 202.966C255.683 203.506 256.421 203.776 257.285 203.776C257.993 203.776 258.581 203.614 259.049 203.29C259.529 202.954 259.865 202.51 260.057 201.958H261.821C261.557 202.906 261.029 203.68 260.237 204.28C259.445 204.868 258.461 205.162 257.285 205.162C256.349 205.162 255.509 204.952 254.765 204.532C254.033 204.112 253.457 203.518 253.037 202.75C252.617 201.97 252.407 201.07 252.407 200.05C252.407 199.03 252.611 198.136 253.019 197.368C253.427 196.6 253.997 196.012 254.729 195.604C255.473 195.184 256.325 194.974 257.285 194.974C258.221 194.974 259.049 195.178 259.769 195.586C260.489 195.994 261.041 196.558 261.425 197.278C261.821 197.986 262.019 198.79 262.019 199.69ZM260.327 199.348C260.327 198.724 260.189 198.19 259.913 197.746C259.637 197.29 259.259 196.948 258.779 196.72C258.311 196.48 257.789 196.36 257.213 196.36C256.385 196.36 255.677 196.624 255.089 197.152C254.513 197.68 254.183 198.412 254.099 199.348H260.327ZM268.987 194.956C270.187 194.956 271.159 195.322 271.903 196.054C272.647 196.774 273.019 197.818 273.019 199.186V205H271.399V199.42C271.399 198.436 271.153 197.686 270.661 197.17C270.169 196.642 269.497 196.378 268.645 196.378C267.781 196.378 267.091 196.648 266.575 197.188C266.071 197.728 265.819 198.514 265.819 199.546V205H264.181V195.136H265.819V196.54C266.143 196.036 266.581 195.646 267.133 195.37C267.697 195.094 268.315 194.956 268.987 194.956ZM277.693 196.486V202.3C277.693 202.78 277.795 203.122 277.999 203.326C278.203 203.518 278.557 203.614 279.061 203.614H280.267V205H278.791C277.879 205 277.195 204.79 276.739 204.37C276.283 203.95 276.055 203.26 276.055 202.3V196.486H274.777V195.136H276.055V192.652H277.693V195.136H280.267V196.486H277.693ZM287.896 193.534C287.584 193.534 287.32 193.426 287.104 193.21C286.888 192.994 286.78 192.73 286.78 192.418C286.78 192.106 286.888 191.842 287.104 191.626C287.32 191.41 287.584 191.302 287.896 191.302C288.196 191.302 288.448 191.41 288.652 191.626C288.868 191.842 288.976 192.106 288.976 192.418C288.976 192.73 288.868 192.994 288.652 193.21C288.448 193.426 288.196 193.534 287.896 193.534ZM288.688 195.136V205H287.05V195.136H288.688ZM296.286 194.956C297.486 194.956 298.458 195.322 299.202 196.054C299.946 196.774 300.318 197.818 300.318 199.186V205H298.698V199.42C298.698 198.436 298.452 197.686 297.96 197.17C297.468 196.642 296.796 196.378 295.944 196.378C295.08 196.378 294.39 196.648 293.874 197.188C293.37 197.728 293.118 198.514 293.118 199.546V205H291.48V195.136H293.118V196.54C293.442 196.036 293.88 195.646 294.432 195.37C294.996 195.094 295.614 194.956 296.286 194.956ZM302.381 200.032C302.381 199.024 302.585 198.142 302.993 197.386C303.401 196.618 303.959 196.024 304.667 195.604C305.387 195.184 306.191 194.974 307.079 194.974C307.847 194.974 308.561 195.154 309.221 195.514C309.881 195.862 310.385 196.324 310.733 196.9V191.68H312.389V205H310.733V203.146C310.409 203.734 309.929 204.22 309.293 204.604C308.657 204.976 307.913 205.162 307.061 205.162C306.185 205.162 305.387 204.946 304.667 204.514C303.959 204.082 303.401 203.476 302.993 202.696C302.585 201.916 302.381 201.028 302.381 200.032ZM310.733 200.05C310.733 199.306 310.583 198.658 310.283 198.106C309.983 197.554 309.575 197.134 309.059 196.846C308.555 196.546 307.997 196.396 307.385 196.396C306.773 196.396 306.215 196.54 305.711 196.828C305.207 197.116 304.805 197.536 304.505 198.088C304.205 198.64 304.055 199.288 304.055 200.032C304.055 200.788 304.205 201.448 304.505 202.012C304.805 202.564 305.207 202.99 305.711 203.29C306.215 203.578 306.773 203.722 307.385 203.722C307.997 203.722 308.555 203.578 309.059 203.29C309.575 202.99 309.983 202.564 310.283 202.012C310.583 201.448 310.733 200.794 310.733 200.05ZM323.905 195.136V205H322.267V203.542C321.955 204.046 321.517 204.442 320.953 204.73C320.401 205.006 319.789 205.144 319.117 205.144C318.349 205.144 317.659 204.988 317.047 204.676C316.435 204.352 315.949 203.872 315.589 203.236C315.241 202.6 315.067 201.826 315.067 200.914V195.136H316.687V200.698C316.687 201.67 316.933 202.42 317.425 202.948C317.917 203.464 318.589 203.722 319.441 203.722C320.317 203.722 321.007 203.452 321.511 202.912C322.015 202.372 322.267 201.586 322.267 200.554V195.136H323.905ZM330.163 205.162C329.407 205.162 328.729 205.036 328.129 204.784C327.529 204.52 327.055 204.16 326.707 203.704C326.359 203.236 326.167 202.702 326.131 202.102H327.823C327.871 202.594 328.099 202.996 328.507 203.308C328.927 203.62 329.473 203.776 330.145 203.776C330.769 203.776 331.261 203.638 331.621 203.362C331.981 203.086 332.161 202.738 332.161 202.318C332.161 201.886 331.969 201.568 331.585 201.364C331.201 201.148 330.607 200.938 329.803 200.734C329.071 200.542 328.471 200.35 328.003 200.158C327.547 199.954 327.151 199.66 326.815 199.276C326.491 198.88 326.329 198.364 326.329 197.728C326.329 197.224 326.479 196.762 326.779 196.342C327.079 195.922 327.505 195.592 328.057 195.352C328.609 195.1 329.239 194.974 329.947 194.974C331.039 194.974 331.921 195.25 332.593 195.802C333.265 196.354 333.625 197.11 333.673 198.07H332.035C331.999 197.554 331.789 197.14 331.405 196.828C331.033 196.516 330.529 196.36 329.893 196.36C329.305 196.36 328.837 196.486 328.489 196.738C328.141 196.99 327.967 197.32 327.967 197.728C327.967 198.052 328.069 198.322 328.273 198.538C328.489 198.742 328.753 198.91 329.065 199.042C329.389 199.162 329.833 199.3 330.397 199.456C331.105 199.648 331.681 199.84 332.125 200.032C332.569 200.212 332.947 200.488 333.259 200.86C333.583 201.232 333.751 201.718 333.763 202.318C333.763 202.858 333.613 203.344 333.313 203.776C333.013 204.208 332.587 204.55 332.035 204.802C331.495 205.042 330.871 205.162 330.163 205.162ZM338.073 196.486V202.3C338.073 202.78 338.175 203.122 338.379 203.326C338.583 203.518 338.937 203.614 339.441 203.614H340.647V205H339.171C338.259 205 337.575 204.79 337.119 204.37C336.663 203.95 336.435 203.26 336.435 202.3V196.486H335.157V195.136H336.435V192.652H338.073V195.136H340.647V196.486H338.073ZM344.27 196.738C344.558 196.174 344.966 195.736 345.494 195.424C346.034 195.112 346.688 194.956 347.456 194.956V196.648H347.024C345.188 196.648 344.27 197.644 344.27 199.636V205H342.632V195.136H344.27V196.738ZM357.843 195.136L351.903 209.644H350.211L352.155 204.892L348.177 195.136H349.995L353.091 203.128L356.151 195.136H357.843ZM367.78 205.162C367.024 205.162 366.346 205.036 365.746 204.784C365.146 204.52 364.672 204.16 364.324 203.704C363.976 203.236 363.784 202.702 363.748 202.102H365.44C365.488 202.594 365.716 202.996 366.124 203.308C366.544 203.62 367.09 203.776 367.762 203.776C368.386 203.776 368.878 203.638 369.238 203.362C369.598 203.086 369.778 202.738 369.778 202.318C369.778 201.886 369.586 201.568 369.202 201.364C368.818 201.148 368.224 200.938 367.42 200.734C366.688 200.542 366.088 200.35 365.62 200.158C365.164 199.954 364.768 199.66 364.432 199.276C364.108 198.88 363.946 198.364 363.946 197.728C363.946 197.224 364.096 196.762 364.396 196.342C364.696 195.922 365.122 195.592 365.674 195.352C366.226 195.1 366.856 194.974 367.564 194.974C368.656 194.974 369.538 195.25 370.21 195.802C370.882 196.354 371.242 197.11 371.29 198.07H369.652C369.616 197.554 369.406 197.14 369.022 196.828C368.65 196.516 368.146 196.36 367.51 196.36C366.922 196.36 366.454 196.486 366.106 196.738C365.758 196.99 365.584 197.32 365.584 197.728C365.584 198.052 365.686 198.322 365.89 198.538C366.106 198.742 366.37 198.91 366.682 199.042C367.006 199.162 367.45 199.3 368.014 199.456C368.722 199.648 369.298 199.84 369.742 200.032C370.186 200.212 370.564 200.488 370.876 200.86C371.2 201.232 371.368 201.718 371.38 202.318C371.38 202.858 371.23 203.344 370.93 203.776C370.63 204.208 370.204 204.55 369.652 204.802C369.112 205.042 368.488 205.162 367.78 205.162ZM377.995 205.162C377.071 205.162 376.231 204.952 375.475 204.532C374.731 204.112 374.143 203.518 373.711 202.75C373.291 201.97 373.081 201.07 373.081 200.05C373.081 199.042 373.297 198.154 373.729 197.386C374.173 196.606 374.773 196.012 375.529 195.604C376.285 195.184 377.131 194.974 378.067 194.974C379.003 194.974 379.849 195.184 380.605 195.604C381.361 196.012 381.955 196.6 382.387 197.368C382.831 198.136 383.053 199.03 383.053 200.05C383.053 201.07 382.825 201.97 382.369 202.75C381.925 203.518 381.319 204.112 380.551 204.532C379.783 204.952 378.931 205.162 377.995 205.162ZM377.995 203.722C378.583 203.722 379.135 203.584 379.651 203.308C380.167 203.032 380.581 202.618 380.893 202.066C381.217 201.514 381.379 200.842 381.379 200.05C381.379 199.258 381.223 198.586 380.911 198.034C380.599 197.482 380.191 197.074 379.687 196.81C379.183 196.534 378.637 196.396 378.049 196.396C377.449 196.396 376.897 196.534 376.393 196.81C375.901 197.074 375.505 197.482 375.205 198.034C374.905 198.586 374.755 199.258 374.755 200.05C374.755 200.854 374.899 201.532 375.187 202.084C375.487 202.636 375.883 203.05 376.375 203.326C376.867 203.59 377.407 203.722 377.995 203.722ZM386.844 191.68V205H385.206V191.68H386.844ZM398.384 195.136V205H396.746V203.542C396.434 204.046 395.996 204.442 395.432 204.73C394.88 205.006 394.268 205.144 393.596 205.144C392.828 205.144 392.138 204.988 391.526 204.676C390.914 204.352 390.428 203.872 390.068 203.236C389.72 202.6 389.546 201.826 389.546 200.914V195.136H391.166V200.698C391.166 201.67 391.412 202.42 391.904 202.948C392.396 203.464 393.068 203.722 393.92 203.722C394.796 203.722 395.486 203.452 395.99 202.912C396.494 202.372 396.746 201.586 396.746 200.554V195.136H398.384ZM403.148 196.486V202.3C403.148 202.78 403.25 203.122 403.454 203.326C403.658 203.518 404.012 203.614 404.516 203.614H405.722V205H404.246C403.334 205 402.65 204.79 402.194 204.37C401.738 203.95 401.51 203.26 401.51 202.3V196.486H400.232V195.136H401.51V192.652H403.148V195.136H405.722V196.486H403.148ZM408.552 193.534C408.24 193.534 407.976 193.426 407.76 193.21C407.544 192.994 407.436 192.73 407.436 192.418C407.436 192.106 407.544 191.842 407.76 191.626C407.976 191.41 408.24 191.302 408.552 191.302C408.852 191.302 409.104 191.41 409.308 191.626C409.524 191.842 409.632 192.106 409.632 192.418C409.632 192.73 409.524 192.994 409.308 193.21C409.104 193.426 408.852 193.534 408.552 193.534ZM409.344 195.136V205H407.706V195.136H409.344ZM416.438 205.162C415.514 205.162 414.674 204.952 413.918 204.532C413.174 204.112 412.586 203.518 412.154 202.75C411.734 201.97 411.524 201.07 411.524 200.05C411.524 199.042 411.74 198.154 412.172 197.386C412.616 196.606 413.216 196.012 413.972 195.604C414.728 195.184 415.574 194.974 416.51 194.974C417.446 194.974 418.292 195.184 419.048 195.604C419.804 196.012 420.398 196.6 420.83 197.368C421.274 198.136 421.496 199.03 421.496 200.05C421.496 201.07 421.268 201.97 420.812 202.75C420.368 203.518 419.762 204.112 418.994 204.532C418.226 204.952 417.374 205.162 416.438 205.162ZM416.438 203.722C417.026 203.722 417.578 203.584 418.094 203.308C418.61 203.032 419.024 202.618 419.336 202.066C419.66 201.514 419.822 200.842 419.822 200.05C419.822 199.258 419.666 198.586 419.354 198.034C419.042 197.482 418.634 197.074 418.13 196.81C417.626 196.534 417.08 196.396 416.492 196.396C415.892 196.396 415.34 196.534 414.836 196.81C414.344 197.074 413.948 197.482 413.648 198.034C413.348 198.586 413.198 199.258 413.198 200.05C413.198 200.854 413.342 201.532 413.63 202.084C413.93 202.636 414.326 203.05 414.818 203.326C415.31 203.59 415.85 203.722 416.438 203.722ZM428.456 194.956C429.656 194.956 430.628 195.322 431.372 196.054C432.116 196.774 432.488 197.818 432.488 199.186V205H430.868V199.42C430.868 198.436 430.622 197.686 430.13 197.17C429.638 196.642 428.966 196.378 428.114 196.378C427.25 196.378 426.56 196.648 426.044 197.188C425.54 197.728 425.288 198.514 425.288 199.546V205H423.65V195.136H425.288V196.54C425.612 196.036 426.05 195.646 426.602 195.37C427.166 195.094 427.784 194.956 428.456 194.956ZM438.655 205.162C437.899 205.162 437.221 205.036 436.621 204.784C436.021 204.52 435.547 204.16 435.199 203.704C434.851 203.236 434.659 202.702 434.623 202.102H436.315C436.363 202.594 436.591 202.996 436.999 203.308C437.419 203.62 437.965 203.776 438.637 203.776C439.261 203.776 439.753 203.638 440.113 203.362C440.473 203.086 440.653 202.738 440.653 202.318C440.653 201.886 440.461 201.568 440.077 201.364C439.693 201.148 439.099 200.938 438.295 200.734C437.563 200.542 436.963 200.35 436.495 200.158C436.039 199.954 435.643 199.66 435.307 199.276C434.983 198.88 434.821 198.364 434.821 197.728C434.821 197.224 434.971 196.762 435.271 196.342C435.571 195.922 435.997 195.592 436.549 195.352C437.101 195.1 437.731 194.974 438.439 194.974C439.531 194.974 440.413 195.25 441.085 195.802C441.757 196.354 442.117 197.11 442.165 198.07H440.527C440.491 197.554 440.281 197.14 439.897 196.828C439.525 196.516 439.021 196.36 438.385 196.36C437.797 196.36 437.329 196.486 436.981 196.738C436.633 196.99 436.459 197.32 436.459 197.728C436.459 198.052 436.561 198.322 436.765 198.538C436.981 198.742 437.245 198.91 437.557 199.042C437.881 199.162 438.325 199.3 438.889 199.456C439.597 199.648 440.173 199.84 440.617 200.032C441.061 200.212 441.439 200.488 441.751 200.86C442.075 201.232 442.243 201.718 442.255 202.318C442.255 202.858 442.105 203.344 441.805 203.776C441.505 204.208 441.079 204.55 440.527 204.802C439.987 205.042 439.363 205.162 438.655 205.162ZM84.481 228.202C83.869 228.202 83.347 227.992 82.915 227.572C82.495 227.14 82.285 226.618 82.285 226.006C82.285 225.382 82.495 224.86 82.915 224.44C83.347 224.008 83.869 223.792 84.481 223.792C85.105 223.792 85.633 224.008 86.065 224.44C86.497 224.86 86.713 225.382 86.713 226.006C86.713 226.618 86.497 227.14 86.065 227.572C85.633 227.992 85.105 228.202 84.481 228.202ZM100.988 219.454V227.392C100.988 228.508 101.258 229.336 101.798 229.876C102.35 230.416 103.112 230.686 104.084 230.686C105.044 230.686 105.794 230.416 106.334 229.876C106.886 229.336 107.162 228.508 107.162 227.392V219.454H108.8V227.374C108.8 228.418 108.59 229.3 108.17 230.02C107.75 230.728 107.18 231.256 106.46 231.604C105.752 231.952 104.954 232.126 104.066 232.126C103.178 232.126 102.374 231.952 101.654 231.604C100.946 231.256 100.382 230.728 99.962 230.02C99.554 229.3 99.35 228.418 99.35 227.374V219.454H100.988ZM115.024 232.162C114.268 232.162 113.59 232.036 112.99 231.784C112.39 231.52 111.916 231.16 111.568 230.704C111.22 230.236 111.028 229.702 110.992 229.102H112.684C112.732 229.594 112.96 229.996 113.368 230.308C113.788 230.62 114.334 230.776 115.006 230.776C115.63 230.776 116.122 230.638 116.482 230.362C116.842 230.086 117.022 229.738 117.022 229.318C117.022 228.886 116.83 228.568 116.446 228.364C116.062 228.148 115.468 227.938 114.664 227.734C113.932 227.542 113.332 227.35 112.864 227.158C112.408 226.954 112.012 226.66 111.676 226.276C111.352 225.88 111.19 225.364 111.19 224.728C111.19 224.224 111.34 223.762 111.64 223.342C111.94 222.922 112.366 222.592 112.918 222.352C113.47 222.1 114.1 221.974 114.808 221.974C115.9 221.974 116.782 222.25 117.454 222.802C118.126 223.354 118.486 224.11 118.534 225.07H116.896C116.86 224.554 116.65 224.14 116.266 223.828C115.894 223.516 115.39 223.36 114.754 223.36C114.166 223.36 113.698 223.486 113.35 223.738C113.002 223.99 112.828 224.32 112.828 224.728C112.828 225.052 112.93 225.322 113.134 225.538C113.35 225.742 113.614 225.91 113.926 226.042C114.25 226.162 114.694 226.3 115.258 226.456C115.966 226.648 116.542 226.84 116.986 227.032C117.43 227.212 117.808 227.488 118.12 227.86C118.444 228.232 118.612 228.718 118.624 229.318C118.624 229.858 118.474 230.344 118.174 230.776C117.874 231.208 117.448 231.55 116.896 231.802C116.356 232.042 115.732 232.162 115.024 232.162ZM120.325 227.032C120.325 226.024 120.529 225.142 120.937 224.386C121.345 223.618 121.903 223.024 122.611 222.604C123.331 222.184 124.129 221.974 125.005 221.974C125.869 221.974 126.619 222.16 127.255 222.532C127.891 222.904 128.365 223.372 128.677 223.936V222.136H130.333V232H128.677V230.164C128.353 230.74 127.867 231.22 127.219 231.604C126.583 231.976 125.839 232.162 124.987 232.162C124.111 232.162 123.319 231.946 122.611 231.514C121.903 231.082 121.345 230.476 120.937 229.696C120.529 228.916 120.325 228.028 120.325 227.032ZM128.677 227.05C128.677 226.306 128.527 225.658 128.227 225.106C127.927 224.554 127.519 224.134 127.003 223.846C126.499 223.546 125.941 223.396 125.329 223.396C124.717 223.396 124.159 223.54 123.655 223.828C123.151 224.116 122.749 224.536 122.449 225.088C122.149 225.64 121.999 226.288 121.999 227.032C121.999 227.788 122.149 228.448 122.449 229.012C122.749 229.564 123.151 229.99 123.655 230.29C124.159 230.578 124.717 230.722 125.329 230.722C125.941 230.722 126.499 230.578 127.003 230.29C127.519 229.99 127.927 229.564 128.227 229.012C128.527 228.448 128.677 227.794 128.677 227.05ZM134.739 223.972C135.075 223.384 135.567 222.904 136.215 222.532C136.863 222.16 137.601 221.974 138.429 221.974C139.317 221.974 140.115 222.184 140.823 222.604C141.531 223.024 142.089 223.618 142.497 224.386C142.905 225.142 143.109 226.024 143.109 227.032C143.109 228.028 142.905 228.916 142.497 229.696C142.089 230.476 141.525 231.082 140.805 231.514C140.097 231.946 139.305 232.162 138.429 232.162C137.577 232.162 136.827 231.976 136.179 231.604C135.543 231.232 135.063 230.758 134.739 230.182V232H133.101V218.68H134.739V223.972ZM141.435 227.032C141.435 226.288 141.285 225.64 140.985 225.088C140.685 224.536 140.277 224.116 139.761 223.828C139.257 223.54 138.699 223.396 138.087 223.396C137.487 223.396 136.929 223.546 136.413 223.846C135.909 224.134 135.501 224.56 135.189 225.124C134.889 225.676 134.739 226.318 134.739 227.05C134.739 227.794 134.889 228.448 135.189 229.012C135.501 229.564 135.909 229.99 136.413 230.29C136.929 230.578 137.487 230.722 138.087 230.722C138.699 230.722 139.257 230.578 139.761 230.29C140.277 229.99 140.685 229.564 140.985 229.012C141.285 228.448 141.435 227.788 141.435 227.032ZM146.111 220.534C145.799 220.534 145.535 220.426 145.319 220.21C145.103 219.994 144.995 219.73 144.995 219.418C144.995 219.106 145.103 218.842 145.319 218.626C145.535 218.41 145.799 218.302 146.111 218.302C146.411 218.302 146.663 218.41 146.867 218.626C147.083 218.842 147.191 219.106 147.191 219.418C147.191 219.73 147.083 219.994 146.867 220.21C146.663 220.426 146.411 220.534 146.111 220.534ZM146.903 222.136V232H145.265V222.136H146.903ZM151.333 218.68V232H149.695V218.68H151.333ZM154.97 220.534C154.658 220.534 154.394 220.426 154.178 220.21C153.962 219.994 153.854 219.73 153.854 219.418C153.854 219.106 153.962 218.842 154.178 218.626C154.394 218.41 154.658 218.302 154.97 218.302C155.27 218.302 155.522 218.41 155.726 218.626C155.942 218.842 156.05 219.106 156.05 219.418C156.05 219.73 155.942 219.994 155.726 220.21C155.522 220.426 155.27 220.534 154.97 220.534ZM155.762 222.136V232H154.124V222.136H155.762ZM160.552 223.486V229.3C160.552 229.78 160.654 230.122 160.858 230.326C161.062 230.518 161.416 230.614 161.92 230.614H163.126V232H161.65C160.738 232 160.054 231.79 159.598 231.37C159.142 230.95 158.914 230.26 158.914 229.3V223.486H157.636V222.136H158.914V219.652H160.552V222.136H163.126V223.486H160.552ZM173.607 222.136L167.667 236.644H165.975L167.919 231.892L163.941 222.136H165.759L168.855 230.128L171.915 222.136H173.607ZM184.948 221.956C185.692 221.956 186.364 222.118 186.964 222.442C187.564 222.754 188.032 223.228 188.368 223.864C188.716 224.5 188.89 225.274 188.89 226.186V232H187.27V226.42C187.27 225.436 187.024 224.686 186.532 224.17C186.04 223.642 185.368 223.378 184.516 223.378C183.652 223.378 182.962 223.648 182.446 224.188C181.942 224.728 181.69 225.514 181.69 226.546V232H180.052V218.68H181.69V223.54C182.014 223.036 182.458 222.646 183.022 222.37C183.598 222.094 184.24 221.956 184.948 221.956ZM200.566 226.69C200.566 227.002 200.548 227.332 200.512 227.68H192.628C192.688 228.652 193.018 229.414 193.618 229.966C194.23 230.506 194.968 230.776 195.832 230.776C196.54 230.776 197.128 230.614 197.596 230.29C198.076 229.954 198.412 229.51 198.604 228.958H200.368C200.104 229.906 199.576 230.68 198.784 231.28C197.992 231.868 197.008 232.162 195.832 232.162C194.896 232.162 194.056 231.952 193.312 231.532C192.58 231.112 192.004 230.518 191.584 229.75C191.164 228.97 190.954 228.07 190.954 227.05C190.954 226.03 191.158 225.136 191.566 224.368C191.974 223.6 192.544 223.012 193.276 222.604C194.02 222.184 194.872 221.974 195.832 221.974C196.768 221.974 197.596 222.178 198.316 222.586C199.036 222.994 199.588 223.558 199.972 224.278C200.368 224.986 200.566 225.79 200.566 226.69ZM198.874 226.348C198.874 225.724 198.736 225.19 198.46 224.746C198.184 224.29 197.806 223.948 197.326 223.72C196.858 223.48 196.336 223.36 195.76 223.36C194.932 223.36 194.224 223.624 193.636 224.152C193.06 224.68 192.73 225.412 192.646 226.348H198.874ZM211.476 222.136V232H209.838V230.542C209.526 231.046 209.088 231.442 208.524 231.73C207.972 232.006 207.36 232.144 206.688 232.144C205.92 232.144 205.23 231.988 204.618 231.676C204.006 231.352 203.52 230.872 203.16 230.236C202.812 229.6 202.638 228.826 202.638 227.914V222.136H204.258V227.698C204.258 228.67 204.504 229.42 204.996 229.948C205.488 230.464 206.16 230.722 207.012 230.722C207.888 230.722 208.578 230.452 209.082 229.912C209.586 229.372 209.838 228.586 209.838 227.554V222.136H211.476ZM215.879 223.738C216.167 223.174 216.575 222.736 217.103 222.424C217.643 222.112 218.297 221.956 219.065 221.956V223.648H218.633C216.797 223.648 215.879 224.644 215.879 226.636V232H214.241V222.136H215.879V223.738ZM221.802 220.534C221.49 220.534 221.226 220.426 221.01 220.21C220.794 219.994 220.686 219.73 220.686 219.418C220.686 219.106 220.794 218.842 221.01 218.626C221.226 218.41 221.49 218.302 221.802 218.302C222.102 218.302 222.354 218.41 222.558 218.626C222.774 218.842 222.882 219.106 222.882 219.418C222.882 219.73 222.774 219.994 222.558 220.21C222.354 220.426 222.102 220.534 221.802 220.534ZM222.594 222.136V232H220.956V222.136H222.594ZM228.878 232.162C228.122 232.162 227.444 232.036 226.844 231.784C226.244 231.52 225.77 231.16 225.422 230.704C225.074 230.236 224.882 229.702 224.846 229.102H226.538C226.586 229.594 226.814 229.996 227.222 230.308C227.642 230.62 228.188 230.776 228.86 230.776C229.484 230.776 229.976 230.638 230.336 230.362C230.696 230.086 230.876 229.738 230.876 229.318C230.876 228.886 230.684 228.568 230.3 228.364C229.916 228.148 229.322 227.938 228.518 227.734C227.786 227.542 227.186 227.35 226.718 227.158C226.262 226.954 225.866 226.66 225.53 226.276C225.206 225.88 225.044 225.364 225.044 224.728C225.044 224.224 225.194 223.762 225.494 223.342C225.794 222.922 226.22 222.592 226.772 222.352C227.324 222.1 227.954 221.974 228.662 221.974C229.754 221.974 230.636 222.25 231.308 222.802C231.98 223.354 232.34 224.11 232.388 225.07H230.75C230.714 224.554 230.504 224.14 230.12 223.828C229.748 223.516 229.244 223.36 228.608 223.36C228.02 223.36 227.552 223.486 227.204 223.738C226.856 223.99 226.682 224.32 226.682 224.728C226.682 225.052 226.784 225.322 226.988 225.538C227.204 225.742 227.468 225.91 227.78 226.042C228.104 226.162 228.548 226.3 229.112 226.456C229.82 226.648 230.396 226.84 230.84 227.032C231.284 227.212 231.662 227.488 231.974 227.86C232.298 228.232 232.466 228.718 232.478 229.318C232.478 229.858 232.328 230.344 232.028 230.776C231.728 231.208 231.302 231.55 230.75 231.802C230.21 232.042 229.586 232.162 228.878 232.162ZM236.788 223.486V229.3C236.788 229.78 236.89 230.122 237.094 230.326C237.298 230.518 237.652 230.614 238.156 230.614H239.362V232H237.886C236.974 232 236.29 231.79 235.834 231.37C235.378 230.95 235.15 230.26 235.15 229.3V223.486H233.872V222.136H235.15V219.652H236.788V222.136H239.362V223.486H236.788ZM242.193 220.534C241.881 220.534 241.617 220.426 241.401 220.21C241.185 219.994 241.077 219.73 241.077 219.418C241.077 219.106 241.185 218.842 241.401 218.626C241.617 218.41 241.881 218.302 242.193 218.302C242.493 218.302 242.745 218.41 242.949 218.626C243.165 218.842 243.273 219.106 243.273 219.418C243.273 219.73 243.165 219.994 242.949 220.21C242.745 220.426 242.493 220.534 242.193 220.534ZM242.985 222.136V232H241.347V222.136H242.985ZM245.165 227.05C245.165 226.03 245.369 225.142 245.777 224.386C246.185 223.618 246.749 223.024 247.469 222.604C248.201 222.184 249.035 221.974 249.971 221.974C251.183 221.974 252.179 222.268 252.959 222.856C253.751 223.444 254.273 224.26 254.525 225.304H252.761C252.593 224.704 252.263 224.23 251.771 223.882C251.291 223.534 250.691 223.36 249.971 223.36C249.035 223.36 248.279 223.684 247.703 224.332C247.127 224.968 246.839 225.874 246.839 227.05C246.839 228.238 247.127 229.156 247.703 229.804C248.279 230.452 249.035 230.776 249.971 230.776C250.691 230.776 251.291 230.608 251.771 230.272C252.251 229.936 252.581 229.456 252.761 228.832H254.525C254.261 229.84 253.733 230.65 252.941 231.262C252.149 231.862 251.159 232.162 249.971 232.162C249.035 232.162 248.201 231.952 247.469 231.532C246.749 231.112 246.185 230.518 245.777 229.75C245.369 228.982 245.165 228.082 245.165 227.05ZM260.202 232.162C259.446 232.162 258.768 232.036 258.168 231.784C257.568 231.52 257.094 231.16 256.746 230.704C256.398 230.236 256.206 229.702 256.17 229.102H257.862C257.91 229.594 258.138 229.996 258.546 230.308C258.966 230.62 259.512 230.776 260.184 230.776C260.808 230.776 261.3 230.638 261.66 230.362C262.02 230.086 262.2 229.738 262.2 229.318C262.2 228.886 262.008 228.568 261.624 228.364C261.24 228.148 260.646 227.938 259.842 227.734C259.11 227.542 258.51 227.35 258.042 227.158C257.586 226.954 257.19 226.66 256.854 226.276C256.53 225.88 256.368 225.364 256.368 224.728C256.368 224.224 256.518 223.762 256.818 223.342C257.118 222.922 257.544 222.592 258.096 222.352C258.648 222.1 259.278 221.974 259.986 221.974C261.078 221.974 261.96 222.25 262.632 222.802C263.304 223.354 263.664 224.11 263.712 225.07H262.074C262.038 224.554 261.828 224.14 261.444 223.828C261.072 223.516 260.568 223.36 259.932 223.36C259.344 223.36 258.876 223.486 258.528 223.738C258.18 223.99 258.006 224.32 258.006 224.728C258.006 225.052 258.108 225.322 258.312 225.538C258.528 225.742 258.792 225.91 259.104 226.042C259.428 226.162 259.872 226.3 260.436 226.456C261.144 226.648 261.72 226.84 262.164 227.032C262.608 227.212 262.986 227.488 263.298 227.86C263.622 228.232 263.79 228.718 263.802 229.318C263.802 229.858 263.652 230.344 263.352 230.776C263.052 231.208 262.626 231.55 262.074 231.802C261.534 232.042 260.91 232.162 260.202 232.162Z" fill="black"/>
<defs>
<filter id="filter0_f_24_83" x="0" y="0" width="526" height="358" filterUnits="userSpaceOnUse" color-interpolation-filters="sRGB">
<feFlood flood-opacity="0" result="BackgroundImageFix"/>
<feBlend mode="normal" in="SourceGraphic" in2="BackgroundImageFix" result="shape"/>
<feGaussianBlur stdDeviation="10.5" result="effect1_foregroundBlur_24_83"/>
</filter>
<linearGradient id="paint0_linear_24_83" x1="102.823" y1="77" x2="160.753" y2="136.344" gradientUnits="userSpaceOnUse">
<stop stop-color="#E04D4D"/>
<stop offset="1" stop-color="#F9C1C1"/>
<stop offset="1" stop-color="#F9C1C1"/>
</linearGradient>
</defs>
</svg>
