<svg width="526" height="358" viewBox="0 0 526 358" fill="none" xmlns="http://www.w3.org/2000/svg">
<g filter="url(#filter0_f_24_84)">
<rect x="21" y="21" width="484" height="316" rx="30" fill="#E9CACD" fill-opacity="0.74"/>
</g>
<rect x="21" y="12" width="484" height="316" rx="30" fill="white"/>
<circle cx="112" cy="118" r="41" fill="url(#paint0_linear_24_84)"/>
<path d="M197.268 79.872C199.908 79.872 202.224 80.388 204.216 81.42C206.232 82.452 207.78 83.928 208.86 85.848C209.964 87.744 210.516 89.952 210.516 92.472C210.516 94.992 209.964 97.2 208.86 99.096C207.78 100.968 206.232 102.42 204.216 103.452C202.224 104.484 199.908 105 197.268 105H188.484V79.872H197.268ZM197.088 100.716C199.728 100.716 201.768 99.996 203.208 98.556C204.648 97.116 205.368 95.088 205.368 92.472C205.368 89.856 204.648 87.816 203.208 86.352C201.768 84.864 199.728 84.12 197.088 84.12H193.524V100.716H197.088ZM232.829 94.596C232.829 95.316 232.781 95.964 232.685 96.54H218.105C218.225 97.98 218.729 99.108 219.617 99.924C220.505 100.74 221.597 101.148 222.893 101.148C224.765 101.148 226.097 100.344 226.889 98.736H232.325C231.749 100.656 230.645 102.24 229.013 103.488C227.381 104.712 225.377 105.324 223.001 105.324C221.081 105.324 219.353 104.904 217.817 104.064C216.305 103.2 215.117 101.988 214.253 100.428C213.413 98.868 212.993 97.068 212.993 95.028C212.993 92.964 213.413 91.152 214.253 89.592C215.093 88.032 216.269 86.832 217.781 85.992C219.293 85.152 221.033 84.732 223.001 84.732C224.897 84.732 226.589 85.14 228.077 85.956C229.589 86.772 230.753 87.936 231.569 89.448C232.409 90.936 232.829 92.652 232.829 94.596ZM227.609 93.156C227.585 91.86 227.117 90.828 226.205 90.06C225.293 89.268 224.177 88.872 222.857 88.872C221.609 88.872 220.553 89.256 219.689 90.024C218.849 90.768 218.333 91.812 218.141 93.156H227.609ZM244.139 105.324C242.507 105.324 241.043 105.036 239.747 104.46C238.451 103.86 237.419 103.056 236.651 102.048C235.907 101.04 235.499 99.924 235.427 98.7H240.503C240.599 99.468 240.971 100.104 241.619 100.608C242.291 101.112 243.119 101.364 244.103 101.364C245.063 101.364 245.807 101.172 246.335 100.788C246.887 100.404 247.163 99.912 247.163 99.312C247.163 98.664 246.827 98.184 246.155 97.872C245.507 97.536 244.463 97.176 243.023 96.792C241.535 96.432 240.311 96.06 239.351 95.676C238.415 95.292 237.599 94.704 236.903 93.912C236.231 93.12 235.895 92.052 235.895 90.708C235.895 89.604 236.207 88.596 236.831 87.684C237.479 86.772 238.391 86.052 239.567 85.524C240.767 84.996 242.171 84.732 243.779 84.732C246.155 84.732 248.051 85.332 249.467 86.532C250.883 87.708 251.663 89.304 251.807 91.32H246.983C246.911 90.528 246.575 89.904 245.975 89.448C245.399 88.968 244.619 88.728 243.635 88.728C242.723 88.728 242.015 88.896 241.511 89.232C241.031 89.568 240.791 90.036 240.791 90.636C240.791 91.308 241.127 91.824 241.799 92.184C242.471 92.52 243.515 92.868 244.931 93.228C246.371 93.588 247.559 93.96 248.495 94.344C249.431 94.728 250.235 95.328 250.907 96.144C251.603 96.936 251.963 97.992 251.987 99.312C251.987 100.464 251.663 101.496 251.015 102.408C250.391 103.32 249.479 104.04 248.279 104.568C247.103 105.072 245.723 105.324 244.139 105.324ZM258.681 82.68C257.793 82.68 257.049 82.404 256.449 81.852C255.873 81.276 255.585 80.568 255.585 79.728C255.585 78.888 255.873 78.192 256.449 77.64C257.049 77.064 257.793 76.776 258.681 76.776C259.569 76.776 260.301 77.064 260.877 77.64C261.477 78.192 261.777 78.888 261.777 79.728C261.777 80.568 261.477 81.276 260.877 81.852C260.301 82.404 259.569 82.68 258.681 82.68ZM261.165 85.056V105H256.125V85.056H261.165ZM273.956 84.732C275.444 84.732 276.752 85.032 277.88 85.632C279.008 86.208 279.896 86.964 280.544 87.9V85.056H285.62V105.144C285.62 106.992 285.248 108.636 284.504 110.076C283.76 111.54 282.644 112.692 281.156 113.532C279.668 114.396 277.868 114.828 275.756 114.828C272.924 114.828 270.596 114.168 268.772 112.848C266.972 111.528 265.952 109.728 265.712 107.448H270.716C270.98 108.36 271.544 109.08 272.408 109.608C273.296 110.16 274.364 110.436 275.612 110.436C277.076 110.436 278.264 109.992 279.176 109.104C280.088 108.24 280.544 106.92 280.544 105.144V102.048C279.896 102.984 278.996 103.764 277.844 104.388C276.716 105.012 275.42 105.324 273.956 105.324C272.276 105.324 270.74 104.892 269.348 104.028C267.956 103.164 266.852 101.952 266.036 100.392C265.244 98.808 264.848 96.996 264.848 94.956C264.848 92.94 265.244 91.152 266.036 89.592C266.852 88.032 267.944 86.832 269.312 85.992C270.704 85.152 272.252 84.732 273.956 84.732ZM280.544 95.028C280.544 93.804 280.304 92.76 279.824 91.896C279.344 91.008 278.696 90.336 277.88 89.88C277.064 89.4 276.188 89.16 275.252 89.16C274.316 89.16 273.452 89.388 272.66 89.844C271.868 90.3 271.22 90.972 270.716 91.86C270.236 92.724 269.996 93.756 269.996 94.956C269.996 96.156 270.236 97.212 270.716 98.124C271.22 99.012 271.868 99.696 272.66 100.176C273.476 100.656 274.34 100.896 275.252 100.896C276.188 100.896 277.064 100.668 277.88 100.212C278.696 99.732 279.344 99.06 279.824 98.196C280.304 97.308 280.544 96.252 280.544 95.028ZM301.595 84.768C303.971 84.768 305.891 85.524 307.355 87.036C308.819 88.524 309.551 90.612 309.551 93.3V105H304.511V93.984C304.511 92.4 304.115 91.188 303.323 90.348C302.531 89.484 301.451 89.052 300.083 89.052C298.691 89.052 297.587 89.484 296.771 90.348C295.979 91.188 295.583 92.4 295.583 93.984V105H290.543V85.056H295.583V87.54C296.255 86.676 297.107 86.004 298.139 85.524C299.195 85.02 300.347 84.768 301.595 84.768ZM327.89 79.872V95.424C327.89 97.128 328.334 98.436 329.222 99.348C330.11 100.236 331.358 100.68 332.966 100.68C334.598 100.68 335.858 100.236 336.746 99.348C337.634 98.436 338.078 97.128 338.078 95.424V79.872H343.154V95.388C343.154 97.524 342.686 99.336 341.75 100.824C340.838 102.288 339.602 103.392 338.042 104.136C336.506 104.88 334.79 105.252 332.894 105.252C331.022 105.252 329.318 104.88 327.782 104.136C326.27 103.392 325.07 102.288 324.182 100.824C323.294 99.336 322.85 97.524 322.85 95.388V79.872H327.89ZM353.063 79.872V105H348.023V79.872H353.063ZM193.524 135.936C194.172 135.024 195.06 134.268 196.188 133.668C197.34 133.044 198.648 132.732 200.112 132.732C201.816 132.732 203.352 133.152 204.72 133.992C206.112 134.832 207.204 136.032 207.996 137.592C208.812 139.128 209.22 140.916 209.22 142.956C209.22 144.996 208.812 146.808 207.996 148.392C207.204 149.952 206.112 151.164 204.72 152.028C203.352 152.892 201.816 153.324 200.112 153.324C198.648 153.324 197.352 153.024 196.224 152.424C195.12 151.824 194.22 151.068 193.524 150.156V162.504H188.484V133.056H193.524V135.936ZM204.072 142.956C204.072 141.756 203.82 140.724 203.316 139.86C202.836 138.972 202.188 138.3 201.372 137.844C200.58 137.388 199.716 137.16 198.78 137.16C197.868 137.16 197.004 137.4 196.188 137.88C195.396 138.336 194.748 139.008 194.244 139.896C193.764 140.784 193.524 141.828 193.524 143.028C193.524 144.228 193.764 145.272 194.244 146.16C194.748 147.048 195.396 147.732 196.188 148.212C197.004 148.668 197.868 148.896 198.78 148.896C199.716 148.896 200.58 148.656 201.372 148.176C202.188 147.696 202.836 147.012 203.316 146.124C203.82 145.236 204.072 144.18 204.072 142.956ZM217.922 136.152C218.57 135.096 219.41 134.268 220.442 133.668C221.498 133.068 222.698 132.768 224.042 132.768V138.06H222.71C221.126 138.06 219.926 138.432 219.11 139.176C218.318 139.92 217.922 141.216 217.922 143.064V153H212.882V133.056H217.922V136.152ZM236.293 153.324C234.373 153.324 232.645 152.904 231.109 152.064C229.573 151.2 228.361 149.988 227.473 148.428C226.609 146.868 226.177 145.068 226.177 143.028C226.177 140.988 226.621 139.188 227.509 137.628C228.421 136.068 229.657 134.868 231.217 134.028C232.777 133.164 234.517 132.732 236.437 132.732C238.357 132.732 240.097 133.164 241.657 134.028C243.217 134.868 244.441 136.068 245.329 137.628C246.241 139.188 246.697 140.988 246.697 143.028C246.697 145.068 246.229 146.868 245.293 148.428C244.381 149.988 243.133 151.2 241.549 152.064C239.989 152.904 238.237 153.324 236.293 153.324ZM236.293 148.932C237.205 148.932 238.057 148.716 238.849 148.284C239.665 147.828 240.313 147.156 240.793 146.268C241.273 145.38 241.513 144.3 241.513 143.028C241.513 141.132 241.009 139.68 240.001 138.672C239.017 137.64 237.805 137.124 236.365 137.124C234.925 137.124 233.713 137.64 232.729 138.672C231.769 139.68 231.289 141.132 231.289 143.028C231.289 144.924 231.757 146.388 232.693 147.42C233.653 148.428 234.853 148.932 236.293 148.932ZM256.262 137.196V146.844C256.262 147.516 256.418 148.008 256.73 148.32C257.066 148.608 257.618 148.752 258.386 148.752H260.726V153H257.558C253.31 153 251.186 150.936 251.186 146.808V137.196H248.81V133.056H251.186V128.124H256.262V133.056H260.726V137.196H256.262ZM273.207 153.324C271.287 153.324 269.559 152.904 268.023 152.064C266.487 151.2 265.275 149.988 264.387 148.428C263.523 146.868 263.091 145.068 263.091 143.028C263.091 140.988 263.535 139.188 264.423 137.628C265.335 136.068 266.571 134.868 268.131 134.028C269.691 133.164 271.431 132.732 273.351 132.732C275.271 132.732 277.011 133.164 278.571 134.028C280.131 134.868 281.355 136.068 282.243 137.628C283.155 139.188 283.611 140.988 283.611 143.028C283.611 145.068 283.143 146.868 282.207 148.428C281.295 149.988 280.047 151.2 278.463 152.064C276.903 152.904 275.151 153.324 273.207 153.324ZM273.207 148.932C274.119 148.932 274.971 148.716 275.763 148.284C276.579 147.828 277.227 147.156 277.707 146.268C278.187 145.38 278.427 144.3 278.427 143.028C278.427 141.132 277.923 139.68 276.915 138.672C275.931 137.64 274.719 137.124 273.279 137.124C271.839 137.124 270.627 137.64 269.643 138.672C268.683 139.68 268.203 141.132 268.203 143.028C268.203 144.924 268.671 146.388 269.607 147.42C270.567 148.428 271.767 148.932 273.207 148.932ZM293.176 137.196V146.844C293.176 147.516 293.332 148.008 293.644 148.32C293.98 148.608 294.532 148.752 295.3 148.752H297.64V153H294.472C290.224 153 288.1 150.936 288.1 146.808V137.196H285.724V133.056H288.1V128.124H293.176V133.056H297.64V137.196H293.176ZM320.345 133.056L307.997 162.432H302.633L306.953 152.496L298.961 133.056H304.613L309.761 146.988L314.981 133.056H320.345ZM328.102 135.936C328.75 135.024 329.638 134.268 330.766 133.668C331.918 133.044 333.226 132.732 334.69 132.732C336.394 132.732 337.93 133.152 339.298 133.992C340.69 134.832 341.782 136.032 342.574 137.592C343.39 139.128 343.798 140.916 343.798 142.956C343.798 144.996 343.39 146.808 342.574 148.392C341.782 149.952 340.69 151.164 339.298 152.028C337.93 152.892 336.394 153.324 334.69 153.324C333.226 153.324 331.93 153.024 330.802 152.424C329.698 151.824 328.798 151.068 328.102 150.156V162.504H323.062V133.056H328.102V135.936ZM338.65 142.956C338.65 141.756 338.398 140.724 337.894 139.86C337.414 138.972 336.766 138.3 335.95 137.844C335.158 137.388 334.294 137.16 333.358 137.16C332.446 137.16 331.582 137.4 330.766 137.88C329.974 138.336 329.326 139.008 328.822 139.896C328.342 140.784 328.102 141.828 328.102 143.028C328.102 144.228 328.342 145.272 328.822 146.16C329.326 147.048 329.974 147.732 330.766 148.212C331.582 148.668 332.446 148.896 333.358 148.896C334.294 148.896 335.158 148.656 335.95 148.176C336.766 147.696 337.414 147.012 337.894 146.124C338.398 145.236 338.65 144.18 338.65 142.956ZM366.001 142.596C366.001 143.316 365.953 143.964 365.857 144.54H351.277C351.397 145.98 351.901 147.108 352.789 147.924C353.677 148.74 354.769 149.148 356.065 149.148C357.937 149.148 359.269 148.344 360.061 146.736H365.497C364.921 148.656 363.817 150.24 362.185 151.488C360.553 152.712 358.549 153.324 356.173 153.324C354.253 153.324 352.525 152.904 350.989 152.064C349.477 151.2 348.289 149.988 347.425 148.428C346.585 146.868 346.165 145.068 346.165 143.028C346.165 140.964 346.585 139.152 347.425 137.592C348.265 136.032 349.441 134.832 350.953 133.992C352.465 133.152 354.205 132.732 356.173 132.732C358.069 132.732 359.761 133.14 361.249 133.956C362.761 134.772 363.925 135.936 364.741 137.448C365.581 138.936 366.001 140.652 366.001 142.596ZM360.781 141.156C360.757 139.86 360.289 138.828 359.377 138.06C358.465 137.268 357.349 136.872 356.029 136.872C354.781 136.872 353.725 137.256 352.861 138.024C352.021 138.768 351.505 139.812 351.313 141.156H360.781ZM377.311 153.324C375.679 153.324 374.215 153.036 372.919 152.46C371.623 151.86 370.591 151.056 369.823 150.048C369.079 149.04 368.671 147.924 368.599 146.7H373.675C373.771 147.468 374.143 148.104 374.791 148.608C375.463 149.112 376.291 149.364 377.275 149.364C378.235 149.364 378.979 149.172 379.507 148.788C380.059 148.404 380.335 147.912 380.335 147.312C380.335 146.664 379.999 146.184 379.327 145.872C378.679 145.536 377.635 145.176 376.195 144.792C374.707 144.432 373.483 144.06 372.523 143.676C371.587 143.292 370.771 142.704 370.075 141.912C369.403 141.12 369.067 140.052 369.067 138.708C369.067 137.604 369.379 136.596 370.003 135.684C370.651 134.772 371.563 134.052 372.739 133.524C373.939 132.996 375.343 132.732 376.951 132.732C379.327 132.732 381.223 133.332 382.639 134.532C384.055 135.708 384.835 137.304 384.979 139.32H380.155C380.083 138.528 379.747 137.904 379.147 137.448C378.571 136.968 377.791 136.728 376.807 136.728C375.895 136.728 375.187 136.896 374.683 137.232C374.203 137.568 373.963 138.036 373.963 138.636C373.963 139.308 374.299 139.824 374.971 140.184C375.643 140.52 376.687 140.868 378.103 141.228C379.543 141.588 380.731 141.96 381.667 142.344C382.603 142.728 383.407 143.328 384.079 144.144C384.775 144.936 385.135 145.992 385.159 147.312C385.159 148.464 384.835 149.496 384.187 150.408C383.563 151.32 382.651 152.04 381.451 152.568C380.275 153.072 378.895 153.324 377.311 153.324Z" fill="black"/>
<path d="M90.8568 116.788C90.8568 112.405 91.6421 108.973 93.2128 106.49C94.8088 104.007 97.4434 102.766 101.117 102.766C104.79 102.766 107.412 104.007 108.983 106.49C110.579 108.973 111.377 112.405 111.377 116.788C111.377 121.196 110.579 124.654 108.983 127.162C107.412 129.67 104.79 130.924 101.117 130.924C97.4434 130.924 94.8088 129.67 93.2128 127.162C91.6421 124.654 90.8568 121.196 90.8568 116.788ZM106.133 116.788C106.133 114.913 106.006 113.343 105.753 112.076C105.525 110.784 105.043 109.733 104.309 108.922C103.599 108.111 102.535 107.706 101.117 107.706C99.6981 107.706 98.6214 108.111 97.8868 108.922C97.1774 109.733 96.6961 110.784 96.4428 112.076C96.2148 113.343 96.1008 114.913 96.1008 116.788C96.1008 118.713 96.2148 120.335 96.4428 121.652C96.6708 122.944 97.1521 123.995 97.8868 124.806C98.6214 125.591 99.6981 125.984 101.117 125.984C102.535 125.984 103.612 125.591 104.347 124.806C105.081 123.995 105.563 122.944 105.791 121.652C106.019 120.335 106.133 118.713 106.133 116.788ZM115.499 110.594C115.626 108.061 116.513 106.11 118.159 104.742C119.831 103.349 122.023 102.652 124.733 102.652C126.583 102.652 128.166 102.981 129.483 103.64C130.801 104.273 131.789 105.147 132.447 106.262C133.131 107.351 133.473 108.593 133.473 109.986C133.473 111.582 133.055 112.937 132.219 114.052C131.409 115.141 130.433 115.876 129.293 116.256V116.408C130.763 116.864 131.903 117.675 132.713 118.84C133.549 120.005 133.967 121.5 133.967 123.324C133.967 124.844 133.613 126.199 132.903 127.39C132.219 128.581 131.193 129.518 129.825 130.202C128.483 130.861 126.861 131.19 124.961 131.19C122.099 131.19 119.768 130.468 117.969 129.024C116.171 127.58 115.221 125.452 115.119 122.64H120.287C120.338 123.881 120.756 124.882 121.541 125.642C122.352 126.377 123.454 126.744 124.847 126.744C126.139 126.744 127.127 126.389 127.811 125.68C128.521 124.945 128.875 124.008 128.875 122.868C128.875 121.348 128.394 120.259 127.431 119.6C126.469 118.941 124.974 118.612 122.947 118.612H121.845V114.242H122.947C126.545 114.242 128.343 113.039 128.343 110.632C128.343 109.543 128.014 108.694 127.355 108.086C126.722 107.478 125.797 107.174 124.581 107.174C123.391 107.174 122.466 107.503 121.807 108.162C121.174 108.795 120.807 109.606 120.705 110.594H115.499Z" fill="#FAEDED"/>
<path d="M84.481 201.202C83.869 201.202 83.347 200.992 82.915 200.572C82.495 200.14 82.285 199.618 82.285 199.006C82.285 198.382 82.495 197.86 82.915 197.44C83.347 197.008 83.869 196.792 84.481 196.792C85.105 196.792 85.633 197.008 86.065 197.44C86.497 197.86 86.713 198.382 86.713 199.006C86.713 199.618 86.497 200.14 86.065 200.572C85.633 200.992 85.105 201.202 84.481 201.202ZM107.774 196.126C107.774 197.17 107.414 198.04 106.694 198.736C105.986 199.42 104.9 199.762 103.436 199.762H101.024V205H99.386V192.454H103.436C104.852 192.454 105.926 192.796 106.658 193.48C107.402 194.164 107.774 195.046 107.774 196.126ZM103.436 198.412C104.348 198.412 105.02 198.214 105.452 197.818C105.884 197.422 106.1 196.858 106.1 196.126C106.1 194.578 105.212 193.804 103.436 193.804H101.024V198.412H103.436ZM111.448 196.738C111.736 196.174 112.144 195.736 112.672 195.424C113.212 195.112 113.866 194.956 114.634 194.956V196.648H114.202C112.366 196.648 111.448 197.644 111.448 199.636V205H109.81V195.136H111.448V196.738ZM125.525 199.69C125.525 200.002 125.507 200.332 125.471 200.68H117.587C117.647 201.652 117.977 202.414 118.577 202.966C119.189 203.506 119.927 203.776 120.791 203.776C121.499 203.776 122.087 203.614 122.555 203.29C123.035 202.954 123.371 202.51 123.563 201.958H125.327C125.063 202.906 124.535 203.68 123.743 204.28C122.951 204.868 121.967 205.162 120.791 205.162C119.855 205.162 119.015 204.952 118.271 204.532C117.539 204.112 116.963 203.518 116.543 202.75C116.123 201.97 115.913 201.07 115.913 200.05C115.913 199.03 116.117 198.136 116.525 197.368C116.933 196.6 117.503 196.012 118.235 195.604C118.979 195.184 119.831 194.974 120.791 194.974C121.727 194.974 122.555 195.178 123.275 195.586C123.995 195.994 124.547 196.558 124.931 197.278C125.327 197.986 125.525 198.79 125.525 199.69ZM123.833 199.348C123.833 198.724 123.695 198.19 123.419 197.746C123.143 197.29 122.765 196.948 122.285 196.72C121.817 196.48 121.295 196.36 120.719 196.36C119.891 196.36 119.183 196.624 118.595 197.152C118.019 197.68 117.689 198.412 117.605 199.348H123.833ZM129.325 196.954C129.649 196.39 130.129 195.922 130.765 195.55C131.413 195.166 132.163 194.974 133.015 194.974C133.891 194.974 134.683 195.184 135.391 195.604C136.111 196.024 136.675 196.618 137.083 197.386C137.491 198.142 137.695 199.024 137.695 200.032C137.695 201.028 137.491 201.916 137.083 202.696C136.675 203.476 136.111 204.082 135.391 204.514C134.683 204.946 133.891 205.162 133.015 205.162C132.175 205.162 131.431 204.976 130.783 204.604C130.147 204.22 129.661 203.746 129.325 203.182V209.68H127.687V195.136H129.325V196.954ZM136.021 200.032C136.021 199.288 135.871 198.64 135.571 198.088C135.271 197.536 134.863 197.116 134.347 196.828C133.843 196.54 133.285 196.396 132.673 196.396C132.073 196.396 131.515 196.546 130.999 196.846C130.495 197.134 130.087 197.56 129.775 198.124C129.475 198.676 129.325 199.318 129.325 200.05C129.325 200.794 129.475 201.448 129.775 202.012C130.087 202.564 130.495 202.99 130.999 203.29C131.515 203.578 132.073 203.722 132.673 203.722C133.285 203.722 133.843 203.578 134.347 203.29C134.863 202.99 135.271 202.564 135.571 202.012C135.871 201.448 136.021 200.788 136.021 200.032ZM139.239 200.032C139.239 199.024 139.443 198.142 139.851 197.386C140.259 196.618 140.817 196.024 141.525 195.604C142.245 195.184 143.043 194.974 143.919 194.974C144.783 194.974 145.533 195.16 146.169 195.532C146.805 195.904 147.279 196.372 147.591 196.936V195.136H149.247V205H147.591V203.164C147.267 203.74 146.781 204.22 146.133 204.604C145.497 204.976 144.753 205.162 143.901 205.162C143.025 205.162 142.233 204.946 141.525 204.514C140.817 204.082 140.259 203.476 139.851 202.696C139.443 201.916 139.239 201.028 139.239 200.032ZM147.591 200.05C147.591 199.306 147.441 198.658 147.141 198.106C146.841 197.554 146.433 197.134 145.917 196.846C145.413 196.546 144.855 196.396 144.243 196.396C143.631 196.396 143.073 196.54 142.569 196.828C142.065 197.116 141.663 197.536 141.363 198.088C141.063 198.64 140.913 199.288 140.913 200.032C140.913 200.788 141.063 201.448 141.363 202.012C141.663 202.564 142.065 202.99 142.569 203.29C143.073 203.578 143.631 203.722 144.243 203.722C144.855 203.722 145.413 203.578 145.917 203.29C146.433 202.99 146.841 202.564 147.141 202.012C147.441 201.448 147.591 200.794 147.591 200.05ZM153.653 196.738C153.941 196.174 154.349 195.736 154.877 195.424C155.417 195.112 156.071 194.956 156.839 194.956V196.648H156.407C154.571 196.648 153.653 197.644 153.653 199.636V205H152.015V195.136H153.653V196.738ZM167.73 199.69C167.73 200.002 167.712 200.332 167.676 200.68H159.792C159.852 201.652 160.182 202.414 160.782 202.966C161.394 203.506 162.132 203.776 162.996 203.776C163.704 203.776 164.292 203.614 164.76 203.29C165.24 202.954 165.576 202.51 165.768 201.958H167.532C167.268 202.906 166.74 203.68 165.948 204.28C165.156 204.868 164.172 205.162 162.996 205.162C162.06 205.162 161.22 204.952 160.476 204.532C159.744 204.112 159.168 203.518 158.748 202.75C158.328 201.97 158.118 201.07 158.118 200.05C158.118 199.03 158.322 198.136 158.73 197.368C159.138 196.6 159.708 196.012 160.44 195.604C161.184 195.184 162.036 194.974 162.996 194.974C163.932 194.974 164.76 195.178 165.48 195.586C166.2 195.994 166.752 196.558 167.136 197.278C167.532 197.986 167.73 198.79 167.73 199.69ZM166.038 199.348C166.038 198.724 165.9 198.19 165.624 197.746C165.348 197.29 164.97 196.948 164.49 196.72C164.022 196.48 163.5 196.36 162.924 196.36C162.096 196.36 161.388 196.624 160.8 197.152C160.224 197.68 159.894 198.412 159.81 199.348H166.038ZM176.329 196.738C176.617 196.174 177.025 195.736 177.553 195.424C178.093 195.112 178.747 194.956 179.515 194.956V196.648H179.083C177.247 196.648 176.329 197.644 176.329 199.636V205H174.691V195.136H176.329V196.738ZM190.406 199.69C190.406 200.002 190.388 200.332 190.352 200.68H182.468C182.528 201.652 182.858 202.414 183.458 202.966C184.07 203.506 184.808 203.776 185.672 203.776C186.38 203.776 186.968 203.614 187.436 203.29C187.916 202.954 188.252 202.51 188.444 201.958H190.208C189.944 202.906 189.416 203.68 188.624 204.28C187.832 204.868 186.848 205.162 185.672 205.162C184.736 205.162 183.896 204.952 183.152 204.532C182.42 204.112 181.844 203.518 181.424 202.75C181.004 201.97 180.794 201.07 180.794 200.05C180.794 199.03 180.998 198.136 181.406 197.368C181.814 196.6 182.384 196.012 183.116 195.604C183.86 195.184 184.712 194.974 185.672 194.974C186.608 194.974 187.436 195.178 188.156 195.586C188.876 195.994 189.428 196.558 189.812 197.278C190.208 197.986 190.406 198.79 190.406 199.69ZM188.714 199.348C188.714 198.724 188.576 198.19 188.3 197.746C188.024 197.29 187.646 196.948 187.166 196.72C186.698 196.48 186.176 196.36 185.6 196.36C184.772 196.36 184.064 196.624 183.476 197.152C182.9 197.68 182.57 198.412 182.486 199.348H188.714ZM196.06 205.162C195.304 205.162 194.626 205.036 194.026 204.784C193.426 204.52 192.952 204.16 192.604 203.704C192.256 203.236 192.064 202.702 192.028 202.102H193.72C193.768 202.594 193.996 202.996 194.404 203.308C194.824 203.62 195.37 203.776 196.042 203.776C196.666 203.776 197.158 203.638 197.518 203.362C197.878 203.086 198.058 202.738 198.058 202.318C198.058 201.886 197.866 201.568 197.482 201.364C197.098 201.148 196.504 200.938 195.7 200.734C194.968 200.542 194.368 200.35 193.9 200.158C193.444 199.954 193.048 199.66 192.712 199.276C192.388 198.88 192.226 198.364 192.226 197.728C192.226 197.224 192.376 196.762 192.676 196.342C192.976 195.922 193.402 195.592 193.954 195.352C194.506 195.1 195.136 194.974 195.844 194.974C196.936 194.974 197.818 195.25 198.49 195.802C199.162 196.354 199.522 197.11 199.57 198.07H197.932C197.896 197.554 197.686 197.14 197.302 196.828C196.93 196.516 196.426 196.36 195.79 196.36C195.202 196.36 194.734 196.486 194.386 196.738C194.038 196.99 193.864 197.32 193.864 197.728C193.864 198.052 193.966 198.322 194.17 198.538C194.386 198.742 194.65 198.91 194.962 199.042C195.286 199.162 195.73 199.3 196.294 199.456C197.002 199.648 197.578 199.84 198.022 200.032C198.466 200.212 198.844 200.488 199.156 200.86C199.48 201.232 199.648 201.718 199.66 202.318C199.66 202.858 199.51 203.344 199.21 203.776C198.91 204.208 198.484 204.55 197.932 204.802C197.392 205.042 196.768 205.162 196.06 205.162ZM203.61 196.954C203.934 196.39 204.414 195.922 205.05 195.55C205.698 195.166 206.448 194.974 207.3 194.974C208.176 194.974 208.968 195.184 209.676 195.604C210.396 196.024 210.96 196.618 211.368 197.386C211.776 198.142 211.98 199.024 211.98 200.032C211.98 201.028 211.776 201.916 211.368 202.696C210.96 203.476 210.396 204.082 209.676 204.514C208.968 204.946 208.176 205.162 207.3 205.162C206.46 205.162 205.716 204.976 205.068 204.604C204.432 204.22 203.946 203.746 203.61 203.182V209.68H201.972V195.136H203.61V196.954ZM210.306 200.032C210.306 199.288 210.156 198.64 209.856 198.088C209.556 197.536 209.148 197.116 208.632 196.828C208.128 196.54 207.57 196.396 206.958 196.396C206.358 196.396 205.8 196.546 205.284 196.846C204.78 197.134 204.372 197.56 204.06 198.124C203.76 198.676 203.61 199.318 203.61 200.05C203.61 200.794 203.76 201.448 204.06 202.012C204.372 202.564 204.78 202.99 205.284 203.29C205.8 203.578 206.358 203.722 206.958 203.722C207.57 203.722 208.128 203.578 208.632 203.29C209.148 202.99 209.556 202.564 209.856 202.012C210.156 201.448 210.306 200.788 210.306 200.032ZM218.438 205.162C217.514 205.162 216.674 204.952 215.918 204.532C215.174 204.112 214.586 203.518 214.154 202.75C213.734 201.97 213.524 201.07 213.524 200.05C213.524 199.042 213.74 198.154 214.172 197.386C214.616 196.606 215.216 196.012 215.972 195.604C216.728 195.184 217.574 194.974 218.51 194.974C219.446 194.974 220.292 195.184 221.048 195.604C221.804 196.012 222.398 196.6 222.83 197.368C223.274 198.136 223.496 199.03 223.496 200.05C223.496 201.07 223.268 201.97 222.812 202.75C222.368 203.518 221.762 204.112 220.994 204.532C220.226 204.952 219.374 205.162 218.438 205.162ZM218.438 203.722C219.026 203.722 219.578 203.584 220.094 203.308C220.61 203.032 221.024 202.618 221.336 202.066C221.66 201.514 221.822 200.842 221.822 200.05C221.822 199.258 221.666 198.586 221.354 198.034C221.042 197.482 220.634 197.074 220.13 196.81C219.626 196.534 219.08 196.396 218.492 196.396C217.892 196.396 217.34 196.534 216.836 196.81C216.344 197.074 215.948 197.482 215.648 198.034C215.348 198.586 215.198 199.258 215.198 200.05C215.198 200.854 215.342 201.532 215.63 202.084C215.93 202.636 216.326 203.05 216.818 203.326C217.31 203.59 217.85 203.722 218.438 203.722ZM230.456 194.956C231.656 194.956 232.628 195.322 233.372 196.054C234.116 196.774 234.488 197.818 234.488 199.186V205H232.868V199.42C232.868 198.436 232.622 197.686 232.13 197.17C231.638 196.642 230.966 196.378 230.114 196.378C229.25 196.378 228.56 196.648 228.044 197.188C227.54 197.728 227.288 198.514 227.288 199.546V205H225.65V195.136H227.288V196.54C227.612 196.036 228.05 195.646 228.602 195.37C229.166 195.094 229.784 194.956 230.456 194.956ZM240.655 205.162C239.899 205.162 239.221 205.036 238.621 204.784C238.021 204.52 237.547 204.16 237.199 203.704C236.851 203.236 236.659 202.702 236.623 202.102H238.315C238.363 202.594 238.591 202.996 238.999 203.308C239.419 203.62 239.965 203.776 240.637 203.776C241.261 203.776 241.753 203.638 242.113 203.362C242.473 203.086 242.653 202.738 242.653 202.318C242.653 201.886 242.461 201.568 242.077 201.364C241.693 201.148 241.099 200.938 240.295 200.734C239.563 200.542 238.963 200.35 238.495 200.158C238.039 199.954 237.643 199.66 237.307 199.276C236.983 198.88 236.821 198.364 236.821 197.728C236.821 197.224 236.971 196.762 237.271 196.342C237.571 195.922 237.997 195.592 238.549 195.352C239.101 195.1 239.731 194.974 240.439 194.974C241.531 194.974 242.413 195.25 243.085 195.802C243.757 196.354 244.117 197.11 244.165 198.07H242.527C242.491 197.554 242.281 197.14 241.897 196.828C241.525 196.516 241.021 196.36 240.385 196.36C239.797 196.36 239.329 196.486 238.981 196.738C238.633 196.99 238.459 197.32 238.459 197.728C238.459 198.052 238.561 198.322 238.765 198.538C238.981 198.742 239.245 198.91 239.557 199.042C239.881 199.162 240.325 199.3 240.889 199.456C241.597 199.648 242.173 199.84 242.617 200.032C243.061 200.212 243.439 200.488 243.751 200.86C244.075 201.232 244.243 201.718 244.255 202.318C244.255 202.858 244.105 203.344 243.805 203.776C243.505 204.208 243.079 204.55 242.527 204.802C241.987 205.042 241.363 205.162 240.655 205.162ZM247.414 193.534C247.102 193.534 246.838 193.426 246.622 193.21C246.406 192.994 246.298 192.73 246.298 192.418C246.298 192.106 246.406 191.842 246.622 191.626C246.838 191.41 247.102 191.302 247.414 191.302C247.714 191.302 247.966 191.41 248.17 191.626C248.386 191.842 248.494 192.106 248.494 192.418C248.494 192.73 248.386 192.994 248.17 193.21C247.966 193.426 247.714 193.534 247.414 193.534ZM248.206 195.136V205H246.568V195.136H248.206ZM254.669 203.488L257.729 195.136H259.475L255.605 205H253.697L249.827 195.136H251.591L254.669 203.488ZM270.087 199.69C270.087 200.002 270.069 200.332 270.033 200.68H262.149C262.209 201.652 262.539 202.414 263.139 202.966C263.751 203.506 264.489 203.776 265.353 203.776C266.061 203.776 266.649 203.614 267.117 203.29C267.597 202.954 267.933 202.51 268.125 201.958H269.889C269.625 202.906 269.097 203.68 268.305 204.28C267.513 204.868 266.529 205.162 265.353 205.162C264.417 205.162 263.577 204.952 262.833 204.532C262.101 204.112 261.525 203.518 261.105 202.75C260.685 201.97 260.475 201.07 260.475 200.05C260.475 199.03 260.679 198.136 261.087 197.368C261.495 196.6 262.065 196.012 262.797 195.604C263.541 195.184 264.393 194.974 265.353 194.974C266.289 194.974 267.117 195.178 267.837 195.586C268.557 195.994 269.109 196.558 269.493 197.278C269.889 197.986 270.087 198.79 270.087 199.69ZM268.395 199.348C268.395 198.724 268.257 198.19 267.981 197.746C267.705 197.29 267.327 196.948 266.847 196.72C266.379 196.48 265.857 196.36 265.281 196.36C264.453 196.36 263.745 196.624 263.157 197.152C262.581 197.68 262.251 198.412 262.167 199.348H268.395ZM276.436 200.032C276.436 199.024 276.64 198.142 277.048 197.386C277.456 196.618 278.014 196.024 278.722 195.604C279.442 195.184 280.246 194.974 281.134 194.974C281.902 194.974 282.616 195.154 283.276 195.514C283.936 195.862 284.44 196.324 284.788 196.9V191.68H286.444V205H284.788V203.146C284.464 203.734 283.984 204.22 283.348 204.604C282.712 204.976 281.968 205.162 281.116 205.162C280.24 205.162 279.442 204.946 278.722 204.514C278.014 204.082 277.456 203.476 277.048 202.696C276.64 201.916 276.436 201.028 276.436 200.032ZM284.788 200.05C284.788 199.306 284.638 198.658 284.338 198.106C284.038 197.554 283.63 197.134 283.114 196.846C282.61 196.546 282.052 196.396 281.44 196.396C280.828 196.396 280.27 196.54 279.766 196.828C279.262 197.116 278.86 197.536 278.56 198.088C278.26 198.64 278.11 199.288 278.11 200.032C278.11 200.788 278.26 201.448 278.56 202.012C278.86 202.564 279.262 202.99 279.766 203.29C280.27 203.578 280.828 203.722 281.44 203.722C282.052 203.722 282.61 203.578 283.114 203.29C283.63 202.99 284.038 202.564 284.338 202.012C284.638 201.448 284.788 200.794 284.788 200.05ZM298.212 199.69C298.212 200.002 298.194 200.332 298.158 200.68H290.274C290.334 201.652 290.664 202.414 291.264 202.966C291.876 203.506 292.614 203.776 293.478 203.776C294.186 203.776 294.774 203.614 295.242 203.29C295.722 202.954 296.058 202.51 296.25 201.958H298.014C297.75 202.906 297.222 203.68 296.43 204.28C295.638 204.868 294.654 205.162 293.478 205.162C292.542 205.162 291.702 204.952 290.958 204.532C290.226 204.112 289.65 203.518 289.23 202.75C288.81 201.97 288.6 201.07 288.6 200.05C288.6 199.03 288.804 198.136 289.212 197.368C289.62 196.6 290.19 196.012 290.922 195.604C291.666 195.184 292.518 194.974 293.478 194.974C294.414 194.974 295.242 195.178 295.962 195.586C296.682 195.994 297.234 196.558 297.618 197.278C298.014 197.986 298.212 198.79 298.212 199.69ZM296.52 199.348C296.52 198.724 296.382 198.19 296.106 197.746C295.83 197.29 295.452 196.948 294.972 196.72C294.504 196.48 293.982 196.36 293.406 196.36C292.578 196.36 291.87 196.624 291.282 197.152C290.706 197.68 290.376 198.412 290.292 199.348H296.52ZM303.866 205.162C303.11 205.162 302.432 205.036 301.832 204.784C301.232 204.52 300.758 204.16 300.41 203.704C300.062 203.236 299.87 202.702 299.834 202.102H301.526C301.574 202.594 301.802 202.996 302.21 203.308C302.63 203.62 303.176 203.776 303.848 203.776C304.472 203.776 304.964 203.638 305.324 203.362C305.684 203.086 305.864 202.738 305.864 202.318C305.864 201.886 305.672 201.568 305.288 201.364C304.904 201.148 304.31 200.938 303.506 200.734C302.774 200.542 302.174 200.35 301.706 200.158C301.25 199.954 300.854 199.66 300.518 199.276C300.194 198.88 300.032 198.364 300.032 197.728C300.032 197.224 300.182 196.762 300.482 196.342C300.782 195.922 301.208 195.592 301.76 195.352C302.312 195.1 302.942 194.974 303.65 194.974C304.742 194.974 305.624 195.25 306.296 195.802C306.968 196.354 307.328 197.11 307.376 198.07H305.738C305.702 197.554 305.492 197.14 305.108 196.828C304.736 196.516 304.232 196.36 303.596 196.36C303.008 196.36 302.54 196.486 302.192 196.738C301.844 196.99 301.67 197.32 301.67 197.728C301.67 198.052 301.772 198.322 301.976 198.538C302.192 198.742 302.456 198.91 302.768 199.042C303.092 199.162 303.536 199.3 304.1 199.456C304.808 199.648 305.384 199.84 305.828 200.032C306.272 200.212 306.65 200.488 306.962 200.86C307.286 201.232 307.454 201.718 307.466 202.318C307.466 202.858 307.316 203.344 307.016 203.776C306.716 204.208 306.29 204.55 305.738 204.802C305.198 205.042 304.574 205.162 303.866 205.162ZM310.625 193.534C310.313 193.534 310.049 193.426 309.833 193.21C309.617 192.994 309.509 192.73 309.509 192.418C309.509 192.106 309.617 191.842 309.833 191.626C310.049 191.41 310.313 191.302 310.625 191.302C310.925 191.302 311.177 191.41 311.381 191.626C311.597 191.842 311.705 192.106 311.705 192.418C311.705 192.73 311.597 192.994 311.381 193.21C311.177 193.426 310.925 193.534 310.625 193.534ZM311.417 195.136V205H309.779V195.136H311.417ZM318.276 194.974C319.128 194.974 319.872 195.16 320.508 195.532C321.156 195.904 321.636 196.372 321.948 196.936V195.136H323.604V205.216C323.604 206.116 323.412 206.914 323.028 207.61C322.644 208.318 322.092 208.87 321.372 209.266C320.664 209.662 319.836 209.86 318.888 209.86C317.592 209.86 316.512 209.554 315.648 208.942C314.784 208.33 314.274 207.496 314.118 206.44H315.738C315.918 207.04 316.29 207.52 316.854 207.88C317.418 208.252 318.096 208.438 318.888 208.438C319.788 208.438 320.52 208.156 321.084 207.592C321.66 207.028 321.948 206.236 321.948 205.216V203.146C321.624 203.722 321.144 204.202 320.508 204.586C319.872 204.97 319.128 205.162 318.276 205.162C317.4 205.162 316.602 204.946 315.882 204.514C315.174 204.082 314.616 203.476 314.208 202.696C313.8 201.916 313.596 201.028 313.596 200.032C313.596 199.024 313.8 198.142 314.208 197.386C314.616 196.618 315.174 196.024 315.882 195.604C316.602 195.184 317.4 194.974 318.276 194.974ZM321.948 200.05C321.948 199.306 321.798 198.658 321.498 198.106C321.198 197.554 320.79 197.134 320.274 196.846C319.77 196.546 319.212 196.396 318.6 196.396C317.988 196.396 317.43 196.54 316.926 196.828C316.422 197.116 316.02 197.536 315.72 198.088C315.42 198.64 315.27 199.288 315.27 200.032C315.27 200.788 315.42 201.448 315.72 202.012C316.02 202.564 316.422 202.99 316.926 203.29C317.43 203.578 317.988 203.722 318.6 203.722C319.212 203.722 319.77 203.578 320.274 203.29C320.79 202.99 321.198 202.564 321.498 202.012C321.798 201.448 321.948 200.794 321.948 200.05ZM331.178 194.956C332.378 194.956 333.35 195.322 334.094 196.054C334.838 196.774 335.21 197.818 335.21 199.186V205H333.59V199.42C333.59 198.436 333.344 197.686 332.852 197.17C332.36 196.642 331.688 196.378 330.836 196.378C329.972 196.378 329.282 196.648 328.766 197.188C328.262 197.728 328.01 198.514 328.01 199.546V205H326.372V195.136H328.01V196.54C328.334 196.036 328.772 195.646 329.324 195.37C329.888 195.094 330.506 194.956 331.178 194.956ZM341.378 205.162C340.622 205.162 339.944 205.036 339.344 204.784C338.744 204.52 338.27 204.16 337.922 203.704C337.574 203.236 337.382 202.702 337.346 202.102H339.038C339.086 202.594 339.314 202.996 339.722 203.308C340.142 203.62 340.688 203.776 341.36 203.776C341.984 203.776 342.476 203.638 342.836 203.362C343.196 203.086 343.376 202.738 343.376 202.318C343.376 201.886 343.184 201.568 342.8 201.364C342.416 201.148 341.822 200.938 341.018 200.734C340.286 200.542 339.686 200.35 339.218 200.158C338.762 199.954 338.366 199.66 338.03 199.276C337.706 198.88 337.544 198.364 337.544 197.728C337.544 197.224 337.694 196.762 337.994 196.342C338.294 195.922 338.72 195.592 339.272 195.352C339.824 195.1 340.454 194.974 341.162 194.974C342.254 194.974 343.136 195.25 343.808 195.802C344.48 196.354 344.84 197.11 344.888 198.07H343.25C343.214 197.554 343.004 197.14 342.62 196.828C342.248 196.516 341.744 196.36 341.108 196.36C340.52 196.36 340.052 196.486 339.704 196.738C339.356 196.99 339.182 197.32 339.182 197.728C339.182 198.052 339.284 198.322 339.488 198.538C339.704 198.742 339.968 198.91 340.28 199.042C340.604 199.162 341.048 199.3 341.612 199.456C342.32 199.648 342.896 199.84 343.34 200.032C343.784 200.212 344.162 200.488 344.474 200.86C344.798 201.232 344.966 201.718 344.978 202.318C344.978 202.858 344.828 203.344 344.528 203.776C344.228 204.208 343.802 204.55 343.25 204.802C342.71 205.042 342.086 205.162 341.378 205.162ZM84.481 228.202C83.869 228.202 83.347 227.992 82.915 227.572C82.495 227.14 82.285 226.618 82.285 226.006C82.285 225.382 82.495 224.86 82.915 224.44C83.347 224.008 83.869 223.792 84.481 223.792C85.105 223.792 85.633 224.008 86.065 224.44C86.497 224.86 86.713 225.382 86.713 226.006C86.713 226.618 86.497 227.14 86.065 227.572C85.633 227.992 85.105 228.202 84.481 228.202ZM103.292 219.454C104.66 219.454 105.842 219.712 106.838 220.228C107.846 220.732 108.614 221.458 109.142 222.406C109.682 223.354 109.952 224.47 109.952 225.754C109.952 227.038 109.682 228.154 109.142 229.102C108.614 230.038 107.846 230.758 106.838 231.262C105.842 231.754 104.66 232 103.292 232H99.386V219.454H103.292ZM103.292 230.65C104.912 230.65 106.148 230.224 107 229.372C107.852 228.508 108.278 227.302 108.278 225.754C108.278 224.194 107.846 222.976 106.982 222.1C106.13 221.224 104.9 220.786 103.292 220.786H101.024V230.65H103.292ZM112.959 220.534C112.647 220.534 112.383 220.426 112.167 220.21C111.951 219.994 111.843 219.73 111.843 219.418C111.843 219.106 111.951 218.842 112.167 218.626C112.383 218.41 112.647 218.302 112.959 218.302C113.259 218.302 113.511 218.41 113.715 218.626C113.931 218.842 114.039 219.106 114.039 219.418C114.039 219.73 113.931 219.994 113.715 220.21C113.511 220.426 113.259 220.534 112.959 220.534ZM113.751 222.136V232H112.113V222.136H113.751ZM120.034 232.162C119.278 232.162 118.6 232.036 118 231.784C117.4 231.52 116.926 231.16 116.578 230.704C116.23 230.236 116.038 229.702 116.002 229.102H117.694C117.742 229.594 117.97 229.996 118.378 230.308C118.798 230.62 119.344 230.776 120.016 230.776C120.64 230.776 121.132 230.638 121.492 230.362C121.852 230.086 122.032 229.738 122.032 229.318C122.032 228.886 121.84 228.568 121.456 228.364C121.072 228.148 120.478 227.938 119.674 227.734C118.942 227.542 118.342 227.35 117.874 227.158C117.418 226.954 117.022 226.66 116.686 226.276C116.362 225.88 116.2 225.364 116.2 224.728C116.2 224.224 116.35 223.762 116.65 223.342C116.95 222.922 117.376 222.592 117.928 222.352C118.48 222.1 119.11 221.974 119.818 221.974C120.91 221.974 121.792 222.25 122.464 222.802C123.136 223.354 123.496 224.11 123.544 225.07H121.906C121.87 224.554 121.66 224.14 121.276 223.828C120.904 223.516 120.4 223.36 119.764 223.36C119.176 223.36 118.708 223.486 118.36 223.738C118.012 223.99 117.838 224.32 117.838 224.728C117.838 225.052 117.94 225.322 118.144 225.538C118.36 225.742 118.624 225.91 118.936 226.042C119.26 226.162 119.704 226.3 120.268 226.456C120.976 226.648 121.552 226.84 121.996 227.032C122.44 227.212 122.818 227.488 123.13 227.86C123.454 228.232 123.622 228.718 123.634 229.318C123.634 229.858 123.484 230.344 123.184 230.776C122.884 231.208 122.458 231.55 121.906 231.802C121.366 232.042 120.742 232.162 120.034 232.162ZM125.335 227.05C125.335 226.03 125.539 225.142 125.947 224.386C126.355 223.618 126.919 223.024 127.639 222.604C128.371 222.184 129.205 221.974 130.141 221.974C131.353 221.974 132.349 222.268 133.129 222.856C133.921 223.444 134.443 224.26 134.695 225.304H132.931C132.763 224.704 132.433 224.23 131.941 223.882C131.461 223.534 130.861 223.36 130.141 223.36C129.205 223.36 128.449 223.684 127.873 224.332C127.297 224.968 127.009 225.874 127.009 227.05C127.009 228.238 127.297 229.156 127.873 229.804C128.449 230.452 129.205 230.776 130.141 230.776C130.861 230.776 131.461 230.608 131.941 230.272C132.421 229.936 132.751 229.456 132.931 228.832H134.695C134.431 229.84 133.903 230.65 133.111 231.262C132.319 231.862 131.329 232.162 130.141 232.162C129.205 232.162 128.371 231.952 127.639 231.532C126.919 231.112 126.355 230.518 125.947 229.75C125.539 228.982 125.335 228.082 125.335 227.05ZM145.628 222.136V232H143.99V230.542C143.678 231.046 143.24 231.442 142.676 231.73C142.124 232.006 141.512 232.144 140.84 232.144C140.072 232.144 139.382 231.988 138.77 231.676C138.158 231.352 137.672 230.872 137.312 230.236C136.964 229.6 136.79 228.826 136.79 227.914V222.136H138.41V227.698C138.41 228.67 138.656 229.42 139.148 229.948C139.64 230.464 140.312 230.722 141.164 230.722C142.04 230.722 142.73 230.452 143.234 229.912C143.738 229.372 143.99 228.586 143.99 227.554V222.136H145.628ZM151.886 232.162C151.13 232.162 150.452 232.036 149.852 231.784C149.252 231.52 148.778 231.16 148.43 230.704C148.082 230.236 147.89 229.702 147.854 229.102H149.546C149.594 229.594 149.822 229.996 150.23 230.308C150.65 230.62 151.196 230.776 151.868 230.776C152.492 230.776 152.984 230.638 153.344 230.362C153.704 230.086 153.884 229.738 153.884 229.318C153.884 228.886 153.692 228.568 153.308 228.364C152.924 228.148 152.33 227.938 151.526 227.734C150.794 227.542 150.194 227.35 149.726 227.158C149.27 226.954 148.874 226.66 148.538 226.276C148.214 225.88 148.052 225.364 148.052 224.728C148.052 224.224 148.202 223.762 148.502 223.342C148.802 222.922 149.228 222.592 149.78 222.352C150.332 222.1 150.962 221.974 151.67 221.974C152.762 221.974 153.644 222.25 154.316 222.802C154.988 223.354 155.348 224.11 155.396 225.07H153.758C153.722 224.554 153.512 224.14 153.128 223.828C152.756 223.516 152.252 223.36 151.616 223.36C151.028 223.36 150.56 223.486 150.212 223.738C149.864 223.99 149.69 224.32 149.69 224.728C149.69 225.052 149.792 225.322 149.996 225.538C150.212 225.742 150.476 225.91 150.788 226.042C151.112 226.162 151.556 226.3 152.12 226.456C152.828 226.648 153.404 226.84 153.848 227.032C154.292 227.212 154.67 227.488 154.982 227.86C155.306 228.232 155.474 228.718 155.486 229.318C155.486 229.858 155.336 230.344 155.036 230.776C154.736 231.208 154.31 231.55 153.758 231.802C153.218 232.042 152.594 232.162 151.886 232.162ZM161.29 232.162C160.534 232.162 159.856 232.036 159.256 231.784C158.656 231.52 158.182 231.16 157.834 230.704C157.486 230.236 157.294 229.702 157.258 229.102H158.95C158.998 229.594 159.226 229.996 159.634 230.308C160.054 230.62 160.6 230.776 161.272 230.776C161.896 230.776 162.388 230.638 162.748 230.362C163.108 230.086 163.288 229.738 163.288 229.318C163.288 228.886 163.096 228.568 162.712 228.364C162.328 228.148 161.734 227.938 160.93 227.734C160.198 227.542 159.598 227.35 159.13 227.158C158.674 226.954 158.278 226.66 157.942 226.276C157.618 225.88 157.456 225.364 157.456 224.728C157.456 224.224 157.606 223.762 157.906 223.342C158.206 222.922 158.632 222.592 159.184 222.352C159.736 222.1 160.366 221.974 161.074 221.974C162.166 221.974 163.048 222.25 163.72 222.802C164.392 223.354 164.752 224.11 164.8 225.07H163.162C163.126 224.554 162.916 224.14 162.532 223.828C162.16 223.516 161.656 223.36 161.02 223.36C160.432 223.36 159.964 223.486 159.616 223.738C159.268 223.99 159.094 224.32 159.094 224.728C159.094 225.052 159.196 225.322 159.4 225.538C159.616 225.742 159.88 225.91 160.192 226.042C160.516 226.162 160.96 226.3 161.524 226.456C162.232 226.648 162.808 226.84 163.252 227.032C163.696 227.212 164.074 227.488 164.386 227.86C164.71 228.232 164.878 228.718 164.89 229.318C164.89 229.858 164.74 230.344 164.44 230.776C164.14 231.208 163.714 231.55 163.162 231.802C162.622 232.042 161.998 232.162 161.29 232.162ZM185.141 222.136L182.063 232H180.371L177.995 224.17L175.619 232H173.927L170.831 222.136H172.505L174.773 230.416L177.221 222.136H178.895L181.289 230.434L183.521 222.136H185.141ZM187.613 220.534C187.301 220.534 187.037 220.426 186.821 220.21C186.605 219.994 186.497 219.73 186.497 219.418C186.497 219.106 186.605 218.842 186.821 218.626C187.037 218.41 187.301 218.302 187.613 218.302C187.913 218.302 188.165 218.41 188.369 218.626C188.585 218.842 188.693 219.106 188.693 219.418C188.693 219.73 188.585 219.994 188.369 220.21C188.165 220.426 187.913 220.534 187.613 220.534ZM188.405 222.136V232H186.767V222.136H188.405ZM193.195 223.486V229.3C193.195 229.78 193.297 230.122 193.501 230.326C193.705 230.518 194.059 230.614 194.563 230.614H195.769V232H194.293C193.381 232 192.697 231.79 192.241 231.37C191.785 230.95 191.557 230.26 191.557 229.3V223.486H190.279V222.136H191.557V219.652H193.195V222.136H195.769V223.486H193.195ZM202.649 221.956C203.393 221.956 204.065 222.118 204.665 222.442C205.265 222.754 205.733 223.228 206.069 223.864C206.417 224.5 206.591 225.274 206.591 226.186V232H204.971V226.42C204.971 225.436 204.725 224.686 204.233 224.17C203.741 223.642 203.069 223.378 202.217 223.378C201.353 223.378 200.663 223.648 200.147 224.188C199.643 224.728 199.391 225.514 199.391 226.546V232H197.753V218.68H199.391V223.54C199.715 223.036 200.159 222.646 200.723 222.37C201.299 222.094 201.941 221.956 202.649 221.956ZM215.668 219.454V227.392C215.668 228.508 215.938 229.336 216.478 229.876C217.03 230.416 217.792 230.686 218.764 230.686C219.724 230.686 220.474 230.416 221.014 229.876C221.566 229.336 221.842 228.508 221.842 227.392V219.454H223.48V227.374C223.48 228.418 223.27 229.3 222.85 230.02C222.43 230.728 221.86 231.256 221.14 231.604C220.432 231.952 219.634 232.126 218.746 232.126C217.858 232.126 217.054 231.952 216.334 231.604C215.626 231.256 215.062 230.728 214.642 230.02C214.234 229.3 214.03 228.418 214.03 227.374V219.454H215.668ZM231.342 225.736L235.194 232H233.34L230.334 227.104L227.472 232H225.654L229.488 225.736L225.636 219.454H227.472L230.496 224.368L233.376 219.454H235.212L231.342 225.736ZM245.683 232.162C244.927 232.162 244.249 232.036 243.649 231.784C243.049 231.52 242.575 231.16 242.227 230.704C241.879 230.236 241.687 229.702 241.651 229.102H243.343C243.391 229.594 243.619 229.996 244.027 230.308C244.447 230.62 244.993 230.776 245.665 230.776C246.289 230.776 246.781 230.638 247.141 230.362C247.501 230.086 247.681 229.738 247.681 229.318C247.681 228.886 247.489 228.568 247.105 228.364C246.721 228.148 246.127 227.938 245.323 227.734C244.591 227.542 243.991 227.35 243.523 227.158C243.067 226.954 242.671 226.66 242.335 226.276C242.011 225.88 241.849 225.364 241.849 224.728C241.849 224.224 241.999 223.762 242.299 223.342C242.599 222.922 243.025 222.592 243.577 222.352C244.129 222.1 244.759 221.974 245.467 221.974C246.559 221.974 247.441 222.25 248.113 222.802C248.785 223.354 249.145 224.11 249.193 225.07H247.555C247.519 224.554 247.309 224.14 246.925 223.828C246.553 223.516 246.049 223.36 245.413 223.36C244.825 223.36 244.357 223.486 244.009 223.738C243.661 223.99 243.487 224.32 243.487 224.728C243.487 225.052 243.589 225.322 243.793 225.538C244.009 225.742 244.273 225.91 244.585 226.042C244.909 226.162 245.353 226.3 245.917 226.456C246.625 226.648 247.201 226.84 247.645 227.032C248.089 227.212 248.467 227.488 248.779 227.86C249.103 228.232 249.271 228.718 249.283 229.318C249.283 229.858 249.133 230.344 248.833 230.776C248.533 231.208 248.107 231.55 247.555 231.802C247.015 232.042 246.391 232.162 245.683 232.162ZM253.593 223.486V229.3C253.593 229.78 253.695 230.122 253.899 230.326C254.103 230.518 254.457 230.614 254.961 230.614H256.167V232H254.691C253.779 232 253.095 231.79 252.639 231.37C252.183 230.95 251.955 230.26 251.955 229.3V223.486H250.677V222.136H251.955V219.652H253.593V222.136H256.167V223.486H253.593ZM259.79 223.738C260.078 223.174 260.486 222.736 261.014 222.424C261.554 222.112 262.208 221.956 262.976 221.956V223.648H262.544C260.708 223.648 259.79 224.644 259.79 226.636V232H258.152V222.136H259.79V223.738ZM264.254 227.032C264.254 226.024 264.458 225.142 264.866 224.386C265.274 223.618 265.832 223.024 266.54 222.604C267.26 222.184 268.058 221.974 268.934 221.974C269.798 221.974 270.548 222.16 271.184 222.532C271.82 222.904 272.294 223.372 272.606 223.936V222.136H274.262V232H272.606V230.164C272.282 230.74 271.796 231.22 271.148 231.604C270.512 231.976 269.768 232.162 268.916 232.162C268.04 232.162 267.248 231.946 266.54 231.514C265.832 231.082 265.274 230.476 264.866 229.696C264.458 228.916 264.254 228.028 264.254 227.032ZM272.606 227.05C272.606 226.306 272.456 225.658 272.156 225.106C271.856 224.554 271.448 224.134 270.932 223.846C270.428 223.546 269.87 223.396 269.258 223.396C268.646 223.396 268.088 223.54 267.584 223.828C267.08 224.116 266.678 224.536 266.378 225.088C266.078 225.64 265.928 226.288 265.928 227.032C265.928 227.788 266.078 228.448 266.378 229.012C266.678 229.564 267.08 229.99 267.584 230.29C268.088 230.578 268.646 230.722 269.258 230.722C269.87 230.722 270.428 230.578 270.932 230.29C271.448 229.99 271.856 229.564 272.156 229.012C272.456 228.448 272.606 227.794 272.606 227.05ZM279.029 223.486V229.3C279.029 229.78 279.131 230.122 279.335 230.326C279.539 230.518 279.893 230.614 280.397 230.614H281.603V232H280.127C279.215 232 278.531 231.79 278.075 231.37C277.619 230.95 277.391 230.26 277.391 229.3V223.486H276.113V222.136H277.391V219.652H279.029V222.136H281.603V223.486H279.029ZM292.587 226.69C292.587 227.002 292.569 227.332 292.533 227.68H284.649C284.709 228.652 285.039 229.414 285.639 229.966C286.251 230.506 286.989 230.776 287.853 230.776C288.561 230.776 289.149 230.614 289.617 230.29C290.097 229.954 290.433 229.51 290.625 228.958H292.389C292.125 229.906 291.597 230.68 290.805 231.28C290.013 231.868 289.029 232.162 287.853 232.162C286.917 232.162 286.077 231.952 285.333 231.532C284.601 231.112 284.025 230.518 283.605 229.75C283.185 228.97 282.975 228.07 282.975 227.05C282.975 226.03 283.179 225.136 283.587 224.368C283.995 223.6 284.565 223.012 285.297 222.604C286.041 222.184 286.893 221.974 287.853 221.974C288.789 221.974 289.617 222.178 290.337 222.586C291.057 222.994 291.609 223.558 291.993 224.278C292.389 224.986 292.587 225.79 292.587 226.69ZM290.895 226.348C290.895 225.724 290.757 225.19 290.481 224.746C290.205 224.29 289.827 223.948 289.347 223.72C288.879 223.48 288.357 223.36 287.781 223.36C286.953 223.36 286.245 223.624 285.657 224.152C285.081 224.68 284.751 225.412 284.667 226.348H290.895ZM298.817 221.974C299.669 221.974 300.413 222.16 301.049 222.532C301.697 222.904 302.177 223.372 302.489 223.936V222.136H304.145V232.216C304.145 233.116 303.953 233.914 303.569 234.61C303.185 235.318 302.633 235.87 301.913 236.266C301.205 236.662 300.377 236.86 299.429 236.86C298.133 236.86 297.053 236.554 296.189 235.942C295.325 235.33 294.815 234.496 294.659 233.44H296.279C296.459 234.04 296.831 234.52 297.395 234.88C297.959 235.252 298.637 235.438 299.429 235.438C300.329 235.438 301.061 235.156 301.625 234.592C302.201 234.028 302.489 233.236 302.489 232.216V230.146C302.165 230.722 301.685 231.202 301.049 231.586C300.413 231.97 299.669 232.162 298.817 232.162C297.941 232.162 297.143 231.946 296.423 231.514C295.715 231.082 295.157 230.476 294.749 229.696C294.341 228.916 294.137 228.028 294.137 227.032C294.137 226.024 294.341 225.142 294.749 224.386C295.157 223.618 295.715 223.024 296.423 222.604C297.143 222.184 297.941 221.974 298.817 221.974ZM302.489 227.05C302.489 226.306 302.339 225.658 302.039 225.106C301.739 224.554 301.331 224.134 300.815 223.846C300.311 223.546 299.753 223.396 299.141 223.396C298.529 223.396 297.971 223.54 297.467 223.828C296.963 224.116 296.561 224.536 296.261 225.088C295.961 225.64 295.811 226.288 295.811 227.032C295.811 227.788 295.961 228.448 296.261 229.012C296.561 229.564 296.963 229.99 297.467 230.29C297.971 230.578 298.529 230.722 299.141 230.722C299.753 230.722 300.311 230.578 300.815 230.29C301.331 229.99 301.739 229.564 302.039 229.012C302.339 228.448 302.489 227.794 302.489 227.05ZM307.759 220.534C307.447 220.534 307.183 220.426 306.967 220.21C306.751 219.994 306.643 219.73 306.643 219.418C306.643 219.106 306.751 218.842 306.967 218.626C307.183 218.41 307.447 218.302 307.759 218.302C308.059 218.302 308.311 218.41 308.515 218.626C308.731 218.842 308.839 219.106 308.839 219.418C308.839 219.73 308.731 219.994 308.515 220.21C308.311 220.426 308.059 220.534 307.759 220.534ZM308.551 222.136V232H306.913V222.136H308.551ZM314.835 232.162C314.079 232.162 313.401 232.036 312.801 231.784C312.201 231.52 311.727 231.16 311.379 230.704C311.031 230.236 310.839 229.702 310.803 229.102H312.495C312.543 229.594 312.771 229.996 313.179 230.308C313.599 230.62 314.145 230.776 314.817 230.776C315.441 230.776 315.933 230.638 316.293 230.362C316.653 230.086 316.833 229.738 316.833 229.318C316.833 228.886 316.641 228.568 316.257 228.364C315.873 228.148 315.279 227.938 314.475 227.734C313.743 227.542 313.143 227.35 312.675 227.158C312.219 226.954 311.823 226.66 311.487 226.276C311.163 225.88 311.001 225.364 311.001 224.728C311.001 224.224 311.151 223.762 311.451 223.342C311.751 222.922 312.177 222.592 312.729 222.352C313.281 222.1 313.911 221.974 314.619 221.974C315.711 221.974 316.593 222.25 317.265 222.802C317.937 223.354 318.297 224.11 318.345 225.07H316.707C316.671 224.554 316.461 224.14 316.077 223.828C315.705 223.516 315.201 223.36 314.565 223.36C313.977 223.36 313.509 223.486 313.161 223.738C312.813 223.99 312.639 224.32 312.639 224.728C312.639 225.052 312.741 225.322 312.945 225.538C313.161 225.742 313.425 225.91 313.737 226.042C314.061 226.162 314.505 226.3 315.069 226.456C315.777 226.648 316.353 226.84 316.797 227.032C317.241 227.212 317.619 227.488 317.931 227.86C318.255 228.232 318.423 228.718 318.435 229.318C318.435 229.858 318.285 230.344 317.985 230.776C317.685 231.208 317.259 231.55 316.707 231.802C316.167 232.042 315.543 232.162 314.835 232.162ZM322.745 223.486V229.3C322.745 229.78 322.847 230.122 323.051 230.326C323.255 230.518 323.609 230.614 324.113 230.614H325.319V232H323.843C322.931 232 322.247 231.79 321.791 231.37C321.335 230.95 321.107 230.26 321.107 229.3V223.486H319.829V222.136H321.107V219.652H322.745V222.136H325.319V223.486H322.745ZM84.481 255.202C83.869 255.202 83.347 254.992 82.915 254.572C82.495 254.14 82.285 253.618 82.285 253.006C82.285 252.382 82.495 251.86 82.915 251.44C83.347 251.008 83.869 250.792 84.481 250.792C85.105 250.792 85.633 251.008 86.065 251.44C86.497 251.86 86.713 252.382 86.713 253.006C86.713 253.618 86.497 254.14 86.065 254.572C85.633 254.992 85.105 255.202 84.481 255.202ZM101.024 246.454V259H99.386V246.454H101.024ZM108.622 248.956C109.822 248.956 110.794 249.322 111.538 250.054C112.282 250.774 112.654 251.818 112.654 253.186V259H111.034V253.42C111.034 252.436 110.788 251.686 110.296 251.17C109.804 250.642 109.132 250.378 108.28 250.378C107.416 250.378 106.726 250.648 106.21 251.188C105.706 251.728 105.454 252.514 105.454 253.546V259H103.816V249.136H105.454V250.54C105.778 250.036 106.216 249.646 106.768 249.37C107.332 249.094 107.95 248.956 108.622 248.956ZM121.766 245.68V259H120.128V245.68H121.766ZM125.404 247.534C125.092 247.534 124.828 247.426 124.612 247.21C124.396 246.994 124.288 246.73 124.288 246.418C124.288 246.106 124.396 245.842 124.612 245.626C124.828 245.41 125.092 245.302 125.404 245.302C125.704 245.302 125.956 245.41 126.16 245.626C126.376 245.842 126.484 246.106 126.484 246.418C126.484 246.73 126.376 246.994 126.16 247.21C125.956 247.426 125.704 247.534 125.404 247.534ZM126.196 249.136V259H124.558V249.136H126.196ZM133.794 248.956C134.994 248.956 135.966 249.322 136.71 250.054C137.454 250.774 137.826 251.818 137.826 253.186V259H136.206V253.42C136.206 252.436 135.96 251.686 135.468 251.17C134.976 250.642 134.304 250.378 133.452 250.378C132.588 250.378 131.898 250.648 131.382 251.188C130.878 251.728 130.626 252.514 130.626 253.546V259H128.988V249.136H130.626V250.54C130.95 250.036 131.388 249.646 131.94 249.37C132.504 249.094 133.122 248.956 133.794 248.956ZM149.501 253.69C149.501 254.002 149.483 254.332 149.447 254.68H141.563C141.623 255.652 141.953 256.414 142.553 256.966C143.165 257.506 143.903 257.776 144.767 257.776C145.475 257.776 146.063 257.614 146.531 257.29C147.011 256.954 147.347 256.51 147.539 255.958H149.303C149.039 256.906 148.511 257.68 147.719 258.28C146.927 258.868 145.943 259.162 144.767 259.162C143.831 259.162 142.991 258.952 142.247 258.532C141.515 258.112 140.939 257.518 140.519 256.75C140.099 255.97 139.889 255.07 139.889 254.05C139.889 253.03 140.093 252.136 140.501 251.368C140.909 250.6 141.479 250.012 142.211 249.604C142.955 249.184 143.807 248.974 144.767 248.974C145.703 248.974 146.531 249.178 147.251 249.586C147.971 249.994 148.523 250.558 148.907 251.278C149.303 251.986 149.501 252.79 149.501 253.69ZM147.809 253.348C147.809 252.724 147.671 252.19 147.395 251.746C147.119 251.29 146.741 250.948 146.261 250.72C145.793 250.48 145.271 250.36 144.695 250.36C143.867 250.36 143.159 250.624 142.571 251.152C141.995 251.68 141.665 252.412 141.581 253.348H147.809ZM169.602 249.136L166.524 259H164.832L162.456 251.17L160.08 259H158.388L155.292 249.136H156.966L159.234 257.416L161.682 249.136H163.356L165.75 257.434L167.982 249.136H169.602ZM172.074 247.534C171.762 247.534 171.498 247.426 171.282 247.21C171.066 246.994 170.958 246.73 170.958 246.418C170.958 246.106 171.066 245.842 171.282 245.626C171.498 245.41 171.762 245.302 172.074 245.302C172.374 245.302 172.626 245.41 172.83 245.626C173.046 245.842 173.154 246.106 173.154 246.418C173.154 246.73 173.046 246.994 172.83 247.21C172.626 247.426 172.374 247.534 172.074 247.534ZM172.866 249.136V259H171.228V249.136H172.866ZM177.655 250.486V256.3C177.655 256.78 177.757 257.122 177.961 257.326C178.165 257.518 178.519 257.614 179.023 257.614H180.229V259H178.753C177.841 259 177.157 258.79 176.701 258.37C176.245 257.95 176.017 257.26 176.017 256.3V250.486H174.739V249.136H176.017V246.652H177.655V249.136H180.229V250.486H177.655ZM187.11 248.956C187.854 248.956 188.526 249.118 189.126 249.442C189.726 249.754 190.194 250.228 190.53 250.864C190.878 251.5 191.052 252.274 191.052 253.186V259H189.432V253.42C189.432 252.436 189.186 251.686 188.694 251.17C188.202 250.642 187.53 250.378 186.678 250.378C185.814 250.378 185.124 250.648 184.608 251.188C184.104 251.728 183.852 252.514 183.852 253.546V259H182.214V245.68H183.852V250.54C184.176 250.036 184.62 249.646 185.184 249.37C185.76 249.094 186.402 248.956 187.11 248.956ZM197.915 254.05C197.915 253.03 198.119 252.142 198.527 251.386C198.935 250.618 199.499 250.024 200.219 249.604C200.951 249.184 201.785 248.974 202.721 248.974C203.933 248.974 204.929 249.268 205.709 249.856C206.501 250.444 207.023 251.26 207.275 252.304H205.511C205.343 251.704 205.013 251.23 204.521 250.882C204.041 250.534 203.441 250.36 202.721 250.36C201.785 250.36 201.029 250.684 200.453 251.332C199.877 251.968 199.589 252.874 199.589 254.05C199.589 255.238 199.877 256.156 200.453 256.804C201.029 257.452 201.785 257.776 202.721 257.776C203.441 257.776 204.041 257.608 204.521 257.272C205.001 256.936 205.331 256.456 205.511 255.832H207.275C207.011 256.84 206.483 257.65 205.691 258.262C204.899 258.862 203.909 259.162 202.721 259.162C201.785 259.162 200.951 258.952 200.219 258.532C199.499 258.112 198.935 257.518 198.527 256.75C198.119 255.982 197.915 255.082 197.915 254.05ZM213.762 259.162C212.838 259.162 211.998 258.952 211.242 258.532C210.498 258.112 209.91 257.518 209.478 256.75C209.058 255.97 208.848 255.07 208.848 254.05C208.848 253.042 209.064 252.154 209.496 251.386C209.94 250.606 210.54 250.012 211.296 249.604C212.052 249.184 212.898 248.974 213.834 248.974C214.77 248.974 215.616 249.184 216.372 249.604C217.128 250.012 217.722 250.6 218.154 251.368C218.598 252.136 218.82 253.03 218.82 254.05C218.82 255.07 218.592 255.97 218.136 256.75C217.692 257.518 217.086 258.112 216.318 258.532C215.55 258.952 214.698 259.162 213.762 259.162ZM213.762 257.722C214.35 257.722 214.902 257.584 215.418 257.308C215.934 257.032 216.348 256.618 216.66 256.066C216.984 255.514 217.146 254.842 217.146 254.05C217.146 253.258 216.99 252.586 216.678 252.034C216.366 251.482 215.958 251.074 215.454 250.81C214.95 250.534 214.404 250.396 213.816 250.396C213.216 250.396 212.664 250.534 212.16 250.81C211.668 251.074 211.272 251.482 210.972 252.034C210.672 252.586 210.522 253.258 210.522 254.05C210.522 254.854 210.666 255.532 210.954 256.084C211.254 256.636 211.65 257.05 212.142 257.326C212.634 257.59 213.174 257.722 213.762 257.722ZM232.836 248.956C233.604 248.956 234.288 249.118 234.888 249.442C235.488 249.754 235.962 250.228 236.31 250.864C236.658 251.5 236.832 252.274 236.832 253.186V259H235.212V253.42C235.212 252.436 234.966 251.686 234.474 251.17C233.994 250.642 233.34 250.378 232.512 250.378C231.66 250.378 230.982 250.654 230.478 251.206C229.974 251.746 229.722 252.532 229.722 253.564V259H228.102V253.42C228.102 252.436 227.856 251.686 227.364 251.17C226.884 250.642 226.23 250.378 225.402 250.378C224.55 250.378 223.872 250.654 223.368 251.206C222.864 251.746 222.612 252.532 222.612 253.564V259H220.974V249.136H222.612V250.558C222.936 250.042 223.368 249.646 223.908 249.37C224.46 249.094 225.066 248.956 225.726 248.956C226.554 248.956 227.286 249.142 227.922 249.514C228.558 249.886 229.032 250.432 229.344 251.152C229.62 250.456 230.076 249.916 230.712 249.532C231.348 249.148 232.056 248.956 232.836 248.956ZM241.157 250.954C241.481 250.39 241.961 249.922 242.597 249.55C243.245 249.166 243.995 248.974 244.847 248.974C245.723 248.974 246.515 249.184 247.223 249.604C247.943 250.024 248.507 250.618 248.915 251.386C249.323 252.142 249.527 253.024 249.527 254.032C249.527 255.028 249.323 255.916 248.915 256.696C248.507 257.476 247.943 258.082 247.223 258.514C246.515 258.946 245.723 259.162 244.847 259.162C244.007 259.162 243.263 258.976 242.615 258.604C241.979 258.22 241.493 257.746 241.157 257.182V263.68H239.519V249.136H241.157V250.954ZM247.853 254.032C247.853 253.288 247.703 252.64 247.403 252.088C247.103 251.536 246.695 251.116 246.179 250.828C245.675 250.54 245.117 250.396 244.505 250.396C243.905 250.396 243.347 250.546 242.831 250.846C242.327 251.134 241.919 251.56 241.607 252.124C241.307 252.676 241.157 253.318 241.157 254.05C241.157 254.794 241.307 255.448 241.607 256.012C241.919 256.564 242.327 256.99 242.831 257.29C243.347 257.578 243.905 257.722 244.505 257.722C245.117 257.722 245.675 257.578 246.179 257.29C246.695 256.99 247.103 256.564 247.403 256.012C247.703 255.448 247.853 254.788 247.853 254.032ZM251.071 254.032C251.071 253.024 251.275 252.142 251.683 251.386C252.091 250.618 252.649 250.024 253.357 249.604C254.077 249.184 254.875 248.974 255.751 248.974C256.615 248.974 257.365 249.16 258.001 249.532C258.637 249.904 259.111 250.372 259.423 250.936V249.136H261.079V259H259.423V257.164C259.099 257.74 258.613 258.22 257.965 258.604C257.329 258.976 256.585 259.162 255.733 259.162C254.857 259.162 254.065 258.946 253.357 258.514C252.649 258.082 252.091 257.476 251.683 256.696C251.275 255.916 251.071 255.028 251.071 254.032ZM259.423 254.05C259.423 253.306 259.273 252.658 258.973 252.106C258.673 251.554 258.265 251.134 257.749 250.846C257.245 250.546 256.687 250.396 256.075 250.396C255.463 250.396 254.905 250.54 254.401 250.828C253.897 251.116 253.495 251.536 253.195 252.088C252.895 252.64 252.745 253.288 252.745 254.032C252.745 254.788 252.895 255.448 253.195 256.012C253.495 256.564 253.897 256.99 254.401 257.29C254.905 257.578 255.463 257.722 256.075 257.722C256.687 257.722 257.245 257.578 257.749 257.29C258.265 256.99 258.673 256.564 258.973 256.012C259.273 255.448 259.423 254.794 259.423 254.05ZM268.653 248.956C269.853 248.956 270.825 249.322 271.569 250.054C272.313 250.774 272.685 251.818 272.685 253.186V259H271.065V253.42C271.065 252.436 270.819 251.686 270.327 251.17C269.835 250.642 269.163 250.378 268.311 250.378C267.447 250.378 266.757 250.648 266.241 251.188C265.737 251.728 265.485 252.514 265.485 253.546V259H263.847V249.136H265.485V250.54C265.809 250.036 266.247 249.646 266.799 249.37C267.363 249.094 267.981 248.956 268.653 248.956ZM283.857 249.136L277.917 263.644H276.225L278.169 258.892L274.191 249.136H276.009L279.105 257.128L282.165 249.136H283.857ZM285.755 246.454H287.573L285.845 250.54H284.693L285.755 246.454ZM292.933 259.162C292.177 259.162 291.499 259.036 290.899 258.784C290.299 258.52 289.825 258.16 289.477 257.704C289.129 257.236 288.937 256.702 288.901 256.102H290.593C290.641 256.594 290.869 256.996 291.277 257.308C291.697 257.62 292.243 257.776 292.915 257.776C293.539 257.776 294.031 257.638 294.391 257.362C294.751 257.086 294.931 256.738 294.931 256.318C294.931 255.886 294.739 255.568 294.355 255.364C293.971 255.148 293.377 254.938 292.573 254.734C291.841 254.542 291.241 254.35 290.773 254.158C290.317 253.954 289.921 253.66 289.585 253.276C289.261 252.88 289.099 252.364 289.099 251.728C289.099 251.224 289.249 250.762 289.549 250.342C289.849 249.922 290.275 249.592 290.827 249.352C291.379 249.1 292.009 248.974 292.717 248.974C293.809 248.974 294.691 249.25 295.363 249.802C296.035 250.354 296.395 251.11 296.443 252.07H294.805C294.769 251.554 294.559 251.14 294.175 250.828C293.803 250.516 293.299 250.36 292.663 250.36C292.075 250.36 291.607 250.486 291.259 250.738C290.911 250.99 290.737 251.32 290.737 251.728C290.737 252.052 290.839 252.322 291.043 252.538C291.259 252.742 291.523 252.91 291.835 253.042C292.159 253.162 292.603 253.3 293.167 253.456C293.875 253.648 294.451 253.84 294.895 254.032C295.339 254.212 295.717 254.488 296.029 254.86C296.353 255.232 296.521 255.718 296.533 256.318C296.533 256.858 296.383 257.344 296.083 257.776C295.783 258.208 295.357 258.55 294.805 258.802C294.265 259.042 293.641 259.162 292.933 259.162ZM305.282 250.972C305.618 250.384 306.11 249.904 306.758 249.532C307.406 249.16 308.144 248.974 308.972 248.974C309.86 248.974 310.658 249.184 311.366 249.604C312.074 250.024 312.632 250.618 313.04 251.386C313.448 252.142 313.652 253.024 313.652 254.032C313.652 255.028 313.448 255.916 313.04 256.696C312.632 257.476 312.068 258.082 311.348 258.514C310.64 258.946 309.848 259.162 308.972 259.162C308.12 259.162 307.37 258.976 306.722 258.604C306.086 258.232 305.606 257.758 305.282 257.182V259H303.644V245.68H305.282V250.972ZM311.978 254.032C311.978 253.288 311.828 252.64 311.528 252.088C311.228 251.536 310.82 251.116 310.304 250.828C309.8 250.54 309.242 250.396 308.63 250.396C308.03 250.396 307.472 250.546 306.956 250.846C306.452 251.134 306.044 251.56 305.732 252.124C305.432 252.676 305.282 253.318 305.282 254.05C305.282 254.794 305.432 255.448 305.732 256.012C306.044 256.564 306.452 256.99 306.956 257.29C307.472 257.578 308.03 257.722 308.63 257.722C309.242 257.722 309.8 257.578 310.304 257.29C310.82 256.99 311.228 256.564 311.528 256.012C311.828 255.448 311.978 254.788 311.978 254.032ZM317.446 250.738C317.734 250.174 318.142 249.736 318.67 249.424C319.21 249.112 319.864 248.956 320.632 248.956V250.648H320.2C318.364 250.648 317.446 251.644 317.446 253.636V259H315.808V249.136H317.446V250.738ZM321.911 254.032C321.911 253.024 322.115 252.142 322.523 251.386C322.931 250.618 323.489 250.024 324.197 249.604C324.917 249.184 325.715 248.974 326.591 248.974C327.455 248.974 328.205 249.16 328.841 249.532C329.477 249.904 329.951 250.372 330.263 250.936V249.136H331.919V259H330.263V257.164C329.939 257.74 329.453 258.22 328.805 258.604C328.169 258.976 327.425 259.162 326.573 259.162C325.697 259.162 324.905 258.946 324.197 258.514C323.489 258.082 322.931 257.476 322.523 256.696C322.115 255.916 321.911 255.028 321.911 254.032ZM330.263 254.05C330.263 253.306 330.113 252.658 329.813 252.106C329.513 251.554 329.105 251.134 328.589 250.846C328.085 250.546 327.527 250.396 326.915 250.396C326.303 250.396 325.745 250.54 325.241 250.828C324.737 251.116 324.335 251.536 324.035 252.088C323.735 252.64 323.585 253.288 323.585 254.032C323.585 254.788 323.735 255.448 324.035 256.012C324.335 256.564 324.737 256.99 325.241 257.29C325.745 257.578 326.303 257.722 326.915 257.722C327.527 257.722 328.085 257.578 328.589 257.29C329.105 256.99 329.513 256.564 329.813 256.012C330.113 255.448 330.263 254.794 330.263 254.05ZM339.493 248.956C340.693 248.956 341.665 249.322 342.409 250.054C343.153 250.774 343.525 251.818 343.525 253.186V259H341.905V253.42C341.905 252.436 341.659 251.686 341.167 251.17C340.675 250.642 340.003 250.378 339.151 250.378C338.287 250.378 337.597 250.648 337.081 251.188C336.577 251.728 336.325 252.514 336.325 253.546V259H334.687V249.136H336.325V250.54C336.649 250.036 337.087 249.646 337.639 249.37C338.203 249.094 338.821 248.956 339.493 248.956ZM345.588 254.032C345.588 253.024 345.792 252.142 346.2 251.386C346.608 250.618 347.166 250.024 347.874 249.604C348.594 249.184 349.398 248.974 350.286 248.974C351.054 248.974 351.768 249.154 352.428 249.514C353.088 249.862 353.592 250.324 353.94 250.9V245.68H355.596V259H353.94V257.146C353.616 257.734 353.136 258.22 352.5 258.604C351.864 258.976 351.12 259.162 350.268 259.162C349.392 259.162 348.594 258.946 347.874 258.514C347.166 258.082 346.608 257.476 346.2 256.696C345.792 255.916 345.588 255.028 345.588 254.032ZM353.94 254.05C353.94 253.306 353.79 252.658 353.49 252.106C353.19 251.554 352.782 251.134 352.266 250.846C351.762 250.546 351.204 250.396 350.592 250.396C349.98 250.396 349.422 250.54 348.918 250.828C348.414 251.116 348.012 251.536 347.712 252.088C347.412 252.64 347.262 253.288 347.262 254.032C347.262 254.788 347.412 255.448 347.712 256.012C348.012 256.564 348.414 256.99 348.918 257.29C349.422 257.578 349.98 257.722 350.592 257.722C351.204 257.722 351.762 257.578 352.266 257.29C352.782 256.99 353.19 256.564 353.49 256.012C353.79 255.448 353.94 254.794 353.94 254.05ZM364.009 247.534C363.697 247.534 363.433 247.426 363.217 247.21C363.001 246.994 362.893 246.73 362.893 246.418C362.893 246.106 363.001 245.842 363.217 245.626C363.433 245.41 363.697 245.302 364.009 245.302C364.309 245.302 364.561 245.41 364.765 245.626C364.981 245.842 365.089 246.106 365.089 246.418C365.089 246.73 364.981 246.994 364.765 247.21C364.561 247.426 364.309 247.534 364.009 247.534ZM364.801 249.136V259H363.163V249.136H364.801ZM379.455 248.956C380.223 248.956 380.907 249.118 381.507 249.442C382.107 249.754 382.581 250.228 382.929 250.864C383.277 251.5 383.451 252.274 383.451 253.186V259H381.831V253.42C381.831 252.436 381.585 251.686 381.093 251.17C380.613 250.642 379.959 250.378 379.131 250.378C378.279 250.378 377.601 250.654 377.097 251.206C376.593 251.746 376.341 252.532 376.341 253.564V259H374.721V253.42C374.721 252.436 374.475 251.686 373.983 251.17C373.503 250.642 372.849 250.378 372.021 250.378C371.169 250.378 370.491 250.654 369.987 251.206C369.483 251.746 369.231 252.532 369.231 253.564V259H367.593V249.136H369.231V250.558C369.555 250.042 369.987 249.646 370.527 249.37C371.079 249.094 371.685 248.956 372.345 248.956C373.173 248.956 373.905 249.142 374.541 249.514C375.177 249.886 375.651 250.432 375.963 251.152C376.239 250.456 376.695 249.916 377.331 249.532C377.967 249.148 378.675 248.956 379.455 248.956ZM385.526 254.032C385.526 253.024 385.73 252.142 386.138 251.386C386.546 250.618 387.104 250.024 387.812 249.604C388.532 249.184 389.33 248.974 390.206 248.974C391.07 248.974 391.82 249.16 392.456 249.532C393.092 249.904 393.566 250.372 393.878 250.936V249.136H395.534V259H393.878V257.164C393.554 257.74 393.068 258.22 392.42 258.604C391.784 258.976 391.04 259.162 390.188 259.162C389.312 259.162 388.52 258.946 387.812 258.514C387.104 258.082 386.546 257.476 386.138 256.696C385.73 255.916 385.526 255.028 385.526 254.032ZM393.878 254.05C393.878 253.306 393.728 252.658 393.428 252.106C393.128 251.554 392.72 251.134 392.204 250.846C391.7 250.546 391.142 250.396 390.53 250.396C389.918 250.396 389.36 250.54 388.856 250.828C388.352 251.116 387.95 251.536 387.65 252.088C387.35 252.64 387.2 253.288 387.2 254.032C387.2 254.788 387.35 255.448 387.65 256.012C387.95 256.564 388.352 256.99 388.856 257.29C389.36 257.578 389.918 257.722 390.53 257.722C391.142 257.722 391.7 257.578 392.204 257.29C392.72 256.99 393.128 256.564 393.428 256.012C393.728 255.448 393.878 254.794 393.878 254.05ZM402.37 248.974C403.222 248.974 403.966 249.16 404.602 249.532C405.25 249.904 405.73 250.372 406.042 250.936V249.136H407.698V259.216C407.698 260.116 407.506 260.914 407.122 261.61C406.738 262.318 406.186 262.87 405.466 263.266C404.758 263.662 403.93 263.86 402.982 263.86C401.686 263.86 400.606 263.554 399.742 262.942C398.878 262.33 398.368 261.496 398.212 260.44H399.832C400.012 261.04 400.384 261.52 400.948 261.88C401.512 262.252 402.19 262.438 402.982 262.438C403.882 262.438 404.614 262.156 405.178 261.592C405.754 261.028 406.042 260.236 406.042 259.216V257.146C405.718 257.722 405.238 258.202 404.602 258.586C403.966 258.97 403.222 259.162 402.37 259.162C401.494 259.162 400.696 258.946 399.976 258.514C399.268 258.082 398.71 257.476 398.302 256.696C397.894 255.916 397.69 255.028 397.69 254.032C397.69 253.024 397.894 252.142 398.302 251.386C398.71 250.618 399.268 250.024 399.976 249.604C400.696 249.184 401.494 248.974 402.37 248.974ZM406.042 254.05C406.042 253.306 405.892 252.658 405.592 252.106C405.292 251.554 404.884 251.134 404.368 250.846C403.864 250.546 403.306 250.396 402.694 250.396C402.082 250.396 401.524 250.54 401.02 250.828C400.516 251.116 400.114 251.536 399.814 252.088C399.514 252.64 399.364 253.288 399.364 254.032C399.364 254.788 399.514 255.448 399.814 256.012C400.114 256.564 400.516 256.99 401.02 257.29C401.524 257.578 402.082 257.722 402.694 257.722C403.306 257.722 403.864 257.578 404.368 257.29C404.884 256.99 405.292 256.564 405.592 256.012C405.892 255.448 406.042 254.794 406.042 254.05ZM419.466 253.69C419.466 254.002 419.448 254.332 419.412 254.68H411.528C411.588 255.652 411.918 256.414 412.518 256.966C413.13 257.506 413.868 257.776 414.732 257.776C415.44 257.776 416.028 257.614 416.496 257.29C416.976 256.954 417.312 256.51 417.504 255.958H419.268C419.004 256.906 418.476 257.68 417.684 258.28C416.892 258.868 415.908 259.162 414.732 259.162C413.796 259.162 412.956 258.952 412.212 258.532C411.48 258.112 410.904 257.518 410.484 256.75C410.064 255.97 409.854 255.07 409.854 254.05C409.854 253.03 410.058 252.136 410.466 251.368C410.874 250.6 411.444 250.012 412.176 249.604C412.92 249.184 413.772 248.974 414.732 248.974C415.668 248.974 416.496 249.178 417.216 249.586C417.936 249.994 418.488 250.558 418.872 251.278C419.268 251.986 419.466 252.79 419.466 253.69ZM417.774 253.348C417.774 252.724 417.636 252.19 417.36 251.746C417.084 251.29 416.706 250.948 416.226 250.72C415.758 250.48 415.236 250.36 414.66 250.36C413.832 250.36 413.124 250.624 412.536 251.152C411.96 251.68 411.63 252.412 411.546 253.348H417.774Z" fill="black"/>
<defs>
<filter id="filter0_f_24_84" x="0" y="0" width="526" height="358" filterUnits="userSpaceOnUse" color-interpolation-filters="sRGB">
<feFlood flood-opacity="0" result="BackgroundImageFix"/>
<feBlend mode="normal" in="SourceGraphic" in2="BackgroundImageFix" result="shape"/>
<feGaussianBlur stdDeviation="10.5" result="effect1_foregroundBlur_24_84"/>
</filter>
<linearGradient id="paint0_linear_24_84" x1="102.823" y1="77" x2="160.753" y2="136.344" gradientUnits="userSpaceOnUse">
<stop stop-color="#E04D4D"/>
<stop offset="1" stop-color="#F9C1C1"/>
<stop offset="1" stop-color="#F9C1C1"/>
</linearGradient>
</defs>
</svg>
