<svg width="526" height="358" viewBox="0 0 526 358" fill="none" xmlns="http://www.w3.org/2000/svg">
<g filter="url(#filter0_f_24_85)">
<rect x="21" y="21" width="484" height="316" rx="30" fill="#E9CACD" fill-opacity="0.74"/>
</g>
<rect x="21" y="12" width="484" height="316" rx="30" fill="white"/>
<circle cx="112" cy="118" r="41" fill="url(#paint0_linear_24_85)"/>
<path d="M205.98 87.432C205.404 86.376 204.612 85.572 203.604 85.02C202.596 84.468 201.42 84.192 200.076 84.192C198.588 84.192 197.268 84.528 196.116 85.2C194.964 85.872 194.064 86.832 193.416 88.08C192.768 89.328 192.444 90.768 192.444 92.4C192.444 94.08 192.768 95.544 193.416 96.792C194.088 98.04 195.012 99 196.188 99.672C197.364 100.344 198.732 100.68 200.292 100.68C202.212 100.68 203.784 100.176 205.008 99.168C206.232 98.136 207.036 96.708 207.42 94.884H198.78V91.032H212.388V95.424C212.052 97.176 211.332 98.796 210.228 100.284C209.124 101.772 207.696 102.972 205.944 103.884C204.216 104.772 202.272 105.216 200.112 105.216C197.688 105.216 195.492 104.676 193.524 103.596C191.58 102.492 190.044 100.968 188.916 99.024C187.812 97.08 187.26 94.872 187.26 92.4C187.26 89.928 187.812 87.72 188.916 85.776C190.044 83.808 191.58 82.284 193.524 81.204C195.492 80.1 197.676 79.548 200.076 79.548C202.908 79.548 205.368 80.244 207.456 81.636C209.544 83.004 210.984 84.936 211.776 87.432H205.98ZM214.821 94.956C214.821 92.94 215.217 91.152 216.009 89.592C216.825 88.032 217.917 86.832 219.285 85.992C220.677 85.152 222.225 84.732 223.929 84.732C225.417 84.732 226.713 85.032 227.817 85.632C228.945 86.232 229.845 86.988 230.517 87.9V85.056H235.593V105H230.517V102.084C229.869 103.02 228.969 103.8 227.817 104.424C226.689 105.024 225.381 105.324 223.893 105.324C222.213 105.324 220.677 104.892 219.285 104.028C217.917 103.164 216.825 101.952 216.009 100.392C215.217 98.808 214.821 96.996 214.821 94.956ZM230.517 95.028C230.517 93.804 230.277 92.76 229.797 91.896C229.317 91.008 228.669 90.336 227.853 89.88C227.037 89.4 226.161 89.16 225.225 89.16C224.289 89.16 223.425 89.388 222.633 89.844C221.841 90.3 221.193 90.972 220.689 91.86C220.209 92.724 219.969 93.756 219.969 94.956C219.969 96.156 220.209 97.212 220.689 98.124C221.193 99.012 221.841 99.696 222.633 100.176C223.449 100.656 224.313 100.896 225.225 100.896C226.161 100.896 227.037 100.668 227.853 100.212C228.669 99.732 229.317 99.06 229.797 98.196C230.277 97.308 230.517 96.252 230.517 95.028ZM246.383 89.196V98.844C246.383 99.516 246.539 100.008 246.851 100.32C247.187 100.608 247.739 100.752 248.507 100.752H250.847V105H247.679C243.431 105 241.307 102.936 241.307 98.808V89.196H238.931V85.056H241.307V80.124H246.383V85.056H250.847V89.196H246.383ZM265.704 84.768C267.216 84.768 268.56 85.104 269.736 85.776C270.912 86.424 271.824 87.396 272.472 88.692C273.144 89.964 273.48 91.5 273.48 93.3V105H268.44V93.984C268.44 92.4 268.044 91.188 267.252 90.348C266.46 89.484 265.38 89.052 264.012 89.052C262.62 89.052 261.516 89.484 260.7 90.348C259.908 91.188 259.512 92.4 259.512 93.984V105H254.472V78.36H259.512V87.54C260.16 86.676 261.024 86.004 262.104 85.524C263.184 85.02 264.384 84.768 265.704 84.768ZM296.813 94.596C296.813 95.316 296.765 95.964 296.669 96.54H282.089C282.209 97.98 282.713 99.108 283.601 99.924C284.489 100.74 285.581 101.148 286.877 101.148C288.749 101.148 290.081 100.344 290.873 98.736H296.309C295.733 100.656 294.629 102.24 292.997 103.488C291.365 104.712 289.361 105.324 286.985 105.324C285.065 105.324 283.337 104.904 281.801 104.064C280.289 103.2 279.101 101.988 278.237 100.428C277.397 98.868 276.977 97.068 276.977 95.028C276.977 92.964 277.397 91.152 278.237 89.592C279.077 88.032 280.253 86.832 281.765 85.992C283.277 85.152 285.017 84.732 286.985 84.732C288.881 84.732 290.573 85.14 292.061 85.956C293.573 86.772 294.737 87.936 295.553 89.448C296.393 90.936 296.813 92.652 296.813 94.596ZM291.593 93.156C291.569 91.86 291.101 90.828 290.189 90.06C289.277 89.268 288.161 88.872 286.841 88.872C285.593 88.872 284.537 89.256 283.673 90.024C282.833 90.768 282.317 91.812 282.125 93.156H291.593ZM305.532 88.152C306.18 87.096 307.02 86.268 308.052 85.668C309.108 85.068 310.308 84.768 311.652 84.768V90.06H310.32C308.736 90.06 307.536 90.432 306.72 91.176C305.928 91.92 305.532 93.216 305.532 95.064V105H300.492V85.056H305.532V88.152ZM197.628 137.196H194.136V153H189.024V137.196H186.756V133.056H189.024V132.048C189.024 129.6 189.72 127.8 191.112 126.648C192.504 125.496 194.604 124.956 197.412 125.028V129.276C196.188 129.252 195.336 129.456 194.856 129.888C194.376 130.32 194.136 131.1 194.136 132.228V133.056H197.628V137.196ZM219.434 142.596C219.434 143.316 219.386 143.964 219.29 144.54H204.71C204.83 145.98 205.334 147.108 206.222 147.924C207.11 148.74 208.202 149.148 209.498 149.148C211.37 149.148 212.702 148.344 213.494 146.736H218.93C218.354 148.656 217.25 150.24 215.618 151.488C213.986 152.712 211.982 153.324 209.606 153.324C207.686 153.324 205.958 152.904 204.422 152.064C202.91 151.2 201.722 149.988 200.858 148.428C200.018 146.868 199.598 145.068 199.598 143.028C199.598 140.964 200.018 139.152 200.858 137.592C201.698 136.032 202.874 134.832 204.386 133.992C205.898 133.152 207.638 132.732 209.606 132.732C211.502 132.732 213.194 133.14 214.682 133.956C216.194 134.772 217.358 135.936 218.174 137.448C219.014 138.936 219.434 140.652 219.434 142.596ZM214.214 141.156C214.19 139.86 213.722 138.828 212.81 138.06C211.898 137.268 210.782 136.872 209.462 136.872C208.214 136.872 207.158 137.256 206.294 138.024C205.454 138.768 204.938 139.812 204.746 141.156H214.214ZM241.653 142.596C241.653 143.316 241.605 143.964 241.509 144.54H226.929C227.049 145.98 227.553 147.108 228.441 147.924C229.329 148.74 230.421 149.148 231.717 149.148C233.589 149.148 234.921 148.344 235.713 146.736H241.149C240.573 148.656 239.469 150.24 237.837 151.488C236.205 152.712 234.201 153.324 231.825 153.324C229.905 153.324 228.177 152.904 226.641 152.064C225.129 151.2 223.941 149.988 223.077 148.428C222.237 146.868 221.817 145.068 221.817 143.028C221.817 140.964 222.237 139.152 223.077 137.592C223.917 136.032 225.093 134.832 226.605 133.992C228.117 133.152 229.857 132.732 231.825 132.732C233.721 132.732 235.413 133.14 236.901 133.956C238.413 134.772 239.577 135.936 240.393 137.448C241.233 138.936 241.653 140.652 241.653 142.596ZM236.433 141.156C236.409 139.86 235.941 138.828 235.029 138.06C234.117 137.268 233.001 136.872 231.681 136.872C230.433 136.872 229.377 137.256 228.513 138.024C227.673 138.768 227.157 139.812 226.965 141.156H236.433ZM244.036 142.956C244.036 140.94 244.432 139.152 245.224 137.592C246.04 136.032 247.144 134.832 248.536 133.992C249.928 133.152 251.476 132.732 253.18 132.732C254.476 132.732 255.712 133.02 256.888 133.596C258.064 134.148 259 134.892 259.696 135.828V126.36H264.808V153H259.696V150.048C259.072 151.032 258.196 151.824 257.068 152.424C255.94 153.024 254.632 153.324 253.144 153.324C251.464 153.324 249.928 152.892 248.536 152.028C247.144 151.164 246.04 149.952 245.224 148.392C244.432 146.808 244.036 144.996 244.036 142.956ZM259.732 143.028C259.732 141.804 259.492 140.76 259.012 139.896C258.532 139.008 257.884 138.336 257.068 137.88C256.252 137.4 255.376 137.16 254.44 137.16C253.504 137.16 252.64 137.388 251.848 137.844C251.056 138.3 250.408 138.972 249.904 139.86C249.424 140.724 249.184 141.756 249.184 142.956C249.184 144.156 249.424 145.212 249.904 146.124C250.408 147.012 251.056 147.696 251.848 148.176C252.664 148.656 253.528 148.896 254.44 148.896C255.376 148.896 256.252 148.668 257.068 148.212C257.884 147.732 258.532 147.06 259.012 146.196C259.492 145.308 259.732 144.252 259.732 143.028ZM274.77 135.972C275.418 135.012 276.306 134.232 277.434 133.632C278.586 133.032 279.894 132.732 281.358 132.732C283.062 132.732 284.598 133.152 285.966 133.992C287.358 134.832 288.45 136.032 289.242 137.592C290.058 139.128 290.466 140.916 290.466 142.956C290.466 144.996 290.058 146.808 289.242 148.392C288.45 149.952 287.358 151.164 285.966 152.028C284.598 152.892 283.062 153.324 281.358 153.324C279.87 153.324 278.562 153.036 277.434 152.46C276.33 151.86 275.442 151.092 274.77 150.156V153H269.73V126.36H274.77V135.972ZM285.318 142.956C285.318 141.756 285.066 140.724 284.562 139.86C284.082 138.972 283.434 138.3 282.618 137.844C281.826 137.388 280.962 137.16 280.026 137.16C279.114 137.16 278.25 137.4 277.434 137.88C276.642 138.336 275.994 139.008 275.49 139.896C275.01 140.784 274.77 141.828 274.77 143.028C274.77 144.228 275.01 145.272 275.49 146.16C275.994 147.048 276.642 147.732 277.434 148.212C278.25 148.668 279.114 148.896 280.026 148.896C280.962 148.896 281.826 148.656 282.618 148.176C283.434 147.696 284.082 147.012 284.562 146.124C285.066 145.236 285.318 144.18 285.318 142.956ZM292.833 142.956C292.833 140.94 293.229 139.152 294.021 137.592C294.837 136.032 295.929 134.832 297.297 133.992C298.689 133.152 300.237 132.732 301.941 132.732C303.429 132.732 304.725 133.032 305.829 133.632C306.957 134.232 307.857 134.988 308.529 135.9V133.056H313.605V153H308.529V150.084C307.881 151.02 306.981 151.8 305.829 152.424C304.701 153.024 303.393 153.324 301.905 153.324C300.225 153.324 298.689 152.892 297.297 152.028C295.929 151.164 294.837 149.952 294.021 148.392C293.229 146.808 292.833 144.996 292.833 142.956ZM308.529 143.028C308.529 141.804 308.289 140.76 307.809 139.896C307.329 139.008 306.681 138.336 305.865 137.88C305.049 137.4 304.173 137.16 303.237 137.16C302.301 137.16 301.437 137.388 300.645 137.844C299.853 138.3 299.205 138.972 298.701 139.86C298.221 140.724 297.981 141.756 297.981 142.956C297.981 144.156 298.221 145.212 298.701 146.124C299.205 147.012 299.853 147.696 300.645 148.176C301.461 148.656 302.325 148.896 303.237 148.896C304.173 148.896 305.049 148.668 305.865 148.212C306.681 147.732 307.329 147.06 307.809 146.196C308.289 145.308 308.529 144.252 308.529 143.028ZM317.231 143.028C317.231 140.964 317.651 139.164 318.491 137.628C319.331 136.068 320.495 134.868 321.983 134.028C323.471 133.164 325.175 132.732 327.095 132.732C329.567 132.732 331.607 133.356 333.215 134.604C334.847 135.828 335.939 137.556 336.491 139.788H331.055C330.767 138.924 330.275 138.252 329.579 137.772C328.907 137.268 328.067 137.016 327.059 137.016C325.619 137.016 324.479 137.544 323.639 138.6C322.799 139.632 322.379 141.108 322.379 143.028C322.379 144.924 322.799 146.4 323.639 147.456C324.479 148.488 325.619 149.004 327.059 149.004C329.099 149.004 330.431 148.092 331.055 146.268H336.491C335.939 148.428 334.847 150.144 333.215 151.416C331.583 152.688 329.543 153.324 327.095 153.324C325.175 153.324 323.471 152.904 321.983 152.064C320.495 151.2 319.331 150 318.491 148.464C317.651 146.904 317.231 145.092 317.231 143.028ZM351.991 153L345.223 144.504V153H340.183V126.36H345.223V141.516L351.919 133.056H358.471L349.687 143.064L358.543 153H351.991Z" fill="black"/>
<path d="M89.6693 116.788C89.6693 112.405 90.4546 108.973 92.0253 106.49C93.6213 104.007 96.2559 102.766 99.9293 102.766C103.603 102.766 106.225 104.007 107.795 106.49C109.391 108.973 110.189 112.405 110.189 116.788C110.189 121.196 109.391 124.654 107.795 127.162C106.225 129.67 103.603 130.924 99.9293 130.924C96.2559 130.924 93.6213 129.67 92.0253 127.162C90.4546 124.654 89.6693 121.196 89.6693 116.788ZM104.945 116.788C104.945 114.913 104.819 113.343 104.565 112.076C104.337 110.784 103.856 109.733 103.121 108.922C102.412 108.111 101.348 107.706 99.9293 107.706C98.5106 107.706 97.4339 108.111 96.6993 108.922C95.9899 109.733 95.5086 110.784 95.2553 112.076C95.0273 113.343 94.9133 114.913 94.9133 116.788C94.9133 118.713 95.0273 120.335 95.2553 121.652C95.4833 122.944 95.9646 123.995 96.6993 124.806C97.4339 125.591 98.5106 125.984 99.9293 125.984C101.348 125.984 102.425 125.591 103.159 124.806C103.894 123.995 104.375 122.944 104.603 121.652C104.831 120.335 104.945 118.713 104.945 116.788ZM114.008 125.604V121.424L126.434 103.64H132.628V120.968H135.972V125.604H132.628V131H127.308V125.604H114.008ZM127.65 109.34L119.86 120.968H127.65V109.34Z" fill="#FAEDED"/>
<path d="M84.481 201.202C83.869 201.202 83.347 200.992 82.915 200.572C82.495 200.14 82.285 199.618 82.285 199.006C82.285 198.382 82.495 197.86 82.915 197.44C83.347 197.008 83.869 196.792 84.481 196.792C85.105 196.792 85.633 197.008 86.065 197.44C86.497 197.86 86.713 198.382 86.713 199.006C86.713 199.618 86.497 200.14 86.065 200.572C85.633 200.992 85.105 201.202 84.481 201.202ZM103.292 192.454C104.66 192.454 105.842 192.712 106.838 193.228C107.846 193.732 108.614 194.458 109.142 195.406C109.682 196.354 109.952 197.47 109.952 198.754C109.952 200.038 109.682 201.154 109.142 202.102C108.614 203.038 107.846 203.758 106.838 204.262C105.842 204.754 104.66 205 103.292 205H99.386V192.454H103.292ZM103.292 203.65C104.912 203.65 106.148 203.224 107 202.372C107.852 201.508 108.278 200.302 108.278 198.754C108.278 197.194 107.846 195.976 106.982 195.1C106.13 194.224 104.9 193.786 103.292 193.786H101.024V203.65H103.292ZM112.959 193.534C112.647 193.534 112.383 193.426 112.167 193.21C111.951 192.994 111.843 192.73 111.843 192.418C111.843 192.106 111.951 191.842 112.167 191.626C112.383 191.41 112.647 191.302 112.959 191.302C113.259 191.302 113.511 191.41 113.715 191.626C113.931 191.842 114.039 192.106 114.039 192.418C114.039 192.73 113.931 192.994 113.715 193.21C113.511 193.426 113.259 193.534 112.959 193.534ZM113.751 195.136V205H112.113V195.136H113.751ZM120.034 205.162C119.278 205.162 118.6 205.036 118 204.784C117.4 204.52 116.926 204.16 116.578 203.704C116.23 203.236 116.038 202.702 116.002 202.102H117.694C117.742 202.594 117.97 202.996 118.378 203.308C118.798 203.62 119.344 203.776 120.016 203.776C120.64 203.776 121.132 203.638 121.492 203.362C121.852 203.086 122.032 202.738 122.032 202.318C122.032 201.886 121.84 201.568 121.456 201.364C121.072 201.148 120.478 200.938 119.674 200.734C118.942 200.542 118.342 200.35 117.874 200.158C117.418 199.954 117.022 199.66 116.686 199.276C116.362 198.88 116.2 198.364 116.2 197.728C116.2 197.224 116.35 196.762 116.65 196.342C116.95 195.922 117.376 195.592 117.928 195.352C118.48 195.1 119.11 194.974 119.818 194.974C120.91 194.974 121.792 195.25 122.464 195.802C123.136 196.354 123.496 197.11 123.544 198.07H121.906C121.87 197.554 121.66 197.14 121.276 196.828C120.904 196.516 120.4 196.36 119.764 196.36C119.176 196.36 118.708 196.486 118.36 196.738C118.012 196.99 117.838 197.32 117.838 197.728C117.838 198.052 117.94 198.322 118.144 198.538C118.36 198.742 118.624 198.91 118.936 199.042C119.26 199.162 119.704 199.3 120.268 199.456C120.976 199.648 121.552 199.84 121.996 200.032C122.44 200.212 122.818 200.488 123.13 200.86C123.454 201.232 123.622 201.718 123.634 202.318C123.634 202.858 123.484 203.344 123.184 203.776C122.884 204.208 122.458 204.55 121.906 204.802C121.366 205.042 120.742 205.162 120.034 205.162ZM125.335 200.05C125.335 199.03 125.539 198.142 125.947 197.386C126.355 196.618 126.919 196.024 127.639 195.604C128.371 195.184 129.205 194.974 130.141 194.974C131.353 194.974 132.349 195.268 133.129 195.856C133.921 196.444 134.443 197.26 134.695 198.304H132.931C132.763 197.704 132.433 197.23 131.941 196.882C131.461 196.534 130.861 196.36 130.141 196.36C129.205 196.36 128.449 196.684 127.873 197.332C127.297 197.968 127.009 198.874 127.009 200.05C127.009 201.238 127.297 202.156 127.873 202.804C128.449 203.452 129.205 203.776 130.141 203.776C130.861 203.776 131.461 203.608 131.941 203.272C132.421 202.936 132.751 202.456 132.931 201.832H134.695C134.431 202.84 133.903 203.65 133.111 204.262C132.319 204.862 131.329 205.162 130.141 205.162C129.205 205.162 128.371 204.952 127.639 204.532C126.919 204.112 126.355 203.518 125.947 202.75C125.539 201.982 125.335 201.082 125.335 200.05ZM145.628 195.136V205H143.99V203.542C143.678 204.046 143.24 204.442 142.676 204.73C142.124 205.006 141.512 205.144 140.84 205.144C140.072 205.144 139.382 204.988 138.77 204.676C138.158 204.352 137.672 203.872 137.312 203.236C136.964 202.6 136.79 201.826 136.79 200.914V195.136H138.41V200.698C138.41 201.67 138.656 202.42 139.148 202.948C139.64 203.464 140.312 203.722 141.164 203.722C142.04 203.722 142.73 203.452 143.234 202.912C143.738 202.372 143.99 201.586 143.99 200.554V195.136H145.628ZM151.886 205.162C151.13 205.162 150.452 205.036 149.852 204.784C149.252 204.52 148.778 204.16 148.43 203.704C148.082 203.236 147.89 202.702 147.854 202.102H149.546C149.594 202.594 149.822 202.996 150.23 203.308C150.65 203.62 151.196 203.776 151.868 203.776C152.492 203.776 152.984 203.638 153.344 203.362C153.704 203.086 153.884 202.738 153.884 202.318C153.884 201.886 153.692 201.568 153.308 201.364C152.924 201.148 152.33 200.938 151.526 200.734C150.794 200.542 150.194 200.35 149.726 200.158C149.27 199.954 148.874 199.66 148.538 199.276C148.214 198.88 148.052 198.364 148.052 197.728C148.052 197.224 148.202 196.762 148.502 196.342C148.802 195.922 149.228 195.592 149.78 195.352C150.332 195.1 150.962 194.974 151.67 194.974C152.762 194.974 153.644 195.25 154.316 195.802C154.988 196.354 155.348 197.11 155.396 198.07H153.758C153.722 197.554 153.512 197.14 153.128 196.828C152.756 196.516 152.252 196.36 151.616 196.36C151.028 196.36 150.56 196.486 150.212 196.738C149.864 196.99 149.69 197.32 149.69 197.728C149.69 198.052 149.792 198.322 149.996 198.538C150.212 198.742 150.476 198.91 150.788 199.042C151.112 199.162 151.556 199.3 152.12 199.456C152.828 199.648 153.404 199.84 153.848 200.032C154.292 200.212 154.67 200.488 154.982 200.86C155.306 201.232 155.474 201.718 155.486 202.318C155.486 202.858 155.336 203.344 155.036 203.776C154.736 204.208 154.31 204.55 153.758 204.802C153.218 205.042 152.594 205.162 151.886 205.162ZM161.29 205.162C160.534 205.162 159.856 205.036 159.256 204.784C158.656 204.52 158.182 204.16 157.834 203.704C157.486 203.236 157.294 202.702 157.258 202.102H158.95C158.998 202.594 159.226 202.996 159.634 203.308C160.054 203.62 160.6 203.776 161.272 203.776C161.896 203.776 162.388 203.638 162.748 203.362C163.108 203.086 163.288 202.738 163.288 202.318C163.288 201.886 163.096 201.568 162.712 201.364C162.328 201.148 161.734 200.938 160.93 200.734C160.198 200.542 159.598 200.35 159.13 200.158C158.674 199.954 158.278 199.66 157.942 199.276C157.618 198.88 157.456 198.364 157.456 197.728C157.456 197.224 157.606 196.762 157.906 196.342C158.206 195.922 158.632 195.592 159.184 195.352C159.736 195.1 160.366 194.974 161.074 194.974C162.166 194.974 163.048 195.25 163.72 195.802C164.392 196.354 164.752 197.11 164.8 198.07H163.162C163.126 197.554 162.916 197.14 162.532 196.828C162.16 196.516 161.656 196.36 161.02 196.36C160.432 196.36 159.964 196.486 159.616 196.738C159.268 196.99 159.094 197.32 159.094 197.728C159.094 198.052 159.196 198.322 159.4 198.538C159.616 198.742 159.88 198.91 160.192 199.042C160.516 199.162 160.96 199.3 161.524 199.456C162.232 199.648 162.808 199.84 163.252 200.032C163.696 200.212 164.074 200.488 164.386 200.86C164.71 201.232 164.878 201.718 164.89 202.318C164.89 202.858 164.74 203.344 164.44 203.776C164.14 204.208 163.714 204.55 163.162 204.802C162.622 205.042 161.998 205.162 161.29 205.162ZM185.141 195.136L182.063 205H180.371L177.995 197.17L175.619 205H173.927L170.831 195.136H172.505L174.773 203.416L177.221 195.136H178.895L181.289 203.434L183.521 195.136H185.141ZM187.613 193.534C187.301 193.534 187.037 193.426 186.821 193.21C186.605 192.994 186.497 192.73 186.497 192.418C186.497 192.106 186.605 191.842 186.821 191.626C187.037 191.41 187.301 191.302 187.613 191.302C187.913 191.302 188.165 191.41 188.369 191.626C188.585 191.842 188.693 192.106 188.693 192.418C188.693 192.73 188.585 192.994 188.369 193.21C188.165 193.426 187.913 193.534 187.613 193.534ZM188.405 195.136V205H186.767V195.136H188.405ZM193.195 196.486V202.3C193.195 202.78 193.297 203.122 193.501 203.326C193.705 203.518 194.059 203.614 194.563 203.614H195.769V205H194.293C193.381 205 192.697 204.79 192.241 204.37C191.785 203.95 191.557 203.26 191.557 202.3V196.486H190.279V195.136H191.557V192.652H193.195V195.136H195.769V196.486H193.195ZM202.649 194.956C203.393 194.956 204.065 195.118 204.665 195.442C205.265 195.754 205.733 196.228 206.069 196.864C206.417 197.5 206.591 198.274 206.591 199.186V205H204.971V199.42C204.971 198.436 204.725 197.686 204.233 197.17C203.741 196.642 203.069 196.378 202.217 196.378C201.353 196.378 200.663 196.648 200.147 197.188C199.643 197.728 199.391 198.514 199.391 199.546V205H197.753V191.68H199.391V196.54C199.715 196.036 200.159 195.646 200.723 195.37C201.299 195.094 201.941 194.956 202.649 194.956ZM221.482 202.21H216.01L215.002 205H213.274L217.81 192.526H219.7L224.218 205H222.49L221.482 202.21ZM221.014 200.878L218.746 194.542L216.478 200.878H221.014ZM227.833 196.954C228.157 196.39 228.637 195.922 229.273 195.55C229.921 195.166 230.671 194.974 231.523 194.974C232.399 194.974 233.191 195.184 233.899 195.604C234.619 196.024 235.183 196.618 235.591 197.386C235.999 198.142 236.203 199.024 236.203 200.032C236.203 201.028 235.999 201.916 235.591 202.696C235.183 203.476 234.619 204.082 233.899 204.514C233.191 204.946 232.399 205.162 231.523 205.162C230.683 205.162 229.939 204.976 229.291 204.604C228.655 204.22 228.169 203.746 227.833 203.182V209.68H226.195V195.136H227.833V196.954ZM234.529 200.032C234.529 199.288 234.379 198.64 234.079 198.088C233.779 197.536 233.371 197.116 232.855 196.828C232.351 196.54 231.793 196.396 231.181 196.396C230.581 196.396 230.023 196.546 229.507 196.846C229.003 197.134 228.595 197.56 228.283 198.124C227.983 198.676 227.833 199.318 227.833 200.05C227.833 200.794 227.983 201.448 228.283 202.012C228.595 202.564 229.003 202.99 229.507 203.29C230.023 203.578 230.581 203.722 231.181 203.722C231.793 203.722 232.351 203.578 232.855 203.29C233.371 202.99 233.779 202.564 234.079 202.012C234.379 201.448 234.529 200.788 234.529 200.032ZM239.997 196.954C240.321 196.39 240.801 195.922 241.437 195.55C242.085 195.166 242.835 194.974 243.687 194.974C244.563 194.974 245.355 195.184 246.063 195.604C246.783 196.024 247.347 196.618 247.755 197.386C248.163 198.142 248.367 199.024 248.367 200.032C248.367 201.028 248.163 201.916 247.755 202.696C247.347 203.476 246.783 204.082 246.063 204.514C245.355 204.946 244.563 205.162 243.687 205.162C242.847 205.162 242.103 204.976 241.455 204.604C240.819 204.22 240.333 203.746 239.997 203.182V209.68H238.359V195.136H239.997V196.954ZM246.693 200.032C246.693 199.288 246.543 198.64 246.243 198.088C245.943 197.536 245.535 197.116 245.019 196.828C244.515 196.54 243.957 196.396 243.345 196.396C242.745 196.396 242.187 196.546 241.671 196.846C241.167 197.134 240.759 197.56 240.447 198.124C240.147 198.676 239.997 199.318 239.997 200.05C239.997 200.794 240.147 201.448 240.447 202.012C240.759 202.564 241.167 202.99 241.671 203.29C242.187 203.578 242.745 203.722 243.345 203.722C243.957 203.722 244.515 203.578 245.019 203.29C245.535 202.99 245.943 202.564 246.243 202.012C246.543 201.448 246.693 200.788 246.693 200.032ZM261.01 205.126C259.846 205.126 258.784 204.856 257.824 204.316C256.864 203.764 256.102 203.002 255.538 202.03C254.986 201.046 254.71 199.942 254.71 198.718C254.71 197.494 254.986 196.396 255.538 195.424C256.102 194.44 256.864 193.678 257.824 193.138C258.784 192.586 259.846 192.31 261.01 192.31C262.186 192.31 263.254 192.586 264.214 193.138C265.174 193.678 265.93 194.434 266.482 195.406C267.034 196.378 267.31 197.482 267.31 198.718C267.31 199.954 267.034 201.058 266.482 202.03C265.93 203.002 265.174 203.764 264.214 204.316C263.254 204.856 262.186 205.126 261.01 205.126ZM261.01 203.704C261.886 203.704 262.672 203.5 263.368 203.092C264.076 202.684 264.628 202.102 265.024 201.346C265.432 200.59 265.636 199.714 265.636 198.718C265.636 197.71 265.432 196.834 265.024 196.09C264.628 195.334 264.082 194.752 263.386 194.344C262.69 193.936 261.898 193.732 261.01 193.732C260.122 193.732 259.33 193.936 258.634 194.344C257.938 194.752 257.386 195.334 256.978 196.09C256.582 196.834 256.384 197.71 256.384 198.718C256.384 199.714 256.582 200.59 256.978 201.346C257.386 202.102 257.938 202.684 258.634 203.092C259.342 203.5 260.134 203.704 261.01 203.704ZM271.11 196.954C271.434 196.39 271.914 195.922 272.55 195.55C273.198 195.166 273.948 194.974 274.8 194.974C275.676 194.974 276.468 195.184 277.176 195.604C277.896 196.024 278.46 196.618 278.868 197.386C279.276 198.142 279.48 199.024 279.48 200.032C279.48 201.028 279.276 201.916 278.868 202.696C278.46 203.476 277.896 204.082 277.176 204.514C276.468 204.946 275.676 205.162 274.8 205.162C273.96 205.162 273.216 204.976 272.568 204.604C271.932 204.22 271.446 203.746 271.11 203.182V209.68H269.472V195.136H271.11V196.954ZM277.806 200.032C277.806 199.288 277.656 198.64 277.356 198.088C277.056 197.536 276.648 197.116 276.132 196.828C275.628 196.54 275.07 196.396 274.458 196.396C273.858 196.396 273.3 196.546 272.784 196.846C272.28 197.134 271.872 197.56 271.56 198.124C271.26 198.676 271.11 199.318 271.11 200.05C271.11 200.794 271.26 201.448 271.56 202.012C271.872 202.564 272.28 202.99 272.784 203.29C273.3 203.578 273.858 203.722 274.458 203.722C275.07 203.722 275.628 203.578 276.132 203.29C276.648 202.99 277.056 202.564 277.356 202.012C277.656 201.448 277.806 200.788 277.806 200.032ZM290.636 199.69C290.636 200.002 290.618 200.332 290.582 200.68H282.698C282.758 201.652 283.088 202.414 283.688 202.966C284.3 203.506 285.038 203.776 285.902 203.776C286.61 203.776 287.198 203.614 287.666 203.29C288.146 202.954 288.482 202.51 288.674 201.958H290.438C290.174 202.906 289.646 203.68 288.854 204.28C288.062 204.868 287.078 205.162 285.902 205.162C284.966 205.162 284.126 204.952 283.382 204.532C282.65 204.112 282.074 203.518 281.654 202.75C281.234 201.97 281.024 201.07 281.024 200.05C281.024 199.03 281.228 198.136 281.636 197.368C282.044 196.6 282.614 196.012 283.346 195.604C284.09 195.184 284.942 194.974 285.902 194.974C286.838 194.974 287.666 195.178 288.386 195.586C289.106 195.994 289.658 196.558 290.042 197.278C290.438 197.986 290.636 198.79 290.636 199.69ZM288.944 199.348C288.944 198.724 288.806 198.19 288.53 197.746C288.254 197.29 287.876 196.948 287.396 196.72C286.928 196.48 286.406 196.36 285.83 196.36C285.002 196.36 284.294 196.624 283.706 197.152C283.13 197.68 282.8 198.412 282.716 199.348H288.944ZM294.436 196.738C294.724 196.174 295.132 195.736 295.66 195.424C296.2 195.112 296.854 194.956 297.622 194.956V196.648H297.19C295.354 196.648 294.436 197.644 294.436 199.636V205H292.798V195.136H294.436V196.738ZM298.901 200.032C298.901 199.024 299.105 198.142 299.513 197.386C299.921 196.618 300.479 196.024 301.187 195.604C301.907 195.184 302.705 194.974 303.581 194.974C304.445 194.974 305.195 195.16 305.831 195.532C306.467 195.904 306.941 196.372 307.253 196.936V195.136H308.909V205H307.253V203.164C306.929 203.74 306.443 204.22 305.795 204.604C305.159 204.976 304.415 205.162 303.563 205.162C302.687 205.162 301.895 204.946 301.187 204.514C300.479 204.082 299.921 203.476 299.513 202.696C299.105 201.916 298.901 201.028 298.901 200.032ZM307.253 200.05C307.253 199.306 307.103 198.658 306.803 198.106C306.503 197.554 306.095 197.134 305.579 196.846C305.075 196.546 304.517 196.396 303.905 196.396C303.293 196.396 302.735 196.54 302.231 196.828C301.727 197.116 301.325 197.536 301.025 198.088C300.725 198.64 300.575 199.288 300.575 200.032C300.575 200.788 300.725 201.448 301.025 202.012C301.325 202.564 301.727 202.99 302.231 203.29C302.735 203.578 303.293 203.722 303.905 203.722C304.517 203.722 305.075 203.578 305.579 203.29C306.095 202.99 306.503 202.564 306.803 202.012C307.103 201.448 307.253 200.794 307.253 200.05ZM313.675 196.486V202.3C313.675 202.78 313.777 203.122 313.981 203.326C314.185 203.518 314.539 203.614 315.043 203.614H316.249V205H314.773C313.861 205 313.177 204.79 312.721 204.37C312.265 203.95 312.037 203.26 312.037 202.3V196.486H310.759V195.136H312.037V192.652H313.675V195.136H316.249V196.486H313.675ZM319.08 193.534C318.768 193.534 318.504 193.426 318.288 193.21C318.072 192.994 317.964 192.73 317.964 192.418C317.964 192.106 318.072 191.842 318.288 191.626C318.504 191.41 318.768 191.302 319.08 191.302C319.38 191.302 319.632 191.41 319.836 191.626C320.052 191.842 320.16 192.106 320.16 192.418C320.16 192.73 320.052 192.994 319.836 193.21C319.632 193.426 319.38 193.534 319.08 193.534ZM319.872 195.136V205H318.234V195.136H319.872ZM326.965 205.162C326.041 205.162 325.201 204.952 324.445 204.532C323.701 204.112 323.113 203.518 322.681 202.75C322.261 201.97 322.051 201.07 322.051 200.05C322.051 199.042 322.267 198.154 322.699 197.386C323.143 196.606 323.743 196.012 324.499 195.604C325.255 195.184 326.101 194.974 327.037 194.974C327.973 194.974 328.819 195.184 329.575 195.604C330.331 196.012 330.925 196.6 331.357 197.368C331.801 198.136 332.023 199.03 332.023 200.05C332.023 201.07 331.795 201.97 331.339 202.75C330.895 203.518 330.289 204.112 329.521 204.532C328.753 204.952 327.901 205.162 326.965 205.162ZM326.965 203.722C327.553 203.722 328.105 203.584 328.621 203.308C329.137 203.032 329.551 202.618 329.863 202.066C330.187 201.514 330.349 200.842 330.349 200.05C330.349 199.258 330.193 198.586 329.881 198.034C329.569 197.482 329.161 197.074 328.657 196.81C328.153 196.534 327.607 196.396 327.019 196.396C326.419 196.396 325.867 196.534 325.363 196.81C324.871 197.074 324.475 197.482 324.175 198.034C323.875 198.586 323.725 199.258 323.725 200.05C323.725 200.854 323.869 201.532 324.157 202.084C324.457 202.636 324.853 203.05 325.345 203.326C325.837 203.59 326.377 203.722 326.965 203.722ZM338.983 194.956C340.183 194.956 341.155 195.322 341.899 196.054C342.643 196.774 343.015 197.818 343.015 199.186V205H341.395V199.42C341.395 198.436 341.149 197.686 340.657 197.17C340.165 196.642 339.493 196.378 338.641 196.378C337.777 196.378 337.087 196.648 336.571 197.188C336.067 197.728 335.815 198.514 335.815 199.546V205H334.177V195.136H335.815V196.54C336.139 196.036 336.577 195.646 337.129 195.37C337.693 195.094 338.311 194.956 338.983 194.956ZM349.183 205.162C348.427 205.162 347.749 205.036 347.149 204.784C346.549 204.52 346.075 204.16 345.727 203.704C345.379 203.236 345.187 202.702 345.151 202.102H346.843C346.891 202.594 347.119 202.996 347.527 203.308C347.947 203.62 348.493 203.776 349.165 203.776C349.789 203.776 350.281 203.638 350.641 203.362C351.001 203.086 351.181 202.738 351.181 202.318C351.181 201.886 350.989 201.568 350.605 201.364C350.221 201.148 349.627 200.938 348.823 200.734C348.091 200.542 347.491 200.35 347.023 200.158C346.567 199.954 346.171 199.66 345.835 199.276C345.511 198.88 345.349 198.364 345.349 197.728C345.349 197.224 345.499 196.762 345.799 196.342C346.099 195.922 346.525 195.592 347.077 195.352C347.629 195.1 348.259 194.974 348.967 194.974C350.059 194.974 350.941 195.25 351.613 195.802C352.285 196.354 352.645 197.11 352.693 198.07H351.055C351.019 197.554 350.809 197.14 350.425 196.828C350.053 196.516 349.549 196.36 348.913 196.36C348.325 196.36 347.857 196.486 347.509 196.738C347.161 196.99 346.987 197.32 346.987 197.728C346.987 198.052 347.089 198.322 347.293 198.538C347.509 198.742 347.773 198.91 348.085 199.042C348.409 199.162 348.853 199.3 349.417 199.456C350.125 199.648 350.701 199.84 351.145 200.032C351.589 200.212 351.967 200.488 352.279 200.86C352.603 201.232 352.771 201.718 352.783 202.318C352.783 202.858 352.633 203.344 352.333 203.776C352.033 204.208 351.607 204.55 351.055 204.802C350.515 205.042 349.891 205.162 349.183 205.162ZM361.892 196.486V202.3C361.892 202.78 361.994 203.122 362.198 203.326C362.402 203.518 362.756 203.614 363.26 203.614H364.466V205H362.99C362.078 205 361.394 204.79 360.938 204.37C360.482 203.95 360.254 203.26 360.254 202.3V196.486H358.976V195.136H360.254V192.652H361.892V195.136H364.466V196.486H361.892ZM375.45 199.69C375.45 200.002 375.432 200.332 375.396 200.68H367.512C367.572 201.652 367.902 202.414 368.502 202.966C369.114 203.506 369.852 203.776 370.716 203.776C371.424 203.776 372.012 203.614 372.48 203.29C372.96 202.954 373.296 202.51 373.488 201.958H375.252C374.988 202.906 374.46 203.68 373.668 204.28C372.876 204.868 371.892 205.162 370.716 205.162C369.78 205.162 368.94 204.952 368.196 204.532C367.464 204.112 366.888 203.518 366.468 202.75C366.048 201.97 365.838 201.07 365.838 200.05C365.838 199.03 366.042 198.136 366.45 197.368C366.858 196.6 367.428 196.012 368.16 195.604C368.904 195.184 369.756 194.974 370.716 194.974C371.652 194.974 372.48 195.178 373.2 195.586C373.92 195.994 374.472 196.558 374.856 197.278C375.252 197.986 375.45 198.79 375.45 199.69ZM373.758 199.348C373.758 198.724 373.62 198.19 373.344 197.746C373.068 197.29 372.69 196.948 372.21 196.72C371.742 196.48 371.22 196.36 370.644 196.36C369.816 196.36 369.108 196.624 368.52 197.152C367.944 197.68 367.614 198.412 367.53 199.348H373.758ZM377.001 200.032C377.001 199.024 377.205 198.142 377.613 197.386C378.021 196.618 378.579 196.024 379.287 195.604C380.007 195.184 380.805 194.974 381.681 194.974C382.545 194.974 383.295 195.16 383.931 195.532C384.567 195.904 385.041 196.372 385.353 196.936V195.136H387.009V205H385.353V203.164C385.029 203.74 384.543 204.22 383.895 204.604C383.259 204.976 382.515 205.162 381.663 205.162C380.787 205.162 379.995 204.946 379.287 204.514C378.579 204.082 378.021 203.476 377.613 202.696C377.205 201.916 377.001 201.028 377.001 200.032ZM385.353 200.05C385.353 199.306 385.203 198.658 384.903 198.106C384.603 197.554 384.195 197.134 383.679 196.846C383.175 196.546 382.617 196.396 382.005 196.396C381.393 196.396 380.835 196.54 380.331 196.828C379.827 197.116 379.425 197.536 379.125 198.088C378.825 198.64 378.675 199.288 378.675 200.032C378.675 200.788 378.825 201.448 379.125 202.012C379.425 202.564 379.827 202.99 380.331 203.29C380.835 203.578 381.393 203.722 382.005 203.722C382.617 203.722 383.175 203.578 383.679 203.29C384.195 202.99 384.603 202.564 384.903 202.012C385.203 201.448 385.353 200.794 385.353 200.05ZM401.639 194.956C402.407 194.956 403.091 195.118 403.691 195.442C404.291 195.754 404.765 196.228 405.113 196.864C405.461 197.5 405.635 198.274 405.635 199.186V205H404.015V199.42C404.015 198.436 403.769 197.686 403.277 197.17C402.797 196.642 402.143 196.378 401.315 196.378C400.463 196.378 399.785 196.654 399.281 197.206C398.777 197.746 398.525 198.532 398.525 199.564V205H396.905V199.42C396.905 198.436 396.659 197.686 396.167 197.17C395.687 196.642 395.033 196.378 394.205 196.378C393.353 196.378 392.675 196.654 392.171 197.206C391.667 197.746 391.415 198.532 391.415 199.564V205H389.777V195.136H391.415V196.558C391.739 196.042 392.171 195.646 392.711 195.37C393.263 195.094 393.869 194.956 394.529 194.956C395.357 194.956 396.089 195.142 396.725 195.514C397.361 195.886 397.835 196.432 398.147 197.152C398.423 196.456 398.879 195.916 399.515 195.532C400.151 195.148 400.859 194.956 401.639 194.956ZM84.481 228.202C83.869 228.202 83.347 227.992 82.915 227.572C82.495 227.14 82.285 226.618 82.285 226.006C82.285 225.382 82.495 224.86 82.915 224.44C83.347 224.008 83.869 223.792 84.481 223.792C85.105 223.792 85.633 224.008 86.065 224.44C86.497 224.86 86.713 225.382 86.713 226.006C86.713 226.618 86.497 227.14 86.065 227.572C85.633 227.992 85.105 228.202 84.481 228.202ZM105.668 225.538C106.124 225.61 106.538 225.796 106.91 226.096C107.294 226.396 107.594 226.768 107.81 227.212C108.038 227.656 108.152 228.13 108.152 228.634C108.152 229.27 107.99 229.846 107.666 230.362C107.342 230.866 106.868 231.268 106.244 231.568C105.632 231.856 104.906 232 104.066 232H99.386V219.454H103.886C104.738 219.454 105.464 219.598 106.064 219.886C106.664 220.162 107.114 220.54 107.414 221.02C107.714 221.5 107.864 222.04 107.864 222.64C107.864 223.384 107.66 224.002 107.252 224.494C106.856 224.974 106.328 225.322 105.668 225.538ZM101.024 224.872H103.778C104.546 224.872 105.14 224.692 105.56 224.332C105.98 223.972 106.19 223.474 106.19 222.838C106.19 222.202 105.98 221.704 105.56 221.344C105.14 220.984 104.534 220.804 103.742 220.804H101.024V224.872ZM103.922 230.65C104.738 230.65 105.374 230.458 105.83 230.074C106.286 229.69 106.514 229.156 106.514 228.472C106.514 227.776 106.274 227.23 105.794 226.834C105.314 226.426 104.672 226.222 103.868 226.222H101.024V230.65H103.922ZM119.173 222.136V232H117.535V230.542C117.223 231.046 116.785 231.442 116.221 231.73C115.669 232.006 115.057 232.144 114.385 232.144C113.617 232.144 112.927 231.988 112.315 231.676C111.703 231.352 111.217 230.872 110.857 230.236C110.509 229.6 110.335 228.826 110.335 227.914V222.136H111.955V227.698C111.955 228.67 112.201 229.42 112.693 229.948C113.185 230.464 113.857 230.722 114.709 230.722C115.585 230.722 116.275 230.452 116.779 229.912C117.283 229.372 117.535 228.586 117.535 227.554V222.136H119.173ZM125.431 232.162C124.675 232.162 123.997 232.036 123.397 231.784C122.797 231.52 122.323 231.16 121.975 230.704C121.627 230.236 121.435 229.702 121.399 229.102H123.091C123.139 229.594 123.367 229.996 123.775 230.308C124.195 230.62 124.741 230.776 125.413 230.776C126.037 230.776 126.529 230.638 126.889 230.362C127.249 230.086 127.429 229.738 127.429 229.318C127.429 228.886 127.237 228.568 126.853 228.364C126.469 228.148 125.875 227.938 125.071 227.734C124.339 227.542 123.739 227.35 123.271 227.158C122.815 226.954 122.419 226.66 122.083 226.276C121.759 225.88 121.597 225.364 121.597 224.728C121.597 224.224 121.747 223.762 122.047 223.342C122.347 222.922 122.773 222.592 123.325 222.352C123.877 222.1 124.507 221.974 125.215 221.974C126.307 221.974 127.189 222.25 127.861 222.802C128.533 223.354 128.893 224.11 128.941 225.07H127.303C127.267 224.554 127.057 224.14 126.673 223.828C126.301 223.516 125.797 223.36 125.161 223.36C124.573 223.36 124.105 223.486 123.757 223.738C123.409 223.99 123.235 224.32 123.235 224.728C123.235 225.052 123.337 225.322 123.541 225.538C123.757 225.742 124.021 225.91 124.333 226.042C124.657 226.162 125.101 226.3 125.665 226.456C126.373 226.648 126.949 226.84 127.393 227.032C127.837 227.212 128.215 227.488 128.527 227.86C128.851 228.232 129.019 228.718 129.031 229.318C129.031 229.858 128.881 230.344 128.581 230.776C128.281 231.208 127.855 231.55 127.303 231.802C126.763 232.042 126.139 232.162 125.431 232.162ZM132.189 220.534C131.877 220.534 131.613 220.426 131.397 220.21C131.181 219.994 131.073 219.73 131.073 219.418C131.073 219.106 131.181 218.842 131.397 218.626C131.613 218.41 131.877 218.302 132.189 218.302C132.489 218.302 132.741 218.41 132.945 218.626C133.161 218.842 133.269 219.106 133.269 219.418C133.269 219.73 133.161 219.994 132.945 220.21C132.741 220.426 132.489 220.534 132.189 220.534ZM132.981 222.136V232H131.343V222.136H132.981ZM140.579 221.956C141.779 221.956 142.751 222.322 143.495 223.054C144.239 223.774 144.611 224.818 144.611 226.186V232H142.991V226.42C142.991 225.436 142.745 224.686 142.253 224.17C141.761 223.642 141.089 223.378 140.237 223.378C139.373 223.378 138.683 223.648 138.167 224.188C137.663 224.728 137.411 225.514 137.411 226.546V232H135.773V222.136H137.411V223.54C137.735 223.036 138.173 222.646 138.725 222.37C139.289 222.094 139.907 221.956 140.579 221.956ZM156.286 226.69C156.286 227.002 156.268 227.332 156.232 227.68H148.348C148.408 228.652 148.738 229.414 149.338 229.966C149.95 230.506 150.688 230.776 151.552 230.776C152.26 230.776 152.848 230.614 153.316 230.29C153.796 229.954 154.132 229.51 154.324 228.958H156.088C155.824 229.906 155.296 230.68 154.504 231.28C153.712 231.868 152.728 232.162 151.552 232.162C150.616 232.162 149.776 231.952 149.032 231.532C148.3 231.112 147.724 230.518 147.304 229.75C146.884 228.97 146.674 228.07 146.674 227.05C146.674 226.03 146.878 225.136 147.286 224.368C147.694 223.6 148.264 223.012 148.996 222.604C149.74 222.184 150.592 221.974 151.552 221.974C152.488 221.974 153.316 222.178 154.036 222.586C154.756 222.994 155.308 223.558 155.692 224.278C156.088 224.986 156.286 225.79 156.286 226.69ZM154.594 226.348C154.594 225.724 154.456 225.19 154.18 224.746C153.904 224.29 153.526 223.948 153.046 223.72C152.578 223.48 152.056 223.36 151.48 223.36C150.652 223.36 149.944 223.624 149.356 224.152C148.78 224.68 148.45 225.412 148.366 226.348H154.594ZM161.941 232.162C161.185 232.162 160.507 232.036 159.907 231.784C159.307 231.52 158.833 231.16 158.485 230.704C158.137 230.236 157.945 229.702 157.909 229.102H159.601C159.649 229.594 159.877 229.996 160.285 230.308C160.705 230.62 161.251 230.776 161.923 230.776C162.547 230.776 163.039 230.638 163.399 230.362C163.759 230.086 163.939 229.738 163.939 229.318C163.939 228.886 163.747 228.568 163.363 228.364C162.979 228.148 162.385 227.938 161.581 227.734C160.849 227.542 160.249 227.35 159.781 227.158C159.325 226.954 158.929 226.66 158.593 226.276C158.269 225.88 158.107 225.364 158.107 224.728C158.107 224.224 158.257 223.762 158.557 223.342C158.857 222.922 159.283 222.592 159.835 222.352C160.387 222.1 161.017 221.974 161.725 221.974C162.817 221.974 163.699 222.25 164.371 222.802C165.043 223.354 165.403 224.11 165.451 225.07H163.813C163.777 224.554 163.567 224.14 163.183 223.828C162.811 223.516 162.307 223.36 161.671 223.36C161.083 223.36 160.615 223.486 160.267 223.738C159.919 223.99 159.745 224.32 159.745 224.728C159.745 225.052 159.847 225.322 160.051 225.538C160.267 225.742 160.531 225.91 160.843 226.042C161.167 226.162 161.611 226.3 162.175 226.456C162.883 226.648 163.459 226.84 163.903 227.032C164.347 227.212 164.725 227.488 165.037 227.86C165.361 228.232 165.529 228.718 165.541 229.318C165.541 229.858 165.391 230.344 165.091 230.776C164.791 231.208 164.365 231.55 163.813 231.802C163.273 232.042 162.649 232.162 161.941 232.162ZM171.345 232.162C170.589 232.162 169.911 232.036 169.311 231.784C168.711 231.52 168.237 231.16 167.889 230.704C167.541 230.236 167.349 229.702 167.313 229.102H169.005C169.053 229.594 169.281 229.996 169.689 230.308C170.109 230.62 170.655 230.776 171.327 230.776C171.951 230.776 172.443 230.638 172.803 230.362C173.163 230.086 173.343 229.738 173.343 229.318C173.343 228.886 173.151 228.568 172.767 228.364C172.383 228.148 171.789 227.938 170.985 227.734C170.253 227.542 169.653 227.35 169.185 227.158C168.729 226.954 168.333 226.66 167.997 226.276C167.673 225.88 167.511 225.364 167.511 224.728C167.511 224.224 167.661 223.762 167.961 223.342C168.261 222.922 168.687 222.592 169.239 222.352C169.791 222.1 170.421 221.974 171.129 221.974C172.221 221.974 173.103 222.25 173.775 222.802C174.447 223.354 174.807 224.11 174.855 225.07H173.217C173.181 224.554 172.971 224.14 172.587 223.828C172.215 223.516 171.711 223.36 171.075 223.36C170.487 223.36 170.019 223.486 169.671 223.738C169.323 223.99 169.149 224.32 169.149 224.728C169.149 225.052 169.251 225.322 169.455 225.538C169.671 225.742 169.935 225.91 170.247 226.042C170.571 226.162 171.015 226.3 171.579 226.456C172.287 226.648 172.863 226.84 173.307 227.032C173.751 227.212 174.129 227.488 174.441 227.86C174.765 228.232 174.933 228.718 174.945 229.318C174.945 229.858 174.795 230.344 174.495 230.776C174.195 231.208 173.769 231.55 173.217 231.802C172.677 232.042 172.053 232.162 171.345 232.162ZM191.686 232L190.048 230.344C189.436 230.98 188.782 231.454 188.086 231.766C187.39 232.066 186.604 232.216 185.728 232.216C184.864 232.216 184.096 232.06 183.424 231.748C182.764 231.436 182.248 230.992 181.876 230.416C181.516 229.84 181.336 229.168 181.336 228.4C181.336 227.524 181.582 226.756 182.074 226.096C182.578 225.424 183.316 224.896 184.288 224.512C183.904 224.056 183.628 223.636 183.46 223.252C183.292 222.868 183.208 222.448 183.208 221.992C183.208 221.464 183.34 220.99 183.604 220.57C183.88 220.138 184.27 219.802 184.774 219.562C185.278 219.322 185.86 219.202 186.52 219.202C187.168 219.202 187.732 219.328 188.212 219.58C188.692 219.832 189.052 220.186 189.292 220.642C189.532 221.086 189.64 221.584 189.616 222.136H187.978C187.99 221.644 187.852 221.26 187.564 220.984C187.276 220.696 186.904 220.552 186.448 220.552C185.968 220.552 185.578 220.69 185.278 220.966C184.99 221.23 184.846 221.572 184.846 221.992C184.846 222.352 184.942 222.7 185.134 223.036C185.338 223.372 185.674 223.786 186.142 224.278L189.886 228.04L190.21 227.536L191.434 225.484H193.198L191.722 228.04C191.518 228.4 191.278 228.778 191.002 229.174L193.828 232H191.686ZM185.728 230.812C186.376 230.812 186.958 230.686 187.474 230.434C188.002 230.182 188.5 229.792 188.968 229.264L185.278 225.556C183.742 226.144 182.974 227.074 182.974 228.346C182.974 229.054 183.226 229.642 183.73 230.11C184.246 230.578 184.912 230.812 185.728 230.812ZM201.799 223.738C202.087 223.174 202.495 222.736 203.023 222.424C203.563 222.112 204.217 221.956 204.985 221.956V223.648H204.553C202.717 223.648 201.799 224.644 201.799 226.636V232H200.161V222.136H201.799V223.738ZM215.876 226.69C215.876 227.002 215.858 227.332 215.822 227.68H207.938C207.998 228.652 208.328 229.414 208.928 229.966C209.54 230.506 210.278 230.776 211.142 230.776C211.85 230.776 212.438 230.614 212.906 230.29C213.386 229.954 213.722 229.51 213.914 228.958H215.678C215.414 229.906 214.886 230.68 214.094 231.28C213.302 231.868 212.318 232.162 211.142 232.162C210.206 232.162 209.366 231.952 208.622 231.532C207.89 231.112 207.314 230.518 206.894 229.75C206.474 228.97 206.264 228.07 206.264 227.05C206.264 226.03 206.468 225.136 206.876 224.368C207.284 223.6 207.854 223.012 208.586 222.604C209.33 222.184 210.182 221.974 211.142 221.974C212.078 221.974 212.906 222.178 213.626 222.586C214.346 222.994 214.898 223.558 215.282 224.278C215.678 224.986 215.876 225.79 215.876 226.69ZM214.184 226.348C214.184 225.724 214.046 225.19 213.77 224.746C213.494 224.29 213.116 223.948 212.636 223.72C212.168 223.48 211.646 223.36 211.07 223.36C210.242 223.36 209.534 223.624 208.946 224.152C208.37 224.68 208.04 225.412 207.956 226.348H214.184ZM221.71 230.488L224.77 222.136H226.516L222.646 232H220.738L216.868 222.136H218.632L221.71 230.488ZM237.128 226.69C237.128 227.002 237.11 227.332 237.074 227.68H229.19C229.25 228.652 229.58 229.414 230.18 229.966C230.792 230.506 231.53 230.776 232.394 230.776C233.102 230.776 233.69 230.614 234.158 230.29C234.638 229.954 234.974 229.51 235.166 228.958H236.93C236.666 229.906 236.138 230.68 235.346 231.28C234.554 231.868 233.57 232.162 232.394 232.162C231.458 232.162 230.618 231.952 229.874 231.532C229.142 231.112 228.566 230.518 228.146 229.75C227.726 228.97 227.516 228.07 227.516 227.05C227.516 226.03 227.72 225.136 228.128 224.368C228.536 223.6 229.106 223.012 229.838 222.604C230.582 222.184 231.434 221.974 232.394 221.974C233.33 221.974 234.158 222.178 234.878 222.586C235.598 222.994 236.15 223.558 236.534 224.278C236.93 224.986 237.128 225.79 237.128 226.69ZM235.436 226.348C235.436 225.724 235.298 225.19 235.022 224.746C234.746 224.29 234.368 223.948 233.888 223.72C233.42 223.48 232.898 223.36 232.322 223.36C231.494 223.36 230.786 223.624 230.198 224.152C229.622 224.68 229.292 225.412 229.208 226.348H235.436ZM244.096 221.956C245.296 221.956 246.268 222.322 247.012 223.054C247.756 223.774 248.128 224.818 248.128 226.186V232H246.508V226.42C246.508 225.436 246.262 224.686 245.77 224.17C245.278 223.642 244.606 223.378 243.754 223.378C242.89 223.378 242.2 223.648 241.684 224.188C241.18 224.728 240.928 225.514 240.928 226.546V232H239.29V222.136H240.928V223.54C241.252 223.036 241.69 222.646 242.242 222.37C242.806 222.094 243.424 221.956 244.096 221.956ZM259.552 222.136V232H257.914V230.542C257.602 231.046 257.164 231.442 256.6 231.73C256.048 232.006 255.436 232.144 254.764 232.144C253.996 232.144 253.306 231.988 252.694 231.676C252.082 231.352 251.596 230.872 251.236 230.236C250.888 229.6 250.714 228.826 250.714 227.914V222.136H252.334V227.698C252.334 228.67 252.58 229.42 253.072 229.948C253.564 230.464 254.236 230.722 255.088 230.722C255.964 230.722 256.654 230.452 257.158 229.912C257.662 229.372 257.914 228.586 257.914 227.554V222.136H259.552ZM271.318 226.69C271.318 227.002 271.3 227.332 271.264 227.68H263.38C263.44 228.652 263.77 229.414 264.37 229.966C264.982 230.506 265.72 230.776 266.584 230.776C267.292 230.776 267.88 230.614 268.348 230.29C268.828 229.954 269.164 229.51 269.356 228.958H271.12C270.856 229.906 270.328 230.68 269.536 231.28C268.744 231.868 267.76 232.162 266.584 232.162C265.648 232.162 264.808 231.952 264.064 231.532C263.332 231.112 262.756 230.518 262.336 229.75C261.916 228.97 261.706 228.07 261.706 227.05C261.706 226.03 261.91 225.136 262.318 224.368C262.726 223.6 263.296 223.012 264.028 222.604C264.772 222.184 265.624 221.974 266.584 221.974C267.52 221.974 268.348 222.178 269.068 222.586C269.788 222.994 270.34 223.558 270.724 224.278C271.12 224.986 271.318 225.79 271.318 226.69ZM269.626 226.348C269.626 225.724 269.488 225.19 269.212 224.746C268.936 224.29 268.558 223.948 268.078 223.72C267.61 223.48 267.088 223.36 266.512 223.36C265.684 223.36 264.976 223.624 264.388 224.152C263.812 224.68 263.482 225.412 263.398 226.348H269.626ZM279.917 223.954C280.241 223.39 280.721 222.922 281.357 222.55C282.005 222.166 282.755 221.974 283.607 221.974C284.483 221.974 285.275 222.184 285.983 222.604C286.703 223.024 287.267 223.618 287.675 224.386C288.083 225.142 288.287 226.024 288.287 227.032C288.287 228.028 288.083 228.916 287.675 229.696C287.267 230.476 286.703 231.082 285.983 231.514C285.275 231.946 284.483 232.162 283.607 232.162C282.767 232.162 282.023 231.976 281.375 231.604C280.739 231.22 280.253 230.746 279.917 230.182V236.68H278.279V222.136H279.917V223.954ZM286.613 227.032C286.613 226.288 286.463 225.64 286.163 225.088C285.863 224.536 285.455 224.116 284.939 223.828C284.435 223.54 283.877 223.396 283.265 223.396C282.665 223.396 282.107 223.546 281.591 223.846C281.087 224.134 280.679 224.56 280.367 225.124C280.067 225.676 279.917 226.318 279.917 227.05C279.917 227.794 280.067 228.448 280.367 229.012C280.679 229.564 281.087 229.99 281.591 230.29C282.107 230.578 282.665 230.722 283.265 230.722C283.877 230.722 284.435 230.578 284.939 230.29C285.455 229.99 285.863 229.564 286.163 229.012C286.463 228.448 286.613 227.788 286.613 227.032ZM299.443 226.69C299.443 227.002 299.425 227.332 299.389 227.68H291.505C291.565 228.652 291.895 229.414 292.495 229.966C293.107 230.506 293.845 230.776 294.709 230.776C295.417 230.776 296.005 230.614 296.473 230.29C296.953 229.954 297.289 229.51 297.481 228.958H299.245C298.981 229.906 298.453 230.68 297.661 231.28C296.869 231.868 295.885 232.162 294.709 232.162C293.773 232.162 292.933 231.952 292.189 231.532C291.457 231.112 290.881 230.518 290.461 229.75C290.041 228.97 289.831 228.07 289.831 227.05C289.831 226.03 290.035 225.136 290.443 224.368C290.851 223.6 291.421 223.012 292.153 222.604C292.897 222.184 293.749 221.974 294.709 221.974C295.645 221.974 296.473 222.178 297.193 222.586C297.913 222.994 298.465 223.558 298.849 224.278C299.245 224.986 299.443 225.79 299.443 226.69ZM297.751 226.348C297.751 225.724 297.613 225.19 297.337 224.746C297.061 224.29 296.683 223.948 296.203 223.72C295.735 223.48 295.213 223.36 294.637 223.36C293.809 223.36 293.101 223.624 292.513 224.152C291.937 224.68 291.607 225.412 291.523 226.348H297.751ZM303.243 223.738C303.531 223.174 303.939 222.736 304.467 222.424C305.007 222.112 305.661 221.956 306.429 221.956V223.648H305.997C304.161 223.648 303.243 224.644 303.243 226.636V232H301.605V222.136H303.243V223.738ZM311.812 232.162C311.056 232.162 310.378 232.036 309.778 231.784C309.178 231.52 308.704 231.16 308.356 230.704C308.008 230.236 307.816 229.702 307.78 229.102H309.472C309.52 229.594 309.748 229.996 310.156 230.308C310.576 230.62 311.122 230.776 311.794 230.776C312.418 230.776 312.91 230.638 313.27 230.362C313.63 230.086 313.81 229.738 313.81 229.318C313.81 228.886 313.618 228.568 313.234 228.364C312.85 228.148 312.256 227.938 311.452 227.734C310.72 227.542 310.12 227.35 309.652 227.158C309.196 226.954 308.8 226.66 308.464 226.276C308.14 225.88 307.978 225.364 307.978 224.728C307.978 224.224 308.128 223.762 308.428 223.342C308.728 222.922 309.154 222.592 309.706 222.352C310.258 222.1 310.888 221.974 311.596 221.974C312.688 221.974 313.57 222.25 314.242 222.802C314.914 223.354 315.274 224.11 315.322 225.07H313.684C313.648 224.554 313.438 224.14 313.054 223.828C312.682 223.516 312.178 223.36 311.542 223.36C310.954 223.36 310.486 223.486 310.138 223.738C309.79 223.99 309.616 224.32 309.616 224.728C309.616 225.052 309.718 225.322 309.922 225.538C310.138 225.742 310.402 225.91 310.714 226.042C311.038 226.162 311.482 226.3 312.046 226.456C312.754 226.648 313.33 226.84 313.774 227.032C314.218 227.212 314.596 227.488 314.908 227.86C315.232 228.232 315.4 228.718 315.412 229.318C315.412 229.858 315.262 230.344 314.962 230.776C314.662 231.208 314.236 231.55 313.684 231.802C313.144 232.042 312.52 232.162 311.812 232.162ZM319.362 223.954C319.686 223.39 320.166 222.922 320.802 222.55C321.45 222.166 322.2 221.974 323.052 221.974C323.928 221.974 324.72 222.184 325.428 222.604C326.148 223.024 326.712 223.618 327.12 224.386C327.528 225.142 327.732 226.024 327.732 227.032C327.732 228.028 327.528 228.916 327.12 229.696C326.712 230.476 326.148 231.082 325.428 231.514C324.72 231.946 323.928 232.162 323.052 232.162C322.212 232.162 321.468 231.976 320.82 231.604C320.184 231.22 319.698 230.746 319.362 230.182V236.68H317.724V222.136H319.362V223.954ZM326.058 227.032C326.058 226.288 325.908 225.64 325.608 225.088C325.308 224.536 324.9 224.116 324.384 223.828C323.88 223.54 323.322 223.396 322.71 223.396C322.11 223.396 321.552 223.546 321.036 223.846C320.532 224.134 320.124 224.56 319.812 225.124C319.512 225.676 319.362 226.318 319.362 227.05C319.362 227.794 319.512 228.448 319.812 229.012C320.124 229.564 320.532 229.99 321.036 230.29C321.552 230.578 322.11 230.722 322.71 230.722C323.322 230.722 323.88 230.578 324.384 230.29C324.9 229.99 325.308 229.564 325.608 229.012C325.908 228.448 326.058 227.788 326.058 227.032ZM338.888 226.69C338.888 227.002 338.87 227.332 338.834 227.68H330.95C331.01 228.652 331.34 229.414 331.94 229.966C332.552 230.506 333.29 230.776 334.154 230.776C334.862 230.776 335.45 230.614 335.918 230.29C336.398 229.954 336.734 229.51 336.926 228.958H338.69C338.426 229.906 337.898 230.68 337.106 231.28C336.314 231.868 335.33 232.162 334.154 232.162C333.218 232.162 332.378 231.952 331.634 231.532C330.902 231.112 330.326 230.518 329.906 229.75C329.486 228.97 329.276 228.07 329.276 227.05C329.276 226.03 329.48 225.136 329.888 224.368C330.296 223.6 330.866 223.012 331.598 222.604C332.342 222.184 333.194 221.974 334.154 221.974C335.09 221.974 335.918 222.178 336.638 222.586C337.358 222.994 337.91 223.558 338.294 224.278C338.69 224.986 338.888 225.79 338.888 226.69ZM337.196 226.348C337.196 225.724 337.058 225.19 336.782 224.746C336.506 224.29 336.128 223.948 335.648 223.72C335.18 223.48 334.658 223.36 334.082 223.36C333.254 223.36 332.546 223.624 331.958 224.152C331.382 224.68 331.052 225.412 330.968 226.348H337.196ZM340.438 227.05C340.438 226.03 340.642 225.142 341.05 224.386C341.458 223.618 342.022 223.024 342.742 222.604C343.474 222.184 344.308 221.974 345.244 221.974C346.456 221.974 347.452 222.268 348.232 222.856C349.024 223.444 349.546 224.26 349.798 225.304H348.034C347.866 224.704 347.536 224.23 347.044 223.882C346.564 223.534 345.964 223.36 345.244 223.36C344.308 223.36 343.552 223.684 342.976 224.332C342.4 224.968 342.112 225.874 342.112 227.05C342.112 228.238 342.4 229.156 342.976 229.804C343.552 230.452 344.308 230.776 345.244 230.776C345.964 230.776 346.564 230.608 347.044 230.272C347.524 229.936 347.854 229.456 348.034 228.832H349.798C349.534 229.84 349.006 230.65 348.214 231.262C347.422 231.862 346.432 232.162 345.244 232.162C344.308 232.162 343.474 231.952 342.742 231.532C342.022 231.112 341.458 230.518 341.05 229.75C340.642 228.982 340.438 228.082 340.438 227.05ZM353.982 223.486V229.3C353.982 229.78 354.084 230.122 354.288 230.326C354.492 230.518 354.846 230.614 355.35 230.614H356.556V232H355.08C354.168 232 353.484 231.79 353.028 231.37C352.572 230.95 352.344 230.26 352.344 229.3V223.486H351.066V222.136H352.344V219.652H353.982V222.136H356.556V223.486H353.982ZM359.386 220.534C359.074 220.534 358.81 220.426 358.594 220.21C358.378 219.994 358.27 219.73 358.27 219.418C358.27 219.106 358.378 218.842 358.594 218.626C358.81 218.41 359.074 218.302 359.386 218.302C359.686 218.302 359.938 218.41 360.142 218.626C360.358 218.842 360.466 219.106 360.466 219.418C360.466 219.73 360.358 219.994 360.142 220.21C359.938 220.426 359.686 220.534 359.386 220.534ZM360.178 222.136V232H358.54V222.136H360.178ZM366.642 230.488L369.702 222.136H371.448L367.578 232H365.67L361.8 222.136H363.564L366.642 230.488ZM382.06 226.69C382.06 227.002 382.042 227.332 382.006 227.68H374.122C374.182 228.652 374.512 229.414 375.112 229.966C375.724 230.506 376.462 230.776 377.326 230.776C378.034 230.776 378.622 230.614 379.09 230.29C379.57 229.954 379.906 229.51 380.098 228.958H381.862C381.598 229.906 381.07 230.68 380.278 231.28C379.486 231.868 378.502 232.162 377.326 232.162C376.39 232.162 375.55 231.952 374.806 231.532C374.074 231.112 373.498 230.518 373.078 229.75C372.658 228.97 372.448 228.07 372.448 227.05C372.448 226.03 372.652 225.136 373.06 224.368C373.468 223.6 374.038 223.012 374.77 222.604C375.514 222.184 376.366 221.974 377.326 221.974C378.262 221.974 379.09 222.178 379.81 222.586C380.53 222.994 381.082 223.558 381.466 224.278C381.862 224.986 382.06 225.79 382.06 226.69ZM380.368 226.348C380.368 225.724 380.23 225.19 379.954 224.746C379.678 224.29 379.3 223.948 378.82 223.72C378.352 223.48 377.83 223.36 377.254 223.36C376.426 223.36 375.718 223.624 375.13 224.152C374.554 224.68 374.224 225.412 374.14 226.348H380.368ZM84.481 255.202C83.869 255.202 83.347 254.992 82.915 254.572C82.495 254.14 82.285 253.618 82.285 253.006C82.285 252.382 82.495 251.86 82.915 251.44C83.347 251.008 83.869 250.792 84.481 250.792C85.105 250.792 85.633 251.008 86.065 251.44C86.497 251.86 86.713 252.382 86.713 253.006C86.713 253.618 86.497 254.14 86.065 254.572C85.633 254.992 85.105 255.202 84.481 255.202ZM101.024 246.454V259H99.386V246.454H101.024ZM105.814 250.486V256.3C105.814 256.78 105.916 257.122 106.12 257.326C106.324 257.518 106.678 257.614 107.182 257.614H108.388V259H106.912C106 259 105.316 258.79 104.86 258.37C104.404 257.95 104.176 257.26 104.176 256.3V250.486H102.898V249.136H104.176V246.652H105.814V249.136H108.388V250.486H105.814ZM119.372 253.69C119.372 254.002 119.354 254.332 119.318 254.68H111.434C111.494 255.652 111.824 256.414 112.424 256.966C113.036 257.506 113.774 257.776 114.638 257.776C115.346 257.776 115.934 257.614 116.402 257.29C116.882 256.954 117.218 256.51 117.41 255.958H119.174C118.91 256.906 118.382 257.68 117.59 258.28C116.798 258.868 115.814 259.162 114.638 259.162C113.702 259.162 112.862 258.952 112.118 258.532C111.386 258.112 110.81 257.518 110.39 256.75C109.97 255.97 109.76 255.07 109.76 254.05C109.76 253.03 109.964 252.136 110.372 251.368C110.78 250.6 111.35 250.012 112.082 249.604C112.826 249.184 113.678 248.974 114.638 248.974C115.574 248.974 116.402 249.178 117.122 249.586C117.842 249.994 118.394 250.558 118.778 251.278C119.174 251.986 119.372 252.79 119.372 253.69ZM117.68 253.348C117.68 252.724 117.542 252.19 117.266 251.746C116.99 251.29 116.612 250.948 116.132 250.72C115.664 250.48 115.142 250.36 114.566 250.36C113.738 250.36 113.03 250.624 112.442 251.152C111.866 251.68 111.536 252.412 111.452 253.348H117.68ZM123.172 250.738C123.46 250.174 123.868 249.736 124.396 249.424C124.936 249.112 125.59 248.956 126.358 248.956V250.648H125.926C124.09 250.648 123.172 251.644 123.172 253.636V259H121.534V249.136H123.172V250.738ZM127.637 254.032C127.637 253.024 127.841 252.142 128.249 251.386C128.657 250.618 129.215 250.024 129.923 249.604C130.643 249.184 131.441 248.974 132.317 248.974C133.181 248.974 133.931 249.16 134.567 249.532C135.203 249.904 135.677 250.372 135.989 250.936V249.136H137.645V259H135.989V257.164C135.665 257.74 135.179 258.22 134.531 258.604C133.895 258.976 133.151 259.162 132.299 259.162C131.423 259.162 130.631 258.946 129.923 258.514C129.215 258.082 128.657 257.476 128.249 256.696C127.841 255.916 127.637 255.028 127.637 254.032ZM135.989 254.05C135.989 253.306 135.839 252.658 135.539 252.106C135.239 251.554 134.831 251.134 134.315 250.846C133.811 250.546 133.253 250.396 132.641 250.396C132.029 250.396 131.471 250.54 130.967 250.828C130.463 251.116 130.061 251.536 129.761 252.088C129.461 252.64 129.311 253.288 129.311 254.032C129.311 254.788 129.461 255.448 129.761 256.012C130.061 256.564 130.463 256.99 130.967 257.29C131.471 257.578 132.029 257.722 132.641 257.722C133.253 257.722 133.811 257.578 134.315 257.29C134.831 256.99 135.239 256.564 135.539 256.012C135.839 255.448 135.989 254.794 135.989 254.05ZM142.411 250.486V256.3C142.411 256.78 142.513 257.122 142.717 257.326C142.921 257.518 143.275 257.614 143.779 257.614H144.985V259H143.509C142.597 259 141.913 258.79 141.457 258.37C141.001 257.95 140.773 257.26 140.773 256.3V250.486H139.495V249.136H140.773V246.652H142.411V249.136H144.985V250.486H142.411ZM147.816 247.534C147.504 247.534 147.24 247.426 147.024 247.21C146.808 246.994 146.7 246.73 146.7 246.418C146.7 246.106 146.808 245.842 147.024 245.626C147.24 245.41 147.504 245.302 147.816 245.302C148.116 245.302 148.368 245.41 148.572 245.626C148.788 245.842 148.896 246.106 148.896 246.418C148.896 246.73 148.788 246.994 148.572 247.21C148.368 247.426 148.116 247.534 147.816 247.534ZM148.608 249.136V259H146.97V249.136H148.608ZM155.072 257.488L158.132 249.136H159.878L156.008 259H154.1L150.23 249.136H151.994L155.072 257.488ZM170.49 253.69C170.49 254.002 170.472 254.332 170.436 254.68H162.552C162.612 255.652 162.942 256.414 163.542 256.966C164.154 257.506 164.892 257.776 165.756 257.776C166.464 257.776 167.052 257.614 167.52 257.29C168 256.954 168.336 256.51 168.528 255.958H170.292C170.028 256.906 169.5 257.68 168.708 258.28C167.916 258.868 166.932 259.162 165.756 259.162C164.82 259.162 163.98 258.952 163.236 258.532C162.504 258.112 161.928 257.518 161.508 256.75C161.088 255.97 160.878 255.07 160.878 254.05C160.878 253.03 161.082 252.136 161.49 251.368C161.898 250.6 162.468 250.012 163.2 249.604C163.944 249.184 164.796 248.974 165.756 248.974C166.692 248.974 167.52 249.178 168.24 249.586C168.96 249.994 169.512 250.558 169.896 251.278C170.292 251.986 170.49 252.79 170.49 253.69ZM168.798 253.348C168.798 252.724 168.66 252.19 168.384 251.746C168.108 251.29 167.73 250.948 167.25 250.72C166.782 250.48 166.26 250.36 165.684 250.36C164.856 250.36 164.148 250.624 163.56 251.152C162.984 251.68 162.654 252.412 162.57 253.348H168.798ZM174.29 245.68V259H172.652V245.68H174.29ZM185.577 249.136L179.637 263.644H177.945L179.889 258.892L175.911 249.136H177.729L180.825 257.128L183.885 249.136H185.577ZM192.869 247.534C192.557 247.534 192.293 247.426 192.077 247.21C191.861 246.994 191.753 246.73 191.753 246.418C191.753 246.106 191.861 245.842 192.077 245.626C192.293 245.41 192.557 245.302 192.869 245.302C193.169 245.302 193.421 245.41 193.625 245.626C193.841 245.842 193.949 246.106 193.949 246.418C193.949 246.73 193.841 246.994 193.625 247.21C193.421 247.426 193.169 247.534 192.869 247.534ZM193.661 249.136V259H192.023V249.136H193.661ZM208.314 248.956C209.082 248.956 209.766 249.118 210.366 249.442C210.966 249.754 211.44 250.228 211.788 250.864C212.136 251.5 212.31 252.274 212.31 253.186V259H210.69V253.42C210.69 252.436 210.444 251.686 209.952 251.17C209.472 250.642 208.818 250.378 207.99 250.378C207.138 250.378 206.46 250.654 205.956 251.206C205.452 251.746 205.2 252.532 205.2 253.564V259H203.58V253.42C203.58 252.436 203.334 251.686 202.842 251.17C202.362 250.642 201.708 250.378 200.88 250.378C200.028 250.378 199.35 250.654 198.846 251.206C198.342 251.746 198.09 252.532 198.09 253.564V259H196.452V249.136H198.09V250.558C198.414 250.042 198.846 249.646 199.386 249.37C199.938 249.094 200.544 248.956 201.204 248.956C202.032 248.956 202.764 249.142 203.4 249.514C204.036 249.886 204.51 250.432 204.822 251.152C205.098 250.456 205.554 249.916 206.19 249.532C206.826 249.148 207.534 248.956 208.314 248.956ZM216.635 250.954C216.959 250.39 217.439 249.922 218.075 249.55C218.723 249.166 219.473 248.974 220.325 248.974C221.201 248.974 221.993 249.184 222.701 249.604C223.421 250.024 223.985 250.618 224.393 251.386C224.801 252.142 225.005 253.024 225.005 254.032C225.005 255.028 224.801 255.916 224.393 256.696C223.985 257.476 223.421 258.082 222.701 258.514C221.993 258.946 221.201 259.162 220.325 259.162C219.485 259.162 218.741 258.976 218.093 258.604C217.457 258.22 216.971 257.746 216.635 257.182V263.68H214.997V249.136H216.635V250.954ZM223.331 254.032C223.331 253.288 223.181 252.64 222.881 252.088C222.581 251.536 222.173 251.116 221.657 250.828C221.153 250.54 220.595 250.396 219.983 250.396C219.383 250.396 218.825 250.546 218.309 250.846C217.805 251.134 217.397 251.56 217.085 252.124C216.785 252.676 216.635 253.318 216.635 254.05C216.635 254.794 216.785 255.448 217.085 256.012C217.397 256.564 217.805 256.99 218.309 257.29C218.825 257.578 219.383 257.722 219.983 257.722C220.595 257.722 221.153 257.578 221.657 257.29C222.173 256.99 222.581 256.564 222.881 256.012C223.181 255.448 223.331 254.788 223.331 254.032ZM228.799 250.738C229.087 250.174 229.495 249.736 230.023 249.424C230.563 249.112 231.217 248.956 231.985 248.956V250.648H231.553C229.717 250.648 228.799 251.644 228.799 253.636V259H227.161V249.136H228.799V250.738ZM238.178 259.162C237.254 259.162 236.414 258.952 235.658 258.532C234.914 258.112 234.326 257.518 233.894 256.75C233.474 255.97 233.264 255.07 233.264 254.05C233.264 253.042 233.48 252.154 233.912 251.386C234.356 250.606 234.956 250.012 235.712 249.604C236.468 249.184 237.314 248.974 238.25 248.974C239.186 248.974 240.032 249.184 240.788 249.604C241.544 250.012 242.138 250.6 242.57 251.368C243.014 252.136 243.236 253.03 243.236 254.05C243.236 255.07 243.008 255.97 242.552 256.75C242.108 257.518 241.502 258.112 240.734 258.532C239.966 258.952 239.114 259.162 238.178 259.162ZM238.178 257.722C238.766 257.722 239.318 257.584 239.834 257.308C240.35 257.032 240.764 256.618 241.076 256.066C241.4 255.514 241.562 254.842 241.562 254.05C241.562 253.258 241.406 252.586 241.094 252.034C240.782 251.482 240.374 251.074 239.87 250.81C239.366 250.534 238.82 250.396 238.232 250.396C237.632 250.396 237.08 250.534 236.576 250.81C236.084 251.074 235.688 251.482 235.388 252.034C235.088 252.586 234.938 253.258 234.938 254.05C234.938 254.854 235.082 255.532 235.37 256.084C235.67 256.636 236.066 257.05 236.558 257.326C237.05 257.59 237.59 257.722 238.178 257.722ZM249.062 257.488L252.122 249.136H253.868L249.998 259H248.09L244.22 249.136H245.984L249.062 257.488ZM264.48 253.69C264.48 254.002 264.462 254.332 264.426 254.68H256.542C256.602 255.652 256.932 256.414 257.532 256.966C258.144 257.506 258.882 257.776 259.746 257.776C260.454 257.776 261.042 257.614 261.51 257.29C261.99 256.954 262.326 256.51 262.518 255.958H264.282C264.018 256.906 263.49 257.68 262.698 258.28C261.906 258.868 260.922 259.162 259.746 259.162C258.81 259.162 257.97 258.952 257.226 258.532C256.494 258.112 255.918 257.518 255.498 256.75C255.078 255.97 254.868 255.07 254.868 254.05C254.868 253.03 255.072 252.136 255.48 251.368C255.888 250.6 256.458 250.012 257.19 249.604C257.934 249.184 258.786 248.974 259.746 248.974C260.682 248.974 261.51 249.178 262.23 249.586C262.95 249.994 263.502 250.558 263.886 251.278C264.282 251.986 264.48 252.79 264.48 253.69ZM262.788 253.348C262.788 252.724 262.65 252.19 262.374 251.746C262.098 251.29 261.72 250.948 261.24 250.72C260.772 250.48 260.25 250.36 259.674 250.36C258.846 250.36 258.138 250.624 257.55 251.152C256.974 251.68 256.644 252.412 256.56 253.348H262.788ZM273.079 250.972C273.415 250.384 273.907 249.904 274.555 249.532C275.203 249.16 275.941 248.974 276.769 248.974C277.657 248.974 278.455 249.184 279.163 249.604C279.871 250.024 280.429 250.618 280.837 251.386C281.245 252.142 281.449 253.024 281.449 254.032C281.449 255.028 281.245 255.916 280.837 256.696C280.429 257.476 279.865 258.082 279.145 258.514C278.437 258.946 277.645 259.162 276.769 259.162C275.917 259.162 275.167 258.976 274.519 258.604C273.883 258.232 273.403 257.758 273.079 257.182V259H271.441V245.68H273.079V250.972ZM279.775 254.032C279.775 253.288 279.625 252.64 279.325 252.088C279.025 251.536 278.617 251.116 278.101 250.828C277.597 250.54 277.039 250.396 276.427 250.396C275.827 250.396 275.269 250.546 274.753 250.846C274.249 251.134 273.841 251.56 273.529 252.124C273.229 252.676 273.079 253.318 273.079 254.05C273.079 254.794 273.229 255.448 273.529 256.012C273.841 256.564 274.249 256.99 274.753 257.29C275.269 257.578 275.827 257.722 276.427 257.722C277.039 257.722 277.597 257.578 278.101 257.29C278.617 256.99 279.025 256.564 279.325 256.012C279.625 255.448 279.775 254.788 279.775 254.032ZM282.993 254.032C282.993 253.024 283.197 252.142 283.605 251.386C284.013 250.618 284.571 250.024 285.279 249.604C285.999 249.184 286.797 248.974 287.673 248.974C288.537 248.974 289.287 249.16 289.923 249.532C290.559 249.904 291.033 250.372 291.345 250.936V249.136H293.001V259H291.345V257.164C291.021 257.74 290.535 258.22 289.887 258.604C289.251 258.976 288.507 259.162 287.655 259.162C286.779 259.162 285.987 258.946 285.279 258.514C284.571 258.082 284.013 257.476 283.605 256.696C283.197 255.916 282.993 255.028 282.993 254.032ZM291.345 254.05C291.345 253.306 291.195 252.658 290.895 252.106C290.595 251.554 290.187 251.134 289.671 250.846C289.167 250.546 288.609 250.396 287.997 250.396C287.385 250.396 286.827 250.54 286.323 250.828C285.819 251.116 285.417 251.536 285.117 252.088C284.817 252.64 284.667 253.288 284.667 254.032C284.667 254.788 284.817 255.448 285.117 256.012C285.417 256.564 285.819 256.99 286.323 257.29C286.827 257.578 287.385 257.722 287.997 257.722C288.609 257.722 289.167 257.578 289.671 257.29C290.187 256.99 290.595 256.564 290.895 256.012C291.195 255.448 291.345 254.794 291.345 254.05ZM299.261 259.162C298.505 259.162 297.827 259.036 297.227 258.784C296.627 258.52 296.153 258.16 295.805 257.704C295.457 257.236 295.265 256.702 295.229 256.102H296.921C296.969 256.594 297.197 256.996 297.605 257.308C298.025 257.62 298.571 257.776 299.243 257.776C299.867 257.776 300.359 257.638 300.719 257.362C301.079 257.086 301.259 256.738 301.259 256.318C301.259 255.886 301.067 255.568 300.683 255.364C300.299 255.148 299.705 254.938 298.901 254.734C298.169 254.542 297.569 254.35 297.101 254.158C296.645 253.954 296.249 253.66 295.913 253.276C295.589 252.88 295.427 252.364 295.427 251.728C295.427 251.224 295.577 250.762 295.877 250.342C296.177 249.922 296.603 249.592 297.155 249.352C297.707 249.1 298.337 248.974 299.045 248.974C300.137 248.974 301.019 249.25 301.691 249.802C302.363 250.354 302.723 251.11 302.771 252.07H301.133C301.097 251.554 300.887 251.14 300.503 250.828C300.131 250.516 299.627 250.36 298.991 250.36C298.403 250.36 297.935 250.486 297.587 250.738C297.239 250.99 297.065 251.32 297.065 251.728C297.065 252.052 297.167 252.322 297.371 252.538C297.587 252.742 297.851 252.91 298.163 253.042C298.487 253.162 298.931 253.3 299.495 253.456C300.203 253.648 300.779 253.84 301.223 254.032C301.667 254.212 302.045 254.488 302.357 254.86C302.681 255.232 302.849 255.718 302.861 256.318C302.861 256.858 302.711 257.344 302.411 257.776C302.111 258.208 301.685 258.55 301.133 258.802C300.593 259.042 299.969 259.162 299.261 259.162ZM314.173 253.69C314.173 254.002 314.155 254.332 314.119 254.68H306.235C306.295 255.652 306.625 256.414 307.225 256.966C307.837 257.506 308.575 257.776 309.439 257.776C310.147 257.776 310.735 257.614 311.203 257.29C311.683 256.954 312.019 256.51 312.211 255.958H313.975C313.711 256.906 313.183 257.68 312.391 258.28C311.599 258.868 310.615 259.162 309.439 259.162C308.503 259.162 307.663 258.952 306.919 258.532C306.187 258.112 305.611 257.518 305.191 256.75C304.771 255.97 304.561 255.07 304.561 254.05C304.561 253.03 304.765 252.136 305.173 251.368C305.581 250.6 306.151 250.012 306.883 249.604C307.627 249.184 308.479 248.974 309.439 248.974C310.375 248.974 311.203 249.178 311.923 249.586C312.643 249.994 313.195 250.558 313.579 251.278C313.975 251.986 314.173 252.79 314.173 253.69ZM312.481 253.348C312.481 252.724 312.343 252.19 312.067 251.746C311.791 251.29 311.413 250.948 310.933 250.72C310.465 250.48 309.943 250.36 309.367 250.36C308.539 250.36 307.831 250.624 307.243 251.152C306.667 251.68 306.337 252.412 306.253 253.348H312.481ZM315.723 254.032C315.723 253.024 315.927 252.142 316.335 251.386C316.743 250.618 317.301 250.024 318.009 249.604C318.729 249.184 319.533 248.974 320.421 248.974C321.189 248.974 321.903 249.154 322.563 249.514C323.223 249.862 323.727 250.324 324.075 250.9V245.68H325.731V259H324.075V257.146C323.751 257.734 323.271 258.22 322.635 258.604C321.999 258.976 321.255 259.162 320.403 259.162C319.527 259.162 318.729 258.946 318.009 258.514C317.301 258.082 316.743 257.476 316.335 256.696C315.927 255.916 315.723 255.028 315.723 254.032ZM324.075 254.05C324.075 253.306 323.925 252.658 323.625 252.106C323.325 251.554 322.917 251.134 322.401 250.846C321.897 250.546 321.339 250.396 320.727 250.396C320.115 250.396 319.557 250.54 319.053 250.828C318.549 251.116 318.147 251.536 317.847 252.088C317.547 252.64 317.397 253.288 317.397 254.032C317.397 254.788 317.547 255.448 317.847 256.012C318.147 256.564 318.549 256.99 319.053 257.29C319.557 257.578 320.115 257.722 320.727 257.722C321.339 257.722 321.897 257.578 322.401 257.29C322.917 256.99 323.325 256.564 323.625 256.012C323.925 255.448 324.075 254.794 324.075 254.05ZM337.6 259.162C336.676 259.162 335.836 258.952 335.08 258.532C334.336 258.112 333.748 257.518 333.316 256.75C332.896 255.97 332.686 255.07 332.686 254.05C332.686 253.042 332.902 252.154 333.334 251.386C333.778 250.606 334.378 250.012 335.134 249.604C335.89 249.184 336.736 248.974 337.672 248.974C338.608 248.974 339.454 249.184 340.21 249.604C340.966 250.012 341.56 250.6 341.992 251.368C342.436 252.136 342.658 253.03 342.658 254.05C342.658 255.07 342.43 255.97 341.974 256.75C341.53 257.518 340.924 258.112 340.156 258.532C339.388 258.952 338.536 259.162 337.6 259.162ZM337.6 257.722C338.188 257.722 338.74 257.584 339.256 257.308C339.772 257.032 340.186 256.618 340.498 256.066C340.822 255.514 340.984 254.842 340.984 254.05C340.984 253.258 340.828 252.586 340.516 252.034C340.204 251.482 339.796 251.074 339.292 250.81C338.788 250.534 338.242 250.396 337.654 250.396C337.054 250.396 336.502 250.534 335.998 250.81C335.506 251.074 335.11 251.482 334.81 252.034C334.51 252.586 334.36 253.258 334.36 254.05C334.36 254.854 334.504 255.532 334.792 256.084C335.092 256.636 335.488 257.05 335.98 257.326C336.472 257.59 337.012 257.722 337.6 257.722ZM349.618 248.956C350.818 248.956 351.79 249.322 352.534 250.054C353.278 250.774 353.65 251.818 353.65 253.186V259H352.03V253.42C352.03 252.436 351.784 251.686 351.292 251.17C350.8 250.642 350.128 250.378 349.276 250.378C348.412 250.378 347.722 250.648 347.206 251.188C346.702 251.728 346.45 252.514 346.45 253.546V259H344.812V249.136H346.45V250.54C346.774 250.036 347.212 249.646 347.764 249.37C348.328 249.094 348.946 248.956 349.618 248.956ZM365.138 250.486H363.068V259H361.43V250.486H360.152V249.136H361.43V248.434C361.43 247.33 361.712 246.526 362.276 246.022C362.852 245.506 363.77 245.248 365.03 245.248V246.616C364.31 246.616 363.8 246.76 363.5 247.048C363.212 247.324 363.068 247.786 363.068 248.434V249.136H365.138V250.486ZM376.048 253.69C376.048 254.002 376.03 254.332 375.994 254.68H368.11C368.17 255.652 368.5 256.414 369.1 256.966C369.712 257.506 370.45 257.776 371.314 257.776C372.022 257.776 372.61 257.614 373.078 257.29C373.558 256.954 373.894 256.51 374.086 255.958H375.85C375.586 256.906 375.058 257.68 374.266 258.28C373.474 258.868 372.49 259.162 371.314 259.162C370.378 259.162 369.538 258.952 368.794 258.532C368.062 258.112 367.486 257.518 367.066 256.75C366.646 255.97 366.436 255.07 366.436 254.05C366.436 253.03 366.64 252.136 367.048 251.368C367.456 250.6 368.026 250.012 368.758 249.604C369.502 249.184 370.354 248.974 371.314 248.974C372.25 248.974 373.078 249.178 373.798 249.586C374.518 249.994 375.07 250.558 375.454 251.278C375.85 251.986 376.048 252.79 376.048 253.69ZM374.356 253.348C374.356 252.724 374.218 252.19 373.942 251.746C373.666 251.29 373.288 250.948 372.808 250.72C372.34 250.48 371.818 250.36 371.242 250.36C370.414 250.36 369.706 250.624 369.118 251.152C368.542 251.68 368.212 252.412 368.128 253.348H374.356ZM387.21 253.69C387.21 254.002 387.192 254.332 387.156 254.68H379.272C379.332 255.652 379.662 256.414 380.262 256.966C380.874 257.506 381.612 257.776 382.476 257.776C383.184 257.776 383.772 257.614 384.24 257.29C384.72 256.954 385.056 256.51 385.248 255.958H387.012C386.748 256.906 386.22 257.68 385.428 258.28C384.636 258.868 383.652 259.162 382.476 259.162C381.54 259.162 380.7 258.952 379.956 258.532C379.224 258.112 378.648 257.518 378.228 256.75C377.808 255.97 377.598 255.07 377.598 254.05C377.598 253.03 377.802 252.136 378.21 251.368C378.618 250.6 379.188 250.012 379.92 249.604C380.664 249.184 381.516 248.974 382.476 248.974C383.412 248.974 384.24 249.178 384.96 249.586C385.68 249.994 386.232 250.558 386.616 251.278C387.012 251.986 387.21 252.79 387.21 253.69ZM385.518 253.348C385.518 252.724 385.38 252.19 385.104 251.746C384.828 251.29 384.45 250.948 383.97 250.72C383.502 250.48 382.98 250.36 382.404 250.36C381.576 250.36 380.868 250.624 380.28 251.152C379.704 251.68 379.374 252.412 379.29 253.348H385.518ZM388.76 254.032C388.76 253.024 388.964 252.142 389.372 251.386C389.78 250.618 390.338 250.024 391.046 249.604C391.766 249.184 392.57 248.974 393.458 248.974C394.226 248.974 394.94 249.154 395.6 249.514C396.26 249.862 396.764 250.324 397.112 250.9V245.68H398.768V259H397.112V257.146C396.788 257.734 396.308 258.22 395.672 258.604C395.036 258.976 394.292 259.162 393.44 259.162C392.564 259.162 391.766 258.946 391.046 258.514C390.338 258.082 389.78 257.476 389.372 256.696C388.964 255.916 388.76 255.028 388.76 254.032ZM397.112 254.05C397.112 253.306 396.962 252.658 396.662 252.106C396.362 251.554 395.954 251.134 395.438 250.846C394.934 250.546 394.376 250.396 393.764 250.396C393.152 250.396 392.594 250.54 392.09 250.828C391.586 251.116 391.184 251.536 390.884 252.088C390.584 252.64 390.434 253.288 390.434 254.032C390.434 254.788 390.584 255.448 390.884 256.012C391.184 256.564 391.586 256.99 392.09 257.29C392.594 257.578 393.152 257.722 393.764 257.722C394.376 257.722 394.934 257.578 395.438 257.29C395.954 256.99 396.362 256.564 396.662 256.012C396.962 255.448 397.112 254.794 397.112 254.05ZM403.174 250.972C403.51 250.384 404.002 249.904 404.65 249.532C405.298 249.16 406.036 248.974 406.864 248.974C407.752 248.974 408.55 249.184 409.258 249.604C409.966 250.024 410.524 250.618 410.932 251.386C411.34 252.142 411.544 253.024 411.544 254.032C411.544 255.028 411.34 255.916 410.932 256.696C410.524 257.476 409.96 258.082 409.24 258.514C408.532 258.946 407.74 259.162 406.864 259.162C406.012 259.162 405.262 258.976 404.614 258.604C403.978 258.232 403.498 257.758 403.174 257.182V259H401.536V245.68H403.174V250.972ZM409.87 254.032C409.87 253.288 409.72 252.64 409.42 252.088C409.12 251.536 408.712 251.116 408.196 250.828C407.692 250.54 407.134 250.396 406.522 250.396C405.922 250.396 405.364 250.546 404.848 250.846C404.344 251.134 403.936 251.56 403.624 252.124C403.324 252.676 403.174 253.318 403.174 254.05C403.174 254.794 403.324 255.448 403.624 256.012C403.936 256.564 404.344 256.99 404.848 257.29C405.364 257.578 405.922 257.722 406.522 257.722C407.134 257.722 407.692 257.578 408.196 257.29C408.712 256.99 409.12 256.564 409.42 256.012C409.72 255.448 409.87 254.788 409.87 254.032ZM413.088 254.032C413.088 253.024 413.292 252.142 413.7 251.386C414.108 250.618 414.666 250.024 415.374 249.604C416.094 249.184 416.892 248.974 417.768 248.974C418.632 248.974 419.382 249.16 420.018 249.532C420.654 249.904 421.128 250.372 421.44 250.936V249.136H423.096V259H421.44V257.164C421.116 257.74 420.63 258.22 419.982 258.604C419.346 258.976 418.602 259.162 417.75 259.162C416.874 259.162 416.082 258.946 415.374 258.514C414.666 258.082 414.108 257.476 413.7 256.696C413.292 255.916 413.088 255.028 413.088 254.032ZM421.44 254.05C421.44 253.306 421.29 252.658 420.99 252.106C420.69 251.554 420.282 251.134 419.766 250.846C419.262 250.546 418.704 250.396 418.092 250.396C417.48 250.396 416.922 250.54 416.418 250.828C415.914 251.116 415.512 251.536 415.212 252.088C414.912 252.64 414.762 253.288 414.762 254.032C414.762 254.788 414.912 255.448 415.212 256.012C415.512 256.564 415.914 256.99 416.418 257.29C416.922 257.578 417.48 257.722 418.092 257.722C418.704 257.722 419.262 257.578 419.766 257.29C420.282 256.99 420.69 256.564 420.99 256.012C421.29 255.448 421.44 254.794 421.44 254.05ZM425.253 254.05C425.253 253.03 425.457 252.142 425.865 251.386C426.273 250.618 426.837 250.024 427.557 249.604C428.289 249.184 429.123 248.974 430.059 248.974C431.271 248.974 432.267 249.268 433.047 249.856C433.839 250.444 434.361 251.26 434.613 252.304H432.849C432.681 251.704 432.351 251.23 431.859 250.882C431.379 250.534 430.779 250.36 430.059 250.36C429.123 250.36 428.367 250.684 427.791 251.332C427.215 251.968 426.927 252.874 426.927 254.05C426.927 255.238 427.215 256.156 427.791 256.804C428.367 257.452 429.123 257.776 430.059 257.776C430.779 257.776 431.379 257.608 431.859 257.272C432.339 256.936 432.669 256.456 432.849 255.832H434.613C434.349 256.84 433.821 257.65 433.029 258.262C432.237 258.862 431.247 259.162 430.059 259.162C429.123 259.162 428.289 258.952 427.557 258.532C426.837 258.112 426.273 257.518 425.865 256.75C425.457 255.982 425.253 255.082 425.253 254.05ZM442.306 259L438.436 254.644V259H436.798V245.68H438.436V253.51L442.234 249.136H444.52L439.876 254.05L444.538 259H442.306Z" fill="black"/>
<defs>
<filter id="filter0_f_24_85" x="0" y="0" width="526" height="358" filterUnits="userSpaceOnUse" color-interpolation-filters="sRGB">
<feFlood flood-opacity="0" result="BackgroundImageFix"/>
<feBlend mode="normal" in="SourceGraphic" in2="BackgroundImageFix" result="shape"/>
<feGaussianBlur stdDeviation="10.5" result="effect1_foregroundBlur_24_85"/>
</filter>
<linearGradient id="paint0_linear_24_85" x1="102.823" y1="77" x2="160.753" y2="136.344" gradientUnits="userSpaceOnUse">
<stop stop-color="#E04D4D"/>
<stop offset="1" stop-color="#F9C1C1"/>
<stop offset="1" stop-color="#F9C1C1"/>
</linearGradient>
</defs>
</svg>
