<svg width="641" height="311" viewBox="0 0 641 311" fill="none" xmlns="http://www.w3.org/2000/svg">
<g filter="url(#filter0_f_26_13)">
<rect x="21" y="21" width="599" height="269" rx="30" fill="#E9CACD" fill-opacity="0.74"/>
</g>
<rect x="21" y="13" width="599" height="269" rx="30" fill="white"/>
<path d="M76.9747 147.936C76.1587 147.936 75.4627 147.656 74.8867 147.096C74.3267 146.52 74.0467 145.824 74.0467 145.008C74.0467 144.176 74.3267 143.48 74.8867 142.92C75.4627 142.344 76.1587 142.056 76.9747 142.056C77.8067 142.056 78.5107 142.344 79.0867 142.92C79.6627 143.48 79.9507 144.176 79.9507 145.008C79.9507 145.824 79.6627 146.52 79.0867 147.096C78.5107 147.656 77.8067 147.936 76.9747 147.936ZM108.032 141.168C108.032 142.56 107.552 143.72 106.592 144.648C105.648 145.56 104.2 146.016 102.248 146.016H99.032V153H96.848V136.272H102.248C104.136 136.272 105.568 136.728 106.544 137.64C107.536 138.552 108.032 139.728 108.032 141.168ZM102.248 144.216C103.464 144.216 104.36 143.952 104.936 143.424C105.512 142.896 105.8 142.144 105.8 141.168C105.8 139.104 104.616 138.072 102.248 138.072H99.032V144.216H102.248ZM112.93 141.984C113.314 141.232 113.858 140.648 114.562 140.232C115.282 139.816 116.154 139.608 117.178 139.608V141.864H116.602C114.154 141.864 112.93 143.192 112.93 145.848V153H110.746V139.848H112.93V141.984ZM131.7 145.92C131.7 146.336 131.676 146.776 131.628 147.24H121.116C121.196 148.536 121.636 149.552 122.436 150.288C123.252 151.008 124.236 151.368 125.388 151.368C126.332 151.368 127.116 151.152 127.74 150.72C128.38 150.272 128.828 149.68 129.084 148.944H131.436C131.084 150.208 130.38 151.24 129.324 152.04C128.268 152.824 126.956 153.216 125.388 153.216C124.14 153.216 123.02 152.936 122.028 152.376C121.052 151.816 120.284 151.024 119.724 150C119.164 148.96 118.884 147.76 118.884 146.4C118.884 145.04 119.156 143.848 119.7 142.824C120.244 141.8 121.004 141.016 121.98 140.472C122.972 139.912 124.108 139.632 125.388 139.632C126.636 139.632 127.74 139.904 128.7 140.448C129.66 140.992 130.396 141.744 130.908 142.704C131.436 143.648 131.7 144.72 131.7 145.92ZM129.444 145.464C129.444 144.632 129.26 143.92 128.892 143.328C128.524 142.72 128.02 142.264 127.38 141.96C126.756 141.64 126.06 141.48 125.292 141.48C124.188 141.48 123.244 141.832 122.46 142.536C121.692 143.24 121.252 144.216 121.14 145.464H129.444ZM139.238 153.216C138.23 153.216 137.326 153.048 136.526 152.712C135.726 152.36 135.094 151.88 134.63 151.272C134.166 150.648 133.91 149.936 133.862 149.136H136.118C136.182 149.792 136.486 150.328 137.03 150.744C137.59 151.16 138.318 151.368 139.214 151.368C140.046 151.368 140.702 151.184 141.182 150.816C141.662 150.448 141.902 149.984 141.902 149.424C141.902 148.848 141.646 148.424 141.134 148.152C140.622 147.864 139.83 147.584 138.758 147.312C137.782 147.056 136.982 146.8 136.358 146.544C135.75 146.272 135.222 145.88 134.774 145.368C134.342 144.84 134.126 144.152 134.126 143.304C134.126 142.632 134.326 142.016 134.726 141.456C135.126 140.896 135.694 140.456 136.43 140.136C137.166 139.8 138.006 139.632 138.95 139.632C140.406 139.632 141.582 140 142.478 140.736C143.374 141.472 143.854 142.48 143.918 143.76H141.734C141.686 143.072 141.406 142.52 140.894 142.104C140.398 141.688 139.726 141.48 138.878 141.48C138.094 141.48 137.47 141.648 137.006 141.984C136.542 142.32 136.31 142.76 136.31 143.304C136.31 143.736 136.446 144.096 136.718 144.384C137.006 144.656 137.358 144.88 137.774 145.056C138.206 145.216 138.798 145.4 139.55 145.608C140.494 145.864 141.262 146.12 141.854 146.376C142.446 146.616 142.95 146.984 143.366 147.48C143.798 147.976 144.022 148.624 144.038 149.424C144.038 150.144 143.838 150.792 143.438 151.368C143.038 151.944 142.47 152.4 141.734 152.736C141.014 153.056 140.182 153.216 139.238 153.216ZM159.121 145.92C159.121 146.336 159.097 146.776 159.049 147.24H148.537C148.617 148.536 149.057 149.552 149.857 150.288C150.673 151.008 151.657 151.368 152.809 151.368C153.753 151.368 154.537 151.152 155.161 150.72C155.801 150.272 156.249 149.68 156.505 148.944H158.857C158.505 150.208 157.801 151.24 156.745 152.04C155.689 152.824 154.377 153.216 152.809 153.216C151.561 153.216 150.441 152.936 149.449 152.376C148.473 151.816 147.705 151.024 147.145 150C146.585 148.96 146.305 147.76 146.305 146.4C146.305 145.04 146.577 143.848 147.121 142.824C147.665 141.8 148.425 141.016 149.401 140.472C150.393 139.912 151.529 139.632 152.809 139.632C154.057 139.632 155.161 139.904 156.121 140.448C157.081 140.992 157.817 141.744 158.329 142.704C158.857 143.648 159.121 144.72 159.121 145.92ZM156.865 145.464C156.865 144.632 156.681 143.92 156.313 143.328C155.945 142.72 155.441 142.264 154.801 141.96C154.177 141.64 153.481 141.48 152.713 141.48C151.609 141.48 150.665 141.832 149.881 142.536C149.113 143.24 148.673 144.216 148.561 145.464H156.865ZM168.412 139.608C170.012 139.608 171.308 140.096 172.3 141.072C173.292 142.032 173.788 143.424 173.788 145.248V153H171.628V145.56C171.628 144.248 171.3 143.248 170.644 142.56C169.988 141.856 169.092 141.504 167.956 141.504C166.804 141.504 165.884 141.864 165.196 142.584C164.524 143.304 164.188 144.352 164.188 145.728V153H162.004V139.848H164.188V141.72C164.62 141.048 165.204 140.528 165.94 140.16C166.692 139.792 167.516 139.608 168.412 139.608ZM180.02 141.648V149.4C180.02 150.04 180.156 150.496 180.428 150.768C180.7 151.024 181.172 151.152 181.844 151.152H183.452V153H181.484C180.268 153 179.356 152.72 178.748 152.16C178.14 151.6 177.836 150.68 177.836 149.4V141.648H176.132V139.848H177.836V136.536H180.02V139.848H183.452V141.648H180.02ZM187.226 137.712C186.81 137.712 186.458 137.568 186.17 137.28C185.882 136.992 185.738 136.64 185.738 136.224C185.738 135.808 185.882 135.456 186.17 135.168C186.458 134.88 186.81 134.736 187.226 134.736C187.626 134.736 187.962 134.88 188.234 135.168C188.522 135.456 188.666 135.808 188.666 136.224C188.666 136.64 188.522 136.992 188.234 137.28C187.962 137.568 187.626 137.712 187.226 137.712ZM188.282 139.848V153H186.098V139.848H188.282ZM198.412 139.608C200.012 139.608 201.308 140.096 202.3 141.072C203.292 142.032 203.788 143.424 203.788 145.248V153H201.628V145.56C201.628 144.248 201.3 143.248 200.644 142.56C199.988 141.856 199.092 141.504 197.956 141.504C196.804 141.504 195.884 141.864 195.196 142.584C194.524 143.304 194.188 144.352 194.188 145.728V153H192.004V139.848H194.188V141.72C194.62 141.048 195.204 140.528 195.94 140.16C196.692 139.792 197.516 139.608 198.412 139.608ZM212.78 139.632C213.916 139.632 214.908 139.88 215.756 140.376C216.62 140.872 217.26 141.496 217.676 142.248V139.848H219.884V153.288C219.884 154.488 219.628 155.552 219.116 156.48C218.604 157.424 217.868 158.16 216.908 158.688C215.964 159.216 214.86 159.48 213.596 159.48C211.868 159.48 210.428 159.072 209.276 158.256C208.124 157.44 207.444 156.328 207.236 154.92H209.396C209.636 155.72 210.132 156.36 210.884 156.84C211.636 157.336 212.54 157.584 213.596 157.584C214.796 157.584 215.772 157.208 216.524 156.456C217.292 155.704 217.676 154.648 217.676 153.288V150.528C217.244 151.296 216.604 151.936 215.756 152.448C214.908 152.96 213.916 153.216 212.78 153.216C211.612 153.216 210.548 152.928 209.588 152.352C208.644 151.776 207.9 150.968 207.356 149.928C206.812 148.888 206.54 147.704 206.54 146.376C206.54 145.032 206.812 143.856 207.356 142.848C207.9 141.824 208.644 141.032 209.588 140.472C210.548 139.912 211.612 139.632 212.78 139.632ZM217.676 146.4C217.676 145.408 217.476 144.544 217.076 143.808C216.676 143.072 216.132 142.512 215.444 142.128C214.772 141.728 214.028 141.528 213.212 141.528C212.396 141.528 211.652 141.72 210.98 142.104C210.308 142.488 209.772 143.048 209.372 143.784C208.972 144.52 208.772 145.384 208.772 146.376C208.772 147.384 208.972 148.264 209.372 149.016C209.772 149.752 210.308 150.32 210.98 150.72C211.652 151.104 212.396 151.296 213.212 151.296C214.028 151.296 214.772 151.104 215.444 150.72C216.132 150.32 216.676 149.752 217.076 149.016C217.476 148.264 217.676 147.392 217.676 146.4ZM245.789 139.608C246.813 139.608 247.725 139.824 248.525 140.256C249.325 140.672 249.957 141.304 250.421 142.152C250.885 143 251.117 144.032 251.117 145.248V153H248.957V145.56C248.957 144.248 248.629 143.248 247.973 142.56C247.333 141.856 246.461 141.504 245.357 141.504C244.221 141.504 243.317 141.872 242.645 142.608C241.973 143.328 241.637 144.376 241.637 145.752V153H239.477V145.56C239.477 144.248 239.149 143.248 238.493 142.56C237.853 141.856 236.981 141.504 235.877 141.504C234.741 141.504 233.837 141.872 233.165 142.608C232.493 143.328 232.157 144.376 232.157 145.752V153H229.973V139.848H232.157V141.744C232.589 141.056 233.165 140.528 233.885 140.16C234.621 139.792 235.429 139.608 236.309 139.608C237.413 139.608 238.389 139.856 239.237 140.352C240.085 140.848 240.717 141.576 241.133 142.536C241.501 141.608 242.109 140.888 242.957 140.376C243.805 139.864 244.749 139.608 245.789 139.608ZM266.028 139.848L258.108 159.192H255.852L258.444 152.856L253.14 139.848H255.564L259.692 150.504L263.772 139.848H266.028ZM273.805 146.376C273.805 145.032 274.077 143.856 274.621 142.848C275.165 141.824 275.909 141.032 276.853 140.472C277.813 139.912 278.885 139.632 280.069 139.632C281.093 139.632 282.045 139.872 282.925 140.352C283.805 140.816 284.477 141.432 284.941 142.2V135.24H287.149V153H284.941V150.528C284.509 151.312 283.869 151.96 283.021 152.472C282.173 152.968 281.181 153.216 280.045 153.216C278.877 153.216 277.813 152.928 276.853 152.352C275.909 151.776 275.165 150.968 274.621 149.928C274.077 148.888 273.805 147.704 273.805 146.376ZM284.941 146.4C284.941 145.408 284.741 144.544 284.341 143.808C283.941 143.072 283.397 142.512 282.709 142.128C282.037 141.728 281.293 141.528 280.477 141.528C279.661 141.528 278.917 141.72 278.245 142.104C277.573 142.488 277.037 143.048 276.637 143.784C276.237 144.52 276.037 145.384 276.037 146.376C276.037 147.384 276.237 148.264 276.637 149.016C277.037 149.752 277.573 150.32 278.245 150.72C278.917 151.104 279.661 151.296 280.477 151.296C281.293 151.296 282.037 151.104 282.709 150.72C283.397 150.32 283.941 149.752 284.341 149.016C284.741 148.264 284.941 147.392 284.941 146.4ZM302.84 145.92C302.84 146.336 302.816 146.776 302.768 147.24H292.256C292.336 148.536 292.776 149.552 293.576 150.288C294.392 151.008 295.376 151.368 296.528 151.368C297.472 151.368 298.256 151.152 298.88 150.72C299.52 150.272 299.968 149.68 300.224 148.944H302.576C302.224 150.208 301.52 151.24 300.464 152.04C299.408 152.824 298.096 153.216 296.528 153.216C295.28 153.216 294.16 152.936 293.168 152.376C292.192 151.816 291.424 151.024 290.864 150C290.304 148.96 290.024 147.76 290.024 146.4C290.024 145.04 290.296 143.848 290.84 142.824C291.384 141.8 292.144 141.016 293.12 140.472C294.112 139.912 295.248 139.632 296.528 139.632C297.776 139.632 298.88 139.904 299.84 140.448C300.8 140.992 301.536 141.744 302.048 142.704C302.576 143.648 302.84 144.72 302.84 145.92ZM300.584 145.464C300.584 144.632 300.4 143.92 300.032 143.328C299.664 142.72 299.16 142.264 298.52 141.96C297.896 141.64 297.2 141.48 296.432 141.48C295.328 141.48 294.384 141.832 293.6 142.536C292.832 143.24 292.392 144.216 292.28 145.464H300.584ZM310.379 153.216C309.371 153.216 308.467 153.048 307.667 152.712C306.867 152.36 306.235 151.88 305.771 151.272C305.307 150.648 305.051 149.936 305.003 149.136H307.259C307.323 149.792 307.627 150.328 308.171 150.744C308.731 151.16 309.459 151.368 310.355 151.368C311.187 151.368 311.843 151.184 312.323 150.816C312.803 150.448 313.043 149.984 313.043 149.424C313.043 148.848 312.787 148.424 312.275 148.152C311.763 147.864 310.971 147.584 309.899 147.312C308.923 147.056 308.123 146.8 307.499 146.544C306.891 146.272 306.363 145.88 305.915 145.368C305.483 144.84 305.267 144.152 305.267 143.304C305.267 142.632 305.467 142.016 305.867 141.456C306.267 140.896 306.835 140.456 307.571 140.136C308.307 139.8 309.147 139.632 310.091 139.632C311.547 139.632 312.723 140 313.619 140.736C314.515 141.472 314.995 142.48 315.059 143.76H312.875C312.827 143.072 312.547 142.52 312.035 142.104C311.539 141.688 310.867 141.48 310.019 141.48C309.235 141.48 308.611 141.648 308.147 141.984C307.683 142.32 307.451 142.76 307.451 143.304C307.451 143.736 307.587 144.096 307.859 144.384C308.147 144.656 308.499 144.88 308.915 145.056C309.347 145.216 309.939 145.4 310.691 145.608C311.635 145.864 312.403 146.12 312.995 146.376C313.587 146.616 314.091 146.984 314.507 147.48C314.939 147.976 315.163 148.624 315.179 149.424C315.179 150.144 314.979 150.792 314.579 151.368C314.179 151.944 313.611 152.4 312.875 152.736C312.155 153.056 311.323 153.216 310.379 153.216ZM319.39 137.712C318.974 137.712 318.622 137.568 318.334 137.28C318.046 136.992 317.902 136.64 317.902 136.224C317.902 135.808 318.046 135.456 318.334 135.168C318.622 134.88 318.974 134.736 319.39 134.736C319.79 134.736 320.126 134.88 320.398 135.168C320.686 135.456 320.83 135.808 320.83 136.224C320.83 136.64 320.686 136.992 320.398 137.28C320.126 137.568 319.79 137.712 319.39 137.712ZM320.446 139.848V153H318.262V139.848H320.446ZM329.592 139.632C330.728 139.632 331.72 139.88 332.568 140.376C333.432 140.872 334.072 141.496 334.488 142.248V139.848H336.696V153.288C336.696 154.488 336.44 155.552 335.928 156.48C335.416 157.424 334.68 158.16 333.72 158.688C332.776 159.216 331.672 159.48 330.408 159.48C328.68 159.48 327.24 159.072 326.088 158.256C324.936 157.44 324.256 156.328 324.048 154.92H326.208C326.448 155.72 326.944 156.36 327.696 156.84C328.448 157.336 329.352 157.584 330.408 157.584C331.608 157.584 332.584 157.208 333.336 156.456C334.104 155.704 334.488 154.648 334.488 153.288V150.528C334.056 151.296 333.416 151.936 332.568 152.448C331.72 152.96 330.728 153.216 329.592 153.216C328.424 153.216 327.36 152.928 326.4 152.352C325.456 151.776 324.712 150.968 324.168 149.928C323.624 148.888 323.352 147.704 323.352 146.376C323.352 145.032 323.624 143.856 324.168 142.848C324.712 141.824 325.456 141.032 326.4 140.472C327.36 139.912 328.424 139.632 329.592 139.632ZM334.488 146.4C334.488 145.408 334.288 144.544 333.888 143.808C333.488 143.072 332.944 142.512 332.256 142.128C331.584 141.728 330.84 141.528 330.024 141.528C329.208 141.528 328.464 141.72 327.792 142.104C327.12 142.488 326.584 143.048 326.184 143.784C325.784 144.52 325.584 145.384 325.584 146.376C325.584 147.384 325.784 148.264 326.184 149.016C326.584 149.752 327.12 150.32 327.792 150.72C328.464 151.104 329.208 151.296 330.024 151.296C330.84 151.296 331.584 151.104 332.256 150.72C332.944 150.32 333.488 149.752 333.888 149.016C334.288 148.264 334.488 147.392 334.488 146.4ZM346.795 139.608C348.395 139.608 349.691 140.096 350.683 141.072C351.675 142.032 352.171 143.424 352.171 145.248V153H350.011V145.56C350.011 144.248 349.683 143.248 349.027 142.56C348.371 141.856 347.475 141.504 346.339 141.504C345.187 141.504 344.267 141.864 343.579 142.584C342.907 143.304 342.571 144.352 342.571 145.728V153H340.387V139.848H342.571V141.72C343.003 141.048 343.587 140.528 344.323 140.16C345.075 139.792 345.899 139.608 346.795 139.608ZM366.793 153.216C365.785 153.216 364.881 153.048 364.081 152.712C363.281 152.36 362.649 151.88 362.185 151.272C361.721 150.648 361.465 149.936 361.417 149.136H363.673C363.737 149.792 364.041 150.328 364.585 150.744C365.145 151.16 365.873 151.368 366.769 151.368C367.601 151.368 368.257 151.184 368.737 150.816C369.217 150.448 369.457 149.984 369.457 149.424C369.457 148.848 369.201 148.424 368.689 148.152C368.177 147.864 367.385 147.584 366.313 147.312C365.337 147.056 364.537 146.8 363.913 146.544C363.305 146.272 362.777 145.88 362.329 145.368C361.897 144.84 361.681 144.152 361.681 143.304C361.681 142.632 361.881 142.016 362.281 141.456C362.681 140.896 363.249 140.456 363.985 140.136C364.721 139.8 365.561 139.632 366.505 139.632C367.961 139.632 369.137 140 370.033 140.736C370.929 141.472 371.409 142.48 371.473 143.76H369.289C369.241 143.072 368.961 142.52 368.449 142.104C367.953 141.688 367.281 141.48 366.433 141.48C365.649 141.48 365.025 141.648 364.561 141.984C364.097 142.32 363.865 142.76 363.865 143.304C363.865 143.736 364.001 144.096 364.273 144.384C364.561 144.656 364.913 144.88 365.329 145.056C365.761 145.216 366.353 145.4 367.105 145.608C368.049 145.864 368.817 146.12 369.409 146.376C370.001 146.616 370.505 146.984 370.921 147.48C371.353 147.976 371.577 148.624 371.593 149.424C371.593 150.144 371.393 150.792 370.993 151.368C370.593 151.944 370.025 152.4 369.289 152.736C368.569 153.056 367.737 153.216 366.793 153.216ZM380.412 153.216C379.18 153.216 378.06 152.936 377.052 152.376C376.06 151.816 375.276 151.024 374.7 150C374.14 148.96 373.86 147.76 373.86 146.4C373.86 145.056 374.148 143.872 374.724 142.848C375.316 141.808 376.116 141.016 377.124 140.472C378.132 139.912 379.26 139.632 380.508 139.632C381.756 139.632 382.884 139.912 383.892 140.472C384.9 141.016 385.692 141.8 386.268 142.824C386.86 143.848 387.156 145.04 387.156 146.4C387.156 147.76 386.852 148.96 386.244 150C385.652 151.024 384.844 151.816 383.82 152.376C382.796 152.936 381.66 153.216 380.412 153.216ZM380.412 151.296C381.196 151.296 381.932 151.112 382.62 150.744C383.308 150.376 383.86 149.824 384.276 149.088C384.708 148.352 384.924 147.456 384.924 146.4C384.924 145.344 384.716 144.448 384.3 143.712C383.884 142.976 383.34 142.432 382.668 142.08C381.996 141.712 381.268 141.528 380.484 141.528C379.684 141.528 378.948 141.712 378.276 142.08C377.62 142.432 377.092 142.976 376.692 143.712C376.292 144.448 376.092 145.344 376.092 146.4C376.092 147.472 376.284 148.376 376.668 149.112C377.068 149.848 377.596 150.4 378.252 150.768C378.908 151.12 379.628 151.296 380.412 151.296ZM392.212 135.24V153H390.028V135.24H392.212ZM407.598 139.848V153H405.414V151.056C404.998 151.728 404.414 152.256 403.662 152.64C402.926 153.008 402.11 153.192 401.214 153.192C400.19 153.192 399.27 152.984 398.454 152.568C397.638 152.136 396.99 151.496 396.51 150.648C396.046 149.8 395.814 148.768 395.814 147.552V139.848H397.974V147.264C397.974 148.56 398.302 149.56 398.958 150.264C399.614 150.952 400.51 151.296 401.646 151.296C402.814 151.296 403.734 150.936 404.406 150.216C405.078 149.496 405.414 148.448 405.414 147.072V139.848H407.598ZM413.95 141.648V149.4C413.95 150.04 414.086 150.496 414.358 150.768C414.63 151.024 415.102 151.152 415.773 151.152H417.382V153H415.414C414.198 153 413.286 152.72 412.678 152.16C412.07 151.6 411.766 150.68 411.766 149.4V141.648H410.062V139.848H411.766V136.536H413.95V139.848H417.382V141.648H413.95ZM421.156 137.712C420.74 137.712 420.388 137.568 420.1 137.28C419.812 136.992 419.668 136.64 419.668 136.224C419.668 135.808 419.812 135.456 420.1 135.168C420.388 134.88 420.74 134.736 421.156 134.736C421.556 134.736 421.892 134.88 422.164 135.168C422.452 135.456 422.596 135.808 422.596 136.224C422.596 136.64 422.452 136.992 422.164 137.28C421.892 137.568 421.556 137.712 421.156 137.712ZM422.212 139.848V153H420.028V139.848H422.212ZM431.67 153.216C430.438 153.216 429.318 152.936 428.31 152.376C427.318 151.816 426.534 151.024 425.958 150C425.398 148.96 425.118 147.76 425.118 146.4C425.118 145.056 425.406 143.872 425.982 142.848C426.574 141.808 427.374 141.016 428.382 140.472C429.39 139.912 430.518 139.632 431.766 139.632C433.014 139.632 434.142 139.912 435.15 140.472C436.158 141.016 436.95 141.8 437.526 142.824C438.118 143.848 438.414 145.04 438.414 146.4C438.414 147.76 438.11 148.96 437.502 150C436.91 151.024 436.102 151.816 435.078 152.376C434.054 152.936 432.918 153.216 431.67 153.216ZM431.67 151.296C432.454 151.296 433.19 151.112 433.878 150.744C434.566 150.376 435.118 149.824 435.534 149.088C435.966 148.352 436.182 147.456 436.182 146.4C436.182 145.344 435.974 144.448 435.558 143.712C435.142 142.976 434.598 142.432 433.926 142.08C433.254 141.712 432.526 141.528 431.742 141.528C430.942 141.528 430.206 141.712 429.534 142.08C428.878 142.432 428.35 142.976 427.95 143.712C427.55 144.448 427.35 145.344 427.35 146.4C427.35 147.472 427.542 148.376 427.926 149.112C428.326 149.848 428.854 150.4 429.51 150.768C430.166 151.12 430.886 151.296 431.67 151.296ZM447.694 139.608C449.294 139.608 450.59 140.096 451.582 141.072C452.574 142.032 453.07 143.424 453.07 145.248V153H450.91V145.56C450.91 144.248 450.582 143.248 449.926 142.56C449.27 141.856 448.374 141.504 447.238 141.504C446.086 141.504 445.166 141.864 444.478 142.584C443.806 143.304 443.47 144.352 443.47 145.728V153H441.286V139.848H443.47V141.72C443.902 141.048 444.486 140.528 445.222 140.16C445.974 139.792 446.798 139.608 447.694 139.608ZM461.293 153.216C460.285 153.216 459.381 153.048 458.581 152.712C457.781 152.36 457.149 151.88 456.685 151.272C456.221 150.648 455.965 149.936 455.917 149.136H458.173C458.237 149.792 458.541 150.328 459.085 150.744C459.645 151.16 460.373 151.368 461.269 151.368C462.101 151.368 462.757 151.184 463.237 150.816C463.717 150.448 463.957 149.984 463.957 149.424C463.957 148.848 463.701 148.424 463.189 148.152C462.677 147.864 461.885 147.584 460.813 147.312C459.837 147.056 459.037 146.8 458.413 146.544C457.805 146.272 457.277 145.88 456.829 145.368C456.397 144.84 456.181 144.152 456.181 143.304C456.181 142.632 456.381 142.016 456.781 141.456C457.181 140.896 457.749 140.456 458.485 140.136C459.221 139.8 460.061 139.632 461.005 139.632C462.461 139.632 463.637 140 464.533 140.736C465.429 141.472 465.909 142.48 465.973 143.76H463.789C463.741 143.072 463.461 142.52 462.949 142.104C462.453 141.688 461.781 141.48 460.933 141.48C460.149 141.48 459.525 141.648 459.061 141.984C458.597 142.32 458.365 142.76 458.365 143.304C458.365 143.736 458.501 144.096 458.773 144.384C459.061 144.656 459.413 144.88 459.829 145.056C460.261 145.216 460.853 145.4 461.605 145.608C462.549 145.864 463.317 146.12 463.909 146.376C464.501 146.616 465.005 146.984 465.421 147.48C465.853 147.976 466.077 148.624 466.093 149.424C466.093 150.144 465.893 150.792 465.493 151.368C465.093 151.944 464.525 152.4 463.789 152.736C463.069 153.056 462.237 153.216 461.293 153.216ZM478.239 141.648V149.4C478.239 150.04 478.375 150.496 478.647 150.768C478.919 151.024 479.391 151.152 480.063 151.152H481.671V153H479.703C478.487 153 477.575 152.72 476.967 152.16C476.359 151.6 476.055 150.68 476.055 149.4V141.648H474.351V139.848H476.055V136.536H478.239V139.848H481.671V141.648H478.239ZM490.053 153.216C488.821 153.216 487.701 152.936 486.693 152.376C485.701 151.816 484.917 151.024 484.341 150C483.781 148.96 483.501 147.76 483.501 146.4C483.501 145.056 483.789 143.872 484.365 142.848C484.957 141.808 485.757 141.016 486.765 140.472C487.773 139.912 488.901 139.632 490.149 139.632C491.397 139.632 492.525 139.912 493.533 140.472C494.541 141.016 495.333 141.8 495.909 142.824C496.501 143.848 496.797 145.04 496.797 146.4C496.797 147.76 496.493 148.96 495.885 150C495.293 151.024 494.485 151.816 493.461 152.376C492.437 152.936 491.301 153.216 490.053 153.216ZM490.053 151.296C490.837 151.296 491.573 151.112 492.261 150.744C492.949 150.376 493.501 149.824 493.917 149.088C494.349 148.352 494.565 147.456 494.565 146.4C494.565 145.344 494.357 144.448 493.941 143.712C493.525 142.976 492.981 142.432 492.309 142.08C491.637 141.712 490.909 141.528 490.125 141.528C489.325 141.528 488.589 141.712 487.917 142.08C487.261 142.432 486.733 142.976 486.333 143.712C485.933 144.448 485.733 145.344 485.733 146.4C485.733 147.472 485.925 148.376 486.309 149.112C486.709 149.848 487.237 150.4 487.893 150.768C488.549 151.12 489.269 151.296 490.053 151.296ZM521.883 139.608C522.907 139.608 523.819 139.824 524.619 140.256C525.419 140.672 526.051 141.304 526.515 142.152C526.979 143 527.211 144.032 527.211 145.248V153H525.051V145.56C525.051 144.248 524.723 143.248 524.067 142.56C523.427 141.856 522.555 141.504 521.451 141.504C520.315 141.504 519.411 141.872 518.739 142.608C518.067 143.328 517.731 144.376 517.731 145.752V153H515.571V145.56C515.571 144.248 515.243 143.248 514.587 142.56C513.947 141.856 513.075 141.504 511.971 141.504C510.835 141.504 509.931 141.872 509.259 142.608C508.587 143.328 508.251 144.376 508.251 145.752V153H506.067V139.848H508.251V141.744C508.683 141.056 509.259 140.528 509.979 140.16C510.715 139.792 511.523 139.608 512.403 139.608C513.507 139.608 514.483 139.856 515.331 140.352C516.179 140.848 516.811 141.576 517.227 142.536C517.595 141.608 518.203 140.888 519.051 140.376C519.899 139.864 520.843 139.608 521.883 139.608ZM529.977 146.376C529.977 145.032 530.249 143.856 530.793 142.848C531.337 141.824 532.081 141.032 533.025 140.472C533.985 139.912 535.049 139.632 536.217 139.632C537.369 139.632 538.369 139.88 539.217 140.376C540.065 140.872 540.697 141.496 541.113 142.248V139.848H543.321V153H541.113V150.552C540.681 151.32 540.033 151.96 539.169 152.472C538.321 152.968 537.329 153.216 536.193 153.216C535.025 153.216 533.969 152.928 533.025 152.352C532.081 151.776 531.337 150.968 530.793 149.928C530.249 148.888 529.977 147.704 529.977 146.376ZM541.113 146.4C541.113 145.408 540.913 144.544 540.513 143.808C540.113 143.072 539.569 142.512 538.881 142.128C538.209 141.728 537.465 141.528 536.649 141.528C535.833 141.528 535.089 141.72 534.417 142.104C533.745 142.488 533.209 143.048 532.809 143.784C532.409 144.52 532.209 145.384 532.209 146.376C532.209 147.384 532.409 148.264 532.809 149.016C533.209 149.752 533.745 150.32 534.417 150.72C535.089 151.104 535.833 151.296 536.649 151.296C537.465 151.296 538.209 151.104 538.881 150.72C539.569 150.32 540.113 149.752 540.513 149.016C540.913 148.264 541.113 147.392 541.113 146.4ZM553.42 139.608C555.02 139.608 556.316 140.096 557.308 141.072C558.3 142.032 558.796 143.424 558.796 145.248V153H556.636V145.56C556.636 144.248 556.308 143.248 555.652 142.56C554.996 141.856 554.1 141.504 552.964 141.504C551.812 141.504 550.892 141.864 550.204 142.584C549.532 143.304 549.196 144.352 549.196 145.728V153H547.012V139.848H549.196V141.72C549.628 141.048 550.212 140.528 550.948 140.16C551.7 139.792 552.524 139.608 553.42 139.608ZM573.692 139.848L565.772 159.192H563.516L566.108 152.856L560.804 139.848H563.228L567.356 150.504L571.436 139.848H573.692ZM96.032 182.376C96.032 181.032 96.304 179.856 96.848 178.848C97.392 177.824 98.136 177.032 99.08 176.472C100.04 175.912 101.112 175.632 102.296 175.632C103.32 175.632 104.272 175.872 105.152 176.352C106.032 176.816 106.704 177.432 107.168 178.2V171.24H109.376V189H107.168V186.528C106.736 187.312 106.096 187.96 105.248 188.472C104.4 188.968 103.408 189.216 102.272 189.216C101.104 189.216 100.04 188.928 99.08 188.352C98.136 187.776 97.392 186.968 96.848 185.928C96.304 184.888 96.032 183.704 96.032 182.376ZM107.168 182.4C107.168 181.408 106.968 180.544 106.568 179.808C106.168 179.072 105.624 178.512 104.936 178.128C104.264 177.728 103.52 177.528 102.704 177.528C101.888 177.528 101.144 177.72 100.472 178.104C99.8 178.488 99.264 179.048 98.864 179.784C98.464 180.52 98.264 181.384 98.264 182.376C98.264 183.384 98.464 184.264 98.864 185.016C99.264 185.752 99.8 186.32 100.472 186.72C101.144 187.104 101.888 187.296 102.704 187.296C103.52 187.296 104.264 187.104 104.936 186.72C105.624 186.32 106.168 185.752 106.568 185.016C106.968 184.264 107.168 183.392 107.168 182.4ZM114.195 173.712C113.779 173.712 113.427 173.568 113.139 173.28C112.851 172.992 112.707 172.64 112.707 172.224C112.707 171.808 112.851 171.456 113.139 171.168C113.427 170.88 113.779 170.736 114.195 170.736C114.595 170.736 114.931 170.88 115.203 171.168C115.491 171.456 115.635 171.808 115.635 172.224C115.635 172.64 115.491 172.992 115.203 173.28C114.931 173.568 114.595 173.712 114.195 173.712ZM115.251 175.848V189H113.067V175.848H115.251ZM124.325 177.648H121.565V189H119.381V177.648H117.677V175.848H119.381V174.912C119.381 173.44 119.757 172.368 120.509 171.696C121.277 171.008 122.501 170.664 124.181 170.664V172.488C123.221 172.488 122.541 172.68 122.141 173.064C121.757 173.432 121.565 174.048 121.565 174.912V175.848H124.325V177.648ZM132.223 177.648H129.463V189H127.279V177.648H125.575V175.848H127.279V174.912C127.279 173.44 127.655 172.368 128.407 171.696C129.175 171.008 130.399 170.664 132.079 170.664V172.488C131.119 172.488 130.439 172.68 130.039 173.064C129.655 173.432 129.463 174.048 129.463 174.912V175.848H132.223V177.648ZM146.77 181.92C146.77 182.336 146.746 182.776 146.698 183.24H136.186C136.266 184.536 136.706 185.552 137.506 186.288C138.322 187.008 139.306 187.368 140.458 187.368C141.402 187.368 142.186 187.152 142.81 186.72C143.45 186.272 143.898 185.68 144.154 184.944H146.506C146.154 186.208 145.45 187.24 144.394 188.04C143.338 188.824 142.026 189.216 140.458 189.216C139.21 189.216 138.09 188.936 137.098 188.376C136.122 187.816 135.354 187.024 134.794 186C134.234 184.96 133.954 183.76 133.954 182.4C133.954 181.04 134.226 179.848 134.77 178.824C135.314 177.8 136.074 177.016 137.05 176.472C138.042 175.912 139.178 175.632 140.458 175.632C141.706 175.632 142.81 175.904 143.77 176.448C144.73 176.992 145.466 177.744 145.978 178.704C146.506 179.648 146.77 180.72 146.77 181.92ZM144.514 181.464C144.514 180.632 144.33 179.92 143.962 179.328C143.594 178.72 143.09 178.264 142.45 177.96C141.826 177.64 141.13 177.48 140.362 177.48C139.258 177.48 138.314 177.832 137.53 178.536C136.762 179.24 136.322 180.216 136.21 181.464H144.514ZM151.837 177.984C152.221 177.232 152.765 176.648 153.469 176.232C154.189 175.816 155.061 175.608 156.085 175.608V177.864H155.509C153.061 177.864 151.837 179.192 151.837 181.848V189H149.653V175.848H151.837V177.984ZM170.606 181.92C170.606 182.336 170.582 182.776 170.534 183.24H160.022C160.102 184.536 160.542 185.552 161.342 186.288C162.158 187.008 163.142 187.368 164.294 187.368C165.238 187.368 166.022 187.152 166.646 186.72C167.286 186.272 167.734 185.68 167.99 184.944H170.342C169.99 186.208 169.286 187.24 168.23 188.04C167.174 188.824 165.862 189.216 164.294 189.216C163.046 189.216 161.926 188.936 160.934 188.376C159.958 187.816 159.19 187.024 158.63 186C158.07 184.96 157.79 183.76 157.79 182.4C157.79 181.04 158.062 179.848 158.606 178.824C159.15 177.8 159.91 177.016 160.886 176.472C161.878 175.912 163.014 175.632 164.294 175.632C165.542 175.632 166.646 175.904 167.606 176.448C168.566 176.992 169.302 177.744 169.814 178.704C170.342 179.648 170.606 180.72 170.606 181.92ZM168.35 181.464C168.35 180.632 168.166 179.92 167.798 179.328C167.43 178.72 166.926 178.264 166.286 177.96C165.662 177.64 164.966 177.48 164.198 177.48C163.094 177.48 162.15 177.832 161.366 178.536C160.598 179.24 160.158 180.216 160.046 181.464H168.35ZM179.897 175.608C181.497 175.608 182.793 176.096 183.785 177.072C184.777 178.032 185.273 179.424 185.273 181.248V189H183.113V181.56C183.113 180.248 182.785 179.248 182.129 178.56C181.473 177.856 180.577 177.504 179.441 177.504C178.289 177.504 177.369 177.864 176.681 178.584C176.009 179.304 175.673 180.352 175.673 181.728V189H173.489V175.848H175.673V177.72C176.105 177.048 176.689 176.528 177.425 176.16C178.177 175.792 179.001 175.608 179.897 175.608ZM191.504 177.648V185.4C191.504 186.04 191.64 186.496 191.912 186.768C192.184 187.024 192.656 187.152 193.328 187.152H194.936V189H192.968C191.752 189 190.84 188.72 190.232 188.16C189.624 187.6 189.32 186.68 189.32 185.4V177.648H187.616V175.848H189.32V172.536H191.504V175.848H194.936V177.648H191.504ZM208.637 189.216C207.629 189.216 206.725 189.048 205.925 188.712C205.125 188.36 204.493 187.88 204.029 187.272C203.565 186.648 203.309 185.936 203.261 185.136H205.517C205.581 185.792 205.885 186.328 206.429 186.744C206.989 187.16 207.717 187.368 208.613 187.368C209.445 187.368 210.101 187.184 210.581 186.816C211.061 186.448 211.301 185.984 211.301 185.424C211.301 184.848 211.045 184.424 210.533 184.152C210.021 183.864 209.229 183.584 208.157 183.312C207.181 183.056 206.381 182.8 205.757 182.544C205.149 182.272 204.621 181.88 204.173 181.368C203.741 180.84 203.525 180.152 203.525 179.304C203.525 178.632 203.725 178.016 204.125 177.456C204.525 176.896 205.093 176.456 205.829 176.136C206.565 175.8 207.405 175.632 208.349 175.632C209.805 175.632 210.981 176 211.877 176.736C212.773 177.472 213.253 178.48 213.317 179.76H211.133C211.085 179.072 210.805 178.52 210.293 178.104C209.797 177.688 209.125 177.48 208.277 177.48C207.493 177.48 206.869 177.648 206.405 177.984C205.941 178.32 205.709 178.76 205.709 179.304C205.709 179.736 205.845 180.096 206.117 180.384C206.405 180.656 206.757 180.88 207.173 181.056C207.605 181.216 208.197 181.4 208.949 181.608C209.893 181.864 210.661 182.12 211.253 182.376C211.845 182.616 212.349 182.984 212.765 183.48C213.197 183.976 213.421 184.624 213.437 185.424C213.437 186.144 213.237 186.792 212.837 187.368C212.437 187.944 211.869 188.4 211.133 188.736C210.413 189.056 209.581 189.216 208.637 189.216ZM219.184 177.648V185.4C219.184 186.04 219.32 186.496 219.592 186.768C219.864 187.024 220.336 187.152 221.008 187.152H222.616V189H220.648C219.432 189 218.52 188.72 217.912 188.16C217.304 187.6 217 186.68 217 185.4V177.648H215.296V175.848H217V172.536H219.184V175.848H222.616V177.648H219.184ZM224.446 182.376C224.446 181.032 224.718 179.856 225.262 178.848C225.806 177.824 226.55 177.032 227.494 176.472C228.454 175.912 229.518 175.632 230.686 175.632C231.838 175.632 232.838 175.88 233.686 176.376C234.534 176.872 235.166 177.496 235.582 178.248V175.848H237.79V189H235.582V186.552C235.15 187.32 234.502 187.96 233.638 188.472C232.79 188.968 231.798 189.216 230.662 189.216C229.494 189.216 228.438 188.928 227.494 188.352C226.55 187.776 225.806 186.968 225.262 185.928C224.718 184.888 224.446 183.704 224.446 182.376ZM235.582 182.4C235.582 181.408 235.382 180.544 234.982 179.808C234.582 179.072 234.038 178.512 233.35 178.128C232.678 177.728 231.934 177.528 231.118 177.528C230.302 177.528 229.558 177.72 228.886 178.104C228.214 178.488 227.678 179.048 227.278 179.784C226.878 180.52 226.678 181.384 226.678 182.376C226.678 183.384 226.878 184.264 227.278 185.016C227.678 185.752 228.214 186.32 228.886 186.72C229.558 187.104 230.302 187.296 231.118 187.296C231.934 187.296 232.678 187.104 233.35 186.72C234.038 186.32 234.582 185.752 234.982 185.016C235.382 184.264 235.582 183.392 235.582 182.4ZM248.825 189L243.665 183.192V189H241.481V171.24H243.665V181.68L248.729 175.848H251.777L245.585 182.4L251.801 189H248.825ZM265.832 181.92C265.832 182.336 265.808 182.776 265.76 183.24H255.248C255.328 184.536 255.768 185.552 256.568 186.288C257.384 187.008 258.368 187.368 259.52 187.368C260.464 187.368 261.248 187.152 261.872 186.72C262.512 186.272 262.96 185.68 263.216 184.944H265.568C265.216 186.208 264.512 187.24 263.456 188.04C262.4 188.824 261.088 189.216 259.52 189.216C258.272 189.216 257.152 188.936 256.16 188.376C255.184 187.816 254.416 187.024 253.856 186C253.296 184.96 253.016 183.76 253.016 182.4C253.016 181.04 253.288 179.848 253.832 178.824C254.376 177.8 255.136 177.016 256.112 176.472C257.104 175.912 258.24 175.632 259.52 175.632C260.768 175.632 261.872 175.904 262.832 176.448C263.792 176.992 264.528 177.744 265.04 178.704C265.568 179.648 265.832 180.72 265.832 181.92ZM263.576 181.464C263.576 180.632 263.392 179.92 263.024 179.328C262.656 178.72 262.152 178.264 261.512 177.96C260.888 177.64 260.192 177.48 259.424 177.48C258.32 177.48 257.376 177.832 256.592 178.536C255.824 179.24 255.384 180.216 255.272 181.464H263.576ZM275.243 175.608C276.235 175.608 277.131 175.824 277.931 176.256C278.731 176.672 279.355 177.304 279.803 178.152C280.267 179 280.499 180.032 280.499 181.248V189H278.339V181.56C278.339 180.248 278.011 179.248 277.355 178.56C276.699 177.856 275.803 177.504 274.667 177.504C273.515 177.504 272.595 177.864 271.907 178.584C271.235 179.304 270.899 180.352 270.899 181.728V189H268.715V171.24H270.899V177.72C271.331 177.048 271.923 176.528 272.675 176.16C273.443 175.792 274.299 175.608 275.243 175.608ZM289.803 189.216C288.571 189.216 287.451 188.936 286.443 188.376C285.451 187.816 284.667 187.024 284.091 186C283.531 184.96 283.251 183.76 283.251 182.4C283.251 181.056 283.539 179.872 284.115 178.848C284.707 177.808 285.507 177.016 286.515 176.472C287.523 175.912 288.651 175.632 289.899 175.632C291.147 175.632 292.275 175.912 293.283 176.472C294.291 177.016 295.083 177.8 295.659 178.824C296.251 179.848 296.547 181.04 296.547 182.4C296.547 183.76 296.243 184.96 295.635 186C295.043 187.024 294.235 187.816 293.211 188.376C292.187 188.936 291.051 189.216 289.803 189.216ZM289.803 187.296C290.587 187.296 291.323 187.112 292.011 186.744C292.699 186.376 293.251 185.824 293.667 185.088C294.099 184.352 294.315 183.456 294.315 182.4C294.315 181.344 294.107 180.448 293.691 179.712C293.275 178.976 292.731 178.432 292.059 178.08C291.387 177.712 290.659 177.528 289.875 177.528C289.075 177.528 288.339 177.712 287.667 178.08C287.011 178.432 286.483 178.976 286.083 179.712C285.683 180.448 285.483 181.344 285.483 182.4C285.483 183.472 285.675 184.376 286.059 185.112C286.459 185.848 286.987 186.4 287.643 186.768C288.299 187.12 289.019 187.296 289.803 187.296ZM301.602 171.24V189H299.418V171.24H301.602ZM304.509 182.376C304.509 181.032 304.781 179.856 305.325 178.848C305.869 177.824 306.613 177.032 307.557 176.472C308.517 175.912 309.589 175.632 310.773 175.632C311.797 175.632 312.749 175.872 313.629 176.352C314.509 176.816 315.181 177.432 315.645 178.2V171.24H317.853V189H315.645V186.528C315.213 187.312 314.573 187.96 313.725 188.472C312.877 188.968 311.885 189.216 310.749 189.216C309.581 189.216 308.517 188.928 307.557 188.352C306.613 187.776 305.869 186.968 305.325 185.928C304.781 184.888 304.509 183.704 304.509 182.376ZM315.645 182.4C315.645 181.408 315.445 180.544 315.045 179.808C314.645 179.072 314.101 178.512 313.413 178.128C312.741 177.728 311.997 177.528 311.181 177.528C310.365 177.528 309.621 177.72 308.949 178.104C308.277 178.488 307.741 179.048 307.341 179.784C306.941 180.52 306.741 181.384 306.741 182.376C306.741 183.384 306.941 184.264 307.341 185.016C307.741 185.752 308.277 186.32 308.949 186.72C309.621 187.104 310.365 187.296 311.181 187.296C311.997 187.296 312.741 187.104 313.413 186.72C314.101 186.32 314.645 185.752 315.045 185.016C315.445 184.264 315.645 183.392 315.645 182.4ZM333.543 181.92C333.543 182.336 333.519 182.776 333.471 183.24H322.959C323.039 184.536 323.479 185.552 324.279 186.288C325.095 187.008 326.079 187.368 327.231 187.368C328.175 187.368 328.959 187.152 329.583 186.72C330.223 186.272 330.671 185.68 330.927 184.944H333.279C332.927 186.208 332.223 187.24 331.167 188.04C330.111 188.824 328.799 189.216 327.231 189.216C325.983 189.216 324.863 188.936 323.871 188.376C322.895 187.816 322.127 187.024 321.567 186C321.007 184.96 320.727 183.76 320.727 182.4C320.727 181.04 320.999 179.848 321.543 178.824C322.087 177.8 322.847 177.016 323.823 176.472C324.815 175.912 325.951 175.632 327.231 175.632C328.479 175.632 329.583 175.904 330.543 176.448C331.503 176.992 332.239 177.744 332.751 178.704C333.279 179.648 333.543 180.72 333.543 181.92ZM331.287 181.464C331.287 180.632 331.103 179.92 330.735 179.328C330.367 178.72 329.863 178.264 329.223 177.96C328.599 177.64 327.903 177.48 327.135 177.48C326.031 177.48 325.087 177.832 324.303 178.536C323.535 179.24 323.095 180.216 322.983 181.464H331.287ZM338.61 177.984C338.994 177.232 339.538 176.648 340.242 176.232C340.962 175.816 341.834 175.608 342.858 175.608V177.864H342.282C339.834 177.864 338.61 179.192 338.61 181.848V189H336.426V175.848H338.61V177.984ZM350.035 189.216C349.027 189.216 348.123 189.048 347.323 188.712C346.523 188.36 345.891 187.88 345.427 187.272C344.963 186.648 344.707 185.936 344.659 185.136H346.915C346.979 185.792 347.283 186.328 347.827 186.744C348.387 187.16 349.115 187.368 350.011 187.368C350.843 187.368 351.499 187.184 351.979 186.816C352.459 186.448 352.699 185.984 352.699 185.424C352.699 184.848 352.443 184.424 351.931 184.152C351.419 183.864 350.627 183.584 349.555 183.312C348.579 183.056 347.779 182.8 347.155 182.544C346.547 182.272 346.019 181.88 345.571 181.368C345.139 180.84 344.923 180.152 344.923 179.304C344.923 178.632 345.123 178.016 345.523 177.456C345.923 176.896 346.491 176.456 347.227 176.136C347.963 175.8 348.803 175.632 349.747 175.632C351.203 175.632 352.379 176 353.275 176.736C354.171 177.472 354.651 178.48 354.715 179.76H352.531C352.483 179.072 352.203 178.52 351.691 178.104C351.195 177.688 350.523 177.48 349.675 177.48C348.891 177.48 348.267 177.648 347.803 177.984C347.339 178.32 347.107 178.76 347.107 179.304C347.107 179.736 347.243 180.096 347.515 180.384C347.803 180.656 348.155 180.88 348.571 181.056C349.003 181.216 349.595 181.4 350.347 181.608C351.291 181.864 352.059 182.12 352.651 182.376C353.243 182.616 353.747 182.984 354.163 183.48C354.595 183.976 354.819 184.624 354.835 185.424C354.835 186.144 354.635 186.792 354.235 187.368C353.835 187.944 353.267 188.4 352.531 188.736C351.811 189.056 350.979 189.216 350.035 189.216ZM76.9747 219.936C76.1587 219.936 75.4627 219.656 74.8867 219.096C74.3267 218.52 74.0467 217.824 74.0467 217.008C74.0467 216.176 74.3267 215.48 74.8867 214.92C75.4627 214.344 76.1587 214.056 76.9747 214.056C77.8067 214.056 78.5107 214.344 79.0867 214.92C79.6627 215.48 79.9507 216.176 79.9507 217.008C79.9507 217.824 79.6627 218.52 79.0867 219.096C78.5107 219.656 77.8067 219.936 76.9747 219.936ZM99.032 210.048V215.64H105.128V217.44H99.032V223.2H105.848V225H96.848V208.248H105.848V210.048H99.032ZM116.017 225L112.897 220.104L109.897 225H107.617L111.865 218.472L107.617 211.848H110.089L113.209 216.72L116.185 211.848H118.465L114.241 218.352L118.489 225H116.017ZM122.821 214.272C123.253 213.52 123.893 212.896 124.741 212.4C125.605 211.888 126.605 211.632 127.741 211.632C128.909 211.632 129.965 211.912 130.909 212.472C131.869 213.032 132.621 213.824 133.165 214.848C133.709 215.856 133.981 217.032 133.981 218.376C133.981 219.704 133.709 220.888 133.165 221.928C132.621 222.968 131.869 223.776 130.909 224.352C129.965 224.928 128.909 225.216 127.741 225.216C126.621 225.216 125.629 224.968 124.765 224.472C123.917 223.96 123.269 223.328 122.821 222.576V231.24H120.637V211.848H122.821V214.272ZM131.749 218.376C131.749 217.384 131.549 216.52 131.149 215.784C130.749 215.048 130.205 214.488 129.517 214.104C128.845 213.72 128.101 213.528 127.285 213.528C126.485 213.528 125.741 213.728 125.053 214.128C124.381 214.512 123.837 215.08 123.421 215.832C123.021 216.568 122.821 217.424 122.821 218.4C122.821 219.392 123.021 220.264 123.421 221.016C123.837 221.752 124.381 222.32 125.053 222.72C125.741 223.104 126.485 223.296 127.285 223.296C128.101 223.296 128.845 223.104 129.517 222.72C130.205 222.32 130.749 221.752 131.149 221.016C131.549 220.264 131.749 219.384 131.749 218.376ZM139.04 213.984C139.424 213.232 139.968 212.648 140.672 212.232C141.392 211.816 142.264 211.608 143.288 211.608V213.864H142.712C140.264 213.864 139.04 215.192 139.04 217.848V225H136.856V211.848H139.04V213.984ZM157.809 217.92C157.809 218.336 157.785 218.776 157.737 219.24H147.225C147.305 220.536 147.745 221.552 148.545 222.288C149.361 223.008 150.345 223.368 151.497 223.368C152.441 223.368 153.225 223.152 153.849 222.72C154.489 222.272 154.937 221.68 155.193 220.944H157.545C157.193 222.208 156.489 223.24 155.433 224.04C154.377 224.824 153.065 225.216 151.497 225.216C150.249 225.216 149.129 224.936 148.137 224.376C147.161 223.816 146.393 223.024 145.833 222C145.273 220.96 144.993 219.76 144.993 218.4C144.993 217.04 145.265 215.848 145.809 214.824C146.353 213.8 147.113 213.016 148.089 212.472C149.081 211.912 150.217 211.632 151.497 211.632C152.745 211.632 153.849 211.904 154.809 212.448C155.769 212.992 156.505 213.744 157.017 214.704C157.545 215.648 157.809 216.72 157.809 217.92ZM155.553 217.464C155.553 216.632 155.369 215.92 155.001 215.328C154.633 214.72 154.129 214.264 153.489 213.96C152.865 213.64 152.169 213.48 151.401 213.48C150.297 213.48 149.353 213.832 148.569 214.536C147.801 215.24 147.361 216.216 147.249 217.464H155.553ZM165.348 225.216C164.34 225.216 163.436 225.048 162.636 224.712C161.836 224.36 161.204 223.88 160.74 223.272C160.276 222.648 160.02 221.936 159.972 221.136H162.228C162.292 221.792 162.596 222.328 163.14 222.744C163.7 223.16 164.428 223.368 165.324 223.368C166.156 223.368 166.812 223.184 167.292 222.816C167.772 222.448 168.012 221.984 168.012 221.424C168.012 220.848 167.756 220.424 167.244 220.152C166.732 219.864 165.94 219.584 164.868 219.312C163.892 219.056 163.092 218.8 162.468 218.544C161.86 218.272 161.332 217.88 160.884 217.368C160.452 216.84 160.236 216.152 160.236 215.304C160.236 214.632 160.436 214.016 160.836 213.456C161.236 212.896 161.804 212.456 162.54 212.136C163.276 211.8 164.116 211.632 165.06 211.632C166.516 211.632 167.692 212 168.588 212.736C169.484 213.472 169.964 214.48 170.028 215.76H167.844C167.796 215.072 167.516 214.52 167.004 214.104C166.508 213.688 165.836 213.48 164.988 213.48C164.204 213.48 163.58 213.648 163.116 213.984C162.652 214.32 162.42 214.76 162.42 215.304C162.42 215.736 162.556 216.096 162.828 216.384C163.116 216.656 163.468 216.88 163.884 217.056C164.316 217.216 164.908 217.4 165.66 217.608C166.604 217.864 167.372 218.12 167.964 218.376C168.556 218.616 169.06 218.984 169.476 219.48C169.908 219.976 170.132 220.624 170.148 221.424C170.148 222.144 169.948 222.792 169.548 223.368C169.148 223.944 168.58 224.4 167.844 224.736C167.124 225.056 166.292 225.216 165.348 225.216ZM177.887 225.216C176.879 225.216 175.975 225.048 175.175 224.712C174.375 224.36 173.743 223.88 173.279 223.272C172.815 222.648 172.559 221.936 172.511 221.136H174.767C174.831 221.792 175.135 222.328 175.679 222.744C176.239 223.16 176.967 223.368 177.863 223.368C178.695 223.368 179.351 223.184 179.831 222.816C180.311 222.448 180.551 221.984 180.551 221.424C180.551 220.848 180.295 220.424 179.783 220.152C179.271 219.864 178.479 219.584 177.407 219.312C176.431 219.056 175.631 218.8 175.007 218.544C174.399 218.272 173.871 217.88 173.423 217.368C172.991 216.84 172.775 216.152 172.775 215.304C172.775 214.632 172.975 214.016 173.375 213.456C173.775 212.896 174.343 212.456 175.079 212.136C175.815 211.8 176.655 211.632 177.599 211.632C179.055 211.632 180.231 212 181.127 212.736C182.023 213.472 182.503 214.48 182.567 215.76H180.383C180.335 215.072 180.055 214.52 179.543 214.104C179.047 213.688 178.375 213.48 177.527 213.48C176.743 213.48 176.119 213.648 175.655 213.984C175.191 214.32 174.959 214.76 174.959 215.304C174.959 215.736 175.095 216.096 175.367 216.384C175.655 216.656 176.007 216.88 176.423 217.056C176.855 217.216 177.447 217.4 178.199 217.608C179.143 217.864 179.911 218.12 180.503 218.376C181.095 218.616 181.599 218.984 182.015 219.48C182.447 219.976 182.671 220.624 182.687 221.424C182.687 222.144 182.487 222.792 182.087 223.368C181.687 223.944 181.119 224.4 180.383 224.736C179.663 225.056 178.831 225.216 177.887 225.216ZM186.898 209.712C186.482 209.712 186.13 209.568 185.842 209.28C185.554 208.992 185.41 208.64 185.41 208.224C185.41 207.808 185.554 207.456 185.842 207.168C186.13 206.88 186.482 206.736 186.898 206.736C187.298 206.736 187.634 206.88 187.906 207.168C188.194 207.456 188.338 207.808 188.338 208.224C188.338 208.64 188.194 208.992 187.906 209.28C187.634 209.568 187.298 209.712 186.898 209.712ZM187.954 211.848V225H185.77V211.848H187.954ZM198.084 211.608C199.684 211.608 200.98 212.096 201.972 213.072C202.964 214.032 203.46 215.424 203.46 217.248V225H201.3V217.56C201.3 216.248 200.972 215.248 200.316 214.56C199.66 213.856 198.764 213.504 197.628 213.504C196.476 213.504 195.556 213.864 194.868 214.584C194.196 215.304 193.86 216.352 193.86 217.728V225H191.676V211.848H193.86V213.72C194.292 213.048 194.876 212.528 195.612 212.16C196.364 211.792 197.188 211.608 198.084 211.608ZM212.452 211.632C213.588 211.632 214.58 211.88 215.428 212.376C216.292 212.872 216.932 213.496 217.348 214.248V211.848H219.556V225.288C219.556 226.488 219.3 227.552 218.788 228.48C218.276 229.424 217.54 230.16 216.58 230.688C215.636 231.216 214.532 231.48 213.268 231.48C211.54 231.48 210.1 231.072 208.948 230.256C207.796 229.44 207.116 228.328 206.908 226.92H209.068C209.308 227.72 209.804 228.36 210.556 228.84C211.308 229.336 212.212 229.584 213.268 229.584C214.468 229.584 215.444 229.208 216.196 228.456C216.964 227.704 217.348 226.648 217.348 225.288V222.528C216.916 223.296 216.276 223.936 215.428 224.448C214.58 224.96 213.588 225.216 212.452 225.216C211.284 225.216 210.22 224.928 209.26 224.352C208.316 223.776 207.572 222.968 207.028 221.928C206.484 220.888 206.212 219.704 206.212 218.376C206.212 217.032 206.484 215.856 207.028 214.848C207.572 213.824 208.316 213.032 209.26 212.472C210.22 211.912 211.284 211.632 212.452 211.632ZM217.348 218.4C217.348 217.408 217.148 216.544 216.748 215.808C216.348 215.072 215.804 214.512 215.116 214.128C214.444 213.728 213.7 213.528 212.884 213.528C212.068 213.528 211.324 213.72 210.652 214.104C209.98 214.488 209.444 215.048 209.044 215.784C208.644 216.52 208.444 217.384 208.444 218.376C208.444 219.384 208.644 220.264 209.044 221.016C209.444 221.752 209.98 222.32 210.652 222.72C211.324 223.104 212.068 223.296 212.884 223.296C213.7 223.296 214.444 223.104 215.116 222.72C215.804 222.32 216.348 221.752 216.748 221.016C217.148 220.264 217.348 219.392 217.348 218.4ZM245.461 211.608C246.485 211.608 247.397 211.824 248.197 212.256C248.997 212.672 249.629 213.304 250.093 214.152C250.557 215 250.789 216.032 250.789 217.248V225H248.629V217.56C248.629 216.248 248.301 215.248 247.645 214.56C247.005 213.856 246.133 213.504 245.029 213.504C243.893 213.504 242.989 213.872 242.317 214.608C241.645 215.328 241.309 216.376 241.309 217.752V225H239.149V217.56C239.149 216.248 238.821 215.248 238.165 214.56C237.525 213.856 236.653 213.504 235.549 213.504C234.413 213.504 233.509 213.872 232.837 214.608C232.165 215.328 231.829 216.376 231.829 217.752V225H229.645V211.848H231.829V213.744C232.261 213.056 232.837 212.528 233.557 212.16C234.293 211.792 235.101 211.608 235.981 211.608C237.085 211.608 238.061 211.856 238.909 212.352C239.757 212.848 240.389 213.576 240.805 214.536C241.173 213.608 241.781 212.888 242.629 212.376C243.477 211.864 244.421 211.608 245.461 211.608ZM265.699 211.848L257.779 231.192H255.523L258.115 224.856L252.811 211.848H255.235L259.363 222.504L263.443 211.848H265.699ZM275.421 209.712C275.005 209.712 274.653 209.568 274.365 209.28C274.077 208.992 273.933 208.64 273.933 208.224C273.933 207.808 274.077 207.456 274.365 207.168C274.653 206.88 275.005 206.736 275.421 206.736C275.821 206.736 276.157 206.88 276.429 207.168C276.717 207.456 276.861 207.808 276.861 208.224C276.861 208.64 276.717 208.992 276.429 209.28C276.157 209.568 275.821 209.712 275.421 209.712ZM276.477 211.848V225H274.293V211.848H276.477ZM279.384 218.376C279.384 217.032 279.656 215.856 280.2 214.848C280.744 213.824 281.488 213.032 282.432 212.472C283.392 211.912 284.464 211.632 285.648 211.632C286.672 211.632 287.624 211.872 288.504 212.352C289.384 212.816 290.056 213.432 290.52 214.2V207.24H292.728V225H290.52V222.528C290.088 223.312 289.448 223.96 288.6 224.472C287.752 224.968 286.76 225.216 285.624 225.216C284.456 225.216 283.392 224.928 282.432 224.352C281.488 223.776 280.744 222.968 280.2 221.928C279.656 220.888 279.384 219.704 279.384 218.376ZM290.52 218.4C290.52 217.408 290.32 216.544 289.92 215.808C289.52 215.072 288.976 214.512 288.288 214.128C287.616 213.728 286.872 213.528 286.056 213.528C285.24 213.528 284.496 213.72 283.824 214.104C283.152 214.488 282.616 215.048 282.216 215.784C281.816 216.52 281.616 217.384 281.616 218.376C281.616 219.384 281.816 220.264 282.216 221.016C282.616 221.752 283.152 222.32 283.824 222.72C284.496 223.104 285.24 223.296 286.056 223.296C286.872 223.296 287.616 223.104 288.288 222.72C288.976 222.32 289.52 221.752 289.92 221.016C290.32 220.264 290.52 219.392 290.52 218.4ZM308.418 217.92C308.418 218.336 308.394 218.776 308.346 219.24H297.834C297.914 220.536 298.354 221.552 299.154 222.288C299.97 223.008 300.954 223.368 302.106 223.368C303.05 223.368 303.834 223.152 304.458 222.72C305.098 222.272 305.546 221.68 305.802 220.944H308.154C307.802 222.208 307.098 223.24 306.042 224.04C304.986 224.824 303.674 225.216 302.106 225.216C300.858 225.216 299.738 224.936 298.746 224.376C297.77 223.816 297.002 223.024 296.442 222C295.882 220.96 295.602 219.76 295.602 218.4C295.602 217.04 295.874 215.848 296.418 214.824C296.962 213.8 297.722 213.016 298.698 212.472C299.69 211.912 300.826 211.632 302.106 211.632C303.354 211.632 304.458 211.904 305.418 212.448C306.378 212.992 307.114 213.744 307.626 214.704C308.154 215.648 308.418 216.72 308.418 217.92ZM306.162 217.464C306.162 216.632 305.978 215.92 305.61 215.328C305.242 214.72 304.738 214.264 304.098 213.96C303.474 213.64 302.778 213.48 302.01 213.48C300.906 213.48 299.962 213.832 299.178 214.536C298.41 215.24 297.97 216.216 297.858 217.464H306.162ZM310.485 218.376C310.485 217.032 310.757 215.856 311.301 214.848C311.845 213.824 312.589 213.032 313.533 212.472C314.493 211.912 315.557 211.632 316.725 211.632C317.877 211.632 318.877 211.88 319.725 212.376C320.573 212.872 321.205 213.496 321.621 214.248V211.848H323.829V225H321.621V222.552C321.189 223.32 320.541 223.96 319.677 224.472C318.829 224.968 317.837 225.216 316.701 225.216C315.533 225.216 314.477 224.928 313.533 224.352C312.589 223.776 311.845 222.968 311.301 221.928C310.757 220.888 310.485 219.704 310.485 218.376ZM321.621 218.4C321.621 217.408 321.421 216.544 321.021 215.808C320.621 215.072 320.077 214.512 319.389 214.128C318.717 213.728 317.973 213.528 317.157 213.528C316.341 213.528 315.597 213.72 314.925 214.104C314.253 214.488 313.717 215.048 313.317 215.784C312.917 216.52 312.717 217.384 312.717 218.376C312.717 219.384 312.917 220.264 313.317 221.016C313.717 221.752 314.253 222.32 314.925 222.72C315.597 223.104 316.341 223.296 317.157 223.296C317.973 223.296 318.717 223.104 319.389 222.72C320.077 222.32 320.621 221.752 321.021 221.016C321.421 220.264 321.621 219.392 321.621 218.4ZM332.176 225.216C331.168 225.216 330.264 225.048 329.464 224.712C328.664 224.36 328.032 223.88 327.568 223.272C327.104 222.648 326.848 221.936 326.8 221.136H329.056C329.12 221.792 329.424 222.328 329.968 222.744C330.528 223.16 331.256 223.368 332.152 223.368C332.984 223.368 333.64 223.184 334.12 222.816C334.6 222.448 334.84 221.984 334.84 221.424C334.84 220.848 334.584 220.424 334.072 220.152C333.56 219.864 332.768 219.584 331.696 219.312C330.72 219.056 329.92 218.8 329.296 218.544C328.688 218.272 328.16 217.88 327.712 217.368C327.28 216.84 327.064 216.152 327.064 215.304C327.064 214.632 327.264 214.016 327.664 213.456C328.064 212.896 328.632 212.456 329.368 212.136C330.104 211.8 330.944 211.632 331.888 211.632C333.344 211.632 334.52 212 335.416 212.736C336.312 213.472 336.792 214.48 336.856 215.76H334.672C334.624 215.072 334.344 214.52 333.832 214.104C333.336 213.688 332.664 213.48 331.816 213.48C331.032 213.48 330.408 213.648 329.944 213.984C329.48 214.32 329.248 214.76 329.248 215.304C329.248 215.736 329.384 216.096 329.656 216.384C329.944 216.656 330.296 216.88 330.712 217.056C331.144 217.216 331.736 217.4 332.488 217.608C333.432 217.864 334.2 218.12 334.792 218.376C335.384 218.616 335.888 218.984 336.304 219.48C336.736 219.976 336.96 220.624 336.976 221.424C336.976 222.144 336.776 222.792 336.376 223.368C335.976 223.944 335.408 224.4 334.672 224.736C333.952 225.056 333.12 225.216 332.176 225.216ZM345.641 218.376C345.641 217.032 345.913 215.856 346.457 214.848C347.001 213.824 347.745 213.032 348.689 212.472C349.649 211.912 350.713 211.632 351.881 211.632C353.033 211.632 354.033 211.88 354.881 212.376C355.729 212.872 356.361 213.496 356.777 214.248V211.848H358.985V225H356.777V222.552C356.345 223.32 355.697 223.96 354.833 224.472C353.985 224.968 352.993 225.216 351.857 225.216C350.689 225.216 349.633 224.928 348.689 224.352C347.745 223.776 347.001 222.968 346.457 221.928C345.913 220.888 345.641 219.704 345.641 218.376ZM356.777 218.4C356.777 217.408 356.577 216.544 356.177 215.808C355.777 215.072 355.233 214.512 354.545 214.128C353.873 213.728 353.129 213.528 352.313 213.528C351.497 213.528 350.753 213.72 350.081 214.104C349.409 214.488 348.873 215.048 348.473 215.784C348.073 216.52 347.873 217.384 347.873 218.376C347.873 219.384 348.073 220.264 348.473 221.016C348.873 221.752 349.409 222.32 350.081 222.72C350.753 223.104 351.497 223.296 352.313 223.296C353.129 223.296 353.873 223.104 354.545 222.72C355.233 222.32 355.777 221.752 356.177 221.016C356.577 220.264 356.777 219.392 356.777 218.4ZM369.084 211.608C370.684 211.608 371.98 212.096 372.972 213.072C373.964 214.032 374.46 215.424 374.46 217.248V225H372.3V217.56C372.3 216.248 371.972 215.248 371.316 214.56C370.66 213.856 369.764 213.504 368.628 213.504C367.476 213.504 366.556 213.864 365.868 214.584C365.196 215.304 364.86 216.352 364.86 217.728V225H362.676V211.848H364.86V213.72C365.292 213.048 365.876 212.528 366.612 212.16C367.364 211.792 368.188 211.608 369.084 211.608ZM377.212 218.376C377.212 217.032 377.484 215.856 378.028 214.848C378.572 213.824 379.316 213.032 380.26 212.472C381.22 211.912 382.292 211.632 383.476 211.632C384.5 211.632 385.452 211.872 386.332 212.352C387.212 212.816 387.884 213.432 388.348 214.2V207.24H390.556V225H388.348V222.528C387.916 223.312 387.276 223.96 386.428 224.472C385.58 224.968 384.588 225.216 383.452 225.216C382.284 225.216 381.22 224.928 380.26 224.352C379.316 223.776 378.572 222.968 378.028 221.928C377.484 220.888 377.212 219.704 377.212 218.376ZM388.348 218.4C388.348 217.408 388.148 216.544 387.748 215.808C387.348 215.072 386.804 214.512 386.116 214.128C385.444 213.728 384.7 213.528 383.884 213.528C383.068 213.528 382.324 213.72 381.652 214.104C380.98 214.488 380.444 215.048 380.044 215.784C379.644 216.52 379.444 217.384 379.444 218.376C379.444 219.384 379.644 220.264 380.044 221.016C380.444 221.752 380.98 222.32 381.652 222.72C382.324 223.104 383.068 223.296 383.884 223.296C384.7 223.296 385.444 223.104 386.116 222.72C386.804 222.32 387.348 221.752 387.748 221.016C388.148 220.264 388.348 219.392 388.348 218.4ZM406.381 225.216C405.149 225.216 404.029 224.936 403.021 224.376C402.029 223.816 401.245 223.024 400.669 222C400.109 220.96 399.829 219.76 399.829 218.4C399.829 217.056 400.117 215.872 400.693 214.848C401.285 213.808 402.085 213.016 403.093 212.472C404.101 211.912 405.229 211.632 406.477 211.632C407.725 211.632 408.853 211.912 409.861 212.472C410.869 213.016 411.661 213.8 412.237 214.824C412.829 215.848 413.125 217.04 413.125 218.4C413.125 219.76 412.821 220.96 412.213 222C411.621 223.024 410.813 223.816 409.789 224.376C408.765 224.936 407.629 225.216 406.381 225.216ZM406.381 223.296C407.165 223.296 407.901 223.112 408.589 222.744C409.277 222.376 409.829 221.824 410.245 221.088C410.677 220.352 410.893 219.456 410.893 218.4C410.893 217.344 410.685 216.448 410.269 215.712C409.853 214.976 409.309 214.432 408.637 214.08C407.965 213.712 407.237 213.528 406.453 213.528C405.653 213.528 404.917 213.712 404.245 214.08C403.589 214.432 403.061 214.976 402.661 215.712C402.261 216.448 402.061 217.344 402.061 218.4C402.061 219.472 402.253 220.376 402.637 221.112C403.037 221.848 403.565 222.4 404.221 222.768C404.877 223.12 405.597 223.296 406.381 223.296ZM418.18 214.272C418.612 213.52 419.252 212.896 420.1 212.4C420.964 211.888 421.964 211.632 423.1 211.632C424.268 211.632 425.324 211.912 426.268 212.472C427.228 213.032 427.98 213.824 428.524 214.848C429.068 215.856 429.34 217.032 429.34 218.376C429.34 219.704 429.068 220.888 428.524 221.928C427.98 222.968 427.228 223.776 426.268 224.352C425.324 224.928 424.268 225.216 423.1 225.216C421.98 225.216 420.988 224.968 420.124 224.472C419.276 223.96 418.628 223.328 418.18 222.576V231.24H415.996V211.848H418.18V214.272ZM427.108 218.376C427.108 217.384 426.908 216.52 426.508 215.784C426.108 215.048 425.564 214.488 424.876 214.104C424.204 213.72 423.46 213.528 422.644 213.528C421.844 213.528 421.1 213.728 420.412 214.128C419.74 214.512 419.196 215.08 418.78 215.832C418.38 216.568 418.18 217.424 418.18 218.4C418.18 219.392 418.38 220.264 418.78 221.016C419.196 221.752 419.74 222.32 420.412 222.72C421.1 223.104 421.844 223.296 422.644 223.296C423.46 223.296 424.204 223.104 424.876 222.72C425.564 222.32 426.108 221.752 426.508 221.016C426.908 220.264 427.108 219.384 427.108 218.376ZM433.343 209.712C432.927 209.712 432.575 209.568 432.287 209.28C431.999 208.992 431.855 208.64 431.855 208.224C431.855 207.808 431.999 207.456 432.287 207.168C432.575 206.88 432.927 206.736 433.343 206.736C433.743 206.736 434.079 206.88 434.351 207.168C434.639 207.456 434.783 207.808 434.783 208.224C434.783 208.64 434.639 208.992 434.351 209.28C434.079 209.568 433.743 209.712 433.343 209.712ZM434.399 211.848V225H432.215V211.848H434.399ZM444.529 211.608C446.129 211.608 447.425 212.096 448.417 213.072C449.409 214.032 449.905 215.424 449.905 217.248V225H447.745V217.56C447.745 216.248 447.417 215.248 446.761 214.56C446.105 213.856 445.209 213.504 444.073 213.504C442.921 213.504 442.001 213.864 441.313 214.584C440.641 215.304 440.305 216.352 440.305 217.728V225H438.121V211.848H440.305V213.72C440.737 213.048 441.321 212.528 442.057 212.16C442.809 211.792 443.633 211.608 444.529 211.608ZM454.601 209.712C454.185 209.712 453.833 209.568 453.545 209.28C453.257 208.992 453.113 208.64 453.113 208.224C453.113 207.808 453.257 207.456 453.545 207.168C453.833 206.88 454.185 206.736 454.601 206.736C455.001 206.736 455.337 206.88 455.609 207.168C455.897 207.456 456.041 207.808 456.041 208.224C456.041 208.64 455.897 208.992 455.609 209.28C455.337 209.568 455.001 209.712 454.601 209.712ZM455.657 211.848V225H453.473V211.848H455.657ZM465.115 225.216C463.883 225.216 462.763 224.936 461.755 224.376C460.763 223.816 459.979 223.024 459.403 222C458.843 220.96 458.563 219.76 458.563 218.4C458.563 217.056 458.851 215.872 459.427 214.848C460.019 213.808 460.819 213.016 461.827 212.472C462.835 211.912 463.963 211.632 465.211 211.632C466.459 211.632 467.587 211.912 468.595 212.472C469.603 213.016 470.395 213.8 470.971 214.824C471.563 215.848 471.859 217.04 471.859 218.4C471.859 219.76 471.555 220.96 470.947 222C470.355 223.024 469.547 223.816 468.523 224.376C467.499 224.936 466.363 225.216 465.115 225.216ZM465.115 223.296C465.899 223.296 466.635 223.112 467.323 222.744C468.011 222.376 468.563 221.824 468.979 221.088C469.411 220.352 469.627 219.456 469.627 218.4C469.627 217.344 469.419 216.448 469.003 215.712C468.587 214.976 468.043 214.432 467.371 214.08C466.699 213.712 465.971 213.528 465.187 213.528C464.387 213.528 463.651 213.712 462.979 214.08C462.323 214.432 461.795 214.976 461.395 215.712C460.995 216.448 460.795 217.344 460.795 218.4C460.795 219.472 460.987 220.376 461.371 221.112C461.771 221.848 462.299 222.4 462.955 222.768C463.611 223.12 464.331 223.296 465.115 223.296ZM481.139 211.608C482.739 211.608 484.035 212.096 485.027 213.072C486.019 214.032 486.515 215.424 486.515 217.248V225H484.355V217.56C484.355 216.248 484.027 215.248 483.371 214.56C482.715 213.856 481.819 213.504 480.683 213.504C479.531 213.504 478.611 213.864 477.923 214.584C477.251 215.304 476.915 216.352 476.915 217.728V225H474.731V211.848H476.915V213.72C477.347 213.048 477.931 212.528 478.667 212.16C479.419 211.792 480.243 211.608 481.139 211.608ZM494.738 225.216C493.73 225.216 492.826 225.048 492.026 224.712C491.226 224.36 490.594 223.88 490.13 223.272C489.666 222.648 489.41 221.936 489.362 221.136H491.618C491.682 221.792 491.986 222.328 492.53 222.744C493.09 223.16 493.818 223.368 494.714 223.368C495.546 223.368 496.202 223.184 496.682 222.816C497.162 222.448 497.402 221.984 497.402 221.424C497.402 220.848 497.146 220.424 496.634 220.152C496.122 219.864 495.33 219.584 494.258 219.312C493.282 219.056 492.482 218.8 491.858 218.544C491.25 218.272 490.722 217.88 490.274 217.368C489.842 216.84 489.626 216.152 489.626 215.304C489.626 214.632 489.826 214.016 490.226 213.456C490.626 212.896 491.194 212.456 491.93 212.136C492.666 211.8 493.506 211.632 494.45 211.632C495.906 211.632 497.082 212 497.978 212.736C498.874 213.472 499.354 214.48 499.418 215.76H497.234C497.186 215.072 496.906 214.52 496.394 214.104C495.898 213.688 495.226 213.48 494.378 213.48C493.594 213.48 492.97 213.648 492.506 213.984C492.042 214.32 491.81 214.76 491.81 215.304C491.81 215.736 491.946 216.096 492.218 216.384C492.506 216.656 492.858 216.88 493.274 217.056C493.706 217.216 494.298 217.4 495.05 217.608C495.994 217.864 496.762 218.12 497.354 218.376C497.946 218.616 498.45 218.984 498.866 219.48C499.298 219.976 499.522 220.624 499.538 221.424C499.538 222.144 499.338 222.792 498.938 223.368C498.538 223.944 497.97 224.4 497.234 224.736C496.514 225.056 495.682 225.216 494.738 225.216Z" fill="black"/>
<circle cx="88" cy="78" r="24" fill="url(#paint0_linear_26_13)"/>
<path d="M88.5938 68.0312C86.5 65.9375 83.3646 65.5104 80.8438 66.7395L85.3646 71.2604L82.2396 74.3854L77.7188 69.8645C76.5 72.3958 76.9271 75.5104 79.0209 77.6041C80.9584 79.5416 83.7917 80.052 86.198 79.1458L95.6875 88.6354C96.0938 89.0416 96.75 89.0416 97.1563 88.6354L99.5521 86.2395C99.9584 85.8333 99.9584 85.177 99.5521 84.7708L90.1042 75.3125C91.0625 72.875 90.5625 70 88.5938 68.0312Z" fill="#F9F2F1"/>
<path d="M134.26 75.4C134.26 72.928 134.812 70.72 135.916 68.776C137.044 66.808 138.568 65.284 140.488 64.204C142.432 63.1 144.604 62.548 147.004 62.548C149.812 62.548 152.272 63.268 154.384 64.708C156.496 66.148 157.972 68.14 158.812 70.684H153.016C152.44 69.484 151.624 68.584 150.568 67.984C149.536 67.384 148.336 67.084 146.968 67.084C145.504 67.084 144.196 67.432 143.044 68.128C141.916 68.8 141.028 69.76 140.38 71.008C139.756 72.256 139.444 73.72 139.444 75.4C139.444 77.056 139.756 78.52 140.38 79.792C141.028 81.04 141.916 82.012 143.044 82.708C144.196 83.38 145.504 83.716 146.968 83.716C148.336 83.716 149.536 83.416 150.568 82.816C151.624 82.192 152.44 81.28 153.016 80.08H158.812C157.972 82.648 156.496 84.652 154.384 86.092C152.296 87.508 149.836 88.216 147.004 88.216C144.604 88.216 142.432 87.676 140.488 86.596C138.568 85.492 137.044 83.968 135.916 82.024C134.812 80.08 134.26 77.872 134.26 75.4ZM171.973 88.324C170.053 88.324 168.325 87.904 166.789 87.064C165.253 86.2 164.041 84.988 163.153 83.428C162.289 81.868 161.857 80.068 161.857 78.028C161.857 75.988 162.301 74.188 163.189 72.628C164.101 71.068 165.337 69.868 166.897 69.028C168.457 68.164 170.197 67.732 172.117 67.732C174.037 67.732 175.777 68.164 177.337 69.028C178.897 69.868 180.121 71.068 181.009 72.628C181.921 74.188 182.377 75.988 182.377 78.028C182.377 80.068 181.909 81.868 180.973 83.428C180.061 84.988 178.813 86.2 177.229 87.064C175.669 87.904 173.917 88.324 171.973 88.324ZM171.973 83.932C172.885 83.932 173.737 83.716 174.529 83.284C175.345 82.828 175.993 82.156 176.473 81.268C176.953 80.38 177.193 79.3 177.193 78.028C177.193 76.132 176.689 74.68 175.681 73.672C174.697 72.64 173.485 72.124 172.045 72.124C170.605 72.124 169.393 72.64 168.409 73.672C167.449 74.68 166.969 76.132 166.969 78.028C166.969 79.924 167.437 81.388 168.373 82.42C169.333 83.428 170.533 83.932 171.973 83.932ZM210.842 67.768C213.29 67.768 215.258 68.524 216.746 70.036C218.258 71.524 219.014 73.612 219.014 76.3V88H213.974V76.984C213.974 75.424 213.578 74.236 212.786 73.42C211.994 72.58 210.914 72.16 209.546 72.16C208.178 72.16 207.086 72.58 206.27 73.42C205.478 74.236 205.082 75.424 205.082 76.984V88H200.042V76.984C200.042 75.424 199.646 74.236 198.854 73.42C198.062 72.58 196.982 72.16 195.614 72.16C194.222 72.16 193.118 72.58 192.302 73.42C191.51 74.236 191.114 75.424 191.114 76.984V88H186.074V68.056H191.114V70.468C191.762 69.628 192.59 68.968 193.598 68.488C194.63 68.008 195.758 67.768 196.982 67.768C198.542 67.768 199.934 68.104 201.158 68.776C202.382 69.424 203.33 70.36 204.002 71.584C204.65 70.432 205.586 69.508 206.81 68.812C208.058 68.116 209.402 67.768 210.842 67.768ZM248.565 67.768C251.013 67.768 252.981 68.524 254.469 70.036C255.981 71.524 256.737 73.612 256.737 76.3V88H251.697V76.984C251.697 75.424 251.301 74.236 250.509 73.42C249.717 72.58 248.637 72.16 247.269 72.16C245.901 72.16 244.809 72.58 243.993 73.42C243.201 74.236 242.805 75.424 242.805 76.984V88H237.765V76.984C237.765 75.424 237.369 74.236 236.577 73.42C235.785 72.58 234.705 72.16 233.337 72.16C231.945 72.16 230.841 72.58 230.025 73.42C229.233 74.236 228.837 75.424 228.837 76.984V88H223.797V68.056H228.837V70.468C229.485 69.628 230.313 68.968 231.321 68.488C232.353 68.008 233.481 67.768 234.705 67.768C236.265 67.768 237.657 68.104 238.881 68.776C240.105 69.424 241.053 70.36 241.725 71.584C242.373 70.432 243.309 69.508 244.533 68.812C245.781 68.116 247.125 67.768 248.565 67.768ZM280.347 68.056V88H275.271V85.48C274.623 86.344 273.771 87.028 272.715 87.532C271.683 88.012 270.555 88.252 269.331 88.252C267.771 88.252 266.391 87.928 265.191 87.28C263.991 86.608 263.043 85.636 262.347 84.364C261.675 83.068 261.339 81.532 261.339 79.756V68.056H266.379V79.036C266.379 80.62 266.775 81.844 267.567 82.708C268.359 83.548 269.439 83.968 270.807 83.968C272.199 83.968 273.291 83.548 274.083 82.708C274.875 81.844 275.271 80.62 275.271 79.036V68.056H280.347ZM296.372 67.768C298.748 67.768 300.668 68.524 302.132 70.036C303.596 71.524 304.328 73.612 304.328 76.3V88H299.288V76.984C299.288 75.4 298.892 74.188 298.1 73.348C297.308 72.484 296.228 72.052 294.86 72.052C293.468 72.052 292.364 72.484 291.548 73.348C290.756 74.188 290.36 75.4 290.36 76.984V88H285.32V68.056H290.36V70.54C291.032 69.676 291.884 69.004 292.916 68.524C293.972 68.02 295.124 67.768 296.372 67.768ZM311.677 65.68C310.789 65.68 310.045 65.404 309.445 64.852C308.869 64.276 308.581 63.568 308.581 62.728C308.581 61.888 308.869 61.192 309.445 60.64C310.045 60.064 310.789 59.776 311.677 59.776C312.565 59.776 313.297 60.064 313.873 60.64C314.473 61.192 314.773 61.888 314.773 62.728C314.773 63.568 314.473 64.276 313.873 64.852C313.297 65.404 312.565 65.68 311.677 65.68ZM314.161 68.056V88H309.121V68.056H314.161ZM317.844 78.028C317.844 75.964 318.264 74.164 319.104 72.628C319.944 71.068 321.108 69.868 322.596 69.028C324.084 68.164 325.788 67.732 327.708 67.732C330.18 67.732 332.22 68.356 333.828 69.604C335.46 70.828 336.552 72.556 337.104 74.788H331.668C331.38 73.924 330.888 73.252 330.192 72.772C329.52 72.268 328.68 72.016 327.672 72.016C326.232 72.016 325.092 72.544 324.252 73.6C323.412 74.632 322.992 76.108 322.992 78.028C322.992 79.924 323.412 81.4 324.252 82.456C325.092 83.488 326.232 84.004 327.672 84.004C329.712 84.004 331.044 83.092 331.668 81.268H337.104C336.552 83.428 335.46 85.144 333.828 86.416C332.196 87.688 330.156 88.324 327.708 88.324C325.788 88.324 324.084 87.904 322.596 87.064C321.108 86.2 319.944 85 319.104 83.464C318.264 81.904 317.844 80.092 317.844 78.028ZM339.5 77.956C339.5 75.94 339.896 74.152 340.688 72.592C341.505 71.032 342.597 69.832 343.965 68.992C345.357 68.152 346.905 67.732 348.609 67.732C350.097 67.732 351.393 68.032 352.497 68.632C353.625 69.232 354.525 69.988 355.197 70.9V68.056H360.273V88H355.197V85.084C354.549 86.02 353.649 86.8 352.497 87.424C351.369 88.024 350.061 88.324 348.573 88.324C346.893 88.324 345.357 87.892 343.965 87.028C342.597 86.164 341.505 84.952 340.688 83.392C339.896 81.808 339.5 79.996 339.5 77.956ZM355.197 78.028C355.197 76.804 354.957 75.76 354.477 74.896C353.997 74.008 353.349 73.336 352.533 72.88C351.717 72.4 350.841 72.16 349.905 72.16C348.969 72.16 348.105 72.388 347.312 72.844C346.521 73.3 345.873 73.972 345.369 74.86C344.889 75.724 344.649 76.756 344.649 77.956C344.649 79.156 344.889 80.212 345.369 81.124C345.873 82.012 346.521 82.696 347.312 83.176C348.129 83.656 348.993 83.896 349.905 83.896C350.841 83.896 351.717 83.668 352.533 83.212C353.349 82.732 353.997 82.06 354.477 81.196C354.957 80.308 355.197 79.252 355.197 78.028ZM371.063 72.196V81.844C371.063 82.516 371.219 83.008 371.531 83.32C371.867 83.608 372.419 83.752 373.187 83.752H375.527V88H372.359C368.111 88 365.987 85.936 365.987 81.808V72.196H363.611V68.056H365.987V63.124H371.063V68.056H375.527V72.196H371.063ZM381.708 65.68C380.82 65.68 380.076 65.404 379.476 64.852C378.9 64.276 378.612 63.568 378.612 62.728C378.612 61.888 378.9 61.192 379.476 60.64C380.076 60.064 380.82 59.776 381.708 59.776C382.596 59.776 383.328 60.064 383.904 60.64C384.504 61.192 384.804 61.888 384.804 62.728C384.804 63.568 384.504 64.276 383.904 64.852C383.328 65.404 382.596 65.68 381.708 65.68ZM384.192 68.056V88H379.152V68.056H384.192ZM398.028 88.324C396.108 88.324 394.38 87.904 392.844 87.064C391.308 86.2 390.096 84.988 389.208 83.428C388.344 81.868 387.912 80.068 387.912 78.028C387.912 75.988 388.356 74.188 389.244 72.628C390.156 71.068 391.392 69.868 392.952 69.028C394.512 68.164 396.252 67.732 398.172 67.732C400.092 67.732 401.832 68.164 403.392 69.028C404.952 69.868 406.176 71.068 407.064 72.628C407.976 74.188 408.432 75.988 408.432 78.028C408.432 80.068 407.964 81.868 407.027 83.428C406.116 84.988 404.868 86.2 403.284 87.064C401.724 87.904 399.972 88.324 398.028 88.324ZM398.028 83.932C398.94 83.932 399.792 83.716 400.584 83.284C401.4 82.828 402.048 82.156 402.528 81.268C403.008 80.38 403.248 79.3 403.248 78.028C403.248 76.132 402.744 74.68 401.736 73.672C400.752 72.64 399.54 72.124 398.1 72.124C396.66 72.124 395.448 72.64 394.464 73.672C393.504 74.68 393.024 76.132 393.024 78.028C393.024 79.924 393.492 81.388 394.428 82.42C395.388 83.428 396.588 83.932 398.028 83.932ZM423.181 67.768C425.557 67.768 427.477 68.524 428.941 70.036C430.405 71.524 431.137 73.612 431.137 76.3V88H426.097V76.984C426.097 75.4 425.701 74.188 424.909 73.348C424.117 72.484 423.037 72.052 421.669 72.052C420.277 72.052 419.173 72.484 418.357 73.348C417.565 74.188 417.169 75.4 417.169 76.984V88H412.129V68.056H417.169V70.54C417.841 69.676 418.693 69.004 419.725 68.524C420.781 68.02 421.933 67.768 423.181 67.768Z" fill="black"/>
<defs>
<filter id="filter0_f_26_13" x="0" y="0" width="641" height="311" filterUnits="userSpaceOnUse" color-interpolation-filters="sRGB">
<feFlood flood-opacity="0" result="BackgroundImageFix"/>
<feBlend mode="normal" in="SourceGraphic" in2="BackgroundImageFix" result="shape"/>
<feGaussianBlur stdDeviation="10.5" result="effect1_foregroundBlur_26_13"/>
</filter>
<linearGradient id="paint0_linear_26_13" x1="82.6283" y1="54" x2="116.538" y2="88.7378" gradientUnits="userSpaceOnUse">
<stop stop-color="#E04D4D"/>
<stop offset="1" stop-color="#F9C1C1"/>
<stop offset="1" stop-color="#F9C1C1"/>
</linearGradient>
</defs>
</svg>
