<svg width="641" height="252" viewBox="0 0 641 252" fill="none" xmlns="http://www.w3.org/2000/svg">
<g filter="url(#filter0_f_25_122)">
<rect x="21" y="21" width="599" height="210" rx="30" fill="#E9CACD" fill-opacity="0.74"/>
</g>
<rect x="21" y="15" width="599" height="210" rx="30" fill="white"/>
<path d="M153.808 72.648C153.808 73.992 153.484 75.252 152.836 76.428C152.212 77.604 151.216 78.552 149.848 79.272C148.504 79.992 146.8 80.352 144.736 80.352H140.524V90H135.484V64.872H144.736C146.68 64.872 148.336 65.208 149.704 65.88C151.072 66.552 152.092 67.476 152.764 68.652C153.46 69.828 153.808 71.16 153.808 72.648ZM144.52 76.284C145.912 76.284 146.944 75.972 147.616 75.348C148.288 74.7 148.624 73.8 148.624 72.648C148.624 70.2 147.256 68.976 144.52 68.976H140.524V76.284H144.52ZM162.426 73.152C163.074 72.096 163.914 71.268 164.946 70.668C166.002 70.068 167.202 69.768 168.546 69.768V75.06H167.214C165.63 75.06 164.43 75.432 163.614 76.176C162.822 76.92 162.426 78.216 162.426 80.064V90H157.386V70.056H162.426V73.152ZM180.797 90.324C178.877 90.324 177.149 89.904 175.613 89.064C174.077 88.2 172.865 86.988 171.977 85.428C171.113 83.868 170.681 82.068 170.681 80.028C170.681 77.988 171.125 76.188 172.013 74.628C172.925 73.068 174.161 71.868 175.721 71.028C177.281 70.164 179.021 69.732 180.941 69.732C182.861 69.732 184.601 70.164 186.161 71.028C187.721 71.868 188.945 73.068 189.833 74.628C190.745 76.188 191.201 77.988 191.201 80.028C191.201 82.068 190.733 83.868 189.797 85.428C188.885 86.988 187.637 88.2 186.053 89.064C184.493 89.904 182.741 90.324 180.797 90.324ZM180.797 85.932C181.709 85.932 182.561 85.716 183.353 85.284C184.169 84.828 184.817 84.156 185.297 83.268C185.777 82.38 186.017 81.3 186.017 80.028C186.017 78.132 185.513 76.68 184.505 75.672C183.521 74.64 182.309 74.124 180.869 74.124C179.429 74.124 178.217 74.64 177.233 75.672C176.273 76.68 175.793 78.132 175.793 80.028C175.793 81.924 176.261 83.388 177.197 84.42C178.157 85.428 179.357 85.932 180.797 85.932ZM197.454 67.68C196.542 67.68 195.786 67.404 195.186 66.852C194.61 66.276 194.322 65.568 194.322 64.728C194.322 63.888 194.61 63.192 195.186 62.64C195.786 62.064 196.542 61.776 197.454 61.776C198.342 61.776 199.074 62.064 199.65 62.64C200.226 63.192 200.514 63.888 200.514 64.728C200.514 65.568 200.226 66.276 199.65 66.852C199.074 67.404 198.342 67.68 197.454 67.68ZM199.938 93.276C199.938 95.484 199.386 97.068 198.282 98.028C197.202 99.012 195.642 99.504 193.602 99.504H191.37V95.22H192.81C193.578 95.22 194.118 95.064 194.43 94.752C194.742 94.464 194.898 93.984 194.898 93.312V70.056H199.938V93.276ZM223.458 79.596C223.458 80.316 223.41 80.964 223.314 81.54H208.734C208.854 82.98 209.358 84.108 210.246 84.924C211.134 85.74 212.226 86.148 213.522 86.148C215.394 86.148 216.726 85.344 217.518 83.736H222.954C222.378 85.656 221.274 87.24 219.642 88.488C218.01 89.712 216.006 90.324 213.63 90.324C211.71 90.324 209.982 89.904 208.446 89.064C206.934 88.2 205.746 86.988 204.882 85.428C204.042 83.868 203.622 82.068 203.622 80.028C203.622 77.964 204.042 76.152 204.882 74.592C205.722 73.032 206.898 71.832 208.41 70.992C209.922 70.152 211.662 69.732 213.63 69.732C215.526 69.732 217.218 70.14 218.706 70.956C220.218 71.772 221.382 72.936 222.198 74.448C223.038 75.936 223.458 77.652 223.458 79.596ZM218.238 78.156C218.214 76.86 217.746 75.828 216.834 75.06C215.922 74.268 214.806 73.872 213.486 73.872C212.238 73.872 211.182 74.256 210.318 75.024C209.478 75.768 208.962 76.812 208.77 78.156H218.238ZM225.84 80.028C225.84 77.964 226.26 76.164 227.1 74.628C227.94 73.068 229.104 71.868 230.592 71.028C232.08 70.164 233.784 69.732 235.704 69.732C238.176 69.732 240.216 70.356 241.824 71.604C243.456 72.828 244.548 74.556 245.1 76.788H239.664C239.376 75.924 238.884 75.252 238.188 74.772C237.516 74.268 236.676 74.016 235.668 74.016C234.228 74.016 233.088 74.544 232.248 75.6C231.408 76.632 230.988 78.108 230.988 80.028C230.988 81.924 231.408 83.4 232.248 84.456C233.088 85.488 234.228 86.004 235.668 86.004C237.708 86.004 239.04 85.092 239.664 83.268H245.1C244.548 85.428 243.456 87.144 241.824 88.416C240.192 89.688 238.152 90.324 235.704 90.324C233.784 90.324 232.08 89.904 230.592 89.064C229.104 88.2 227.94 87 227.1 85.464C226.26 83.904 225.84 82.092 225.84 80.028ZM254.661 74.196V83.844C254.661 84.516 254.817 85.008 255.129 85.32C255.465 85.608 256.017 85.752 256.785 85.752H259.125V90H255.957C251.709 90 249.585 87.936 249.585 83.808V74.196H247.209V70.056H249.585V65.124H254.661V70.056H259.125V74.196H254.661ZM298.724 64.872V90H293.684V73.656L286.952 90H283.136L276.368 73.656V90H271.328V64.872H277.052L285.044 83.556L293.036 64.872H298.724ZM302.411 79.956C302.411 77.94 302.807 76.152 303.599 74.592C304.415 73.032 305.507 71.832 306.875 70.992C308.267 70.152 309.815 69.732 311.519 69.732C313.007 69.732 314.303 70.032 315.407 70.632C316.535 71.232 317.435 71.988 318.107 72.9V70.056H323.183V90H318.107V87.084C317.459 88.02 316.559 88.8 315.407 89.424C314.279 90.024 312.971 90.324 311.483 90.324C309.803 90.324 308.267 89.892 306.875 89.028C305.507 88.164 304.415 86.952 303.599 85.392C302.807 83.808 302.411 81.996 302.411 79.956ZM318.107 80.028C318.107 78.804 317.867 77.76 317.387 76.896C316.907 76.008 316.259 75.336 315.443 74.88C314.627 74.4 313.751 74.16 312.815 74.16C311.879 74.16 311.015 74.388 310.223 74.844C309.431 75.3 308.783 75.972 308.279 76.86C307.799 77.724 307.559 78.756 307.559 79.956C307.559 81.156 307.799 82.212 308.279 83.124C308.783 84.012 309.431 84.696 310.223 85.176C311.039 85.656 311.903 85.896 312.815 85.896C313.751 85.896 314.627 85.668 315.443 85.212C316.259 84.732 316.907 84.06 317.387 83.196C317.867 82.308 318.107 81.252 318.107 80.028ZM339.157 69.768C341.533 69.768 343.453 70.524 344.917 72.036C346.381 73.524 347.113 75.612 347.113 78.3V90H342.073V78.984C342.073 77.4 341.677 76.188 340.885 75.348C340.093 74.484 339.013 74.052 337.645 74.052C336.253 74.052 335.149 74.484 334.333 75.348C333.541 76.188 333.145 77.4 333.145 78.984V90H328.105V70.056H333.145V72.54C333.817 71.676 334.669 71.004 335.701 70.524C336.757 70.02 337.909 69.768 339.157 69.768ZM350.61 79.956C350.61 77.94 351.006 76.152 351.798 74.592C352.614 73.032 353.706 71.832 355.074 70.992C356.466 70.152 358.014 69.732 359.718 69.732C361.206 69.732 362.502 70.032 363.606 70.632C364.734 71.232 365.634 71.988 366.306 72.9V70.056H371.382V90H366.306V87.084C365.658 88.02 364.758 88.8 363.606 89.424C362.478 90.024 361.17 90.324 359.682 90.324C358.002 90.324 356.466 89.892 355.074 89.028C353.706 88.164 352.614 86.952 351.798 85.392C351.006 83.808 350.61 81.996 350.61 79.956ZM366.306 80.028C366.306 78.804 366.066 77.76 365.586 76.896C365.106 76.008 364.458 75.336 363.642 74.88C362.826 74.4 361.95 74.16 361.014 74.16C360.078 74.16 359.214 74.388 358.422 74.844C357.63 75.3 356.982 75.972 356.478 76.86C355.998 77.724 355.758 78.756 355.758 79.956C355.758 81.156 355.998 82.212 356.478 83.124C356.982 84.012 357.63 84.696 358.422 85.176C359.238 85.656 360.102 85.896 361.014 85.896C361.95 85.896 362.826 85.668 363.642 85.212C364.458 84.732 365.106 84.06 365.586 83.196C366.066 82.308 366.306 81.252 366.306 80.028ZM384.116 69.732C385.604 69.732 386.912 70.032 388.04 70.632C389.168 71.208 390.056 71.964 390.704 72.9V70.056H395.78V90.144C395.78 91.992 395.408 93.636 394.664 95.076C393.92 96.54 392.804 97.692 391.316 98.532C389.828 99.396 388.028 99.828 385.916 99.828C383.084 99.828 380.756 99.168 378.932 97.848C377.132 96.528 376.112 94.728 375.872 92.448H380.876C381.14 93.36 381.704 94.08 382.568 94.608C383.456 95.16 384.524 95.436 385.772 95.436C387.236 95.436 388.424 94.992 389.336 94.104C390.248 93.24 390.704 91.92 390.704 90.144V87.048C390.056 87.984 389.156 88.764 388.004 89.388C386.876 90.012 385.58 90.324 384.116 90.324C382.436 90.324 380.9 89.892 379.508 89.028C378.116 88.164 377.012 86.952 376.196 85.392C375.404 83.808 375.008 81.996 375.008 79.956C375.008 77.94 375.404 76.152 376.196 74.592C377.012 73.032 378.104 71.832 379.472 70.992C380.864 70.152 382.412 69.732 384.116 69.732ZM390.704 80.028C390.704 78.804 390.464 77.76 389.984 76.896C389.504 76.008 388.856 75.336 388.04 74.88C387.224 74.4 386.348 74.16 385.412 74.16C384.476 74.16 383.612 74.388 382.82 74.844C382.028 75.3 381.38 75.972 380.876 76.86C380.396 77.724 380.156 78.756 380.156 79.956C380.156 81.156 380.396 82.212 380.876 83.124C381.38 84.012 382.028 84.696 382.82 85.176C383.636 85.656 384.5 85.896 385.412 85.896C386.348 85.896 387.224 85.668 388.04 85.212C388.856 84.732 389.504 84.06 389.984 83.196C390.464 82.308 390.704 81.252 390.704 80.028ZM419.243 79.596C419.243 80.316 419.195 80.964 419.099 81.54H404.519C404.639 82.98 405.143 84.108 406.031 84.924C406.919 85.74 408.011 86.148 409.307 86.148C411.179 86.148 412.511 85.344 413.303 83.736H418.739C418.163 85.656 417.059 87.24 415.427 88.488C413.795 89.712 411.791 90.324 409.415 90.324C407.495 90.324 405.767 89.904 404.231 89.064C402.719 88.2 401.531 86.988 400.667 85.428C399.827 83.868 399.407 82.068 399.407 80.028C399.407 77.964 399.827 76.152 400.667 74.592C401.507 73.032 402.683 71.832 404.195 70.992C405.707 70.152 407.447 69.732 409.415 69.732C411.311 69.732 413.003 70.14 414.491 70.956C416.003 71.772 417.167 72.936 417.983 74.448C418.823 75.936 419.243 77.652 419.243 79.596ZM414.023 78.156C413.999 76.86 413.531 75.828 412.619 75.06C411.707 74.268 410.591 73.872 409.271 73.872C408.023 73.872 406.967 74.256 406.103 75.024C405.263 75.768 404.747 76.812 404.555 78.156H414.023ZM447.69 69.768C450.138 69.768 452.106 70.524 453.594 72.036C455.106 73.524 455.862 75.612 455.862 78.3V90H450.822V78.984C450.822 77.424 450.426 76.236 449.634 75.42C448.842 74.58 447.762 74.16 446.394 74.16C445.026 74.16 443.934 74.58 443.118 75.42C442.326 76.236 441.93 77.424 441.93 78.984V90H436.89V78.984C436.89 77.424 436.494 76.236 435.702 75.42C434.91 74.58 433.83 74.16 432.462 74.16C431.07 74.16 429.966 74.58 429.15 75.42C428.358 76.236 427.962 77.424 427.962 78.984V90H422.922V70.056H427.962V72.468C428.61 71.628 429.438 70.968 430.446 70.488C431.478 70.008 432.606 69.768 433.83 69.768C435.39 69.768 436.782 70.104 438.006 70.776C439.23 71.424 440.178 72.36 440.85 73.584C441.498 72.432 442.434 71.508 443.658 70.812C444.906 70.116 446.25 69.768 447.69 69.768ZM479.184 79.596C479.184 80.316 479.136 80.964 479.04 81.54H464.46C464.58 82.98 465.084 84.108 465.972 84.924C466.86 85.74 467.952 86.148 469.248 86.148C471.12 86.148 472.452 85.344 473.244 83.736H478.68C478.104 85.656 477 87.24 475.368 88.488C473.736 89.712 471.732 90.324 469.356 90.324C467.436 90.324 465.708 89.904 464.172 89.064C462.66 88.2 461.472 86.988 460.608 85.428C459.768 83.868 459.348 82.068 459.348 80.028C459.348 77.964 459.768 76.152 460.608 74.592C461.448 73.032 462.624 71.832 464.136 70.992C465.648 70.152 467.388 69.732 469.356 69.732C471.252 69.732 472.944 70.14 474.432 70.956C475.944 71.772 477.108 72.936 477.924 74.448C478.764 75.936 479.184 77.652 479.184 79.596ZM473.964 78.156C473.94 76.86 473.472 75.828 472.56 75.06C471.648 74.268 470.532 73.872 469.212 73.872C467.964 73.872 466.908 74.256 466.044 75.024C465.204 75.768 464.688 76.812 464.496 78.156H473.964ZM493.915 69.768C496.291 69.768 498.211 70.524 499.675 72.036C501.139 73.524 501.871 75.612 501.871 78.3V90H496.831V78.984C496.831 77.4 496.435 76.188 495.643 75.348C494.851 74.484 493.771 74.052 492.403 74.052C491.011 74.052 489.907 74.484 489.091 75.348C488.299 76.188 487.903 77.4 487.903 78.984V90H482.863V70.056H487.903V72.54C488.575 71.676 489.427 71.004 490.459 70.524C491.515 70.02 492.667 69.768 493.915 69.768ZM512.532 74.196V83.844C512.532 84.516 512.688 85.008 513 85.32C513.336 85.608 513.888 85.752 514.656 85.752H516.996V90H513.828C509.58 90 507.456 87.936 507.456 83.808V74.196H505.08V70.056H507.456V65.124H512.532V70.056H516.996V74.196H512.532Z" fill="black"/>
<circle cx="88" cy="80" r="24" fill="url(#paint0_linear_25_122)"/>
<path fill-rule="evenodd" clip-rule="evenodd" d="M95 72H94V70H92V72H84V70H82V72H81C79.89 72 79.01 72.9 79.01 74L79 88C79 89.1 79.89 90 81 90H95C96.1 90 97 89.1 97 88V74C97 72.9 96.1 72 95 72ZM83 79V81H85V79H83ZM89 79H87V81H89V79ZM93 79V81H91V79H93ZM81 88H95V77H81V88Z" fill="white"/>
<g filter="url(#filter1_i_25_122)">
<rect x="60" y="126" width="116" height="57" rx="28.5" fill="#FBF5F0"/>
</g>
<g filter="url(#filter2_i_25_122)">
<rect x="199" y="126" width="187" height="57" rx="28.5" fill="#FBF5F0"/>
</g>
<path d="M102.22 146.32V158.344C102.22 159.832 101.764 161.008 100.852 161.872C99.9562 162.736 98.7722 163.168 97.3002 163.168C95.8282 163.168 94.6362 162.736 93.7242 161.872C92.8282 161.008 92.3802 159.832 92.3802 158.344H95.1402C95.1562 159.08 95.3402 159.664 95.6922 160.096C96.0602 160.528 96.5962 160.744 97.3002 160.744C98.0042 160.744 98.5402 160.528 98.9082 160.096C99.2762 159.648 99.4602 159.064 99.4602 158.344V146.32H102.22ZM108.063 148.024C107.567 148.024 107.151 147.856 106.815 147.52C106.479 147.184 106.311 146.768 106.311 146.272C106.311 145.776 106.479 145.36 106.815 145.024C107.151 144.688 107.567 144.52 108.063 144.52C108.543 144.52 108.951 144.688 109.287 145.024C109.623 145.36 109.791 145.776 109.791 146.272C109.791 146.768 109.623 147.184 109.287 147.52C108.951 147.856 108.543 148.024 108.063 148.024ZM109.407 149.776V163H106.671V149.776H109.407ZM115.735 151.696C116.135 151.024 116.663 150.504 117.319 150.136C117.991 149.752 118.783 149.56 119.695 149.56V152.392H118.999C117.927 152.392 117.111 152.664 116.551 153.208C116.007 153.752 115.735 154.696 115.735 156.04V163H112.999V149.776H115.735V151.696ZM121.298 156.328C121.298 155 121.57 153.824 122.114 152.8C122.674 151.776 123.426 150.984 124.37 150.424C125.33 149.848 126.386 149.56 127.538 149.56C128.578 149.56 129.482 149.768 130.25 150.184C131.034 150.584 131.658 151.088 132.122 151.696V149.776H134.882V163H132.122V161.032C131.658 161.656 131.026 162.176 130.226 162.592C129.426 163.008 128.514 163.216 127.49 163.216C126.354 163.216 125.314 162.928 124.37 162.352C123.426 161.76 122.674 160.944 122.114 159.904C121.57 158.848 121.298 157.656 121.298 156.328ZM132.122 156.376C132.122 155.464 131.93 154.672 131.546 154C131.178 153.328 130.69 152.816 130.082 152.464C129.474 152.112 128.818 151.936 128.114 151.936C127.41 151.936 126.754 152.112 126.146 152.464C125.538 152.8 125.042 153.304 124.658 153.976C124.29 154.632 124.106 155.416 124.106 156.328C124.106 157.24 124.29 158.04 124.658 158.728C125.042 159.416 125.538 159.944 126.146 160.312C126.77 160.664 127.426 160.84 128.114 160.84C128.818 160.84 129.474 160.664 130.082 160.312C130.69 159.96 131.178 159.448 131.546 158.776C131.93 158.088 132.122 157.288 132.122 156.376Z" fill="#E04D4D"/>
<path d="M224.419 154.624C224.419 152.992 224.795 151.528 225.547 150.232C226.315 148.936 227.347 147.928 228.643 147.208C229.955 146.472 231.387 146.104 232.939 146.104C234.715 146.104 236.291 146.544 237.667 147.424C239.059 148.288 240.067 149.52 240.691 151.12H237.403C236.971 150.24 236.371 149.584 235.603 149.152C234.835 148.72 233.947 148.504 232.939 148.504C231.835 148.504 230.851 148.752 229.987 149.248C229.123 149.744 228.443 150.456 227.947 151.384C227.467 152.312 227.227 153.392 227.227 154.624C227.227 155.856 227.467 156.936 227.947 157.864C228.443 158.792 229.123 159.512 229.987 160.024C230.851 160.52 231.835 160.768 232.939 160.768C233.947 160.768 234.835 160.552 235.603 160.12C236.371 159.688 236.971 159.032 237.403 158.152H240.691C240.067 159.752 239.059 160.984 237.667 161.848C236.291 162.712 234.715 163.144 232.939 163.144C231.371 163.144 229.939 162.784 228.643 162.064C227.347 161.328 226.315 160.312 225.547 159.016C224.795 157.72 224.419 156.256 224.419 154.624ZM249.63 163.216C248.382 163.216 247.254 162.936 246.246 162.376C245.238 161.8 244.446 161 243.87 159.976C243.294 158.936 243.006 157.736 243.006 156.376C243.006 155.032 243.302 153.84 243.894 152.8C244.486 151.76 245.294 150.96 246.318 150.4C247.342 149.84 248.486 149.56 249.75 149.56C251.014 149.56 252.158 149.84 253.182 150.4C254.206 150.96 255.014 151.76 255.606 152.8C256.198 153.84 256.494 155.032 256.494 156.376C256.494 157.72 256.19 158.912 255.582 159.952C254.974 160.992 254.142 161.8 253.086 162.376C252.046 162.936 250.894 163.216 249.63 163.216ZM249.63 160.84C250.334 160.84 250.99 160.672 251.598 160.336C252.222 160 252.726 159.496 253.11 158.824C253.494 158.152 253.686 157.336 253.686 156.376C253.686 155.416 253.502 154.608 253.134 153.952C252.766 153.28 252.278 152.776 251.67 152.44C251.062 152.104 250.406 151.936 249.702 151.936C248.998 151.936 248.342 152.104 247.734 152.44C247.142 152.776 246.67 153.28 246.318 153.952C245.966 154.608 245.79 155.416 245.79 156.376C245.79 157.8 246.15 158.904 246.87 159.688C247.606 160.456 248.526 160.84 249.63 160.84ZM265.87 149.56C266.91 149.56 267.838 149.776 268.654 150.208C269.486 150.64 270.134 151.28 270.598 152.128C271.062 152.976 271.294 154 271.294 155.2V163H268.582V155.608C268.582 154.424 268.286 153.52 267.694 152.896C267.102 152.256 266.294 151.936 265.27 151.936C264.246 151.936 263.43 152.256 262.822 152.896C262.23 153.52 261.934 154.424 261.934 155.608V163H259.198V149.776H261.934V151.288C262.382 150.744 262.95 150.32 263.638 150.016C264.342 149.712 265.086 149.56 265.87 149.56ZM280.328 152.008H277.88V163H275.12V152.008H273.56V149.776H275.12V148.84C275.12 147.32 275.52 146.216 276.32 145.528C277.136 144.824 278.408 144.472 280.136 144.472V146.752C279.304 146.752 278.72 146.912 278.384 147.232C278.048 147.536 277.88 148.072 277.88 148.84V149.776H280.328V152.008ZM285.489 145.24V163H282.753V145.24H285.489ZM301.057 149.776V163H298.321V161.44C297.889 161.984 297.321 162.416 296.617 162.736C295.929 163.04 295.193 163.192 294.409 163.192C293.369 163.192 292.433 162.976 291.601 162.544C290.785 162.112 290.137 161.472 289.657 160.624C289.193 159.776 288.961 158.752 288.961 157.552V149.776H291.673V157.144C291.673 158.328 291.969 159.24 292.561 159.88C293.153 160.504 293.961 160.816 294.985 160.816C296.009 160.816 296.817 160.504 297.409 159.88C298.017 159.24 298.321 158.328 298.321 157.144V149.776H301.057ZM316.787 156.064C316.787 156.56 316.755 157.008 316.691 157.408H306.587C306.667 158.464 307.059 159.312 307.763 159.952C308.467 160.592 309.331 160.912 310.355 160.912C311.827 160.912 312.867 160.296 313.475 159.064H316.427C316.027 160.28 315.299 161.28 314.243 162.064C313.203 162.832 311.907 163.216 310.355 163.216C309.091 163.216 307.955 162.936 306.947 162.376C305.955 161.8 305.171 161 304.595 159.976C304.035 158.936 303.755 157.736 303.755 156.376C303.755 155.016 304.027 153.824 304.571 152.8C305.131 151.76 305.907 150.96 306.899 150.4C307.907 149.84 309.059 149.56 310.355 149.56C311.603 149.56 312.715 149.832 313.691 150.376C314.667 150.92 315.427 151.688 315.971 152.68C316.515 153.656 316.787 154.784 316.787 156.064ZM313.931 155.2C313.915 154.192 313.555 153.384 312.851 152.776C312.147 152.168 311.275 151.864 310.235 151.864C309.291 151.864 308.483 152.168 307.811 152.776C307.139 153.368 306.739 154.176 306.611 155.2H313.931ZM326.152 149.56C327.192 149.56 328.12 149.776 328.936 150.208C329.768 150.64 330.416 151.28 330.88 152.128C331.344 152.976 331.576 154 331.576 155.2V163H328.864V155.608C328.864 154.424 328.568 153.52 327.976 152.896C327.384 152.256 326.576 151.936 325.552 151.936C324.528 151.936 323.712 152.256 323.104 152.896C322.512 153.52 322.216 154.424 322.216 155.608V163H319.48V149.776H322.216V151.288C322.664 150.744 323.232 150.32 323.92 150.016C324.624 149.712 325.368 149.56 326.152 149.56ZM334.154 156.376C334.154 155.016 334.426 153.824 334.97 152.8C335.53 151.76 336.298 150.96 337.274 150.4C338.25 149.84 339.37 149.56 340.634 149.56C342.234 149.56 343.554 149.944 344.594 150.712C345.65 151.464 346.362 152.544 346.73 153.952H343.778C343.538 153.296 343.154 152.784 342.626 152.416C342.098 152.048 341.434 151.864 340.634 151.864C339.514 151.864 338.618 152.264 337.946 153.064C337.29 153.848 336.962 154.952 336.962 156.376C336.962 157.8 337.29 158.912 337.946 159.712C338.618 160.512 339.514 160.912 340.634 160.912C342.218 160.912 343.266 160.216 343.778 158.824H346.73C346.346 160.168 345.626 161.24 344.57 162.04C343.514 162.824 342.202 163.216 340.634 163.216C339.37 163.216 338.25 162.936 337.274 162.376C336.298 161.8 335.53 161 334.97 159.976C334.426 158.936 334.154 157.736 334.154 156.376ZM361.576 156.064C361.576 156.56 361.544 157.008 361.48 157.408H351.376C351.456 158.464 351.848 159.312 352.552 159.952C353.256 160.592 354.12 160.912 355.144 160.912C356.616 160.912 357.656 160.296 358.264 159.064H361.216C360.816 160.28 360.088 161.28 359.032 162.064C357.992 162.832 356.696 163.216 355.144 163.216C353.88 163.216 352.744 162.936 351.736 162.376C350.744 161.8 349.96 161 349.384 159.976C348.824 158.936 348.544 157.736 348.544 156.376C348.544 155.016 348.816 153.824 349.36 152.8C349.92 151.76 350.696 150.96 351.688 150.4C352.696 149.84 353.848 149.56 355.144 149.56C356.392 149.56 357.504 149.832 358.48 150.376C359.456 150.92 360.216 151.688 360.76 152.68C361.304 153.656 361.576 154.784 361.576 156.064ZM358.72 155.2C358.704 154.192 358.344 153.384 357.64 152.776C356.936 152.168 356.064 151.864 355.024 151.864C354.08 151.864 353.272 152.168 352.6 152.776C351.928 153.368 351.528 154.176 351.4 155.2H358.72Z" fill="#E04D4D"/>
<g filter="url(#filter3_i_25_122)">
<rect x="406" y="126" width="166" height="57" rx="28.5" fill="#FBF5F0"/>
</g>
<path d="M449.478 154.432C450.374 154.592 451.134 155.064 451.758 155.848C452.382 156.632 452.694 157.52 452.694 158.512C452.694 159.36 452.47 160.128 452.022 160.816C451.59 161.488 450.958 162.024 450.126 162.424C449.294 162.808 448.326 163 447.222 163H440.55V146.32H446.91C448.046 146.32 449.022 146.512 449.838 146.896C450.654 147.28 451.27 147.8 451.686 148.456C452.102 149.096 452.31 149.816 452.31 150.616C452.31 151.576 452.054 152.376 451.542 153.016C451.03 153.656 450.342 154.128 449.478 154.432ZM443.286 153.328H446.67C447.566 153.328 448.262 153.128 448.758 152.728C449.27 152.312 449.526 151.72 449.526 150.952C449.526 150.2 449.27 149.616 448.758 149.2C448.262 148.768 447.566 148.552 446.67 148.552H443.286V153.328ZM446.982 160.768C447.91 160.768 448.638 160.544 449.166 160.096C449.694 159.648 449.958 159.024 449.958 158.224C449.958 157.408 449.678 156.76 449.118 156.28C448.558 155.8 447.814 155.56 446.886 155.56H443.286V160.768H446.982ZM457.059 148.024C456.563 148.024 456.147 147.856 455.811 147.52C455.475 147.184 455.307 146.768 455.307 146.272C455.307 145.776 455.475 145.36 455.811 145.024C456.147 144.688 456.563 144.52 457.059 144.52C457.539 144.52 457.947 144.688 458.283 145.024C458.619 145.36 458.787 145.776 458.787 146.272C458.787 146.768 458.619 147.184 458.283 147.52C457.947 147.856 457.539 148.024 457.059 148.024ZM458.403 149.776V163H455.667V149.776H458.403ZM465.187 152.008V159.328C465.187 159.824 465.299 160.184 465.523 160.408C465.763 160.616 466.163 160.72 466.723 160.72H468.403V163H466.243C465.011 163 464.067 162.712 463.411 162.136C462.755 161.56 462.427 160.624 462.427 159.328V152.008H460.867V149.776H462.427V146.488H465.187V149.776H468.403V152.008H465.187ZM479.853 154.432C480.749 154.592 481.509 155.064 482.133 155.848C482.757 156.632 483.069 157.52 483.069 158.512C483.069 159.36 482.845 160.128 482.397 160.816C481.965 161.488 481.333 162.024 480.501 162.424C479.669 162.808 478.701 163 477.597 163H470.925V146.32H477.285C478.421 146.32 479.397 146.512 480.213 146.896C481.029 147.28 481.645 147.8 482.061 148.456C482.477 149.096 482.685 149.816 482.685 150.616C482.685 151.576 482.429 152.376 481.917 153.016C481.405 153.656 480.717 154.128 479.853 154.432ZM473.661 153.328H477.045C477.941 153.328 478.637 153.128 479.133 152.728C479.645 152.312 479.901 151.72 479.901 150.952C479.901 150.2 479.645 149.616 479.133 149.2C478.637 148.768 477.941 148.552 477.045 148.552H473.661V153.328ZM477.357 160.768C478.285 160.768 479.013 160.544 479.541 160.096C480.069 159.648 480.333 159.024 480.333 158.224C480.333 157.408 480.053 156.76 479.493 156.28C478.933 155.8 478.189 155.56 477.261 155.56H473.661V160.768H477.357ZM498.018 149.776V163H495.282V161.44C494.85 161.984 494.282 162.416 493.578 162.736C492.89 163.04 492.154 163.192 491.37 163.192C490.33 163.192 489.394 162.976 488.562 162.544C487.746 162.112 487.098 161.472 486.618 160.624C486.154 159.776 485.922 158.752 485.922 157.552V149.776H488.634V157.144C488.634 158.328 488.93 159.24 489.522 159.88C490.114 160.504 490.922 160.816 491.946 160.816C492.97 160.816 493.778 160.504 494.37 159.88C494.978 159.24 495.282 158.328 495.282 157.144V149.776H498.018ZM500.716 156.376C500.716 155.016 500.988 153.824 501.532 152.8C502.092 151.76 502.86 150.96 503.836 150.4C504.812 149.84 505.932 149.56 507.196 149.56C508.796 149.56 510.116 149.944 511.156 150.712C512.212 151.464 512.924 152.544 513.292 153.952H510.34C510.1 153.296 509.716 152.784 509.188 152.416C508.66 152.048 507.996 151.864 507.196 151.864C506.076 151.864 505.18 152.264 504.508 153.064C503.852 153.848 503.524 154.952 503.524 156.376C503.524 157.8 503.852 158.912 504.508 159.712C505.18 160.512 506.076 160.912 507.196 160.912C508.78 160.912 509.828 160.216 510.34 158.824H513.292C512.908 160.168 512.188 161.24 511.132 162.04C510.076 162.824 508.764 163.216 507.196 163.216C505.932 163.216 504.812 162.936 503.836 162.376C502.86 161.8 502.092 161 501.532 159.976C500.988 158.936 500.716 157.736 500.716 156.376ZM521.251 156.4L527.347 163H523.651L518.755 157.312V163H516.019V145.24H518.755V155.56L523.555 149.776H527.347L521.251 156.4ZM541.428 156.064C541.428 156.56 541.396 157.008 541.332 157.408H531.228C531.308 158.464 531.7 159.312 532.404 159.952C533.108 160.592 533.972 160.912 534.996 160.912C536.468 160.912 537.508 160.296 538.116 159.064H541.068C540.668 160.28 539.94 161.28 538.884 162.064C537.844 162.832 536.548 163.216 534.996 163.216C533.732 163.216 532.596 162.936 531.588 162.376C530.596 161.8 529.812 161 529.236 159.976C528.676 158.936 528.396 157.736 528.396 156.376C528.396 155.016 528.668 153.824 529.212 152.8C529.772 151.76 530.548 150.96 531.54 150.4C532.548 149.84 533.7 149.56 534.996 149.56C536.244 149.56 537.356 149.832 538.332 150.376C539.308 150.92 540.068 151.688 540.612 152.68C541.156 153.656 541.428 154.784 541.428 156.064ZM538.572 155.2C538.556 154.192 538.196 153.384 537.492 152.776C536.788 152.168 535.916 151.864 534.876 151.864C533.932 151.864 533.124 152.168 532.452 152.776C531.78 153.368 531.38 154.176 531.252 155.2H538.572ZM547.312 152.008V159.328C547.312 159.824 547.424 160.184 547.648 160.408C547.888 160.616 548.288 160.72 548.848 160.72H550.528V163H548.368C547.136 163 546.192 162.712 545.536 162.136C544.88 161.56 544.552 160.624 544.552 159.328V152.008H542.992V149.776H544.552V146.488H547.312V149.776H550.528V152.008H547.312Z" fill="#E04D4D"/>
<defs>
<filter id="filter0_f_25_122" x="0" y="0" width="641" height="252" filterUnits="userSpaceOnUse" color-interpolation-filters="sRGB">
<feFlood flood-opacity="0" result="BackgroundImageFix"/>
<feBlend mode="normal" in="SourceGraphic" in2="BackgroundImageFix" result="shape"/>
<feGaussianBlur stdDeviation="10.5" result="effect1_foregroundBlur_25_122"/>
</filter>
<filter id="filter1_i_25_122" x="60" y="126" width="116" height="59.1923" filterUnits="userSpaceOnUse" color-interpolation-filters="sRGB">
<feFlood flood-opacity="0" result="BackgroundImageFix"/>
<feBlend mode="normal" in="SourceGraphic" in2="BackgroundImageFix" result="shape"/>
<feColorMatrix in="SourceAlpha" type="matrix" values="0 0 0 0 0 0 0 0 0 0 0 0 0 0 0 0 0 0 127 0" result="hardAlpha"/>
<feOffset dy="2.19231"/>
<feGaussianBlur stdDeviation="3.28846"/>
<feComposite in2="hardAlpha" operator="arithmetic" k2="-1" k3="1"/>
<feColorMatrix type="matrix" values="0 0 0 0 0.820833 0 0 0 0 0.563789 0 0 0 0 0.376215 0 0 0 0.22 0"/>
<feBlend mode="normal" in2="shape" result="effect1_innerShadow_25_122"/>
</filter>
<filter id="filter2_i_25_122" x="199" y="126" width="187" height="59.1923" filterUnits="userSpaceOnUse" color-interpolation-filters="sRGB">
<feFlood flood-opacity="0" result="BackgroundImageFix"/>
<feBlend mode="normal" in="SourceGraphic" in2="BackgroundImageFix" result="shape"/>
<feColorMatrix in="SourceAlpha" type="matrix" values="0 0 0 0 0 0 0 0 0 0 0 0 0 0 0 0 0 0 127 0" result="hardAlpha"/>
<feOffset dy="2.19231"/>
<feGaussianBlur stdDeviation="3.28846"/>
<feComposite in2="hardAlpha" operator="arithmetic" k2="-1" k3="1"/>
<feColorMatrix type="matrix" values="0 0 0 0 0.820833 0 0 0 0 0.563789 0 0 0 0 0.376215 0 0 0 0.22 0"/>
<feBlend mode="normal" in2="shape" result="effect1_innerShadow_25_122"/>
</filter>
<filter id="filter3_i_25_122" x="406" y="126" width="166" height="59.1923" filterUnits="userSpaceOnUse" color-interpolation-filters="sRGB">
<feFlood flood-opacity="0" result="BackgroundImageFix"/>
<feBlend mode="normal" in="SourceGraphic" in2="BackgroundImageFix" result="shape"/>
<feColorMatrix in="SourceAlpha" type="matrix" values="0 0 0 0 0 0 0 0 0 0 0 0 0 0 0 0 0 0 127 0" result="hardAlpha"/>
<feOffset dy="2.19231"/>
<feGaussianBlur stdDeviation="3.28846"/>
<feComposite in2="hardAlpha" operator="arithmetic" k2="-1" k3="1"/>
<feColorMatrix type="matrix" values="0 0 0 0 0.820833 0 0 0 0 0.563789 0 0 0 0 0.376215 0 0 0 0.22 0"/>
<feBlend mode="normal" in2="shape" result="effect1_innerShadow_25_122"/>
</filter>
<linearGradient id="paint0_linear_25_122" x1="82.6283" y1="56" x2="116.538" y2="90.7378" gradientUnits="userSpaceOnUse">
<stop stop-color="#E04D4D"/>
<stop offset="1" stop-color="#F9C1C1"/>
<stop offset="1" stop-color="#F9C1C1"/>
</linearGradient>
</defs>
</svg>
