<svg width="641" height="311" viewBox="0 0 641 311" fill="none" xmlns="http://www.w3.org/2000/svg">
<g filter="url(#filter0_f_26_25)">
<rect x="21" y="21" width="599" height="269" rx="30" fill="#E9CACD" fill-opacity="0.74"/>
</g>
<rect x="21" y="13" width="599" height="269" rx="30" fill="white"/>
<path d="M76.9747 147.936C76.1587 147.936 75.4627 147.656 74.8867 147.096C74.3267 146.52 74.0467 145.824 74.0467 145.008C74.0467 144.176 74.3267 143.48 74.8867 142.92C75.4627 142.344 76.1587 142.056 76.9747 142.056C77.8067 142.056 78.5107 142.344 79.0867 142.92C79.6627 143.48 79.9507 144.176 79.9507 145.008C79.9507 145.824 79.6627 146.52 79.0867 147.096C78.5107 147.656 77.8067 147.936 76.9747 147.936ZM96.032 144.624C96.032 142.992 96.4 141.528 97.136 140.232C97.872 138.92 98.872 137.896 100.136 137.16C101.416 136.424 102.832 136.056 104.384 136.056C106.208 136.056 107.8 136.496 109.16 137.376C110.52 138.256 111.512 139.504 112.136 141.12H109.52C109.056 140.112 108.384 139.336 107.504 138.792C106.64 138.248 105.6 137.976 104.384 137.976C103.216 137.976 102.168 138.248 101.24 138.792C100.312 139.336 99.584 140.112 99.056 141.12C98.528 142.112 98.264 143.28 98.264 144.624C98.264 145.952 98.528 147.12 99.056 148.128C99.584 149.12 100.312 149.888 101.24 150.432C102.168 150.976 103.216 151.248 104.384 151.248C105.6 151.248 106.64 150.984 107.504 150.456C108.384 149.912 109.056 149.136 109.52 148.128H112.136C111.512 149.728 110.52 150.968 109.16 151.848C107.8 152.712 106.208 153.144 104.384 153.144C102.832 153.144 101.416 152.784 100.136 152.064C98.872 151.328 97.872 150.312 97.136 149.016C96.4 147.72 96.032 146.256 96.032 144.624ZM121.123 153.216C119.891 153.216 118.771 152.936 117.763 152.376C116.771 151.816 115.987 151.024 115.411 150C114.851 148.96 114.571 147.76 114.571 146.4C114.571 145.056 114.859 143.872 115.435 142.848C116.027 141.808 116.827 141.016 117.835 140.472C118.843 139.912 119.971 139.632 121.219 139.632C122.467 139.632 123.595 139.912 124.603 140.472C125.611 141.016 126.403 141.8 126.979 142.824C127.571 143.848 127.867 145.04 127.867 146.4C127.867 147.76 127.563 148.96 126.955 150C126.363 151.024 125.555 151.816 124.531 152.376C123.507 152.936 122.371 153.216 121.123 153.216ZM121.123 151.296C121.907 151.296 122.643 151.112 123.331 150.744C124.019 150.376 124.571 149.824 124.987 149.088C125.419 148.352 125.635 147.456 125.635 146.4C125.635 145.344 125.427 144.448 125.011 143.712C124.595 142.976 124.051 142.432 123.379 142.08C122.707 141.712 121.979 141.528 121.195 141.528C120.395 141.528 119.659 141.712 118.987 142.08C118.331 142.432 117.803 142.976 117.403 143.712C117.003 144.448 116.803 145.344 116.803 146.4C116.803 147.472 116.995 148.376 117.379 149.112C117.779 149.848 118.307 150.4 118.963 150.768C119.619 151.12 120.339 151.296 121.123 151.296ZM146.555 139.608C147.579 139.608 148.491 139.824 149.291 140.256C150.091 140.672 150.723 141.304 151.187 142.152C151.651 143 151.883 144.032 151.883 145.248V153H149.723V145.56C149.723 144.248 149.395 143.248 148.739 142.56C148.099 141.856 147.227 141.504 146.123 141.504C144.987 141.504 144.083 141.872 143.411 142.608C142.739 143.328 142.403 144.376 142.403 145.752V153H140.243V145.56C140.243 144.248 139.915 143.248 139.259 142.56C138.619 141.856 137.747 141.504 136.643 141.504C135.507 141.504 134.603 141.872 133.931 142.608C133.259 143.328 132.923 144.376 132.923 145.752V153H130.739V139.848H132.923V141.744C133.355 141.056 133.931 140.528 134.651 140.16C135.387 139.792 136.195 139.608 137.075 139.608C138.179 139.608 139.155 139.856 140.003 140.352C140.851 140.848 141.483 141.576 141.899 142.536C142.267 141.608 142.875 140.888 143.723 140.376C144.571 139.864 145.515 139.608 146.555 139.608ZM156.593 137.712C156.177 137.712 155.825 137.568 155.537 137.28C155.249 136.992 155.105 136.64 155.105 136.224C155.105 135.808 155.249 135.456 155.537 135.168C155.825 134.88 156.177 134.736 156.593 134.736C156.993 134.736 157.329 134.88 157.601 135.168C157.889 135.456 158.033 135.808 158.033 136.224C158.033 136.64 157.889 136.992 157.601 137.28C157.329 137.568 156.993 137.712 156.593 137.712ZM157.649 139.848V153H155.465V139.848H157.649ZM167.779 139.608C169.379 139.608 170.675 140.096 171.667 141.072C172.659 142.032 173.155 143.424 173.155 145.248V153H170.995V145.56C170.995 144.248 170.667 143.248 170.011 142.56C169.355 141.856 168.459 141.504 167.323 141.504C166.171 141.504 165.251 141.864 164.563 142.584C163.891 143.304 163.555 144.352 163.555 145.728V153H161.371V139.848H163.555V141.72C163.987 141.048 164.571 140.528 165.307 140.16C166.059 139.792 166.883 139.608 167.779 139.608ZM182.147 139.632C183.283 139.632 184.275 139.88 185.123 140.376C185.987 140.872 186.627 141.496 187.043 142.248V139.848H189.251V153.288C189.251 154.488 188.995 155.552 188.483 156.48C187.971 157.424 187.235 158.16 186.275 158.688C185.331 159.216 184.227 159.48 182.963 159.48C181.235 159.48 179.795 159.072 178.643 158.256C177.491 157.44 176.811 156.328 176.603 154.92H178.763C179.003 155.72 179.499 156.36 180.251 156.84C181.003 157.336 181.907 157.584 182.963 157.584C184.163 157.584 185.139 157.208 185.891 156.456C186.659 155.704 187.043 154.648 187.043 153.288V150.528C186.611 151.296 185.971 151.936 185.123 152.448C184.275 152.96 183.283 153.216 182.147 153.216C180.979 153.216 179.915 152.928 178.955 152.352C178.011 151.776 177.267 150.968 176.723 149.928C176.179 148.888 175.907 147.704 175.907 146.376C175.907 145.032 176.179 143.856 176.723 142.848C177.267 141.824 178.011 141.032 178.955 140.472C179.915 139.912 180.979 139.632 182.147 139.632ZM187.043 146.4C187.043 145.408 186.843 144.544 186.443 143.808C186.043 143.072 185.499 142.512 184.811 142.128C184.139 141.728 183.395 141.528 182.579 141.528C181.763 141.528 181.019 141.72 180.347 142.104C179.675 142.488 179.139 143.048 178.739 143.784C178.339 144.52 178.139 145.384 178.139 146.376C178.139 147.384 178.339 148.264 178.739 149.016C179.139 149.752 179.675 150.32 180.347 150.72C181.019 151.104 181.763 151.296 182.579 151.296C183.395 151.296 184.139 151.104 184.811 150.72C185.499 150.32 186.043 149.752 186.443 149.016C186.843 148.264 187.043 147.392 187.043 146.4ZM211.004 139.848V153H208.82V151.056C208.404 151.728 207.82 152.256 207.068 152.64C206.332 153.008 205.516 153.192 204.62 153.192C203.596 153.192 202.676 152.984 201.86 152.568C201.044 152.136 200.396 151.496 199.916 150.648C199.452 149.8 199.22 148.768 199.22 147.552V139.848H201.38V147.264C201.38 148.56 201.708 149.56 202.364 150.264C203.02 150.952 203.916 151.296 205.052 151.296C206.22 151.296 207.14 150.936 207.812 150.216C208.484 149.496 208.82 148.448 208.82 147.072V139.848H211.004ZM216.876 142.272C217.308 141.52 217.948 140.896 218.796 140.4C219.66 139.888 220.66 139.632 221.796 139.632C222.964 139.632 224.02 139.912 224.964 140.472C225.924 141.032 226.676 141.824 227.22 142.848C227.764 143.856 228.036 145.032 228.036 146.376C228.036 147.704 227.764 148.888 227.22 149.928C226.676 150.968 225.924 151.776 224.964 152.352C224.02 152.928 222.964 153.216 221.796 153.216C220.676 153.216 219.684 152.968 218.82 152.472C217.972 151.96 217.324 151.328 216.876 150.576V159.24H214.692V139.848H216.876V142.272ZM225.804 146.376C225.804 145.384 225.604 144.52 225.204 143.784C224.804 143.048 224.26 142.488 223.572 142.104C222.9 141.72 222.156 141.528 221.34 141.528C220.54 141.528 219.796 141.728 219.108 142.128C218.436 142.512 217.892 143.08 217.476 143.832C217.076 144.568 216.876 145.424 216.876 146.4C216.876 147.392 217.076 148.264 217.476 149.016C217.892 149.752 218.436 150.32 219.108 150.72C219.796 151.104 220.54 151.296 221.34 151.296C222.156 151.296 222.9 151.104 223.572 150.72C224.26 150.32 224.804 149.752 225.204 149.016C225.604 148.264 225.804 147.384 225.804 146.376ZM254.829 139.848L250.725 153H248.469L245.301 142.56L242.133 153H239.877L235.749 139.848H237.981L241.005 150.888L244.269 139.848H246.501L249.693 150.912L252.669 139.848H254.829ZM258.124 137.712C257.708 137.712 257.356 137.568 257.068 137.28C256.78 136.992 256.636 136.64 256.636 136.224C256.636 135.808 256.78 135.456 257.068 135.168C257.356 134.88 257.708 134.736 258.124 134.736C258.524 134.736 258.86 134.88 259.132 135.168C259.42 135.456 259.564 135.808 259.564 136.224C259.564 136.64 259.42 136.992 259.132 137.28C258.86 137.568 258.524 137.712 258.124 137.712ZM259.18 139.848V153H256.996V139.848H259.18ZM265.567 141.648V149.4C265.567 150.04 265.703 150.496 265.975 150.768C266.247 151.024 266.719 151.152 267.391 151.152H268.999V153H267.031C265.815 153 264.903 152.72 264.295 152.16C263.687 151.6 263.383 150.68 263.383 149.4V141.648H261.679V139.848H263.383V136.536H265.567V139.848H268.999V141.648H265.567ZM278.173 139.608C279.165 139.608 280.061 139.824 280.861 140.256C281.661 140.672 282.285 141.304 282.733 142.152C283.197 143 283.429 144.032 283.429 145.248V153H281.269V145.56C281.269 144.248 280.941 143.248 280.285 142.56C279.629 141.856 278.733 141.504 277.597 141.504C276.445 141.504 275.525 141.864 274.837 142.584C274.165 143.304 273.829 144.352 273.829 145.728V153H271.645V135.24H273.829V141.72C274.261 141.048 274.853 140.528 275.605 140.16C276.373 139.792 277.229 139.608 278.173 139.608ZM299.803 139.608C301.403 139.608 302.699 140.096 303.691 141.072C304.683 142.032 305.179 143.424 305.179 145.248V153H303.019V145.56C303.019 144.248 302.691 143.248 302.035 142.56C301.379 141.856 300.483 141.504 299.347 141.504C298.195 141.504 297.275 141.864 296.587 142.584C295.915 143.304 295.579 144.352 295.579 145.728V153H293.395V139.848H295.579V141.72C296.011 141.048 296.595 140.528 297.331 140.16C298.083 139.792 298.907 139.608 299.803 139.608ZM314.482 153.216C313.25 153.216 312.13 152.936 311.122 152.376C310.13 151.816 309.346 151.024 308.77 150C308.21 148.96 307.93 147.76 307.93 146.4C307.93 145.056 308.218 143.872 308.794 142.848C309.386 141.808 310.186 141.016 311.194 140.472C312.202 139.912 313.33 139.632 314.578 139.632C315.826 139.632 316.954 139.912 317.962 140.472C318.97 141.016 319.762 141.8 320.338 142.824C320.93 143.848 321.226 145.04 321.226 146.4C321.226 147.76 320.922 148.96 320.314 150C319.722 151.024 318.914 151.816 317.89 152.376C316.866 152.936 315.73 153.216 314.482 153.216ZM314.482 151.296C315.266 151.296 316.002 151.112 316.69 150.744C317.378 150.376 317.93 149.824 318.346 149.088C318.778 148.352 318.994 147.456 318.994 146.4C318.994 145.344 318.786 144.448 318.37 143.712C317.954 142.976 317.41 142.432 316.738 142.08C316.066 141.712 315.338 141.528 314.554 141.528C313.754 141.528 313.018 141.712 312.346 142.08C311.69 142.432 311.162 142.976 310.762 143.712C310.362 144.448 310.162 145.344 310.162 146.4C310.162 147.472 310.354 148.376 310.738 149.112C311.138 149.848 311.666 150.4 312.322 150.768C312.978 151.12 313.698 151.296 314.482 151.296ZM328.994 150.984L333.074 139.848H335.402L330.242 153H327.698L322.538 139.848H324.89L328.994 150.984ZM349.551 145.92C349.551 146.336 349.527 146.776 349.479 147.24H338.967C339.047 148.536 339.487 149.552 340.287 150.288C341.103 151.008 342.087 151.368 343.239 151.368C344.183 151.368 344.967 151.152 345.591 150.72C346.231 150.272 346.679 149.68 346.935 148.944H349.287C348.935 150.208 348.231 151.24 347.175 152.04C346.119 152.824 344.807 153.216 343.239 153.216C341.991 153.216 340.871 152.936 339.879 152.376C338.903 151.816 338.135 151.024 337.575 150C337.015 148.96 336.735 147.76 336.735 146.4C336.735 145.04 337.007 143.848 337.551 142.824C338.095 141.8 338.855 141.016 339.831 140.472C340.823 139.912 341.959 139.632 343.239 139.632C344.487 139.632 345.591 139.904 346.551 140.448C347.511 140.992 348.247 141.744 348.759 142.704C349.287 143.648 349.551 144.72 349.551 145.92ZM347.295 145.464C347.295 144.632 347.111 143.92 346.743 143.328C346.375 142.72 345.871 142.264 345.231 141.96C344.607 141.64 343.911 141.48 343.143 141.48C342.039 141.48 341.095 141.832 340.311 142.536C339.543 143.24 339.103 144.216 338.991 145.464H347.295ZM354.618 135.24V153H352.434V135.24H354.618ZM365.867 137.712C365.451 137.712 365.099 137.568 364.811 137.28C364.523 136.992 364.379 136.64 364.379 136.224C364.379 135.808 364.523 135.456 364.811 135.168C365.099 134.88 365.451 134.736 365.867 134.736C366.267 134.736 366.603 134.88 366.875 135.168C367.163 135.456 367.307 135.808 367.307 136.224C367.307 136.64 367.163 136.992 366.875 137.28C366.603 137.568 366.267 137.712 365.867 137.712ZM366.923 139.848V153H364.739V139.848H366.923ZM369.829 146.376C369.829 145.032 370.101 143.856 370.645 142.848C371.189 141.824 371.933 141.032 372.877 140.472C373.837 139.912 374.909 139.632 376.093 139.632C377.117 139.632 378.069 139.872 378.949 140.352C379.829 140.816 380.501 141.432 380.965 142.2V135.24H383.173V153H380.965V150.528C380.533 151.312 379.893 151.96 379.045 152.472C378.197 152.968 377.205 153.216 376.069 153.216C374.901 153.216 373.837 152.928 372.877 152.352C371.933 151.776 371.189 150.968 370.645 149.928C370.101 148.888 369.829 147.704 369.829 146.376ZM380.965 146.4C380.965 145.408 380.765 144.544 380.365 143.808C379.965 143.072 379.421 142.512 378.733 142.128C378.061 141.728 377.317 141.528 376.501 141.528C375.685 141.528 374.941 141.72 374.269 142.104C373.597 142.488 373.061 143.048 372.661 143.784C372.261 144.52 372.061 145.384 372.061 146.376C372.061 147.384 372.261 148.264 372.661 149.016C373.061 149.752 373.597 150.32 374.269 150.72C374.941 151.104 375.685 151.296 376.501 151.296C377.317 151.296 378.061 151.104 378.733 150.72C379.421 150.32 379.965 149.752 380.365 149.016C380.765 148.264 380.965 147.392 380.965 146.4ZM398.864 145.92C398.864 146.336 398.84 146.776 398.792 147.24H388.28C388.36 148.536 388.8 149.552 389.6 150.288C390.416 151.008 391.4 151.368 392.552 151.368C393.496 151.368 394.28 151.152 394.904 150.72C395.544 150.272 395.992 149.68 396.248 148.944H398.6C398.248 150.208 397.544 151.24 396.488 152.04C395.432 152.824 394.12 153.216 392.552 153.216C391.304 153.216 390.184 152.936 389.192 152.376C388.216 151.816 387.448 151.024 386.888 150C386.328 148.96 386.048 147.76 386.048 146.4C386.048 145.04 386.32 143.848 386.864 142.824C387.408 141.8 388.168 141.016 389.144 140.472C390.136 139.912 391.272 139.632 392.552 139.632C393.8 139.632 394.904 139.904 395.864 140.448C396.824 140.992 397.56 141.744 398.072 142.704C398.6 143.648 398.864 144.72 398.864 145.92ZM396.608 145.464C396.608 144.632 396.424 143.92 396.056 143.328C395.688 142.72 395.184 142.264 394.544 141.96C393.92 141.64 393.224 141.48 392.456 141.48C391.352 141.48 390.408 141.832 389.624 142.536C388.856 143.24 388.416 144.216 388.304 145.464H396.608ZM400.93 146.376C400.93 145.032 401.202 143.856 401.746 142.848C402.29 141.824 403.034 141.032 403.978 140.472C404.938 139.912 406.002 139.632 407.17 139.632C408.322 139.632 409.322 139.88 410.17 140.376C411.018 140.872 411.65 141.496 412.066 142.248V139.848H414.274V153H412.066V150.552C411.634 151.32 410.986 151.96 410.122 152.472C409.274 152.968 408.282 153.216 407.146 153.216C405.978 153.216 404.922 152.928 403.978 152.352C403.034 151.776 402.29 150.968 401.746 149.928C401.202 148.888 400.93 147.704 400.93 146.376ZM412.066 146.4C412.066 145.408 411.866 144.544 411.466 143.808C411.066 143.072 410.522 142.512 409.834 142.128C409.162 141.728 408.418 141.528 407.602 141.528C406.786 141.528 406.042 141.72 405.37 142.104C404.698 142.488 404.162 143.048 403.762 143.784C403.362 144.52 403.162 145.384 403.162 146.376C403.162 147.384 403.362 148.264 403.762 149.016C404.162 149.752 404.698 150.32 405.37 150.72C406.042 151.104 406.786 151.296 407.602 151.296C408.418 151.296 409.162 151.104 409.834 150.72C410.522 150.32 411.066 149.752 411.466 149.016C411.866 148.264 412.066 147.392 412.066 146.4ZM422.621 153.216C421.613 153.216 420.709 153.048 419.909 152.712C419.109 152.36 418.477 151.88 418.013 151.272C417.549 150.648 417.293 149.936 417.245 149.136H419.501C419.565 149.792 419.869 150.328 420.413 150.744C420.973 151.16 421.701 151.368 422.597 151.368C423.429 151.368 424.085 151.184 424.565 150.816C425.045 150.448 425.285 149.984 425.285 149.424C425.285 148.848 425.029 148.424 424.517 148.152C424.005 147.864 423.213 147.584 422.141 147.312C421.165 147.056 420.365 146.8 419.741 146.544C419.133 146.272 418.605 145.88 418.157 145.368C417.725 144.84 417.509 144.152 417.509 143.304C417.509 142.632 417.709 142.016 418.109 141.456C418.509 140.896 419.077 140.456 419.813 140.136C420.549 139.8 421.389 139.632 422.333 139.632C423.789 139.632 424.965 140 425.861 140.736C426.757 141.472 427.237 142.48 427.301 143.76H425.117C425.069 143.072 424.789 142.52 424.277 142.104C423.781 141.688 423.109 141.48 422.261 141.48C421.477 141.48 420.853 141.648 420.389 141.984C419.925 142.32 419.693 142.76 419.693 143.304C419.693 143.736 419.829 144.096 420.101 144.384C420.389 144.656 420.741 144.88 421.157 145.056C421.589 145.216 422.181 145.4 422.933 145.608C423.877 145.864 424.645 146.12 425.237 146.376C425.829 146.616 426.333 146.984 426.749 147.48C427.181 147.976 427.405 148.624 427.421 149.424C427.421 150.144 427.221 150.792 426.821 151.368C426.421 151.944 425.853 152.4 425.117 152.736C424.397 153.056 423.565 153.216 422.621 153.216ZM442.255 141.648H439.495V153H437.311V141.648H435.607V139.848H437.311V138.912C437.311 137.44 437.687 136.368 438.439 135.696C439.207 135.008 440.431 134.664 442.111 134.664V136.488C441.151 136.488 440.471 136.68 440.071 137.064C439.687 137.432 439.495 138.048 439.495 138.912V139.848H442.255V141.648ZM450.537 153.216C449.305 153.216 448.185 152.936 447.177 152.376C446.185 151.816 445.401 151.024 444.825 150C444.265 148.96 443.985 147.76 443.985 146.4C443.985 145.056 444.273 143.872 444.849 142.848C445.441 141.808 446.241 141.016 447.249 140.472C448.257 139.912 449.385 139.632 450.633 139.632C451.881 139.632 453.009 139.912 454.017 140.472C455.025 141.016 455.817 141.8 456.393 142.824C456.985 143.848 457.281 145.04 457.281 146.4C457.281 147.76 456.977 148.96 456.369 150C455.777 151.024 454.969 151.816 453.945 152.376C452.921 152.936 451.785 153.216 450.537 153.216ZM450.537 151.296C451.321 151.296 452.057 151.112 452.745 150.744C453.433 150.376 453.985 149.824 454.401 149.088C454.833 148.352 455.049 147.456 455.049 146.4C455.049 145.344 454.841 144.448 454.425 143.712C454.009 142.976 453.465 142.432 452.793 142.08C452.121 141.712 451.393 141.528 450.609 141.528C449.809 141.528 449.073 141.712 448.401 142.08C447.745 142.432 447.217 142.976 446.817 143.712C446.417 144.448 446.217 145.344 446.217 146.4C446.217 147.472 446.409 148.376 446.793 149.112C447.193 149.848 447.721 150.4 448.377 150.768C449.033 151.12 449.753 151.296 450.537 151.296ZM462.337 141.984C462.721 141.232 463.265 140.648 463.969 140.232C464.689 139.816 465.561 139.608 466.585 139.608V141.864H466.009C463.561 141.864 462.337 143.192 462.337 145.848V153H460.153V139.848H462.337V141.984ZM487.168 139.848V153H484.984V151.056C484.568 151.728 483.984 152.256 483.232 152.64C482.496 153.008 481.68 153.192 480.784 153.192C479.76 153.192 478.84 152.984 478.024 152.568C477.208 152.136 476.56 151.496 476.08 150.648C475.616 149.8 475.384 148.768 475.384 147.552V139.848H477.544V147.264C477.544 148.56 477.872 149.56 478.528 150.264C479.184 150.952 480.08 151.296 481.216 151.296C482.384 151.296 483.304 150.936 483.976 150.216C484.648 149.496 484.984 148.448 484.984 147.072V139.848H487.168ZM497.264 139.608C498.864 139.608 500.16 140.096 501.152 141.072C502.144 142.032 502.64 143.424 502.64 145.248V153H500.48V145.56C500.48 144.248 500.152 143.248 499.496 142.56C498.84 141.856 497.944 141.504 496.808 141.504C495.656 141.504 494.736 141.864 494.048 142.584C493.376 143.304 493.04 144.352 493.04 145.728V153H490.856V139.848H493.04V141.72C493.472 141.048 494.056 140.528 494.792 140.16C495.544 139.792 496.368 139.608 497.264 139.608ZM507.335 137.712C506.919 137.712 506.567 137.568 506.279 137.28C505.991 136.992 505.847 136.64 505.847 136.224C505.847 135.808 505.991 135.456 506.279 135.168C506.567 134.88 506.919 134.736 507.335 134.736C507.735 134.736 508.071 134.88 508.343 135.168C508.631 135.456 508.775 135.808 508.775 136.224C508.775 136.64 508.631 136.992 508.343 137.28C508.071 137.568 507.735 137.712 507.335 137.712ZM508.391 139.848V153H506.207V139.848H508.391ZM511.298 146.376C511.298 145.032 511.57 143.856 512.114 142.848C512.658 141.824 513.402 141.032 514.346 140.472C515.306 139.912 516.378 139.632 517.562 139.632C518.698 139.632 519.69 139.888 520.538 140.4C521.402 140.896 522.034 141.512 522.434 142.248V139.848H524.642V159.24H522.434V150.576C522.018 151.312 521.378 151.936 520.514 152.448C519.65 152.96 518.642 153.216 517.49 153.216C516.338 153.216 515.29 152.928 514.346 152.352C513.402 151.776 512.658 150.968 512.114 149.928C511.57 148.888 511.298 147.704 511.298 146.376ZM522.434 146.4C522.434 145.408 522.234 144.544 521.834 143.808C521.434 143.072 520.89 142.512 520.202 142.128C519.53 141.728 518.786 141.528 517.97 141.528C517.154 141.528 516.41 141.72 515.738 142.104C515.066 142.488 514.53 143.048 514.13 143.784C513.73 144.52 513.53 145.384 513.53 146.376C513.53 147.384 513.73 148.264 514.13 149.016C514.53 149.752 515.066 150.32 515.738 150.72C516.41 151.104 517.154 151.296 517.97 151.296C518.786 151.296 519.53 151.104 520.202 150.72C520.89 150.32 521.434 149.752 521.834 149.016C522.234 148.264 522.434 147.392 522.434 146.4ZM539.996 139.848V153H537.812V151.056C537.396 151.728 536.812 152.256 536.06 152.64C535.324 153.008 534.508 153.192 533.612 153.192C532.588 153.192 531.668 152.984 530.852 152.568C530.036 152.136 529.388 151.496 528.908 150.648C528.444 149.8 528.212 148.768 528.212 147.552V139.848H530.372V147.264C530.372 148.56 530.7 149.56 531.356 150.264C532.012 150.952 532.908 151.296 534.044 151.296C535.212 151.296 536.132 150.936 536.804 150.216C537.476 149.496 537.812 148.448 537.812 147.072V139.848H539.996ZM555.684 145.92C555.684 146.336 555.66 146.776 555.612 147.24H545.1C545.18 148.536 545.62 149.552 546.42 150.288C547.236 151.008 548.22 151.368 549.372 151.368C550.316 151.368 551.1 151.152 551.724 150.72C552.364 150.272 552.812 149.68 553.068 148.944H555.42C555.068 150.208 554.364 151.24 553.308 152.04C552.252 152.824 550.94 153.216 549.372 153.216C548.124 153.216 547.004 152.936 546.012 152.376C545.036 151.816 544.268 151.024 543.708 150C543.148 148.96 542.868 147.76 542.868 146.4C542.868 145.04 543.14 143.848 543.684 142.824C544.228 141.8 544.988 141.016 545.964 140.472C546.956 139.912 548.092 139.632 549.372 139.632C550.62 139.632 551.724 139.904 552.684 140.448C553.644 140.992 554.38 141.744 554.892 142.704C555.42 143.648 555.684 144.72 555.684 145.92ZM553.428 145.464C553.428 144.632 553.244 143.92 552.876 143.328C552.508 142.72 552.004 142.264 551.364 141.96C550.74 141.64 550.044 141.48 549.276 141.48C548.172 141.48 547.228 141.832 546.444 142.536C545.676 143.24 545.236 144.216 545.124 145.464H553.428ZM96.032 182.376C96.032 181.032 96.304 179.856 96.848 178.848C97.392 177.824 98.136 177.032 99.08 176.472C100.04 175.912 101.104 175.632 102.272 175.632C103.424 175.632 104.424 175.88 105.272 176.376C106.12 176.872 106.752 177.496 107.168 178.248V175.848H109.376V189H107.168V186.552C106.736 187.32 106.088 187.96 105.224 188.472C104.376 188.968 103.384 189.216 102.248 189.216C101.08 189.216 100.024 188.928 99.08 188.352C98.136 187.776 97.392 186.968 96.848 185.928C96.304 184.888 96.032 183.704 96.032 182.376ZM107.168 182.4C107.168 181.408 106.968 180.544 106.568 179.808C106.168 179.072 105.624 178.512 104.936 178.128C104.264 177.728 103.52 177.528 102.704 177.528C101.888 177.528 101.144 177.72 100.472 178.104C99.8 178.488 99.264 179.048 98.864 179.784C98.464 180.52 98.264 181.384 98.264 182.376C98.264 183.384 98.464 184.264 98.864 185.016C99.264 185.752 99.8 186.32 100.472 186.72C101.144 187.104 101.888 187.296 102.704 187.296C103.52 187.296 104.264 187.104 104.936 186.72C105.624 186.32 106.168 185.752 106.568 185.016C106.968 184.264 107.168 183.392 107.168 182.4ZM115.251 178.272C115.683 177.52 116.323 176.896 117.171 176.4C118.035 175.888 119.035 175.632 120.171 175.632C121.339 175.632 122.395 175.912 123.339 176.472C124.299 177.032 125.051 177.824 125.595 178.848C126.139 179.856 126.411 181.032 126.411 182.376C126.411 183.704 126.139 184.888 125.595 185.928C125.051 186.968 124.299 187.776 123.339 188.352C122.395 188.928 121.339 189.216 120.171 189.216C119.051 189.216 118.059 188.968 117.195 188.472C116.347 187.96 115.699 187.328 115.251 186.576V195.24H113.067V175.848H115.251V178.272ZM124.179 182.376C124.179 181.384 123.979 180.52 123.579 179.784C123.179 179.048 122.635 178.488 121.947 178.104C121.275 177.72 120.531 177.528 119.715 177.528C118.915 177.528 118.171 177.728 117.483 178.128C116.811 178.512 116.267 179.08 115.851 179.832C115.451 180.568 115.251 181.424 115.251 182.4C115.251 183.392 115.451 184.264 115.851 185.016C116.267 185.752 116.811 186.32 117.483 186.72C118.171 187.104 118.915 187.296 119.715 187.296C120.531 187.296 121.275 187.104 121.947 186.72C122.635 186.32 123.179 185.752 123.579 185.016C123.979 184.264 124.179 183.384 124.179 182.376ZM131.47 178.272C131.902 177.52 132.542 176.896 133.39 176.4C134.254 175.888 135.254 175.632 136.39 175.632C137.558 175.632 138.614 175.912 139.557 176.472C140.517 177.032 141.27 177.824 141.814 178.848C142.358 179.856 142.63 181.032 142.63 182.376C142.63 183.704 142.358 184.888 141.814 185.928C141.27 186.968 140.517 187.776 139.557 188.352C138.614 188.928 137.558 189.216 136.39 189.216C135.27 189.216 134.278 188.968 133.414 188.472C132.566 187.96 131.918 187.328 131.47 186.576V195.24H129.286V175.848H131.47V178.272ZM140.398 182.376C140.398 181.384 140.198 180.52 139.798 179.784C139.398 179.048 138.854 178.488 138.166 178.104C137.494 177.72 136.75 177.528 135.934 177.528C135.134 177.528 134.39 177.728 133.702 178.128C133.03 178.512 132.486 179.08 132.07 179.832C131.67 180.568 131.47 181.424 131.47 182.4C131.47 183.392 131.67 184.264 132.07 185.016C132.486 185.752 133.03 186.32 133.702 186.72C134.39 187.104 135.134 187.296 135.934 187.296C136.75 187.296 137.494 187.104 138.166 186.72C138.854 186.32 139.398 185.752 139.798 185.016C140.198 184.264 140.398 183.384 140.398 182.376ZM154.624 179.28V181.128H145.048V179.28H154.624ZM163.379 189.216C162.371 189.216 161.467 189.048 160.667 188.712C159.867 188.36 159.235 187.88 158.771 187.272C158.307 186.648 158.051 185.936 158.003 185.136H160.259C160.323 185.792 160.627 186.328 161.171 186.744C161.731 187.16 162.459 187.368 163.355 187.368C164.187 187.368 164.843 187.184 165.323 186.816C165.803 186.448 166.043 185.984 166.043 185.424C166.043 184.848 165.787 184.424 165.275 184.152C164.763 183.864 163.971 183.584 162.899 183.312C161.923 183.056 161.123 182.8 160.499 182.544C159.891 182.272 159.363 181.88 158.915 181.368C158.483 180.84 158.267 180.152 158.267 179.304C158.267 178.632 158.467 178.016 158.867 177.456C159.267 176.896 159.835 176.456 160.571 176.136C161.307 175.8 162.147 175.632 163.091 175.632C164.547 175.632 165.723 176 166.619 176.736C167.515 177.472 167.995 178.48 168.059 179.76H165.875C165.827 179.072 165.547 178.52 165.035 178.104C164.539 177.688 163.867 177.48 163.019 177.48C162.235 177.48 161.611 177.648 161.147 177.984C160.683 178.32 160.451 178.76 160.451 179.304C160.451 179.736 160.587 180.096 160.859 180.384C161.147 180.656 161.499 180.88 161.915 181.056C162.347 181.216 162.939 181.4 163.691 181.608C164.635 181.864 165.403 182.12 165.995 182.376C166.587 182.616 167.091 182.984 167.507 183.48C167.939 183.976 168.163 184.624 168.179 185.424C168.179 186.144 167.979 186.792 167.579 187.368C167.179 187.944 166.611 188.4 165.875 188.736C165.155 189.056 164.323 189.216 163.379 189.216ZM173.446 178.272C173.878 177.52 174.518 176.896 175.366 176.4C176.23 175.888 177.23 175.632 178.366 175.632C179.534 175.632 180.59 175.912 181.534 176.472C182.494 177.032 183.246 177.824 183.79 178.848C184.334 179.856 184.606 181.032 184.606 182.376C184.606 183.704 184.334 184.888 183.79 185.928C183.246 186.968 182.494 187.776 181.534 188.352C180.59 188.928 179.534 189.216 178.366 189.216C177.246 189.216 176.254 188.968 175.39 188.472C174.542 187.96 173.894 187.328 173.446 186.576V195.24H171.262V175.848H173.446V178.272ZM182.374 182.376C182.374 181.384 182.174 180.52 181.774 179.784C181.374 179.048 180.83 178.488 180.142 178.104C179.47 177.72 178.726 177.528 177.91 177.528C177.11 177.528 176.366 177.728 175.678 178.128C175.006 178.512 174.462 179.08 174.046 179.832C173.646 180.568 173.446 181.424 173.446 182.4C173.446 183.392 173.646 184.264 174.046 185.016C174.462 185.752 175.006 186.32 175.678 186.72C176.366 187.104 177.11 187.296 177.91 187.296C178.726 187.296 179.47 187.104 180.142 186.72C180.83 186.32 181.374 185.752 181.774 185.016C182.174 184.264 182.374 183.384 182.374 182.376ZM199.481 181.92C199.481 182.336 199.457 182.776 199.409 183.24H188.897C188.977 184.536 189.417 185.552 190.217 186.288C191.033 187.008 192.017 187.368 193.169 187.368C194.113 187.368 194.897 187.152 195.521 186.72C196.161 186.272 196.609 185.68 196.865 184.944H199.217C198.865 186.208 198.161 187.24 197.105 188.04C196.049 188.824 194.737 189.216 193.169 189.216C191.921 189.216 190.801 188.936 189.809 188.376C188.833 187.816 188.065 187.024 187.505 186C186.945 184.96 186.665 183.76 186.665 182.4C186.665 181.04 186.937 179.848 187.481 178.824C188.025 177.8 188.785 177.016 189.761 176.472C190.753 175.912 191.889 175.632 193.169 175.632C194.417 175.632 195.521 175.904 196.481 176.448C197.441 176.992 198.177 177.744 198.689 178.704C199.217 179.648 199.481 180.72 199.481 181.92ZM197.225 181.464C197.225 180.632 197.041 179.92 196.673 179.328C196.305 178.72 195.801 178.264 195.161 177.96C194.537 177.64 193.841 177.48 193.073 177.48C191.969 177.48 191.025 177.832 190.241 178.536C189.473 179.24 189.033 180.216 188.921 181.464H197.225ZM201.548 182.4C201.548 181.04 201.82 179.856 202.364 178.848C202.908 177.824 203.66 177.032 204.62 176.472C205.596 175.912 206.708 175.632 207.956 175.632C209.572 175.632 210.9 176.024 211.94 176.808C212.996 177.592 213.692 178.68 214.028 180.072H211.676C211.452 179.272 211.012 178.64 210.356 178.176C209.716 177.712 208.916 177.48 207.956 177.48C206.708 177.48 205.7 177.912 204.932 178.776C204.164 179.624 203.78 180.832 203.78 182.4C203.78 183.984 204.164 185.208 204.932 186.072C205.7 186.936 206.708 187.368 207.956 187.368C208.916 187.368 209.716 187.144 210.356 186.696C210.996 186.248 211.436 185.608 211.676 184.776H214.028C213.676 186.12 212.972 187.2 211.916 188.016C210.86 188.816 209.54 189.216 207.956 189.216C206.708 189.216 205.596 188.936 204.62 188.376C203.66 187.816 202.908 187.024 202.364 186C201.82 184.976 201.548 183.776 201.548 182.4ZM218.07 173.712C217.654 173.712 217.302 173.568 217.014 173.28C216.726 172.992 216.582 172.64 216.582 172.224C216.582 171.808 216.726 171.456 217.014 171.168C217.302 170.88 217.654 170.736 218.07 170.736C218.47 170.736 218.806 170.88 219.078 171.168C219.366 171.456 219.51 171.808 219.51 172.224C219.51 172.64 219.366 172.992 219.078 173.28C218.806 173.568 218.47 173.712 218.07 173.712ZM219.126 175.848V189H216.942V175.848H219.126ZM228.2 177.648H225.44V189H223.256V177.648H221.552V175.848H223.256V174.912C223.256 173.44 223.632 172.368 224.384 171.696C225.152 171.008 226.376 170.664 228.056 170.664V172.488C227.096 172.488 226.416 172.68 226.016 173.064C225.632 173.432 225.44 174.048 225.44 174.912V175.848H228.2V177.648ZM231.874 173.712C231.458 173.712 231.106 173.568 230.818 173.28C230.53 172.992 230.386 172.64 230.386 172.224C230.386 171.808 230.53 171.456 230.818 171.168C231.106 170.88 231.458 170.736 231.874 170.736C232.274 170.736 232.61 170.88 232.882 171.168C233.17 171.456 233.314 171.808 233.314 172.224C233.314 172.64 233.17 172.992 232.882 173.28C232.61 173.568 232.274 173.712 231.874 173.712ZM232.93 175.848V189H230.746V175.848H232.93ZM235.837 182.4C235.837 181.04 236.109 179.856 236.653 178.848C237.197 177.824 237.949 177.032 238.909 176.472C239.885 175.912 240.997 175.632 242.245 175.632C243.861 175.632 245.189 176.024 246.229 176.808C247.285 177.592 247.981 178.68 248.317 180.072H245.965C245.741 179.272 245.301 178.64 244.645 178.176C244.005 177.712 243.205 177.48 242.245 177.48C240.997 177.48 239.989 177.912 239.221 178.776C238.453 179.624 238.069 180.832 238.069 182.4C238.069 183.984 238.453 185.208 239.221 186.072C239.989 186.936 240.997 187.368 242.245 187.368C243.205 187.368 244.005 187.144 244.645 186.696C245.285 186.248 245.725 185.608 245.965 184.776H248.317C247.965 186.12 247.261 187.2 246.205 188.016C245.149 188.816 243.829 189.216 242.245 189.216C240.997 189.216 239.885 188.936 238.909 188.376C237.949 187.816 237.197 187.024 236.653 186C236.109 184.976 235.837 183.776 235.837 182.4ZM262.981 177.648H260.221V189H258.037V177.648H256.333V175.848H258.037V174.912C258.037 173.44 258.413 172.368 259.165 171.696C259.933 171.008 261.157 170.664 262.837 170.664V172.488C261.877 172.488 261.197 172.68 260.797 173.064C260.413 173.432 260.221 174.048 260.221 174.912V175.848H262.981V177.648ZM277.528 181.92C277.528 182.336 277.504 182.776 277.456 183.24H266.944C267.024 184.536 267.464 185.552 268.264 186.288C269.08 187.008 270.064 187.368 271.216 187.368C272.16 187.368 272.944 187.152 273.568 186.72C274.208 186.272 274.656 185.68 274.912 184.944H277.264C276.912 186.208 276.208 187.24 275.152 188.04C274.096 188.824 272.784 189.216 271.216 189.216C269.968 189.216 268.848 188.936 267.856 188.376C266.88 187.816 266.112 187.024 265.552 186C264.992 184.96 264.712 183.76 264.712 182.4C264.712 181.04 264.984 179.848 265.528 178.824C266.072 177.8 266.832 177.016 267.808 176.472C268.8 175.912 269.936 175.632 271.216 175.632C272.464 175.632 273.568 175.904 274.528 176.448C275.488 176.992 276.224 177.744 276.736 178.704C277.264 179.648 277.528 180.72 277.528 181.92ZM275.272 181.464C275.272 180.632 275.088 179.92 274.72 179.328C274.352 178.72 273.848 178.264 273.208 177.96C272.584 177.64 271.888 177.48 271.12 177.48C270.016 177.48 269.072 177.832 268.288 178.536C267.52 179.24 267.08 180.216 266.968 181.464H275.272ZM279.595 182.376C279.595 181.032 279.867 179.856 280.411 178.848C280.955 177.824 281.699 177.032 282.643 176.472C283.603 175.912 284.667 175.632 285.835 175.632C286.987 175.632 287.987 175.88 288.835 176.376C289.683 176.872 290.315 177.496 290.731 178.248V175.848H292.939V189H290.731V186.552C290.299 187.32 289.651 187.96 288.787 188.472C287.939 188.968 286.947 189.216 285.811 189.216C284.643 189.216 283.587 188.928 282.643 188.352C281.699 187.776 280.955 186.968 280.411 185.928C279.867 184.888 279.595 183.704 279.595 182.376ZM290.731 182.4C290.731 181.408 290.531 180.544 290.131 179.808C289.731 179.072 289.187 178.512 288.499 178.128C287.827 177.728 287.083 177.528 286.267 177.528C285.451 177.528 284.707 177.72 284.035 178.104C283.363 178.488 282.827 179.048 282.427 179.784C282.027 180.52 281.827 181.384 281.827 182.376C281.827 183.384 282.027 184.264 282.427 185.016C282.827 185.752 283.363 186.32 284.035 186.72C284.707 187.104 285.451 187.296 286.267 187.296C287.083 187.296 287.827 187.104 288.499 186.72C289.187 186.32 289.731 185.752 290.131 185.016C290.531 184.264 290.731 183.392 290.731 182.4ZM299.293 177.648V185.4C299.293 186.04 299.429 186.496 299.701 186.768C299.973 187.024 300.445 187.152 301.117 187.152H302.725V189H300.757C299.541 189 298.629 188.72 298.021 188.16C297.413 187.6 297.109 186.68 297.109 185.4V177.648H295.405V175.848H297.109V172.536H299.293V175.848H302.725V177.648H299.293ZM317.035 175.848V189H314.851V187.056C314.435 187.728 313.851 188.256 313.099 188.64C312.363 189.008 311.547 189.192 310.651 189.192C309.627 189.192 308.707 188.984 307.891 188.568C307.075 188.136 306.427 187.496 305.947 186.648C305.483 185.8 305.251 184.768 305.251 183.552V175.848H307.411V183.264C307.411 184.56 307.739 185.56 308.395 186.264C309.051 186.952 309.947 187.296 311.083 187.296C312.251 187.296 313.171 186.936 313.843 186.216C314.515 185.496 314.851 184.448 314.851 183.072V175.848H317.035ZM322.907 177.984C323.291 177.232 323.835 176.648 324.539 176.232C325.259 175.816 326.131 175.608 327.155 175.608V177.864H326.579C324.131 177.864 322.907 179.192 322.907 181.848V189H320.723V175.848H322.907V177.984ZM341.676 181.92C341.676 182.336 341.652 182.776 341.604 183.24H331.092C331.172 184.536 331.612 185.552 332.412 186.288C333.228 187.008 334.212 187.368 335.364 187.368C336.308 187.368 337.092 187.152 337.716 186.72C338.356 186.272 338.804 185.68 339.06 184.944H341.412C341.06 186.208 340.356 187.24 339.3 188.04C338.244 188.824 336.932 189.216 335.364 189.216C334.116 189.216 332.996 188.936 332.004 188.376C331.028 187.816 330.26 187.024 329.7 186C329.14 184.96 328.86 183.76 328.86 182.4C328.86 181.04 329.132 179.848 329.676 178.824C330.22 177.8 330.98 177.016 331.956 176.472C332.948 175.912 334.084 175.632 335.364 175.632C336.612 175.632 337.716 175.904 338.676 176.448C339.636 176.992 340.372 177.744 340.884 178.704C341.412 179.648 341.676 180.72 341.676 181.92ZM339.42 181.464C339.42 180.632 339.236 179.92 338.868 179.328C338.5 178.72 337.996 178.264 337.356 177.96C336.732 177.64 336.036 177.48 335.268 177.48C334.164 177.48 333.22 177.832 332.436 178.536C331.668 179.24 331.228 180.216 331.116 181.464H339.42ZM349.215 189.216C348.207 189.216 347.303 189.048 346.503 188.712C345.703 188.36 345.071 187.88 344.607 187.272C344.143 186.648 343.887 185.936 343.839 185.136H346.095C346.159 185.792 346.463 186.328 347.007 186.744C347.567 187.16 348.295 187.368 349.191 187.368C350.023 187.368 350.679 187.184 351.159 186.816C351.639 186.448 351.879 185.984 351.879 185.424C351.879 184.848 351.623 184.424 351.111 184.152C350.599 183.864 349.807 183.584 348.735 183.312C347.759 183.056 346.959 182.8 346.335 182.544C345.727 182.272 345.199 181.88 344.751 181.368C344.319 180.84 344.103 180.152 344.103 179.304C344.103 178.632 344.303 178.016 344.703 177.456C345.103 176.896 345.671 176.456 346.407 176.136C347.143 175.8 347.983 175.632 348.927 175.632C350.383 175.632 351.559 176 352.455 176.736C353.351 177.472 353.831 178.48 353.895 179.76H351.711C351.663 179.072 351.383 178.52 350.871 178.104C350.375 177.688 349.703 177.48 348.855 177.48C348.071 177.48 347.447 177.648 346.983 177.984C346.519 178.32 346.287 178.76 346.287 179.304C346.287 179.736 346.423 180.096 346.695 180.384C346.983 180.656 347.335 180.88 347.751 181.056C348.183 181.216 348.775 181.4 349.527 181.608C350.471 181.864 351.239 182.12 351.831 182.376C352.423 182.616 352.927 182.984 353.343 183.48C353.775 183.976 353.999 184.624 354.015 185.424C354.015 186.144 353.815 186.792 353.415 187.368C353.015 187.944 352.447 188.4 351.711 188.736C350.991 189.056 350.159 189.216 349.215 189.216ZM76.9747 219.936C76.1587 219.936 75.4627 219.656 74.8867 219.096C74.3267 218.52 74.0467 217.824 74.0467 217.008C74.0467 216.176 74.3267 215.48 74.8867 214.92C75.4627 214.344 76.1587 214.056 76.9747 214.056C77.8067 214.056 78.5107 214.344 79.0867 214.92C79.6627 215.48 79.9507 216.176 79.9507 217.008C79.9507 217.824 79.6627 218.52 79.0867 219.096C78.5107 219.656 77.8067 219.936 76.9747 219.936ZM102.056 208.272C103.88 208.272 105.456 208.616 106.784 209.304C108.128 209.976 109.152 210.944 109.856 212.208C110.576 213.472 110.936 214.96 110.936 216.672C110.936 218.384 110.576 219.872 109.856 221.136C109.152 222.384 108.128 223.344 106.784 224.016C105.456 224.672 103.88 225 102.056 225H96.848V208.272H102.056ZM102.056 223.2C104.216 223.2 105.864 222.632 107 221.496C108.136 220.344 108.704 218.736 108.704 216.672C108.704 214.592 108.128 212.968 106.976 211.8C105.84 210.632 104.2 210.048 102.056 210.048H99.032V223.2H102.056ZM125.817 217.92C125.817 218.336 125.793 218.776 125.745 219.24H115.233C115.313 220.536 115.753 221.552 116.553 222.288C117.369 223.008 118.353 223.368 119.505 223.368C120.449 223.368 121.233 223.152 121.857 222.72C122.497 222.272 122.945 221.68 123.201 220.944H125.553C125.201 222.208 124.497 223.24 123.441 224.04C122.385 224.824 121.073 225.216 119.505 225.216C118.257 225.216 117.137 224.936 116.145 224.376C115.169 223.816 114.401 223.024 113.841 222C113.281 220.96 113.001 219.76 113.001 218.4C113.001 217.04 113.273 215.848 113.817 214.824C114.361 213.8 115.121 213.016 116.097 212.472C117.089 211.912 118.225 211.632 119.505 211.632C120.753 211.632 121.857 211.904 122.817 212.448C123.777 212.992 124.513 213.744 125.025 214.704C125.553 215.648 125.817 216.72 125.817 217.92ZM123.561 217.464C123.561 216.632 123.377 215.92 123.009 215.328C122.641 214.72 122.137 214.264 121.497 213.96C120.873 213.64 120.177 213.48 119.409 213.48C118.305 213.48 117.361 213.832 116.577 214.536C115.809 215.24 115.369 216.216 115.257 217.464H123.561ZM133.356 225.216C132.348 225.216 131.444 225.048 130.644 224.712C129.844 224.36 129.212 223.88 128.748 223.272C128.284 222.648 128.028 221.936 127.98 221.136H130.236C130.3 221.792 130.604 222.328 131.148 222.744C131.708 223.16 132.436 223.368 133.332 223.368C134.164 223.368 134.82 223.184 135.3 222.816C135.78 222.448 136.02 221.984 136.02 221.424C136.02 220.848 135.764 220.424 135.252 220.152C134.74 219.864 133.948 219.584 132.876 219.312C131.9 219.056 131.1 218.8 130.476 218.544C129.868 218.272 129.34 217.88 128.892 217.368C128.46 216.84 128.244 216.152 128.244 215.304C128.244 214.632 128.444 214.016 128.844 213.456C129.244 212.896 129.812 212.456 130.548 212.136C131.284 211.8 132.124 211.632 133.068 211.632C134.524 211.632 135.7 212 136.596 212.736C137.492 213.472 137.972 214.48 138.036 215.76H135.852C135.804 215.072 135.524 214.52 135.012 214.104C134.516 213.688 133.844 213.48 132.996 213.48C132.212 213.48 131.588 213.648 131.124 213.984C130.66 214.32 130.428 214.76 130.428 215.304C130.428 215.736 130.564 216.096 130.836 216.384C131.124 216.656 131.476 216.88 131.892 217.056C132.324 217.216 132.916 217.4 133.668 217.608C134.612 217.864 135.38 218.12 135.972 218.376C136.564 218.616 137.068 218.984 137.484 219.48C137.916 219.976 138.14 220.624 138.156 221.424C138.156 222.144 137.956 222.792 137.556 223.368C137.156 223.944 136.588 224.4 135.852 224.736C135.132 225.056 134.3 225.216 133.356 225.216ZM142.367 209.712C141.951 209.712 141.599 209.568 141.311 209.28C141.023 208.992 140.879 208.64 140.879 208.224C140.879 207.808 141.023 207.456 141.311 207.168C141.599 206.88 141.951 206.736 142.367 206.736C142.767 206.736 143.103 206.88 143.375 207.168C143.663 207.456 143.807 207.808 143.807 208.224C143.807 208.64 143.663 208.992 143.375 209.28C143.103 209.568 142.767 209.712 142.367 209.712ZM143.423 211.848V225H141.239V211.848H143.423ZM152.569 211.632C153.705 211.632 154.697 211.88 155.545 212.376C156.409 212.872 157.049 213.496 157.465 214.248V211.848H159.673V225.288C159.673 226.488 159.417 227.552 158.905 228.48C158.393 229.424 157.657 230.16 156.697 230.688C155.753 231.216 154.649 231.48 153.385 231.48C151.657 231.48 150.217 231.072 149.065 230.256C147.913 229.44 147.233 228.328 147.025 226.92H149.185C149.425 227.72 149.921 228.36 150.673 228.84C151.425 229.336 152.329 229.584 153.385 229.584C154.585 229.584 155.561 229.208 156.313 228.456C157.081 227.704 157.465 226.648 157.465 225.288V222.528C157.033 223.296 156.393 223.936 155.545 224.448C154.697 224.96 153.705 225.216 152.569 225.216C151.401 225.216 150.337 224.928 149.377 224.352C148.433 223.776 147.689 222.968 147.145 221.928C146.601 220.888 146.329 219.704 146.329 218.376C146.329 217.032 146.601 215.856 147.145 214.848C147.689 213.824 148.433 213.032 149.377 212.472C150.337 211.912 151.401 211.632 152.569 211.632ZM157.465 218.4C157.465 217.408 157.265 216.544 156.865 215.808C156.465 215.072 155.921 214.512 155.233 214.128C154.561 213.728 153.817 213.528 153.001 213.528C152.185 213.528 151.441 213.72 150.769 214.104C150.097 214.488 149.561 215.048 149.161 215.784C148.761 216.52 148.561 217.384 148.561 218.376C148.561 219.384 148.761 220.264 149.161 221.016C149.561 221.752 150.097 222.32 150.769 222.72C151.441 223.104 152.185 223.296 153.001 223.296C153.817 223.296 154.561 223.104 155.233 222.72C155.921 222.32 156.465 221.752 156.865 221.016C157.265 220.264 157.465 219.392 157.465 218.4ZM169.772 211.608C171.372 211.608 172.668 212.096 173.66 213.072C174.652 214.032 175.148 215.424 175.148 217.248V225H172.988V217.56C172.988 216.248 172.66 215.248 172.004 214.56C171.348 213.856 170.452 213.504 169.316 213.504C168.164 213.504 167.244 213.864 166.556 214.584C165.884 215.304 165.548 216.352 165.548 217.728V225H163.364V211.848H165.548V213.72C165.98 213.048 166.564 212.528 167.3 212.16C168.052 211.792 168.876 211.608 169.772 211.608ZM179.843 209.712C179.427 209.712 179.075 209.568 178.787 209.28C178.499 208.992 178.355 208.64 178.355 208.224C178.355 207.808 178.499 207.456 178.787 207.168C179.075 206.88 179.427 206.736 179.843 206.736C180.243 206.736 180.579 206.88 180.851 207.168C181.139 207.456 181.283 207.808 181.283 208.224C181.283 208.64 181.139 208.992 180.851 209.28C180.579 209.568 180.243 209.712 179.843 209.712ZM180.899 211.848V225H178.715V211.848H180.899ZM191.029 211.608C192.629 211.608 193.925 212.096 194.917 213.072C195.909 214.032 196.405 215.424 196.405 217.248V225H194.245V217.56C194.245 216.248 193.917 215.248 193.261 214.56C192.605 213.856 191.709 213.504 190.573 213.504C189.421 213.504 188.501 213.864 187.813 214.584C187.141 215.304 186.805 216.352 186.805 217.728V225H184.621V211.848H186.805V213.72C187.237 213.048 187.821 212.528 188.557 212.16C189.309 211.792 190.133 211.608 191.029 211.608ZM205.397 211.632C206.533 211.632 207.525 211.88 208.373 212.376C209.237 212.872 209.877 213.496 210.293 214.248V211.848H212.501V225.288C212.501 226.488 212.245 227.552 211.733 228.48C211.221 229.424 210.485 230.16 209.525 230.688C208.581 231.216 207.477 231.48 206.213 231.48C204.485 231.48 203.045 231.072 201.893 230.256C200.741 229.44 200.061 228.328 199.853 226.92H202.013C202.253 227.72 202.749 228.36 203.501 228.84C204.253 229.336 205.157 229.584 206.213 229.584C207.413 229.584 208.389 229.208 209.141 228.456C209.909 227.704 210.293 226.648 210.293 225.288V222.528C209.861 223.296 209.221 223.936 208.373 224.448C207.525 224.96 206.533 225.216 205.397 225.216C204.229 225.216 203.165 224.928 202.205 224.352C201.261 223.776 200.517 222.968 199.973 221.928C199.429 220.888 199.157 219.704 199.157 218.376C199.157 217.032 199.429 215.856 199.973 214.848C200.517 213.824 201.261 213.032 202.205 212.472C203.165 211.912 204.229 211.632 205.397 211.632ZM210.293 218.4C210.293 217.408 210.093 216.544 209.693 215.808C209.293 215.072 208.749 214.512 208.061 214.128C207.389 213.728 206.645 213.528 205.829 213.528C205.013 213.528 204.269 213.72 203.597 214.104C202.925 214.488 202.389 215.048 201.989 215.784C201.589 216.52 201.389 217.384 201.389 218.376C201.389 219.384 201.589 220.264 201.989 221.016C202.389 221.752 202.925 222.32 203.597 222.72C204.269 223.104 205.013 223.296 205.829 223.296C206.645 223.296 207.389 223.104 208.061 222.72C208.749 222.32 209.293 221.752 209.693 221.016C210.093 220.264 210.293 219.392 210.293 218.4ZM227.246 225.216C226.238 225.216 225.334 225.048 224.534 224.712C223.734 224.36 223.102 223.88 222.638 223.272C222.174 222.648 221.918 221.936 221.87 221.136H224.126C224.19 221.792 224.494 222.328 225.038 222.744C225.598 223.16 226.326 223.368 227.222 223.368C228.054 223.368 228.71 223.184 229.19 222.816C229.67 222.448 229.91 221.984 229.91 221.424C229.91 220.848 229.654 220.424 229.142 220.152C228.63 219.864 227.838 219.584 226.766 219.312C225.79 219.056 224.99 218.8 224.366 218.544C223.758 218.272 223.23 217.88 222.782 217.368C222.35 216.84 222.134 216.152 222.134 215.304C222.134 214.632 222.334 214.016 222.734 213.456C223.134 212.896 223.702 212.456 224.438 212.136C225.174 211.8 226.014 211.632 226.958 211.632C228.414 211.632 229.59 212 230.486 212.736C231.382 213.472 231.862 214.48 231.926 215.76H229.742C229.694 215.072 229.414 214.52 228.902 214.104C228.406 213.688 227.734 213.48 226.886 213.48C226.102 213.48 225.478 213.648 225.014 213.984C224.55 214.32 224.318 214.76 224.318 215.304C224.318 215.736 224.454 216.096 224.726 216.384C225.014 216.656 225.366 216.88 225.782 217.056C226.214 217.216 226.806 217.4 227.558 217.608C228.502 217.864 229.27 218.12 229.862 218.376C230.454 218.616 230.958 218.984 231.374 219.48C231.806 219.976 232.03 220.624 232.046 221.424C232.046 222.144 231.846 222.792 231.446 223.368C231.046 223.944 230.478 224.4 229.742 224.736C229.022 225.056 228.19 225.216 227.246 225.216ZM240.865 225.216C239.633 225.216 238.513 224.936 237.505 224.376C236.513 223.816 235.729 223.024 235.153 222C234.593 220.96 234.313 219.76 234.313 218.4C234.313 217.056 234.601 215.872 235.177 214.848C235.769 213.808 236.569 213.016 237.577 212.472C238.585 211.912 239.713 211.632 240.961 211.632C242.209 211.632 243.337 211.912 244.345 212.472C245.353 213.016 246.145 213.8 246.721 214.824C247.313 215.848 247.609 217.04 247.609 218.4C247.609 219.76 247.305 220.96 246.697 222C246.105 223.024 245.297 223.816 244.273 224.376C243.249 224.936 242.113 225.216 240.865 225.216ZM240.865 223.296C241.649 223.296 242.385 223.112 243.073 222.744C243.761 222.376 244.313 221.824 244.729 221.088C245.161 220.352 245.377 219.456 245.377 218.4C245.377 217.344 245.169 216.448 244.753 215.712C244.337 214.976 243.793 214.432 243.121 214.08C242.449 213.712 241.721 213.528 240.937 213.528C240.137 213.528 239.401 213.712 238.729 214.08C238.073 214.432 237.545 214.976 237.145 215.712C236.745 216.448 236.545 217.344 236.545 218.4C236.545 219.472 236.737 220.376 237.121 221.112C237.521 221.848 238.049 222.4 238.705 222.768C239.361 223.12 240.081 223.296 240.865 223.296ZM252.665 207.24V225H250.481V207.24H252.665ZM268.051 211.848V225H265.867V223.056C265.451 223.728 264.867 224.256 264.115 224.64C263.379 225.008 262.563 225.192 261.667 225.192C260.643 225.192 259.723 224.984 258.907 224.568C258.091 224.136 257.443 223.496 256.963 222.648C256.499 221.8 256.267 220.768 256.267 219.552V211.848H258.427V219.264C258.427 220.56 258.755 221.56 259.411 222.264C260.067 222.952 260.963 223.296 262.099 223.296C263.267 223.296 264.187 222.936 264.859 222.216C265.531 221.496 265.867 220.448 265.867 219.072V211.848H268.051ZM274.403 213.648V221.4C274.403 222.04 274.539 222.496 274.811 222.768C275.083 223.024 275.555 223.152 276.227 223.152H277.835V225H275.867C274.651 225 273.739 224.72 273.131 224.16C272.523 223.6 272.219 222.68 272.219 221.4V213.648H270.515V211.848H272.219V208.536H274.403V211.848H277.835V213.648H274.403ZM281.609 209.712C281.193 209.712 280.841 209.568 280.553 209.28C280.265 208.992 280.121 208.64 280.121 208.224C280.121 207.808 280.265 207.456 280.553 207.168C280.841 206.88 281.193 206.736 281.609 206.736C282.009 206.736 282.345 206.88 282.617 207.168C282.905 207.456 283.049 207.808 283.049 208.224C283.049 208.64 282.905 208.992 282.617 209.28C282.345 209.568 282.009 209.712 281.609 209.712ZM282.665 211.848V225H280.481V211.848H282.665ZM292.123 225.216C290.891 225.216 289.771 224.936 288.763 224.376C287.771 223.816 286.987 223.024 286.411 222C285.851 220.96 285.571 219.76 285.571 218.4C285.571 217.056 285.859 215.872 286.435 214.848C287.027 213.808 287.827 213.016 288.835 212.472C289.843 211.912 290.971 211.632 292.219 211.632C293.467 211.632 294.595 211.912 295.603 212.472C296.611 213.016 297.403 213.8 297.979 214.824C298.571 215.848 298.867 217.04 298.867 218.4C298.867 219.76 298.563 220.96 297.955 222C297.363 223.024 296.555 223.816 295.531 224.376C294.507 224.936 293.371 225.216 292.123 225.216ZM292.123 223.296C292.907 223.296 293.643 223.112 294.331 222.744C295.019 222.376 295.571 221.824 295.987 221.088C296.419 220.352 296.635 219.456 296.635 218.4C296.635 217.344 296.427 216.448 296.011 215.712C295.595 214.976 295.051 214.432 294.379 214.08C293.707 213.712 292.979 213.528 292.195 213.528C291.395 213.528 290.659 213.712 289.987 214.08C289.331 214.432 288.803 214.976 288.403 215.712C288.003 216.448 287.803 217.344 287.803 218.4C287.803 219.472 287.995 220.376 288.379 221.112C288.779 221.848 289.307 222.4 289.963 222.768C290.619 223.12 291.339 223.296 292.123 223.296ZM308.147 211.608C309.747 211.608 311.043 212.096 312.035 213.072C313.027 214.032 313.523 215.424 313.523 217.248V225H311.363V217.56C311.363 216.248 311.035 215.248 310.379 214.56C309.723 213.856 308.827 213.504 307.691 213.504C306.539 213.504 305.619 213.864 304.931 214.584C304.259 215.304 303.923 216.352 303.923 217.728V225H301.739V211.848H303.923V213.72C304.355 213.048 304.939 212.528 305.675 212.16C306.427 211.792 307.251 211.608 308.147 211.608ZM321.746 225.216C320.738 225.216 319.834 225.048 319.034 224.712C318.234 224.36 317.602 223.88 317.138 223.272C316.674 222.648 316.418 221.936 316.37 221.136H318.626C318.69 221.792 318.994 222.328 319.538 222.744C320.098 223.16 320.826 223.368 321.722 223.368C322.554 223.368 323.21 223.184 323.69 222.816C324.17 222.448 324.41 221.984 324.41 221.424C324.41 220.848 324.154 220.424 323.642 220.152C323.13 219.864 322.338 219.584 321.266 219.312C320.29 219.056 319.49 218.8 318.866 218.544C318.258 218.272 317.73 217.88 317.282 217.368C316.85 216.84 316.634 216.152 316.634 215.304C316.634 214.632 316.834 214.016 317.234 213.456C317.634 212.896 318.202 212.456 318.938 212.136C319.674 211.8 320.514 211.632 321.458 211.632C322.914 211.632 324.09 212 324.986 212.736C325.882 213.472 326.362 214.48 326.426 215.76H324.242C324.194 215.072 323.914 214.52 323.402 214.104C322.906 213.688 322.234 213.48 321.386 213.48C320.602 213.48 319.978 213.648 319.514 213.984C319.05 214.32 318.818 214.76 318.818 215.304C318.818 215.736 318.954 216.096 319.226 216.384C319.514 216.656 319.866 216.88 320.282 217.056C320.714 217.216 321.306 217.4 322.058 217.608C323.002 217.864 323.77 218.12 324.362 218.376C324.954 218.616 325.458 218.984 325.874 219.48C326.306 219.976 326.53 220.624 326.546 221.424C326.546 222.144 326.346 222.792 325.946 223.368C325.546 223.944 324.978 224.4 324.242 224.736C323.522 225.056 322.69 225.216 321.746 225.216ZM341.38 213.648H338.62V225H336.436V213.648H334.732V211.848H336.436V210.912C336.436 209.44 336.812 208.368 337.564 207.696C338.332 207.008 339.556 206.664 341.236 206.664V208.488C340.276 208.488 339.596 208.68 339.196 209.064C338.812 209.432 338.62 210.048 338.62 210.912V211.848H341.38V213.648ZM349.662 225.216C348.43 225.216 347.31 224.936 346.302 224.376C345.31 223.816 344.526 223.024 343.95 222C343.39 220.96 343.11 219.76 343.11 218.4C343.11 217.056 343.398 215.872 343.974 214.848C344.566 213.808 345.366 213.016 346.374 212.472C347.382 211.912 348.51 211.632 349.758 211.632C351.006 211.632 352.134 211.912 353.142 212.472C354.15 213.016 354.942 213.8 355.518 214.824C356.11 215.848 356.406 217.04 356.406 218.4C356.406 219.76 356.102 220.96 355.494 222C354.902 223.024 354.094 223.816 353.07 224.376C352.046 224.936 350.91 225.216 349.662 225.216ZM349.662 223.296C350.446 223.296 351.182 223.112 351.87 222.744C352.558 222.376 353.11 221.824 353.526 221.088C353.958 220.352 354.174 219.456 354.174 218.4C354.174 217.344 353.966 216.448 353.55 215.712C353.134 214.976 352.59 214.432 351.918 214.08C351.246 213.712 350.518 213.528 349.734 213.528C348.934 213.528 348.198 213.712 347.526 214.08C346.87 214.432 346.342 214.976 345.942 215.712C345.542 216.448 345.342 217.344 345.342 218.4C345.342 219.472 345.534 220.376 345.918 221.112C346.318 221.848 346.846 222.4 347.502 222.768C348.158 223.12 348.878 223.296 349.662 223.296ZM361.462 213.984C361.846 213.232 362.39 212.648 363.094 212.232C363.814 211.816 364.686 211.608 365.71 211.608V213.864H365.134C362.686 213.864 361.462 215.192 361.462 217.848V225H359.278V211.848H361.462V213.984ZM386.293 211.848V225H384.109V223.056C383.693 223.728 383.109 224.256 382.357 224.64C381.621 225.008 380.805 225.192 379.909 225.192C378.885 225.192 377.965 224.984 377.149 224.568C376.333 224.136 375.685 223.496 375.205 222.648C374.741 221.8 374.509 220.768 374.509 219.552V211.848H376.669V219.264C376.669 220.56 376.997 221.56 377.653 222.264C378.309 222.952 379.205 223.296 380.341 223.296C381.509 223.296 382.429 222.936 383.101 222.216C383.773 221.496 384.109 220.448 384.109 219.072V211.848H386.293ZM394.637 225.216C393.629 225.216 392.725 225.048 391.925 224.712C391.125 224.36 390.493 223.88 390.029 223.272C389.565 222.648 389.309 221.936 389.261 221.136H391.517C391.581 221.792 391.885 222.328 392.429 222.744C392.989 223.16 393.717 223.368 394.613 223.368C395.445 223.368 396.101 223.184 396.581 222.816C397.061 222.448 397.301 221.984 397.301 221.424C397.301 220.848 397.045 220.424 396.533 220.152C396.021 219.864 395.229 219.584 394.157 219.312C393.181 219.056 392.381 218.8 391.757 218.544C391.149 218.272 390.621 217.88 390.173 217.368C389.741 216.84 389.525 216.152 389.525 215.304C389.525 214.632 389.725 214.016 390.125 213.456C390.525 212.896 391.093 212.456 391.829 212.136C392.565 211.8 393.405 211.632 394.349 211.632C395.805 211.632 396.981 212 397.877 212.736C398.773 213.472 399.253 214.48 399.317 215.76H397.133C397.085 215.072 396.805 214.52 396.293 214.104C395.797 213.688 395.125 213.48 394.277 213.48C393.493 213.48 392.869 213.648 392.405 213.984C391.941 214.32 391.709 214.76 391.709 215.304C391.709 215.736 391.845 216.096 392.117 216.384C392.405 216.656 392.757 216.88 393.173 217.056C393.605 217.216 394.197 217.4 394.949 217.608C395.893 217.864 396.661 218.12 397.253 218.376C397.845 218.616 398.349 218.984 398.765 219.48C399.197 219.976 399.421 220.624 399.437 221.424C399.437 222.144 399.237 222.792 398.837 223.368C398.437 223.944 397.869 224.4 397.133 224.736C396.413 225.056 395.581 225.216 394.637 225.216ZM414.52 217.92C414.52 218.336 414.496 218.776 414.448 219.24H403.936C404.016 220.536 404.456 221.552 405.256 222.288C406.072 223.008 407.056 223.368 408.208 223.368C409.152 223.368 409.936 223.152 410.56 222.72C411.2 222.272 411.648 221.68 411.904 220.944H414.256C413.904 222.208 413.2 223.24 412.144 224.04C411.088 224.824 409.776 225.216 408.208 225.216C406.96 225.216 405.84 224.936 404.848 224.376C403.872 223.816 403.104 223.024 402.544 222C401.984 220.96 401.704 219.76 401.704 218.4C401.704 217.04 401.976 215.848 402.52 214.824C403.064 213.8 403.824 213.016 404.8 212.472C405.792 211.912 406.928 211.632 408.208 211.632C409.456 211.632 410.56 211.904 411.52 212.448C412.48 212.992 413.216 213.744 413.728 214.704C414.256 215.648 414.52 216.72 414.52 217.92ZM412.264 217.464C412.264 216.632 412.08 215.92 411.712 215.328C411.344 214.72 410.84 214.264 410.2 213.96C409.576 213.64 408.88 213.48 408.112 213.48C407.008 213.48 406.064 213.832 405.28 214.536C404.512 215.24 404.072 216.216 403.96 217.464H412.264ZM419.587 213.984C419.971 213.232 420.515 212.648 421.219 212.232C421.939 211.816 422.811 211.608 423.835 211.608V213.864H423.259C420.811 213.864 419.587 215.192 419.587 217.848V225H417.403V211.848H419.587V213.984ZM431.012 225.216C430.004 225.216 429.1 225.048 428.3 224.712C427.5 224.36 426.868 223.88 426.404 223.272C425.94 222.648 425.684 221.936 425.636 221.136H427.892C427.956 221.792 428.26 222.328 428.804 222.744C429.364 223.16 430.092 223.368 430.988 223.368C431.82 223.368 432.476 223.184 432.956 222.816C433.436 222.448 433.676 221.984 433.676 221.424C433.676 220.848 433.42 220.424 432.908 220.152C432.396 219.864 431.604 219.584 430.532 219.312C429.556 219.056 428.756 218.8 428.132 218.544C427.524 218.272 426.996 217.88 426.548 217.368C426.116 216.84 425.9 216.152 425.9 215.304C425.9 214.632 426.1 214.016 426.5 213.456C426.9 212.896 427.468 212.456 428.204 212.136C428.94 211.8 429.78 211.632 430.724 211.632C432.18 211.632 433.356 212 434.252 212.736C435.148 213.472 435.628 214.48 435.692 215.76H433.508C433.46 215.072 433.18 214.52 432.668 214.104C432.172 213.688 431.5 213.48 430.652 213.48C429.868 213.48 429.244 213.648 428.78 213.984C428.316 214.32 428.084 214.76 428.084 215.304C428.084 215.736 428.22 216.096 428.492 216.384C428.78 216.656 429.132 216.88 429.548 217.056C429.98 217.216 430.572 217.4 431.324 217.608C432.268 217.864 433.036 218.12 433.628 218.376C434.22 218.616 434.724 218.984 435.14 219.48C435.572 219.976 435.796 220.624 435.812 221.424C435.812 222.144 435.612 222.792 435.212 223.368C434.812 223.944 434.244 224.4 433.508 224.736C432.788 225.056 431.956 225.216 431.012 225.216ZM439.231 208.272H441.655L439.351 213.72H437.815L439.231 208.272ZM456.951 211.608C458.551 211.608 459.847 212.096 460.839 213.072C461.831 214.032 462.327 215.424 462.327 217.248V225H460.167V217.56C460.167 216.248 459.839 215.248 459.183 214.56C458.527 213.856 457.631 213.504 456.495 213.504C455.343 213.504 454.423 213.864 453.735 214.584C453.063 215.304 452.727 216.352 452.727 217.728V225H450.543V211.848H452.727V213.72C453.159 213.048 453.743 212.528 454.479 212.16C455.231 211.792 456.055 211.608 456.951 211.608ZM477.895 217.92C477.895 218.336 477.871 218.776 477.823 219.24H467.311C467.391 220.536 467.831 221.552 468.631 222.288C469.447 223.008 470.431 223.368 471.583 223.368C472.527 223.368 473.311 223.152 473.935 222.72C474.575 222.272 475.023 221.68 475.279 220.944H477.631C477.279 222.208 476.575 223.24 475.519 224.04C474.463 224.824 473.151 225.216 471.583 225.216C470.335 225.216 469.215 224.936 468.223 224.376C467.247 223.816 466.479 223.024 465.919 222C465.359 220.96 465.079 219.76 465.079 218.4C465.079 217.04 465.351 215.848 465.895 214.824C466.439 213.8 467.199 213.016 468.175 212.472C469.167 211.912 470.303 211.632 471.583 211.632C472.831 211.632 473.935 211.904 474.895 212.448C475.855 212.992 476.591 213.744 477.103 214.704C477.631 215.648 477.895 216.72 477.895 217.92ZM475.639 217.464C475.639 216.632 475.455 215.92 475.087 215.328C474.719 214.72 474.215 214.264 473.575 213.96C472.951 213.64 472.255 213.48 471.487 213.48C470.383 213.48 469.439 213.832 468.655 214.536C467.887 215.24 467.447 216.216 467.335 217.464H475.639ZM492.778 217.92C492.778 218.336 492.754 218.776 492.706 219.24H482.194C482.274 220.536 482.714 221.552 483.514 222.288C484.33 223.008 485.314 223.368 486.466 223.368C487.41 223.368 488.194 223.152 488.818 222.72C489.458 222.272 489.906 221.68 490.162 220.944H492.514C492.162 222.208 491.458 223.24 490.402 224.04C489.346 224.824 488.034 225.216 486.466 225.216C485.218 225.216 484.098 224.936 483.106 224.376C482.13 223.816 481.362 223.024 480.802 222C480.242 220.96 479.962 219.76 479.962 218.4C479.962 217.04 480.234 215.848 480.778 214.824C481.322 213.8 482.082 213.016 483.058 212.472C484.05 211.912 485.186 211.632 486.466 211.632C487.714 211.632 488.818 211.904 489.778 212.448C490.738 212.992 491.474 213.744 491.986 214.704C492.514 215.648 492.778 216.72 492.778 217.92ZM490.522 217.464C490.522 216.632 490.338 215.92 489.97 215.328C489.602 214.72 489.098 214.264 488.458 213.96C487.834 213.64 487.138 213.48 486.37 213.48C485.266 213.48 484.322 213.832 483.538 214.536C482.77 215.24 482.33 216.216 482.218 217.464H490.522ZM494.845 218.376C494.845 217.032 495.117 215.856 495.661 214.848C496.205 213.824 496.949 213.032 497.893 212.472C498.853 211.912 499.925 211.632 501.109 211.632C502.133 211.632 503.085 211.872 503.965 212.352C504.845 212.816 505.517 213.432 505.981 214.2V207.24H508.189V225H505.981V222.528C505.549 223.312 504.909 223.96 504.061 224.472C503.213 224.968 502.221 225.216 501.085 225.216C499.917 225.216 498.853 224.928 497.893 224.352C496.949 223.776 496.205 222.968 495.661 221.928C495.117 220.888 494.845 219.704 494.845 218.376ZM505.981 218.4C505.981 217.408 505.781 216.544 505.381 215.808C504.981 215.072 504.437 214.512 503.749 214.128C503.077 213.728 502.333 213.528 501.517 213.528C500.701 213.528 499.957 213.72 499.285 214.104C498.613 214.488 498.077 215.048 497.677 215.784C497.277 216.52 497.077 217.384 497.077 218.376C497.077 219.384 497.277 220.264 497.677 221.016C498.077 221.752 498.613 222.32 499.285 222.72C499.957 223.104 500.701 223.296 501.517 223.296C502.333 223.296 503.077 223.104 503.749 222.72C504.437 222.32 504.981 221.752 505.381 221.016C505.781 220.264 505.981 219.392 505.981 218.4ZM516.535 225.216C515.527 225.216 514.623 225.048 513.823 224.712C513.023 224.36 512.391 223.88 511.927 223.272C511.463 222.648 511.207 221.936 511.159 221.136H513.415C513.479 221.792 513.783 222.328 514.327 222.744C514.887 223.16 515.615 223.368 516.511 223.368C517.343 223.368 517.999 223.184 518.479 222.816C518.959 222.448 519.199 221.984 519.199 221.424C519.199 220.848 518.943 220.424 518.431 220.152C517.919 219.864 517.127 219.584 516.055 219.312C515.079 219.056 514.279 218.8 513.655 218.544C513.047 218.272 512.519 217.88 512.071 217.368C511.639 216.84 511.423 216.152 511.423 215.304C511.423 214.632 511.623 214.016 512.023 213.456C512.423 212.896 512.991 212.456 513.727 212.136C514.463 211.8 515.303 211.632 516.247 211.632C517.703 211.632 518.879 212 519.775 212.736C520.671 213.472 521.151 214.48 521.215 215.76H519.031C518.983 215.072 518.703 214.52 518.191 214.104C517.695 213.688 517.023 213.48 516.175 213.48C515.391 213.48 514.767 213.648 514.303 213.984C513.839 214.32 513.607 214.76 513.607 215.304C513.607 215.736 513.743 216.096 514.015 216.384C514.303 216.656 514.655 216.88 515.071 217.056C515.503 217.216 516.095 217.4 516.847 217.608C517.791 217.864 518.559 218.12 519.151 218.376C519.743 218.616 520.247 218.984 520.663 219.48C521.095 219.976 521.319 220.624 521.335 221.424C521.335 222.144 521.135 222.792 520.735 223.368C520.335 223.944 519.767 224.4 519.031 224.736C518.311 225.056 517.479 225.216 516.535 225.216Z" fill="black"/>
<circle cx="88" cy="78" r="24" fill="url(#paint0_linear_26_25)"/>
<path d="M88.5938 68.0312C86.5 65.9375 83.3646 65.5104 80.8438 66.7395L85.3646 71.2604L82.2396 74.3854L77.7188 69.8645C76.5 72.3958 76.9271 75.5104 79.0209 77.6041C80.9584 79.5416 83.7917 80.052 86.198 79.1458L95.6875 88.6354C96.0938 89.0416 96.75 89.0416 97.1563 88.6354L99.5521 86.2395C99.9584 85.8333 99.9584 85.177 99.5521 84.7708L90.1042 75.3125C91.0625 72.875 90.5625 70 88.5938 68.0312Z" fill="#F9F2F1"/>
<path d="M153.808 70.648C153.808 71.992 153.484 73.252 152.836 74.428C152.212 75.604 151.216 76.552 149.848 77.272C148.504 77.992 146.8 78.352 144.736 78.352H140.524V88H135.484V62.872H144.736C146.68 62.872 148.336 63.208 149.704 63.88C151.072 64.552 152.092 65.476 152.764 66.652C153.46 67.828 153.808 69.16 153.808 70.648ZM144.52 74.284C145.912 74.284 146.944 73.972 147.616 73.348C148.288 72.7 148.624 71.8 148.624 70.648C148.624 68.2 147.256 66.976 144.52 66.976H140.524V74.284H144.52ZM162.426 71.152C163.074 70.096 163.914 69.268 164.946 68.668C166.002 68.068 167.202 67.768 168.546 67.768V73.06H167.214C165.63 73.06 164.43 73.432 163.614 74.176C162.822 74.92 162.426 76.216 162.426 78.064V88H157.386V68.056H162.426V71.152ZM180.797 88.324C178.877 88.324 177.149 87.904 175.613 87.064C174.077 86.2 172.865 84.988 171.977 83.428C171.113 81.868 170.681 80.068 170.681 78.028C170.681 75.988 171.125 74.188 172.013 72.628C172.925 71.068 174.161 69.868 175.721 69.028C177.281 68.164 179.021 67.732 180.941 67.732C182.861 67.732 184.601 68.164 186.161 69.028C187.721 69.868 188.945 71.068 189.833 72.628C190.745 74.188 191.201 75.988 191.201 78.028C191.201 80.068 190.733 81.868 189.797 83.428C188.885 84.988 187.637 86.2 186.053 87.064C184.493 87.904 182.741 88.324 180.797 88.324ZM180.797 83.932C181.709 83.932 182.561 83.716 183.353 83.284C184.169 82.828 184.817 82.156 185.297 81.268C185.777 80.38 186.017 79.3 186.017 78.028C186.017 76.132 185.513 74.68 184.505 73.672C183.521 72.64 182.309 72.124 180.869 72.124C179.429 72.124 178.217 72.64 177.233 73.672C176.273 74.68 175.793 76.132 175.793 78.028C175.793 79.924 176.261 81.388 177.197 82.42C178.157 83.428 179.357 83.932 180.797 83.932ZM199.938 70.972C200.586 70.012 201.474 69.232 202.602 68.632C203.754 68.032 205.062 67.732 206.526 67.732C208.23 67.732 209.766 68.152 211.134 68.992C212.526 69.832 213.618 71.032 214.41 72.592C215.226 74.128 215.634 75.916 215.634 77.956C215.634 79.996 215.226 81.808 214.41 83.392C213.618 84.952 212.526 86.164 211.134 87.028C209.766 87.892 208.23 88.324 206.526 88.324C205.038 88.324 203.73 88.036 202.602 87.46C201.498 86.86 200.61 86.092 199.938 85.156V88H194.898V61.36H199.938V70.972ZM210.486 77.956C210.486 76.756 210.234 75.724 209.73 74.86C209.25 73.972 208.602 73.3 207.786 72.844C206.994 72.388 206.13 72.16 205.194 72.16C204.282 72.16 203.418 72.4 202.602 72.88C201.81 73.336 201.162 74.008 200.658 74.896C200.178 75.784 199.938 76.828 199.938 78.028C199.938 79.228 200.178 80.272 200.658 81.16C201.162 82.048 201.81 82.732 202.602 83.212C203.418 83.668 204.282 83.896 205.194 83.896C206.13 83.896 206.994 83.656 207.786 83.176C208.602 82.696 209.25 82.012 209.73 81.124C210.234 80.236 210.486 79.18 210.486 77.956ZM224.337 61.36V88H219.297V61.36H224.337ZM247.856 77.596C247.856 78.316 247.808 78.964 247.712 79.54H233.132C233.252 80.98 233.756 82.108 234.644 82.924C235.532 83.74 236.624 84.148 237.92 84.148C239.792 84.148 241.124 83.344 241.916 81.736H247.352C246.776 83.656 245.672 85.24 244.04 86.488C242.408 87.712 240.404 88.324 238.028 88.324C236.108 88.324 234.38 87.904 232.844 87.064C231.332 86.2 230.144 84.988 229.28 83.428C228.44 81.868 228.02 80.068 228.02 78.028C228.02 75.964 228.44 74.152 229.28 72.592C230.12 71.032 231.296 69.832 232.808 68.992C234.32 68.152 236.06 67.732 238.028 67.732C239.924 67.732 241.616 68.14 243.104 68.956C244.616 69.772 245.78 70.936 246.596 72.448C247.436 73.936 247.856 75.652 247.856 77.596ZM242.636 76.156C242.612 74.86 242.144 73.828 241.232 73.06C240.32 72.268 239.204 71.872 237.884 71.872C236.636 71.872 235.58 72.256 234.716 73.024C233.876 73.768 233.36 74.812 233.168 76.156H242.636ZM276.303 67.768C278.751 67.768 280.719 68.524 282.207 70.036C283.719 71.524 284.475 73.612 284.475 76.3V88H279.435V76.984C279.435 75.424 279.039 74.236 278.247 73.42C277.455 72.58 276.375 72.16 275.007 72.16C273.639 72.16 272.547 72.58 271.731 73.42C270.939 74.236 270.543 75.424 270.543 76.984V88H265.503V76.984C265.503 75.424 265.107 74.236 264.315 73.42C263.523 72.58 262.443 72.16 261.075 72.16C259.683 72.16 258.579 72.58 257.763 73.42C256.971 74.236 256.575 75.424 256.575 76.984V88H251.535V68.056H256.575V70.468C257.223 69.628 258.051 68.968 259.059 68.488C260.091 68.008 261.219 67.768 262.443 67.768C264.003 67.768 265.395 68.104 266.619 68.776C267.843 69.424 268.791 70.36 269.463 71.584C270.111 70.432 271.047 69.508 272.271 68.812C273.519 68.116 274.863 67.768 276.303 67.768ZM306.512 88.252C304.76 88.252 303.176 87.952 301.76 87.352C300.368 86.752 299.264 85.888 298.448 84.76C297.632 83.632 297.212 82.3 297.188 80.764H302.588C302.66 81.796 303.02 82.612 303.668 83.212C304.34 83.812 305.252 84.112 306.404 84.112C307.58 84.112 308.504 83.836 309.176 83.284C309.848 82.708 310.184 81.964 310.184 81.052C310.184 80.308 309.956 79.696 309.5 79.216C309.044 78.736 308.468 78.364 307.772 78.1C307.1 77.812 306.164 77.5 304.964 77.164C303.332 76.684 302 76.216 300.968 75.76C299.96 75.28 299.084 74.572 298.34 73.636C297.62 72.676 297.26 71.404 297.26 69.82C297.26 68.332 297.632 67.036 298.376 65.932C299.12 64.828 300.164 63.988 301.508 63.412C302.852 62.812 304.388 62.512 306.116 62.512C308.708 62.512 310.808 63.148 312.416 64.42C314.048 65.668 314.948 67.42 315.116 69.676H309.572C309.524 68.812 309.152 68.104 308.456 67.552C307.784 66.976 306.884 66.688 305.756 66.688C304.772 66.688 303.98 66.94 303.38 67.444C302.804 67.948 302.516 68.68 302.516 69.64C302.516 70.312 302.732 70.876 303.164 71.332C303.62 71.764 304.172 72.124 304.82 72.412C305.492 72.676 306.428 72.988 307.628 73.348C309.26 73.828 310.592 74.308 311.624 74.788C312.656 75.268 313.544 75.988 314.288 76.948C315.032 77.908 315.404 79.168 315.404 80.728C315.404 82.072 315.056 83.32 314.36 84.472C313.664 85.624 312.644 86.548 311.3 87.244C309.956 87.916 308.36 88.252 306.512 88.252ZM328.629 88.324C326.709 88.324 324.981 87.904 323.445 87.064C321.909 86.2 320.697 84.988 319.809 83.428C318.945 81.868 318.513 80.068 318.513 78.028C318.513 75.988 318.957 74.188 319.845 72.628C320.757 71.068 321.993 69.868 323.553 69.028C325.113 68.164 326.853 67.732 328.773 67.732C330.693 67.732 332.433 68.164 333.993 69.028C335.553 69.868 336.777 71.068 337.665 72.628C338.577 74.188 339.033 75.988 339.033 78.028C339.033 80.068 338.565 81.868 337.629 83.428C336.717 84.988 335.469 86.2 333.885 87.064C332.325 87.904 330.573 88.324 328.629 88.324ZM328.629 83.932C329.541 83.932 330.393 83.716 331.185 83.284C332.001 82.828 332.649 82.156 333.129 81.268C333.609 80.38 333.849 79.3 333.849 78.028C333.849 76.132 333.345 74.68 332.337 73.672C331.353 72.64 330.141 72.124 328.701 72.124C327.261 72.124 326.049 72.64 325.065 73.672C324.105 74.68 323.625 76.132 323.625 78.028C323.625 79.924 324.093 81.388 325.029 82.42C325.989 83.428 327.189 83.932 328.629 83.932ZM347.77 61.36V88H342.73V61.36H347.77ZM361.066 83.356L366.106 68.056H371.47L364.09 88H357.97L350.626 68.056H356.026L361.066 83.356ZM376.856 65.68C375.968 65.68 375.224 65.404 374.624 64.852C374.048 64.276 373.76 63.568 373.76 62.728C373.76 61.888 374.048 61.192 374.624 60.64C375.224 60.064 375.968 59.776 376.856 59.776C377.744 59.776 378.476 60.064 379.052 60.64C379.652 61.192 379.952 61.888 379.952 62.728C379.952 63.568 379.652 64.276 379.052 64.852C378.476 65.404 377.744 65.68 376.856 65.68ZM379.34 68.056V88H374.3V68.056H379.34ZM395.372 67.768C397.748 67.768 399.668 68.524 401.132 70.036C402.596 71.524 403.328 73.612 403.328 76.3V88H398.288V76.984C398.288 75.4 397.892 74.188 397.1 73.348C396.308 72.484 395.228 72.052 393.86 72.052C392.468 72.052 391.364 72.484 390.548 73.348C389.756 74.188 389.36 75.4 389.36 76.984V88H384.32V68.056H389.36V70.54C390.032 69.676 390.884 69.004 391.916 68.524C392.972 68.02 394.124 67.768 395.372 67.768ZM415.933 67.732C417.421 67.732 418.729 68.032 419.857 68.632C420.985 69.208 421.873 69.964 422.521 70.9V68.056H427.597V88.144C427.597 89.992 427.225 91.636 426.481 93.076C425.737 94.54 424.621 95.692 423.133 96.532C421.645 97.396 419.845 97.828 417.733 97.828C414.901 97.828 412.573 97.168 410.749 95.848C408.949 94.528 407.929 92.728 407.689 90.448H412.693C412.957 91.36 413.521 92.08 414.385 92.608C415.273 93.16 416.341 93.436 417.589 93.436C419.053 93.436 420.241 92.992 421.153 92.104C422.065 91.24 422.521 89.92 422.521 88.144V85.048C421.873 85.984 420.973 86.764 419.821 87.388C418.693 88.012 417.397 88.324 415.933 88.324C414.253 88.324 412.717 87.892 411.325 87.028C409.933 86.164 408.829 84.952 408.013 83.392C407.221 81.808 406.825 79.996 406.825 77.956C406.825 75.94 407.221 74.152 408.013 72.592C408.829 71.032 409.921 69.832 411.289 68.992C412.681 68.152 414.229 67.732 415.933 67.732ZM422.521 78.028C422.521 76.804 422.281 75.76 421.801 74.896C421.321 74.008 420.673 73.336 419.857 72.88C419.041 72.4 418.165 72.16 417.229 72.16C416.293 72.16 415.429 72.388 414.637 72.844C413.845 73.3 413.197 73.972 412.693 74.86C412.213 75.724 411.973 76.756 411.973 77.956C411.973 79.156 412.213 80.212 412.693 81.124C413.197 82.012 413.845 82.696 414.637 83.176C415.453 83.656 416.317 83.896 417.229 83.896C418.165 83.896 419.041 83.668 419.857 83.212C420.673 82.732 421.321 82.06 421.801 81.196C422.281 80.308 422.521 79.252 422.521 78.028Z" fill="black"/>
<defs>
<filter id="filter0_f_26_25" x="0" y="0" width="641" height="311" filterUnits="userSpaceOnUse" color-interpolation-filters="sRGB">
<feFlood flood-opacity="0" result="BackgroundImageFix"/>
<feBlend mode="normal" in="SourceGraphic" in2="BackgroundImageFix" result="shape"/>
<feGaussianBlur stdDeviation="10.5" result="effect1_foregroundBlur_26_25"/>
</filter>
<linearGradient id="paint0_linear_26_25" x1="82.6283" y1="54" x2="116.538" y2="88.7378" gradientUnits="userSpaceOnUse">
<stop stop-color="#E04D4D"/>
<stop offset="1" stop-color="#F9C1C1"/>
<stop offset="1" stop-color="#F9C1C1"/>
</linearGradient>
</defs>
</svg>
