<svg width="641" height="252" viewBox="0 0 641 252" fill="none" xmlns="http://www.w3.org/2000/svg">
<g filter="url(#filter0_f_25_132)">
<rect x="21" y="21" width="599" height="210" rx="30" fill="#E9CACD" fill-opacity="0.74"/>
</g>
<rect x="21" y="15" width="599" height="210" rx="30" fill="white"/>
<path d="M140.452 64.872V80.424C140.452 82.128 140.896 83.436 141.784 84.348C142.672 85.236 143.92 85.68 145.528 85.68C147.16 85.68 148.42 85.236 149.308 84.348C150.196 83.436 150.64 82.128 150.64 80.424V64.872H155.716V80.388C155.716 82.524 155.248 84.336 154.312 85.824C153.4 87.288 152.164 88.392 150.604 89.136C149.068 89.88 147.352 90.252 145.456 90.252C143.584 90.252 141.88 89.88 140.344 89.136C138.832 88.392 137.632 87.288 136.744 85.824C135.856 84.336 135.412 82.524 135.412 80.388V64.872H140.452ZM165.626 64.872V90H160.586V64.872H165.626ZM184.105 55.908L174.385 96.516H169.453L179.173 55.908H184.105ZM193.081 64.872V80.424C193.081 82.128 193.525 83.436 194.413 84.348C195.301 85.236 196.549 85.68 198.157 85.68C199.789 85.68 201.049 85.236 201.937 84.348C202.825 83.436 203.269 82.128 203.269 80.424V64.872H208.345V80.388C208.345 82.524 207.877 84.336 206.941 85.824C206.029 87.288 204.793 88.392 203.233 89.136C201.697 89.88 199.981 90.252 198.085 90.252C196.213 90.252 194.509 89.88 192.973 89.136C191.461 88.392 190.261 87.288 189.373 85.824C188.485 84.336 188.041 82.524 188.041 80.388V64.872H193.081ZM228.262 90L222.826 81.54L217.894 90H212.206L220.126 77.328L212.098 64.872H217.894L223.33 73.296L228.226 64.872H233.914L226.03 77.508L234.058 90H228.262ZM255.256 64.872C257.896 64.872 260.212 65.388 262.204 66.42C264.22 67.452 265.768 68.928 266.848 70.848C267.952 72.744 268.504 74.952 268.504 77.472C268.504 79.992 267.952 82.2 266.848 84.096C265.768 85.968 264.22 87.42 262.204 88.452C260.212 89.484 257.896 90 255.256 90H246.472V64.872H255.256ZM255.076 85.716C257.716 85.716 259.756 84.996 261.196 83.556C262.636 82.116 263.356 80.088 263.356 77.472C263.356 74.856 262.636 72.816 261.196 71.352C259.756 69.864 257.716 69.12 255.076 69.12H251.512V85.716H255.076ZM290.817 79.596C290.817 80.316 290.769 80.964 290.673 81.54H276.093C276.213 82.98 276.717 84.108 277.605 84.924C278.493 85.74 279.585 86.148 280.881 86.148C282.753 86.148 284.085 85.344 284.877 83.736H290.313C289.737 85.656 288.633 87.24 287.001 88.488C285.369 89.712 283.365 90.324 280.989 90.324C279.069 90.324 277.341 89.904 275.805 89.064C274.293 88.2 273.105 86.988 272.241 85.428C271.401 83.868 270.981 82.068 270.981 80.028C270.981 77.964 271.401 76.152 272.241 74.592C273.081 73.032 274.257 71.832 275.769 70.992C277.281 70.152 279.021 69.732 280.989 69.732C282.885 69.732 284.577 70.14 286.065 70.956C287.577 71.772 288.741 72.936 289.557 74.448C290.397 75.936 290.817 77.652 290.817 79.596ZM285.597 78.156C285.573 76.86 285.105 75.828 284.193 75.06C283.281 74.268 282.165 73.872 280.845 73.872C279.597 73.872 278.541 74.256 277.677 75.024C276.837 75.768 276.321 76.812 276.129 78.156H285.597ZM302.128 90.324C300.496 90.324 299.032 90.036 297.736 89.46C296.44 88.86 295.408 88.056 294.64 87.048C293.896 86.04 293.488 84.924 293.416 83.7H298.492C298.588 84.468 298.96 85.104 299.608 85.608C300.28 86.112 301.108 86.364 302.092 86.364C303.052 86.364 303.796 86.172 304.324 85.788C304.876 85.404 305.152 84.912 305.152 84.312C305.152 83.664 304.816 83.184 304.144 82.872C303.496 82.536 302.452 82.176 301.012 81.792C299.524 81.432 298.3 81.06 297.34 80.676C296.404 80.292 295.588 79.704 294.892 78.912C294.22 78.12 293.884 77.052 293.884 75.708C293.884 74.604 294.196 73.596 294.82 72.684C295.468 71.772 296.38 71.052 297.556 70.524C298.756 69.996 300.16 69.732 301.768 69.732C304.144 69.732 306.04 70.332 307.456 71.532C308.872 72.708 309.652 74.304 309.796 76.32H304.972C304.9 75.528 304.564 74.904 303.964 74.448C303.388 73.968 302.608 73.728 301.624 73.728C300.712 73.728 300.004 73.896 299.5 74.232C299.02 74.568 298.78 75.036 298.78 75.636C298.78 76.308 299.116 76.824 299.788 77.184C300.46 77.52 301.504 77.868 302.92 78.228C304.36 78.588 305.548 78.96 306.484 79.344C307.42 79.728 308.224 80.328 308.896 81.144C309.592 81.936 309.952 82.992 309.976 84.312C309.976 85.464 309.652 86.496 309.004 87.408C308.38 88.32 307.468 89.04 306.268 89.568C305.092 90.072 303.712 90.324 302.128 90.324ZM316.669 67.68C315.781 67.68 315.037 67.404 314.437 66.852C313.861 66.276 313.573 65.568 313.573 64.728C313.573 63.888 313.861 63.192 314.437 62.64C315.037 62.064 315.781 61.776 316.669 61.776C317.557 61.776 318.289 62.064 318.865 62.64C319.465 63.192 319.765 63.888 319.765 64.728C319.765 65.568 319.465 66.276 318.865 66.852C318.289 67.404 317.557 67.68 316.669 67.68ZM319.153 70.056V90H314.113V70.056H319.153ZM331.944 69.732C333.432 69.732 334.74 70.032 335.868 70.632C336.996 71.208 337.884 71.964 338.532 72.9V70.056H343.608V90.144C343.608 91.992 343.236 93.636 342.492 95.076C341.748 96.54 340.632 97.692 339.144 98.532C337.656 99.396 335.856 99.828 333.744 99.828C330.912 99.828 328.584 99.168 326.76 97.848C324.96 96.528 323.94 94.728 323.7 92.448H328.704C328.968 93.36 329.532 94.08 330.396 94.608C331.284 95.16 332.352 95.436 333.6 95.436C335.064 95.436 336.252 94.992 337.164 94.104C338.076 93.24 338.532 91.92 338.532 90.144V87.048C337.884 87.984 336.984 88.764 335.832 89.388C334.704 90.012 333.408 90.324 331.944 90.324C330.264 90.324 328.728 89.892 327.336 89.028C325.944 88.164 324.84 86.952 324.024 85.392C323.232 83.808 322.836 81.996 322.836 79.956C322.836 77.94 323.232 76.152 324.024 74.592C324.84 73.032 325.932 71.832 327.3 70.992C328.692 70.152 330.24 69.732 331.944 69.732ZM338.532 80.028C338.532 78.804 338.292 77.76 337.812 76.896C337.332 76.008 336.684 75.336 335.868 74.88C335.052 74.4 334.176 74.16 333.24 74.16C332.304 74.16 331.44 74.388 330.648 74.844C329.856 75.3 329.208 75.972 328.704 76.86C328.224 77.724 327.984 78.756 327.984 79.956C327.984 81.156 328.224 82.212 328.704 83.124C329.208 84.012 329.856 84.696 330.648 85.176C331.464 85.656 332.328 85.896 333.24 85.896C334.176 85.896 335.052 85.668 335.868 85.212C336.684 84.732 337.332 84.06 337.812 83.196C338.292 82.308 338.532 81.252 338.532 80.028ZM359.583 69.768C361.959 69.768 363.879 70.524 365.343 72.036C366.807 73.524 367.539 75.612 367.539 78.3V90H362.499V78.984C362.499 77.4 362.103 76.188 361.311 75.348C360.519 74.484 359.439 74.052 358.071 74.052C356.679 74.052 355.575 74.484 354.759 75.348C353.967 76.188 353.571 77.4 353.571 78.984V90H348.531V70.056H353.571V72.54C354.243 71.676 355.095 71.004 356.127 70.524C357.183 70.02 358.335 69.768 359.583 69.768Z" fill="black"/>
<circle cx="88" cy="80" r="24" fill="url(#paint0_linear_25_132)"/>
<path fill-rule="evenodd" clip-rule="evenodd" d="M91.5 67H83.5C82.12 67 81 68.12 81 69.5V86.5C81 87.88 82.12 89 83.5 89H91.5C92.88 89 94 87.88 94 86.5V69.5C94 68.12 92.88 67 91.5 67ZM87.5 88C86.67 88 86 87.33 86 86.5C86 85.67 86.67 85 87.5 85C88.33 85 89 85.67 89 86.5C89 87.33 88.33 88 87.5 88ZM83 84H92V70H83V84Z" fill="white"/>
<g filter="url(#filter1_i_25_132)">
<rect x="60" y="126" width="134" height="57" rx="28.5" fill="#FBF5F0"/>
</g>
<g filter="url(#filter2_i_25_132)">
<rect x="220" y="126" width="166" height="57" rx="28.5" fill="#FBF5F0"/>
</g>
<g filter="url(#filter3_i_25_132)">
<rect x="406" y="126" width="122" height="57" rx="28.5" fill="#FBF5F0"/>
</g>
<path d="M99.0418 146.32V148.552H91.9618V153.472H97.4818V155.704H91.9618V163H89.2258V146.32H99.0418ZM102.969 148.024C102.473 148.024 102.057 147.856 101.721 147.52C101.385 147.184 101.217 146.768 101.217 146.272C101.217 145.776 101.385 145.36 101.721 145.024C102.057 144.688 102.473 144.52 102.969 144.52C103.449 144.52 103.857 144.688 104.193 145.024C104.529 145.36 104.697 145.776 104.697 146.272C104.697 146.768 104.529 147.184 104.193 147.52C103.857 147.856 103.449 148.024 102.969 148.024ZM104.313 149.776V163H101.577V149.776H104.313ZM113.233 149.56C114.257 149.56 115.161 149.768 115.945 150.184C116.745 150.584 117.369 151.088 117.817 151.696V149.776H120.577V163.216C120.577 164.432 120.321 165.512 119.809 166.456C119.297 167.416 118.553 168.168 117.577 168.712C116.617 169.256 115.465 169.528 114.121 169.528C112.329 169.528 110.841 169.104 109.657 168.256C108.473 167.424 107.801 166.288 107.641 164.848H110.353C110.561 165.536 111.001 166.088 111.673 166.504C112.361 166.936 113.177 167.152 114.121 167.152C115.225 167.152 116.113 166.816 116.785 166.144C117.473 165.472 117.817 164.496 117.817 163.216V161.008C117.353 161.632 116.721 162.16 115.921 162.592C115.137 163.008 114.241 163.216 113.233 163.216C112.081 163.216 111.025 162.928 110.065 162.352C109.121 161.76 108.369 160.944 107.809 159.904C107.265 158.848 106.993 157.656 106.993 156.328C106.993 155 107.265 153.824 107.809 152.8C108.369 151.776 109.121 150.984 110.065 150.424C111.025 149.848 112.081 149.56 113.233 149.56ZM117.817 156.376C117.817 155.464 117.625 154.672 117.241 154C116.873 153.328 116.385 152.816 115.777 152.464C115.169 152.112 114.513 151.936 113.809 151.936C113.105 151.936 112.449 152.112 111.841 152.464C111.233 152.8 110.737 153.304 110.353 153.976C109.985 154.632 109.801 155.416 109.801 156.328C109.801 157.24 109.985 158.04 110.353 158.728C110.737 159.416 111.233 159.944 111.841 160.312C112.465 160.664 113.121 160.84 113.809 160.84C114.513 160.84 115.169 160.664 115.777 160.312C116.385 159.96 116.873 159.448 117.241 158.776C117.625 158.088 117.817 157.288 117.817 156.376ZM140.179 149.56C141.219 149.56 142.147 149.776 142.963 150.208C143.795 150.64 144.443 151.28 144.907 152.128C145.387 152.976 145.627 154 145.627 155.2V163H142.915V155.608C142.915 154.424 142.619 153.52 142.027 152.896C141.435 152.256 140.627 151.936 139.603 151.936C138.579 151.936 137.763 152.256 137.155 152.896C136.563 153.52 136.267 154.424 136.267 155.608V163H133.555V155.608C133.555 154.424 133.259 153.52 132.667 152.896C132.075 152.256 131.267 151.936 130.243 151.936C129.219 151.936 128.403 152.256 127.795 152.896C127.203 153.52 126.907 154.424 126.907 155.608V163H124.171V149.776H126.907V151.288C127.355 150.744 127.923 150.32 128.611 150.016C129.299 149.712 130.035 149.56 130.819 149.56C131.875 149.56 132.819 149.784 133.651 150.232C134.483 150.68 135.123 151.328 135.571 152.176C135.971 151.376 136.595 150.744 137.443 150.28C138.291 149.8 139.203 149.56 140.179 149.56ZM148.197 156.328C148.197 155 148.469 153.824 149.013 152.8C149.573 151.776 150.325 150.984 151.269 150.424C152.229 149.848 153.285 149.56 154.437 149.56C155.477 149.56 156.381 149.768 157.149 150.184C157.933 150.584 158.557 151.088 159.021 151.696V149.776H161.781V163H159.021V161.032C158.557 161.656 157.925 162.176 157.125 162.592C156.325 163.008 155.413 163.216 154.389 163.216C153.253 163.216 152.213 162.928 151.269 162.352C150.325 161.76 149.573 160.944 149.013 159.904C148.469 158.848 148.197 157.656 148.197 156.328ZM159.021 156.376C159.021 155.464 158.829 154.672 158.445 154C158.077 153.328 157.589 152.816 156.981 152.464C156.373 152.112 155.717 151.936 155.013 151.936C154.309 151.936 153.653 152.112 153.045 152.464C152.437 152.8 151.941 153.304 151.557 153.976C151.189 154.632 151.005 155.416 151.005 156.328C151.005 157.24 151.189 158.04 151.557 158.728C151.941 159.416 152.437 159.944 153.045 160.312C153.669 160.664 154.325 160.84 155.013 160.84C155.717 160.84 156.373 160.664 156.981 160.312C157.589 159.96 158.077 159.448 158.445 158.776C158.829 158.088 159.021 157.288 159.021 156.376Z" fill="#E04D4D"/>
<path d="M260.235 159.592H253.251L252.051 163H249.195L255.171 146.296H258.339L264.315 163H261.435L260.235 159.592ZM259.467 157.36L256.755 149.608L254.019 157.36H259.467ZM266.001 156.328C266.001 155 266.273 153.824 266.817 152.8C267.377 151.776 268.129 150.984 269.073 150.424C270.033 149.848 271.097 149.56 272.265 149.56C273.129 149.56 273.977 149.752 274.809 150.136C275.657 150.504 276.329 151 276.825 151.624V145.24H279.585V163H276.825V161.008C276.377 161.648 275.753 162.176 274.953 162.592C274.169 163.008 273.265 163.216 272.241 163.216C271.089 163.216 270.033 162.928 269.073 162.352C268.129 161.76 267.377 160.944 266.817 159.904C266.273 158.848 266.001 157.656 266.001 156.328ZM276.825 156.376C276.825 155.464 276.633 154.672 276.249 154C275.881 153.328 275.393 152.816 274.785 152.464C274.177 152.112 273.521 151.936 272.817 151.936C272.113 151.936 271.457 152.112 270.849 152.464C270.241 152.8 269.745 153.304 269.361 153.976C268.993 154.632 268.809 155.416 268.809 156.328C268.809 157.24 268.993 158.04 269.361 158.728C269.745 159.416 270.241 159.944 270.849 160.312C271.473 160.664 272.129 160.84 272.817 160.84C273.521 160.84 274.177 160.664 274.785 160.312C275.393 159.96 275.881 159.448 276.249 158.776C276.633 158.088 276.825 157.288 276.825 156.376ZM288.915 163.216C287.667 163.216 286.539 162.936 285.531 162.376C284.523 161.8 283.731 161 283.155 159.976C282.579 158.936 282.291 157.736 282.291 156.376C282.291 155.032 282.587 153.84 283.179 152.8C283.771 151.76 284.579 150.96 285.603 150.4C286.627 149.84 287.771 149.56 289.035 149.56C290.299 149.56 291.443 149.84 292.467 150.4C293.491 150.96 294.299 151.76 294.891 152.8C295.483 153.84 295.779 155.032 295.779 156.376C295.779 157.72 295.475 158.912 294.867 159.952C294.259 160.992 293.427 161.8 292.371 162.376C291.331 162.936 290.179 163.216 288.915 163.216ZM288.915 160.84C289.619 160.84 290.275 160.672 290.883 160.336C291.507 160 292.011 159.496 292.395 158.824C292.779 158.152 292.971 157.336 292.971 156.376C292.971 155.416 292.787 154.608 292.419 153.952C292.051 153.28 291.563 152.776 290.955 152.44C290.347 152.104 289.691 151.936 288.987 151.936C288.283 151.936 287.627 152.104 287.019 152.44C286.427 152.776 285.955 153.28 285.603 153.952C285.251 154.608 285.075 155.416 285.075 156.376C285.075 157.8 285.435 158.904 286.155 159.688C286.891 160.456 287.811 160.84 288.915 160.84ZM301.22 151.744C301.684 151.104 302.316 150.584 303.116 150.184C303.932 149.768 304.836 149.56 305.828 149.56C306.996 149.56 308.052 149.84 308.996 150.4C309.94 150.96 310.684 151.76 311.228 152.8C311.772 153.824 312.044 155 312.044 156.328C312.044 157.656 311.772 158.848 311.228 159.904C310.684 160.944 309.932 161.76 308.972 162.352C308.028 162.928 306.98 163.216 305.828 163.216C304.804 163.216 303.892 163.016 303.092 162.616C302.308 162.216 301.684 161.704 301.22 161.08V163H298.484V145.24H301.22V151.744ZM309.26 156.328C309.26 155.416 309.068 154.632 308.684 153.976C308.316 153.304 307.82 152.8 307.196 152.464C306.588 152.112 305.932 151.936 305.228 151.936C304.54 151.936 303.884 152.112 303.26 152.464C302.652 152.816 302.156 153.328 301.772 154C301.404 154.672 301.22 155.464 301.22 156.376C301.22 157.288 301.404 158.088 301.772 158.776C302.156 159.448 302.652 159.96 303.26 160.312C303.884 160.664 304.54 160.84 305.228 160.84C305.932 160.84 306.588 160.664 307.196 160.312C307.82 159.944 308.316 159.416 308.684 158.728C309.068 158.04 309.26 157.24 309.26 156.328ZM326.869 156.064C326.869 156.56 326.837 157.008 326.773 157.408H316.669C316.749 158.464 317.141 159.312 317.845 159.952C318.549 160.592 319.413 160.912 320.437 160.912C321.909 160.912 322.949 160.296 323.557 159.064H326.509C326.109 160.28 325.381 161.28 324.325 162.064C323.285 162.832 321.989 163.216 320.437 163.216C319.173 163.216 318.037 162.936 317.029 162.376C316.037 161.8 315.253 161 314.677 159.976C314.117 158.936 313.837 157.736 313.837 156.376C313.837 155.016 314.109 153.824 314.653 152.8C315.213 151.76 315.989 150.96 316.981 150.4C317.989 149.84 319.141 149.56 320.437 149.56C321.685 149.56 322.797 149.832 323.773 150.376C324.749 150.92 325.509 151.688 326.053 152.68C326.597 153.656 326.869 154.784 326.869 156.064ZM324.013 155.2C323.997 154.192 323.637 153.384 322.933 152.776C322.229 152.168 321.357 151.864 320.317 151.864C319.373 151.864 318.565 152.168 317.893 152.776C317.221 153.368 316.821 154.176 316.693 155.2H324.013ZM337.218 154.672L342.402 163H339.33L335.562 156.952L332.034 163H328.986L334.17 154.672L328.962 146.32H332.034L335.826 152.416L339.378 146.32H342.426L337.218 154.672ZM350.853 146.32C352.629 146.32 354.181 146.664 355.509 147.352C356.853 148.024 357.885 149 358.605 150.28C359.341 151.544 359.709 153.024 359.709 154.72C359.709 156.416 359.341 157.888 358.605 159.136C357.885 160.384 356.853 161.344 355.509 162.016C354.181 162.672 352.629 163 350.853 163H345.405V146.32H350.853ZM350.853 160.768C352.805 160.768 354.301 160.24 355.341 159.184C356.381 158.128 356.901 156.64 356.901 154.72C356.901 152.784 356.381 151.272 355.341 150.184C354.301 149.096 352.805 148.552 350.853 148.552H348.141V160.768H350.853Z" fill="#E04D4D"/>
<path d="M463.364 146.32V163H460.628V151.576L455.54 163H453.644L448.532 151.576V163H445.796V146.32H448.748L454.604 159.4L460.436 146.32H463.364ZM468.352 148.024C467.856 148.024 467.44 147.856 467.104 147.52C466.768 147.184 466.6 146.768 466.6 146.272C466.6 145.776 466.768 145.36 467.104 145.024C467.44 144.688 467.856 144.52 468.352 144.52C468.832 144.52 469.24 144.688 469.576 145.024C469.912 145.36 470.08 145.776 470.08 146.272C470.08 146.768 469.912 147.184 469.576 147.52C469.24 147.856 468.832 148.024 468.352 148.024ZM469.696 149.776V163H466.96V149.776H469.696ZM476.024 151.696C476.424 151.024 476.952 150.504 477.608 150.136C478.28 149.752 479.072 149.56 479.984 149.56V152.392H479.288C478.216 152.392 477.4 152.664 476.84 153.208C476.296 153.752 476.024 154.696 476.024 156.04V163H473.288V149.776H476.024V151.696ZM488.235 163.216C486.987 163.216 485.859 162.936 484.851 162.376C483.843 161.8 483.051 161 482.475 159.976C481.899 158.936 481.611 157.736 481.611 156.376C481.611 155.032 481.907 153.84 482.499 152.8C483.091 151.76 483.899 150.96 484.923 150.4C485.947 149.84 487.091 149.56 488.355 149.56C489.619 149.56 490.763 149.84 491.787 150.4C492.811 150.96 493.619 151.76 494.211 152.8C494.803 153.84 495.099 155.032 495.099 156.376C495.099 157.72 494.795 158.912 494.187 159.952C493.579 160.992 492.747 161.8 491.691 162.376C490.651 162.936 489.499 163.216 488.235 163.216ZM488.235 160.84C488.939 160.84 489.595 160.672 490.203 160.336C490.827 160 491.331 159.496 491.715 158.824C492.099 158.152 492.291 157.336 492.291 156.376C492.291 155.416 492.107 154.608 491.739 153.952C491.371 153.28 490.883 152.776 490.275 152.44C489.667 152.104 489.011 151.936 488.307 151.936C487.603 151.936 486.947 152.104 486.339 152.44C485.747 152.776 485.275 153.28 484.923 153.952C484.571 154.608 484.395 155.416 484.395 156.376C484.395 157.8 484.755 158.904 485.475 159.688C486.211 160.456 487.131 160.84 488.235 160.84Z" fill="#E04D4D"/>
<defs>
<filter id="filter0_f_25_132" x="0" y="0" width="641" height="252" filterUnits="userSpaceOnUse" color-interpolation-filters="sRGB">
<feFlood flood-opacity="0" result="BackgroundImageFix"/>
<feBlend mode="normal" in="SourceGraphic" in2="BackgroundImageFix" result="shape"/>
<feGaussianBlur stdDeviation="10.5" result="effect1_foregroundBlur_25_132"/>
</filter>
<filter id="filter1_i_25_132" x="60" y="126" width="134" height="59.1923" filterUnits="userSpaceOnUse" color-interpolation-filters="sRGB">
<feFlood flood-opacity="0" result="BackgroundImageFix"/>
<feBlend mode="normal" in="SourceGraphic" in2="BackgroundImageFix" result="shape"/>
<feColorMatrix in="SourceAlpha" type="matrix" values="0 0 0 0 0 0 0 0 0 0 0 0 0 0 0 0 0 0 127 0" result="hardAlpha"/>
<feOffset dy="2.19231"/>
<feGaussianBlur stdDeviation="3.28846"/>
<feComposite in2="hardAlpha" operator="arithmetic" k2="-1" k3="1"/>
<feColorMatrix type="matrix" values="0 0 0 0 0.820833 0 0 0 0 0.563789 0 0 0 0 0.376215 0 0 0 0.22 0"/>
<feBlend mode="normal" in2="shape" result="effect1_innerShadow_25_132"/>
</filter>
<filter id="filter2_i_25_132" x="220" y="126" width="166" height="59.1923" filterUnits="userSpaceOnUse" color-interpolation-filters="sRGB">
<feFlood flood-opacity="0" result="BackgroundImageFix"/>
<feBlend mode="normal" in="SourceGraphic" in2="BackgroundImageFix" result="shape"/>
<feColorMatrix in="SourceAlpha" type="matrix" values="0 0 0 0 0 0 0 0 0 0 0 0 0 0 0 0 0 0 127 0" result="hardAlpha"/>
<feOffset dy="2.19231"/>
<feGaussianBlur stdDeviation="3.28846"/>
<feComposite in2="hardAlpha" operator="arithmetic" k2="-1" k3="1"/>
<feColorMatrix type="matrix" values="0 0 0 0 0.820833 0 0 0 0 0.563789 0 0 0 0 0.376215 0 0 0 0.22 0"/>
<feBlend mode="normal" in2="shape" result="effect1_innerShadow_25_132"/>
</filter>
<filter id="filter3_i_25_132" x="406" y="126" width="122" height="59.1923" filterUnits="userSpaceOnUse" color-interpolation-filters="sRGB">
<feFlood flood-opacity="0" result="BackgroundImageFix"/>
<feBlend mode="normal" in="SourceGraphic" in2="BackgroundImageFix" result="shape"/>
<feColorMatrix in="SourceAlpha" type="matrix" values="0 0 0 0 0 0 0 0 0 0 0 0 0 0 0 0 0 0 127 0" result="hardAlpha"/>
<feOffset dy="2.19231"/>
<feGaussianBlur stdDeviation="3.28846"/>
<feComposite in2="hardAlpha" operator="arithmetic" k2="-1" k3="1"/>
<feColorMatrix type="matrix" values="0 0 0 0 0.820833 0 0 0 0 0.563789 0 0 0 0 0.376215 0 0 0 0.22 0"/>
<feBlend mode="normal" in2="shape" result="effect1_innerShadow_25_132"/>
</filter>
<linearGradient id="paint0_linear_25_132" x1="82.6283" y1="56" x2="116.538" y2="90.7378" gradientUnits="userSpaceOnUse">
<stop stop-color="#E04D4D"/>
<stop offset="1" stop-color="#F9C1C1"/>
<stop offset="1" stop-color="#F9C1C1"/>
</linearGradient>
</defs>
</svg>
